<?xml version="1.0" encoding="iso-8859-1"?>
<!-- Uploaded to: SVG Repo, www.svgrepo.com, Generator: SVG Repo Mixer Tools -->
<svg height="800px" width="800px" version="1.1" id="Layer_1" xmlns="http://www.w3.org/2000/svg" xmlns:xlink="http://www.w3.org/1999/xlink" 
	 viewBox="0 0 503.893 503.893" xml:space="preserve">
<g transform="translate(1 1)">
	<path style="fill:#AE938D;" d="M70.254,37.4v290.133H1.987V37.4c0-18.773,15.36-34.133,34.133-34.133S70.254,18.627,70.254,37.4"/>
	<path style="fill:#ECF4F7;" d="M445.72,336.067c0-56.32-46.08-102.4-102.4-102.4s-102.4,46.08-102.4,102.4s46.08,102.4,102.4,102.4
		c22.187,0,42.667-7.68,58.88-19.627l27.307,27.307L428.654,447l-51.2,51.2l-25.6-25.6l-25.6,25.6l-42.667-42.667L240.92,498.2
		l-34.133-34.133L172.654,498.2l-51.2-51.2l-51.2,51.2V327.534V37.4c0-18.773-15.36-34.133-34.133-34.133h392.533
		c18.773,0,34.133,15.36,34.133,34.133v392.533l-0.853,0.853l-35.84-35.84c9.387-11.093,15.36-29.013,15.36-29.013
		C444.014,355.693,445.72,346.307,445.72,336.067"/>
	<path style="fill:#50DD8E;" d="M411.587,336.067c0-31.573-22.187-58.88-51.2-66.56c-5.12-1.707-11.093-2.56-17.067-2.56
		c-12.8,0-23.893,3.413-34.133,9.387l0,0c-20.48,11.947-34.133,34.133-34.133,58.88c0,37.547,30.72,68.267,68.267,68.267
		S411.587,373.613,411.587,336.067L411.587,336.067z M491.8,460.653c6.827,6.827,6.827,17.067,0,23.893s-17.067,6.827-23.893,0
		l-38.4-38.4L402.2,418.84c-16.213,11.947-36.693,19.627-58.88,19.627c-56.32,0-102.4-46.08-102.4-102.4s46.08-102.4,102.4-102.4
		s102.4,46.08,102.4,102.4c0,10.24-1.707,19.627-4.267,29.013c0,0-6.827,17.92-15.36,29.013l35.84,35.84L491.8,460.653z"/>
	<path style="fill:#E4F2DE;" d="M360.387,270.36c29.013,7.68,51.2,34.133,51.2,66.56c0,37.547-30.72,68.267-68.267,68.267
		s-68.267-30.72-68.267-68.267c0-25.6,13.653-46.933,34.133-58.88l0,0c10.24-5.973,21.333-9.387,34.133-9.387
		C349.294,267.8,355.267,268.653,360.387,270.36"/>
</g>
<path style="fill:#51565F;" d="M378.454,503.467c-0.853,0-2.56,0-3.413-0.853l-22.187-22.187l-22.187,22.187
	c-1.707,1.707-4.267,1.707-5.973,0L285.44,463.36l-39.253,39.253c-1.707,1.707-4.267,1.707-5.973,0l-30.72-30.72l-30.72,30.72
	c-1.707,1.707-4.267,1.707-5.973,0l-47.787-47.787l-47.787,47.787c0,0-0.853,0.853-1.707,0.853s-0.853,0-1.707,0l0,0l0,0l0,0l0,0
	l0,0l0,0l0,0l0,0l0,0c-0.853,0-0.853,0-1.707,0s-0.853-0.853-1.707-0.853l0,0l0,0l0,0l0,0l0,0l0,0l0,0l-0.853-0.853
	c0-0.853,0-0.853,0-1.707v-460.8c0-16.213-13.653-29.867-29.867-29.867S9.813,23.04,9.813,39.253V325.12H39.68
	c2.56,0,4.267,1.707,4.267,4.267s-1.707,4.267-4.267,4.267H5.546c-2.56,0-4.267-1.707-4.267-4.267V39.253
	c0-21.333,17.067-38.4,38.4-38.4s38.4,17.067,38.4,38.4v450.56l43.52-43.52c1.707-1.707,4.267-1.707,5.973,0l47.787,47.787
	l30.72-30.72c1.707-1.707,4.267-1.707,5.973,0l30.72,30.72l39.253-39.253c1.707-1.707,4.267-1.707,5.973,0l39.253,39.253
	l22.187-22.187c1.707-1.707,4.267-1.707,5.973,0L377.6,494.08l22.187-22.187c1.707-1.707,4.267-1.707,5.973,0
	c1.707,1.707,1.707,4.267,0,5.973l-25.6,25.6C381.014,503.467,379.307,503.467,378.454,503.467z M480.854,494.933
	c-5.12,0-11.093-1.707-15.36-5.973l-63.147-63.147c-17.92,11.947-38.4,17.92-58.88,17.92c-58.88,0-106.667-47.787-106.667-106.667
	S284.587,230.4,343.467,230.4s106.667,47.787,106.667,106.667c0,10.24-1.707,20.48-4.267,30.72v0.853l-13.653,26.453l64,64
	c8.533,8.533,8.533,22.187,0,29.867C491.947,493.227,485.974,494.933,480.854,494.933z M403.2,415.573c0.853,0,2.56,0,3.413,0.853
	l65.707,65.707c5.12,5.12,12.8,5.12,17.92,0c5.12-5.12,5.12-12.8,0-17.92l-65.707-65.707c-1.707-1.707-1.707-3.413-0.853-5.12
	l15.36-29.013c2.56-8.533,4.267-17.92,4.267-27.307c0-53.76-44.373-98.133-98.133-98.133s-98.133,44.373-98.133,98.133
	s44.373,98.133,98.133,98.133c19.627,0,39.253-6.827,56.32-18.773C401.494,416.427,402.347,415.573,403.2,415.573z M344.32,409.6
	c-40.107,0-72.533-32.427-72.533-72.533c0-26.453,14.507-50.347,35.84-62.293c0,0,0.853,0,0.853-0.853
	c10.24-5.973,23.04-9.387,35.84-9.387c5.973,0,11.947,0.853,17.92,2.56c0,0,0,0,0.853,0c30.72,8.533,53.76,36.693,53.76,69.973
	C416.854,377.173,384.427,409.6,344.32,409.6z M305.92,285.867c-15.36,11.947-25.6,29.867-25.6,51.2c0,34.987,29.013,64,64,64
	s64-29.013,64-64c0-28.16-17.92-51.2-42.667-60.587v69.12c0,2.56-1.707,4.267-4.267,4.267s-4.267-1.707-4.267-4.267v-70.827
	c-14.507-2.56-29.867-0.853-42.667,5.973V345.6c0,2.56-1.707,4.267-4.267,4.267c-2.56,0-4.267-1.707-4.267-4.267V285.867z
	 M207.787,384c-2.56,0-4.267-1.707-4.267-4.267v-17.067c0-2.56,1.707-4.267,4.267-4.267s4.267,1.707,4.267,4.267v17.067
	C212.054,382.293,210.347,384,207.787,384z M173.654,384c-2.56,0-4.267-1.707-4.267-4.267v-17.067c0-2.56,1.707-4.267,4.267-4.267
	s4.267,1.707,4.267,4.267v17.067C177.92,382.293,176.214,384,173.654,384z M122.454,384c-2.56,0-4.267-1.707-4.267-4.267v-17.067
	c0-2.56,1.707-4.267,4.267-4.267s4.267,1.707,4.267,4.267v17.067C126.72,382.293,125.014,384,122.454,384z M207.787,332.8
	c-2.56,0-4.267-1.707-4.267-4.267V89.6c0-2.56,1.707-4.267,4.267-4.267s4.267,1.707,4.267,4.267v238.933
	C212.054,331.093,210.347,332.8,207.787,332.8z M173.654,332.8c-2.56,0-4.267-1.707-4.267-4.267V89.6
	c0-2.56,1.707-4.267,4.267-4.267s4.267,1.707,4.267,4.267v238.933C177.92,331.093,176.214,332.8,173.654,332.8z M122.454,332.8
	c-2.56,0-4.267-1.707-4.267-4.267V89.6c0-2.56,1.707-4.267,4.267-4.267s4.267,1.707,4.267,4.267v238.933
	C126.72,331.093,125.014,332.8,122.454,332.8z M463.787,273.067c-2.56,0-4.267-1.707-4.267-4.267V38.4
	c0-16.213-13.653-29.867-29.867-29.867h-332.8c-2.56,0-4.267-1.707-4.267-4.267S94.294,0,96.854,0h332.8
	c21.333,0,38.4,17.067,38.4,38.4v230.4C468.054,271.36,466.347,273.067,463.787,273.067z M258.987,230.4
	c-2.56,0-4.267-1.707-4.267-4.267V89.6c0-2.56,1.707-4.267,4.267-4.267s4.267,1.707,4.267,4.267v136.533
	C263.254,228.693,261.547,230.4,258.987,230.4z M412.587,221.867c-2.56,0-4.267-1.707-4.267-4.267v-128
	c0-2.56,1.707-4.267,4.267-4.267s4.267,1.707,4.267,4.267v128C416.854,220.16,415.147,221.867,412.587,221.867z M378.454,204.8
	c-2.56,0-4.267-1.707-4.267-4.267V89.6c0-2.56,1.707-4.267,4.267-4.267s4.267,1.707,4.267,4.267v110.933
	C382.72,203.093,381.014,204.8,378.454,204.8z M327.254,204.8c-2.56,0-4.267-1.707-4.267-4.267V89.6c0-2.56,1.707-4.267,4.267-4.267
	s4.267,1.707,4.267,4.267v110.933C331.52,203.093,329.814,204.8,327.254,204.8z"/>
</svg>