<svg fill="none" height="48" viewBox="0 0 48 48" width="48" xmlns="http://www.w3.org/2000/svg" xmlns:xlink="http://www.w3.org/1999/xlink"><mask id="a" height="48" maskUnits="userSpaceOnUse" width="48" x="0" y="0"><path d="m0 0h48v48h-48z" fill="#fff"/></mask><g mask="url(#a)"><circle cx="40" cy="40" fill="#ff2750" r="7" stroke="#fff" stroke-width="2"/><g fill="#fff"><path d="m38.5303 37.4697c-.2929-.2929-.7677-.2929-1.0606 0s-.2929.7677 0 1.0606zm2.9394 5.0606c.2929.2929.7677.2929 1.0606 0s.2929-.7677 0-1.0606zm-4-4 4 4 1.0606-1.0606-4-4z"/><path d="m41.4697 37.4697c.2929-.2929.7677-.2929 1.0606 0s.2929.7677 0 1.0606zm-2.9394 5.0606c-.2929.2929-.7677.2929-1.0606 0s-.2929-.7677 0-1.0606zm4-4-4 4-1.0606-1.0606 4-4z"/></g></g></svg>