<?xml version="1.0" encoding="UTF-8"?>
<svg xmlns="http://www.w3.org/2000/svg" fill="none" viewBox="0 0 320 181" width="2400" height="1357.5"><mask id="a" width="320" height="181" x="0" y="0" maskUnits="userSpaceOnUse"><path fill="#fff" d="M0 .788h320v180H0z"/></mask><g mask="url(#a)"><path fill="#FFE8B3" fill-rule="evenodd" d="M303.64 102.829c-.027.3-.058.593-.089.893l-.012.107a79.318 79.318 0 0 1-.933 6.31 79.157 79.157 0 0 1-1.002 4.616c-.132.537-.271 1.07-.411 1.6-.104.394-.216.784-.325 1.174a78.604 78.604 0 0 1-2.168 6.473c-1.32 3.457-2.864 6.747-4.614 9.803a58.83 58.83 0 0 1-4.839 7.23c-2.229 2.833-4.656 5.33-7.258 7.403a34.777 34.777 0 0 1-3.859 2.684l-.279.166a154.792 154.792 0 0 1-7.296 4.097l-9.031 3.8-7.467 3.14c-16.785 5.29-35.788 5.967-70.425 6.05l-5.183.01c-1.011 0-2.032.003-3.07.003l-7.115.017-6.801.017-2.16.006c-3.298.027-6.569.067-9.813.11l-1.63.02c-2.93.04-5.837.084-8.721.12-.433.007-.867.01-1.301.017-3.909.05-7.772.087-11.581.093h-1.77c-.801 0-1.598-.003-2.392-.01a486.9 486.9 0 0 1-3.836-.026c-.19-.004-.379-.004-.569-.007-2.342-.03-4.657-.077-6.948-.143-7.32-.214-14.385-.644-21.14-1.427-.56-.067-1.122-.133-1.68-.203-11.19-1.407-21.51-3.834-30.685-7.94-6.104-2.727-11.698-6.194-16.715-10.594a62.136 62.136 0 0 1-7.138-7.403c-3.306-4.043-6.26-8.67-8.833-13.956a79.73 79.73 0 0 1-1.564-3.4c-.306-.704-.6-1.404-.883-2.097-.51-1.26-.987-2.507-1.432-3.737a88.022 88.022 0 0 1-1.83-5.67 29.21 29.21 0 0 1-.19-.686 76.025 76.025 0 0 1-1.893-8.81c-1.843-12.107-.183-22.493 3.402-31.183a56.124 56.124 0 0 1 7.37-12.76 59.776 59.776 0 0 1 2.985-3.603 63.81 63.81 0 0 1 4.03-4.1c.251-.23.503-.46.754-.687 6.175-5.54 12.724-9.227 17.826-11.067a26.383 26.383 0 0 1 1.417-.476c.263-.084.519-.16.77-.23.593-.164 1.181-.327 1.781-.49.046-.014.097-.027.143-.04.248-.067.492-.134.743-.2a312.417 312.417 0 0 1 16.669-3.98c2.226-.47 4.475-.924 6.747-1.354 20.919-3.996 43.564-6.45 66.039-7.336.023-.003.042-.003.065-.003a476.602 476.602 0 0 1 20.567-.377c3.875.013 7.726.073 11.547.187a433.274 433.274 0 0 1 12.313.526 370.555 370.555 0 0 1 21.937 1.884c2.114.243 4.208.51 6.275.79 9.527 1.296 18.515 2.966 26.745 5.016 1.486.367 2.938.747 4.37 1.14.321.09.639.177.96.27a146.65 146.65 0 0 1 11.458 3.697 114.068 114.068 0 0 1 2.543.976 96.311 96.311 0 0 1 8.067 3.61 55.572 55.572 0 0 1 5.385 3.12 51.66 51.66 0 0 1 7.088 5.59 50.632 50.632 0 0 1 6.696 7.734c2.826 4.013 5.04 8.37 6.689 12.94a60.381 60.381 0 0 1 1.804 5.936c.12.473.232.947.341 1.42.004.017.008.03.008.043.166.704.313 1.414.449 2.127l.116.627c.058.313.112.63.162.95.918 5.473 1.173 11.08.84 16.636-.054.94-.127 1.88-.22 2.817z" clip-rule="evenodd"/><mask id="b" width="338" height="180" x="-5" y="-11" maskUnits="userSpaceOnUse"><path fill="#fff" fill-rule="evenodd" d="M316.872 101.569c-.027.3-.61 1.305-.641 1.605 13.229-1.227 2.251 2.139-.011.107-.229 2.12 16.912-1.532 16.517.548a79.162 79.162 0 0 1-1.003 4.616c-.132.537-.271 1.07-.41 1.6-.105.394-.217.784-.325 1.174a78.604 78.604 0 0 1-2.168 6.473c-1.32 3.457-10.13 21.124-11.879 24.181-1.475 2.59-11.57 3.256-13.312 5.473-2.23 2.833-19.049-.981-21.651 1.092a34.777 34.777 0 0 1-3.859 2.684l-.279.166a154.31 154.31 0 0 1-7.297 4.097l-9.031 3.8-7.466 3.14c-16.785 5.29-35.787 5.967-70.425 6.05l-5.183.01c-1.01 0-2.032.003-3.07.003l-7.115.017-6.801.017-2.16.006c-3.298.027-6.569.067-9.813.11l-1.63.02c-2.93.04-5.837.084-8.721.12-.433.007-.867.01-1.3.017-3.91.05-7.773.087-11.582.093h-1.769c-.802 0-1.599-.003-2.393-.01a486.9 486.9 0 0 1-3.836-.026c-.19-.004-.379-.004-.569-.007-2.342-.03-4.657-.077-6.948-.143-7.32-.214-14.385-.644-21.14-1.427-.56-.067-1.122-.133-1.68-.203-11.19-1.407-21.51-3.834-30.685-7.94-6.104-2.727-11.698-6.194-16.715-10.594a61.531 61.531 0 0 1-2.78-2.596c-.83-.826-15.548-.245-16.345-1.131a60.12 60.12 0 0 1-1.916-2.24c-3.306-4.043-8.988-.663-11.562-5.949-.542-1.107-7.53-5.586-8.034-6.749-.306-.704-.6-1.404-.883-2.097-.51-1.26-.987-2.507-1.432-3.737a88.035 88.035 0 0 1-1.83-5.67c-.067-.23-.128-.456-.19-.686-.748-2.7 7.874-9.985 7.452-12.538a26.32 26.32 0 0 1-.147-.93c-1.843-12.107-4.072-15.796-.487-24.486 1.963-4.763 22.295-17.15 25.163-20.893a59.776 59.776 0 0 1 2.985-3.603 63.836 63.836 0 0 1 4.03-4.1c.251-.23.503-.46.754-.687 6.175-5.54 15.404-44.383 20.506-46.223a26.657 26.657 0 0 1 1.416-.477c.264-.083.52-.16.77-.23.593-.163 1.181-.327 1.781-.49l.144-.04.743-.2a312.324 312.324 0 0 1 16.668-3.98c2.226-.47 4.475-.923 6.747-1.353 20.919-3.997 43.564-6.45 66.039-7.337.023-.003.043-.003.066-.003a476.484 476.484 0 0 1 20.566-.377c3.875.013 7.727.073 11.547.187a433.495 433.495 0 0 1 12.314.526 370.72 370.72 0 0 1 21.937 1.884c2.113.243 4.207.51 6.275.79 9.526 1.296 18.514 2.966 26.744 5.016 1.486.367 2.938.747 4.37 1.14.322.09.639.177.96.27 4.042 1.13 5.19 37.524 8.779 38.854a114.994 114.994 0 0 1 2.543.976 96.279 96.279 0 0 1 8.067 3.61 55.551 55.551 0 0 1 5.385 3.12 51.65 51.65 0 0 1 7.087 5.59 50.584 50.584 0 0 1 6.697 7.734c2.826 4.013 14.941-12.304 16.59-7.734.701 1.944 5.335 22.197 5.835 24.207.12.474.232.947.34 1.42.004.017.008.03.008.044.166.703.313 1.413.449 2.126l.116.627c.058.313.112.63.163.95.917 5.473 1.173 11.08.84 16.636-.055.94-.827 3.023-.92 3.96z" clip-rule="evenodd"/></mask><g mask="url(#b)"><path fill="#FFD066" fill-rule="evenodd" d="M10 76.152c10.948-13.53 29.741 15.26 31.013 43.753C29.758 94.528-.948 89.681 10 76.152zm85.18 33.45c-1.648 22.271-36.472 68.521-35.166 55.165 2.715-27.772 36.814-77.436 35.166-55.165zm-36.068-18.35c16.096 9.664 1.479 58.691-9.968 84.343-4.736-53.332-6.128-94.007 9.968-84.343z" clip-rule="evenodd"/><path fill="#FFD066" fill-rule="evenodd" d="M4.245 111.441c.8 27.088 29.222 14.127 54.842 48.222-13.826-44.123-55.643-75.31-54.842-48.222zM69.119 88.63c-1.992-8.885 10.888-17.988 13.088 4.192 2.2 22.181-13.088 34.282-13.088 34.282 2.845-14.353 1.991-29.591 0-38.475z" clip-rule="evenodd"/><path fill="#FFB000" fill-rule="evenodd" d="M24.946 118.667c3.007 2 5.93 4.138 8.735 6.442 2.802 2.302 5.495 4.771 7.92 7.532 1.209 1.383 2.352 2.84 3.343 4.418.975 1.576 1.836 3.3 2.185 5.181a.512.512 0 0 1-.965.312l-.012-.026c-.732-1.548-1.715-2.962-2.851-4.278-1.123-1.323-2.34-2.578-3.604-3.796-2.529-2.434-5.219-4.734-7.95-6.997-2.736-2.26-5.524-4.475-8.324-6.691-2.794-2.225-5.612-4.433-8.364-6.764a.512.512 0 0 1 .565-.847c3.219 1.652 6.308 3.523 9.322 5.514zm29.056 20.489c-.125-.844-.248-1.691-.36-2.54a66.024 66.024 0 0 1-.357-5.097c-.121-3.4-.017-6.792.21-10.168.225-3.377.546-6.744 1.008-10.092.453-3.349.984-6.684 1.73-9.994a.511.511 0 0 1 1.01.131c-.119 3.37-.315 6.728-.515 10.078l-.592 10.037-.27 5.009c-.062 1.667-.169 3.337-.216 5.001-.115 3.332-.226 6.661-.079 9.986v.018a.511.511 0 0 1-1.005.145c-.205-.83-.385-1.67-.564-2.514zm-17.96-27.718c-1.557-3.329-3.144-6.643-4.833-9.906-1.697-3.259-3.485-6.471-5.431-9.566-.978-1.543-1.997-3.056-3.101-4.485-.272-.364-.567-.696-.85-1.05-.302-.321-.582-.683-.9-.984-.618-.628-1.279-1.222-2.015-1.608l-.023-.012a.512.512 0 0 1 .353-.952c1.033.238 1.915.755 2.727 1.313.421.272.793.581 1.184.885.362.32.75.628 1.091.968 1.414 1.328 2.677 2.779 3.858 4.28 2.353 3.01 4.394 6.225 6.219 9.55 1.817 3.327 3.444 6.762 4.705 10.348a52.415 52.415 0 0 1 1.625 5.469c.434 1.855.763 3.745.86 5.662a.516.516 0 0 1-.994.225 250.985 250.985 0 0 0-4.475-10.137zm35.412 7.9c.893-2.488 1.793-4.964 2.544-7.481.75-2.516 1.39-5.06 1.8-7.634.42-2.573.603-5.173.337-7.793l-.001-.01a.513.513 0 0 1 .99-.236c1.013 2.632 1.226 5.505 1.12 8.285-.128 2.794-.631 5.54-1.346 8.211-.723 2.668-1.639 5.28-2.846 7.758a35.44 35.44 0 0 1-2.003 3.615c-.748 1.16-1.552 2.29-2.496 3.317a.52.52 0 0 1-.87-.531l2.771-7.501zm5.574 17.515c.075-.748.22-1.475.408-2.182.366-1.419.942-2.746 1.516-4.062a93.654 93.654 0 0 1 1.82-3.89c.637-1.277 1.3-2.539 1.973-3.795a110.456 110.456 0 0 1 2.094-3.722 102.91 102.91 0 0 1 2.215-3.651 87.715 87.715 0 0 1 2.363-3.566c.41-.586.836-1.161 1.274-1.734.22-.287.448-.568.69-.849.122-.14.244-.279.383-.421.066-.07.145-.143.227-.216.054-.044.09-.076.16-.125a1.93 1.93 0 0 1 .124-.074 1.076 1.076 0 0 1 .139-.052.763.763 0 0 1 .168-.025.51.51 0 0 1 0 1.019.29.29 0 0 0 .105-.007c.017-.003.034-.01.05-.016.02-.009.03-.015.027-.012.005.002.01.002.014 0a.38.38 0 0 1-.039.051l-.129.176a8.46 8.46 0 0 0-.27.413c-.18.288-.35.59-.526.89-.347.603-.678 1.221-1.011 1.838-.67 1.233-1.307 2.488-1.958 3.734l-1.908 3.763-1.864 3.78a173.098 173.098 0 0 0-1.803 3.801 145.753 145.753 0 0 0-1.718 3.82c-.553 1.277-1.047 2.57-1.629 3.815-.57 1.254-1.184 2.462-1.808 3.704l-.015.029a.534.534 0 0 1-.999-.131c-.162-.781-.146-1.558-.073-2.303z" clip-rule="evenodd"/><path fill="#FFD066" fill-rule="evenodd" d="M299.133 145.011c11.133-.56 13.578-24.953-12.553-19.13s-30.484 35.323-30.484 35.323c14.346-10.583 31.904-15.634 43.037-16.193zm3.702-80.277c-10.948-13.53-29.741 15.26-31.013 43.753 11.255-25.377 41.961-30.224 31.013-43.753zm-85.18 33.45c1.648 22.271 36.472 68.521 35.166 55.165-2.715-27.772-36.814-77.436-35.166-55.165z" clip-rule="evenodd"/><path fill="#FFD066" fill-rule="evenodd" d="M253.723 79.834c-16.096 9.665-1.479 58.691 9.967 84.343 4.737-53.331 6.129-94.006-9.967-84.343z" clip-rule="evenodd"/><path fill="#FFD066" fill-rule="evenodd" d="M308.59 100.023c-.8 27.088-29.223 14.127-54.842 48.222 13.826-44.123 55.642-75.31 54.842-48.222zm-64.874-22.812c1.991-8.884-10.889-17.986-13.089 4.193-2.199 22.181 13.089 34.282 13.089 34.282-2.845-14.353-1.992-29.591 0-38.475z" clip-rule="evenodd"/><path fill="#FFB000" fill-rule="evenodd" d="M298.197 133.717a35.432 35.432 0 0 0-4.416-1.028 40.12 40.12 0 0 0-9.06-.472c-3.034.192-6.094.702-9.004 1.825-.727.278-1.438.608-2.128.983-.344.191-.69.371-1.019.593-.335.207-.66.428-.97.678-1.255.953-2.364 2.151-3.078 3.548a.511.511 0 0 0 .223.69.515.515 0 0 0 .611-.109l.009-.01c1.91-2.076 4.47-3.245 7.153-3.963 2.692-.72 5.519-1.028 8.358-1.15a61.701 61.701 0 0 1 4.281-.023c1.43.03 2.862.1 4.296.193 2.872.184 5.734.489 8.626.921l.006.001a.517.517 0 0 0 .325-.965c-1.34-.734-2.769-1.261-4.213-1.712zm-10.308-26.467c-3.008 2-5.93 4.137-8.735 6.441-2.803 2.302-5.495 4.772-7.921 7.532-1.208 1.383-2.351 2.84-3.342 4.418-.975 1.576-1.836 3.3-2.186 5.181a.512.512 0 0 0 .966.312l.012-.026c.731-1.548 1.714-2.962 2.851-4.277 1.122-1.324 2.341-2.579 3.603-3.797 2.529-2.434 5.219-4.734 7.951-6.997 2.735-2.26 5.523-4.475 8.324-6.691 2.794-2.225 5.612-4.433 8.363-6.764a.511.511 0 0 0-.564-.847c-3.219 1.652-6.308 3.523-9.322 5.515zm-29.056 20.488c.125-.844.248-1.691.36-2.54.177-1.696.312-3.4.356-5.097.122-3.4.018-6.792-.21-10.168a143.051 143.051 0 0 0-1.007-10.092c-.453-3.35-.984-6.684-1.731-9.993a.51.51 0 0 0-1.01.13c.119 3.37.316 6.728.516 10.078l.592 10.037.27 5.009c.061 1.668.168 3.337.215 5.001.116 3.332.227 6.661.08 9.986l-.001.018a.51.51 0 0 0 1.006.145c.205-.83.385-1.67.564-2.514zm17.96-27.718c1.557-3.329 3.144-6.643 4.833-9.906 1.696-3.259 3.484-6.471 5.431-9.565.978-1.544 1.997-3.057 3.101-4.486.272-.364.566-.696.849-1.05.302-.321.583-.683.9-.984.619-.628 1.279-1.222 2.016-1.608l.023-.012a.512.512 0 0 0-.353-.952c-1.033.238-1.916.756-2.728 1.313-.42.272-.793.581-1.183.885-.362.32-.75.628-1.091.968-1.414 1.328-2.677 2.779-3.858 4.28-2.354 3.01-4.394 6.225-6.219 9.55-1.817 3.327-3.444 6.762-4.706 10.348a52.573 52.573 0 0 0-1.625 5.469c-.434 1.855-.763 3.745-.858 5.662a.516.516 0 1 0 .993.225 250 250 0 0 1 4.475-10.137zm-35.413 7.9c-.892-2.488-1.792-4.964-2.543-7.481-.75-2.516-1.39-5.06-1.801-7.634-.42-2.573-.602-5.173-.336-7.793l.001-.01a.514.514 0 0 0-.989-.236c-1.014 2.632-1.227 5.505-1.121 8.285.128 2.794.631 5.54 1.345 8.211.723 2.668 1.639 5.28 2.846 7.758.6 1.24 1.263 2.45 2.004 3.615.748 1.16 1.552 2.29 2.496 3.317a.519.519 0 0 0 .869-.531l-2.771-7.501zm-5.573 17.515a13.985 13.985 0 0 0-.408-2.182c-.367-1.419-.942-2.746-1.516-4.062a95.096 95.096 0 0 0-1.819-3.89 149.753 149.753 0 0 0-1.975-3.795 109.4 109.4 0 0 0-2.093-3.722 104.26 104.26 0 0 0-2.215-3.651 88.68 88.68 0 0 0-2.363-3.566 50.269 50.269 0 0 0-1.274-1.734c-.22-.287-.448-.568-.69-.849a9.285 9.285 0 0 0-.383-.421 4.153 4.153 0 0 0-.227-.216c-.054-.043-.09-.076-.16-.125a2.033 2.033 0 0 0-.124-.074.88.88 0 0 0-.307-.077.51.51 0 0 0 0 1.019.283.283 0 0 1-.155-.023c-.019-.01-.03-.015-.027-.012a.02.02 0 0 1-.014 0c0 .004.026.036.039.05l.129.177c.09.127.181.27.271.413.179.288.35.59.525.89.347.603.677 1.221 1.011 1.838.669 1.233 1.307 2.488 1.958 3.734l1.908 3.763 1.864 3.78a175.447 175.447 0 0 1 1.803 3.801 147.082 147.082 0 0 1 1.718 3.82c.553 1.277 1.046 2.57 1.628 3.815.57 1.254 1.185 2.462 1.809 3.704l.015.029a.534.534 0 0 0 .998-.131c.163-.781.147-1.558.074-2.303z" clip-rule="evenodd"/><path fill="#231E2F" d="M211.39 25.639c-14.193 2.579-13.547 3.225-12.594 9.353.953 6.127-4.195 10.645 5.804 12.255 9.999 1.61 6.79-21.608 6.79-21.608z"/><path fill="#E97286" d="M166.832 164.965c-8.152-.868-15.726-21.326-18.494-31.446l37.555 10.03c-2.957 7.5-10.908 22.284-19.061 21.416zm115.248-45.711s3.835 32.941-.09 57.857c-17.094 1.248-21.966 3.145-21.966 3.145l1.986-56.73 20.07-4.272z"/><path fill="#5F33BA" d="M164.122 121.002c16.236-22.83 27.708-32.072 61.435-32.259 14.566-.082 26.164-.328 37.411 6.446 20.015 12.047 23.728 36.885 24.401 42.214a453.63 453.63 0 0 1-7.622 2.54 395.299 395.299 0 0 1-13.975 4.239 134.786 134.786 0 0 0 4.337 48.807c-93.091 9.583-80.743 10.267-80.798 10.952a.151.151 0 0 1-.043.06c-.093.071-9.309 6.571-13.69 4.151-5.35-2.979-.75-17.879 4.238-53.785a841.545 841.545 0 0 0 2.119-16.515l-17.813-16.85z"/><path fill="#47258B" d="M264.176 139.051c.929-27.6 11.486-34.634 9.633-21.301-1.852 13.332-5.557 17.596-5.557 17.596 7.41-9.075 8.515-17.408 8.515-17.408-.923 16.849-13.885 39.079-12.591 21.113z"/><path fill="#F69C93" d="M221.28 18.476c-5.219 2.607-11.801 3.746-15.88 9.014-1.671 2.157-3.472 5.503-3.686 20.775-.252 17.814-.372 26.723 4.633 31.607 4.868 4.743 12.595 4.88 19.122 5.055 12.261.323 18.711-16.428 18.711-16.428 8.384-.97 15.481-10.322 8.384-14.517 2.908-16.471-6.128-48.084-31.284-35.506z"/><path fill="#F69C93" d="M236.443 76.537l1.424 12.192 4.178 2.648c-6.971 7.447-14.84 9.523-23.481 7.173a22.837 22.837 0 0 1-10.831-6.85l3.143-1.686 3.313-13.154 22.254-.323z"/><path fill="#fff" fill-rule="evenodd" d="M250.05 146.688c-5.048 0-9.141-4.067-9.141-9.083 0-5.017 4.093-9.084 9.141-9.084s9.141 4.067 9.141 9.084c0 5.016-4.093 9.083-9.141 9.083z" clip-rule="evenodd"/><path fill="#5F33BA" fill-rule="evenodd" d="M250.05 142.795c-2.885 0-5.223-2.323-5.223-5.19 0-2.867 2.338-5.19 5.223-5.19s5.223 2.323 5.223 5.19c0 2.867-2.338 5.19-5.223 5.19z" clip-rule="evenodd"/><path fill="#231E2F" d="M246.76 33.973c-.324 14.835-.647 18.706 5.804 19.998 6.451 1.293 5.476-2.261 2.908-4.84 4.512-.646 1.61-5.159-2.585-6.774-.964-11.302-6.127-8.384-6.127-8.384zm-32.265-14.1c6.128 10.951 14.194 21.285 13.225 11.932 8.066 4.194 13.224-.646 13.224-.646l-26.449-11.286z"/><path fill="#5D33BA" d="M252.827 42.33c-.307-.307-.619-.608-.931-.91-20.639-19.56-50.538-13.317-50.538-13.317s-3.389-1.013-6.773-6.434c-.931-1.484-1.402-2.924-1.221-4.266.47-3.548 5.476-6.45 18.492-7.924 2.031-2.71 9.139-8.805 25.737-5.076 16.597 3.73 25.731 22.347 15.234 37.927z"/><path fill="#E97286" d="M213.302 83.69c6.352.547 14.878.432 22.549-2.257-8.936 7.442-19.313 8.827-22.549 2.256zm35.056-24.177c2.3-4.446 6.84-3.466 4.085.718-2.754 4.183-8.98 8.788-4.085-.718z"/><path fill="#E97286" d="M234.964 82.118c.4-.822-5.558 6.456-12.359 6.177 7.42 3.641 11.1-3.543 12.359-6.177zm-16.975-28.771c11.916 2.437 4.534 5.377.164 6.215-4.37.838-7.562-7.732-.164-6.215z"/><path fill="#231E2F" d="M217.595 66.183c-7.415-1.15-7.929 3.745.323 5.875s18.35-6.215 11.691-6.023c-6.659.192-6.522 1.002-12.014.148z"/><path fill="#231E2F" fill-rule="evenodd" d="M232.38 36.3c-3.834-.18-4.206-2.885-.23-3.154 0 0 6.062-.547 9.281 3.795l-9.051-.64zm-20.387-1.631c4.167.443 4.972-2.601.728-3.576 0 0-6.434-1.643-10.563 2.798l9.835.778z" clip-rule="evenodd"/><path fill="#fff" fill-rule="evenodd" d="M227.134 46.354c-2.333 8.51 10.596 9.052 11.231 1.43.635-7.623-9.545-7.557-11.231-1.43zm-12.42-2.404c-3.389-7.918-13.503-2.261-9.363 4.146 4.139 6.407 11.811 1.555 9.363-4.146z" clip-rule="evenodd"/><path fill="#231E2F" fill-rule="evenodd" d="M205.936 45.413c-.279 4.589 6.911 6.806 7.245.547.334-6.259-6.933-5.607-7.245-.547zm22.353 1.834c-.29 4.737 7.119 7.02 7.447.548.329-6.473-7.118-5.783-7.447-.548z" clip-rule="evenodd"/><path fill="#231E2F" d="M231.219 40.687a5.815 5.815 0 0 1 2.218-.641 5.572 5.572 0 0 1 2.332.29 4.967 4.967 0 0 1 2.01 1.26c.275.275.52.578.734.903.193.33.365.672.515 1.024a.267.267 0 0 1 .008.21.272.272 0 0 1-.446.097l-.033-.033c-.258-.247-.46-.548-.712-.767a7.784 7.784 0 0 0-.75-.673 5.682 5.682 0 0 0-1.698-.959 6.332 6.332 0 0 0-1.933-.367 9.441 9.441 0 0 0-2.037.165.275.275 0 0 1-.323-.22.282.282 0 0 1 .115-.29zm-26.213-.28a6.12 6.12 0 0 1 1.867-1.32 5.885 5.885 0 0 1 2.256-.547 5.12 5.12 0 0 1 2.289.427c.354.15.693.334 1.013.548.307.222.601.462.882.717a.272.272 0 0 1 .093.175.274.274 0 0 1-.411.269h-.027a9.312 9.312 0 0 0-1.851-.899 5.479 5.479 0 0 0-1.961-.312 5.84 5.84 0 0 0-1.966.39 8.233 8.233 0 0 0-1.812.957.268.268 0 0 1-.378-.065.276.276 0 0 1 .006-.34zm11.652 1.72c.241.975.411 1.955.548 2.94.137.986.263 1.972.339 2.963.077.991.148 1.982.148 2.984a13.837 13.837 0 0 1-.29 3.018.204.204 0 0 1-.094.129.216.216 0 0 1-.158.024.214.214 0 0 1-.153-.164 43.213 43.213 0 0 1-.701-5.881 60.306 60.306 0 0 1-.121-2.974c-.016-.99 0-1.987.066-2.99a.21.21 0 0 1 .07-.14.21.21 0 0 1 .149-.051.21.21 0 0 1 .122.04.21.21 0 0 1 .075.102zm.97 15.941c.466-.05.935-.05 1.401 0 .454.03.904.095 1.348.191.446.087.884.211 1.308.373a4.92 4.92 0 0 1 1.243.668.295.295 0 0 1-.12.531 5.335 5.335 0 0 1-1.407.066 8.472 8.472 0 0 1-1.342-.23 10.222 10.222 0 0 1-1.303-.411 6.852 6.852 0 0 1-1.249-.63.292.292 0 0 1-.126-.3.309.309 0 0 1 .044-.105.327.327 0 0 1 .203-.153z"/><path fill="#47258B" fill-rule="evenodd" d="M251.896 41.42c-20.639-19.56-50.538-13.317-50.538-13.317s-3.389-1.013-6.773-6.434c-.931-1.484-1.402-2.925-1.221-4.266 3.767-5.827 22.484-5.925 38.961-6.32 9.457-.226 15.782 10.591 19.571 30.337z" clip-rule="evenodd"/><path fill="#F69C93" d="M135.044 152.048c9.524-5.266 19.588-15.68 19.588-15.68l-15.909-7.062c-3.742 2.536-7.299 6.789-9.796 10.162-2.151 2.886-3.543 5.129-3.645 5.076-.204-.122 9.762 7.504 9.762 7.504z"/><path fill="#E97286" d="M139.281 133.012c-2.464 1.769-3.286 4.044-2.401 4.486.885.442 6.95-6.066 2.401-4.486z"/><path fill="#00C471" d="M150.525 86.194s66.454 16.396 104.983 18.693c-15.534 20.712-23.588 54.36-23.588 54.36-53.781-6.327-115.339-33.935-115.339-33.935s29.054-24.45 33.944-39.118z"/><path fill="#99F5CA" d="M154.509 92.17c10.324 2.56 20.425 4.683 31.57 6.912 22.537 4.482 40.046 7.769 60.15 9.9-10.736 13.913-15.448 26.211-18.963 43.43-24.327-4.369-46.477-8.827-69.818-16.956-11.246-3.893-22.003-8.439-31.916-12.717 7.825-1.55 24.84-18.149 28.977-30.57z"/><path fill="#00C471" d="M166.878 90.014c-9.964-2.243-16.353-3.82-16.353-3.82-.708 2.124-1.922 4.453-3.482 6.883 1.423 3.14 5.192 5.386 9.617 5.386 5.646 0 10.224-3.655 10.224-8.163 0-.096-.002-.191-.006-.286zm-50.106 35.136c.844-.717 4.384-3.756 8.897-8.005.434-.045.877-.068 1.326-.068 5.647 0 10.224 3.654 10.224 8.162 0 2.812-1.781 5.291-4.491 6.759-9.006-3.541-14.845-6.108-15.954-6.6-.002-.053-.002-.106-.002-.159v-.089zm114.998 34.079a251.429 251.429 0 0 1-15.641-2.376c-1.29-1.531-2.047-3.396-2.047-5.408 0-5.204 5.064-9.423 11.311-9.423 4.358 0 8.141 2.053 10.03 5.062-2.112 6.577-3.278 11.242-3.474 12.041l-.179.104zm22.815-53.084c-2.24 3.119-4.319 6.498-6.233 9.988-1.11.33-2.312.51-3.566.51-5.646 0-10.224-3.654-10.224-8.162 0-2.075.97-3.968 2.567-5.408 5.912.763 11.577 1.357 16.775 1.711.276.433.504.888.681 1.361zm-75.481 30.822c8.222 4.041 18.289.395 22.485-8.143 4.196-8.538.932-18.735-7.291-22.775-8.222-4.041-18.263 1.078-22.458 9.616-3.711 7.551-.958 17.262 7.264 21.302zm-22.871-18.564c-3.423 0-6.197-2.317-6.197-5.175 0-2.858 2.774-5.174 6.197-5.174 3.422 0 6.196 2.316 6.196 5.174 0 2.858-2.774 5.175-6.196 5.175zm64.284 15.407c-3.423 0-6.197-2.317-6.197-5.175 0-2.857 2.774-5.174 6.197-5.174 3.422 0 6.196 2.317 6.196 5.174 0 2.858-2.774 5.175-6.196 5.175z"/><path fill="#F69C93" d="M284.244 149.147c-10.069-22.036-27.477-43.254-41.367-32.119-13.889 11.134-21.218 22.848-.817 10.609-2.988 8.706-6.254 17.68-6.254 17.68 15.233-5.986 19.043-13.329 19.043-13.329 2.993 11.154 7.344 17.957 11.68 27.739 15.267-4.594 17.715-10.58 17.715-10.58zM147.206 93.624c1.09 16.868 0 17.953-1.631 18.225-1.63.273-5.168-9.246-5.168-9.246a75.795 75.795 0 0 1-12.512 12.512c1.63-10.609 1.63-15.778 8.974-21.764 7.344-5.986 10.337.273 10.337.273z"/><path fill="#E97286" d="M254.988 131.389c-.424-6.142.769-9.398.769-9.398 4.272 6.069.116 22.245-.769 9.398z"/><path fill="#F69C93" d="M148.129 67.94c1.854 2.472-7.728 3.09-7.728 3.09-1.996 9.568-5.402 16.956-10.06 21.073a13.747 13.747 0 0 1-8.799 3.655c-4.297.146-9.791-1.572-14.453-3.456a93.806 93.806 0 0 1-9.656-4.579c-.486 1.689-1.095 3.616-1.718 5.636-1.499 4.866-3.202 10.219-4.458 14.191l-1.868 5.835s-38.33 29.686-33.093 13.295c2.769-8.628 7.421-18.284 11.164-27.39 1.484-3.625 2.827-7.158 3.85-10.506 1.289-4.22 2.067-8.137 1.985-11.563-.307-12.98-.925-84.68 64.604-61.51 12.653 17.93 12.055 25.964 7.728 35.858-.42.948-.776 1.924-1.066 2.92-2.233 7.796 1.908 11.237 3.568 13.451z"/><path fill="#E97286" d="M95.715 93.359c-1.499 4.866-3.202 10.22-4.457 14.191a25.486 25.486 0 0 1-6.19 2.569c-5.578-7.3-11.481-9.952-17.579-10.838 1.484-3.625 2.828-7.158 3.85-10.507l24.376 4.585zm36.174 49.382l21.476 45.23-35.142 2.278s-11.714-27.01-11.061-34.495c.652-7.485 24.727-13.013 24.727-13.013z"/><path fill="#00C6CD" d="M108.816 163.769c1.543 6.813 4.015 10.818 4.015 10.818l-64.91-4.326c-17.307-7.728-19.467-10.512-19.467-10.512 9.246-11.436 15.763-25.963 17.617-33.998a14.115 14.115 0 0 1 2.044-4.711c3.406-5.139 9.957-8.322 16.502-10.745 11.228-4.161 21.321-6.901 30.11-7.237 14.04-.545 24.752 5.056 31.404 20.839 10.819 25.652 17.618 32.762 17.618 32.762s-8.121 3.895-13.665 5.339c-8.066 2.101-21.268 1.771-21.268 1.771z"/><path fill="#E97286" d="M130.341 92.103a13.747 13.747 0 0 1-8.799 3.655c-4.297.146-9.791-1.572-14.453-3.455-2.059-5.27-2.701-12.814 3.815-21.126 6.555 21.929 12.731 26.09 19.408 20.795l.029.131z"/><path fill="#3D3450" d="M140.045 15.207c7.139 5.226 17.583 15.855 14.97 23.233-2.185 6.146-13.306 9.47-16.96 10.556-7.787 2.336-12.595 1.387-14.444 4.963-.385.745-2.176 4.127-.896 10.512 2.394 11.987-16.512 7.46-10.653 21.039 5.859 13.578 8.273 16.78 8.273 16.78a366.796 366.796 0 0 1-57.752-7.884A366.743 366.743 0 0 1 16 80.891c4.988-2.058 11.967-5.888 16.936-13.1 6.132-8.96 3.348-14.722 9.733-21.9 6.385-7.179 11.962-4.38 20.883-11.563 9.68-7.845 7.066-14.381 14.157-21.545 13.514-13.7 43.984-11.018 62.336 2.424z"/><path fill="#231E2F" d="M21.393 78.247c3.945-2.28 8.199-5.603 11.543-10.456 2.94-4.295 3.83-7.855 4.664-11.189l.208-.828c1.03 10.753.667 19.57-16.415 22.473z"/><path fill="#231E2F" fill-rule="evenodd" d="M52.332 58.886c-.259 12.636 3.67 19.44 4.666 21.416.995 1.977 3.009 1.85 1.703-.503-1.306-2.352-6.8-18.056-6.369-20.913z" clip-rule="evenodd"/><path fill="#231E2F" fill-rule="evenodd" d="M55.718 87.826c1.198-7.94 3.324-18.695 3.687-20 .363-1.306 5.636-4.008 4.774 2.199-.863 6.205-.43 10.917-1.98 14.25-1.552 3.333-5.036 7.91-6.481 3.551zm8.438-3.279c1.054-4.98 1.369-18.025 1.369-18.025 2.67 9.844-2.229 25.406-1.37 18.025z" clip-rule="evenodd"/><path fill="#F69C93" d="M183.094 163.374c7.191-16.402 27.565-32.197 23.3-22.715-4.266 9.482-7.282 12.541-7.282 12.541s16.441 3.788 19.371 4.032c-11.983 11.791-34.862 17.928-34.862 17.928l-12.778-3.824 12.251-7.962z"/><path fill="#E97286" d="M199.201 153.22c1.3.299 16.478 3.779 19.282 4.012a38.701 38.701 0 0 1-1.861 1.714c-7.073-1.028-16.335-3.011-17.421-5.726z"/><path fill="#231E2F" d="M138.901 81.134a6.981 6.981 0 0 1-2.389-1.12 9.79 9.79 0 0 1-3.324-4.058 6.412 6.412 0 0 1-.579-2.59.247.247 0 0 1 .192-.294.248.248 0 0 1 .294.192 17.5 17.5 0 0 0 1.159 2.127 19.05 19.05 0 0 0 1.406 1.947 19.73 19.73 0 0 0 1.621 1.762 25.82 25.82 0 0 0 1.839 1.606.246.246 0 0 1 .084.264.239.239 0 0 1-.045.086.253.253 0 0 1-.258.078z"/><path fill="#F69C93" d="M129.984 132.673c5.937-4.035 10.974-8.176 13.218-6.273 2.243 1.902-10.42 12.098-10.42 12.098l-2.798-5.825z"/><path fill="#E97286" d="M140.4 71.046c-.36-4.999 2.974-13.705 4.176-16.547-2.263 7.787 1.878 11.247 3.538 13.461 1.869 2.453-7.714 3.086-7.714 3.086z"/><path fill="#3D3450" d="M123.839 61.395c1.412 10.283-2.316 13.369-8.998 15.038 9.125-.643 14.785-6.424 8.998-15.038zm18.532-7.65a9.128 9.128 0 0 1 1.655-.244c.535-.044 1.066-.048 1.586-.053h1.558c.516 0 1.022 0 1.591-.03a.264.264 0 0 1 .268.254.294.294 0 0 1-.073.19 3.96 3.96 0 0 1-1.582.9 7.081 7.081 0 0 1-3.47.121 5.006 5.006 0 0 1-1.64-.647.264.264 0 0 1-.074-.07.264.264 0 0 1-.004-.29.26.26 0 0 1 .156-.112l.029-.02z"/><path fill="#169FBF" d="M107.34 161.977s-8.594-24.751-15.89-27.523c-7.297-2.772-4.58 14.277 9.317 22.454-9.64-4.011-14.603-12.315-14.603-12.315s-1.755 12.553 21.176 17.384zm-12.598-58.919c-11.379 2.881-25.35 22.727-40.033 22.362-6.205-.156-7.373-2.117-6.58-4.38 3.407-5.139 9.957-8.322 16.503-10.745 11.208-4.161 21.301-6.901 30.11-7.237z"/><path fill="#169FBF" d="M84.906 111.234c7.441-9.037-14.244 13.106-23.554 14.245 12.726 1.138 20.897-11.018 23.554-14.245z"/><path fill="#231E2F" fill-rule="evenodd" d="M88.91 6.212c-1.708 1.102-3.13 1.989-4.341 2.78l-.734.497C78.36 13.257 77.7 15.7 73.705 32.516c-1.008 4.253-2.349 6.871-3.946 8.387a6.767 6.767 0 0 1-2.411 1.527c-6.271 2.336-15.09-5.008-22.793 1.522 2.556-3.12 5.866-5.11 9.421-5.667C74.294 35.235 64.275 17.15 84.588 8.08l.42-.186.67-.281a20.922 20.922 0 0 1 3.16-1.384l.072-.018z" clip-rule="evenodd"/><path fill="#231E2F" fill-rule="evenodd" d="M77.26 23.423c.416 5.374 4.704 13.831-5.121 16.86l5.122-16.86zm24.745 3.843c7.622-3.842 18.254-8.619 19.608-9.108 1.354-.49 6.932 2.404 1.021 5.475-5.911 3.07-9.732 6.34-13.555 7.03-3.823.688-9.968.532-7.074-3.397zm15.604 2.752c-5.635 9.772-29.55 8.57-31.297 30.484-.39 5.7.613 4.38 5.913-4.75 5.3-9.13 22.571-5.212 26.946-19.602s.185-8.327-1.562-6.132z" clip-rule="evenodd"/><path fill="#231E2F" fill-rule="evenodd" d="M124.411 30.999c-2.599 7.48-21.594 19.608-22.387 19.841-7.786 2.302-11.31 4.458-11.655 7.013 4.307-4.23 7.84-4.463 11.441-4.72 2.862-.205 5.772-.424 9.149-2.682 7.626-5.09 13.452-19.452 13.452-19.452zm-27.95 30.9c-1.034 13.99-1.357 25.716 9.438 34.11 4.571 3.35 6.046-.423.432-9.4-5.615-8.976-8.053-32.425-9.87-24.71z" clip-rule="evenodd"/><path fill="#231E2F" d="M137.855 49.055c-2.674.788-4.993 1.192-6.956 1.534-3.667.638-6.094 1.061-7.288 3.37a.179.179 0 0 0-.011.022c-.332.642-1.558 3.014-1.305 7.31-5.567-12.05-.502-13.291 16.119-12.658l-.559.422z"/></g></g></svg>
