<?xml version="1.0" encoding="UTF-8"?>
<svg xmlns="http://www.w3.org/2000/svg" xmlns:xlink="http://www.w3.org/1999/xlink" viewBox="0 0 20 20"><defs><path id="a" d="M16 18.397a4 4 0 1 0-8 0V21a1 1 0 0 1-1 1H4a2 2 0 0 1-2-2v-8.667a2 2 0 0 1 .72-1.536l8-7.333a2 2 0 0 1 2.56 0l8 7.333a2 2 0 0 1 .72 1.536V20a2 2 0 0 1-2 2h-3a1 1 0 0 1-1-1v-2.603z" style="fill: #5f33ba;"/></defs><g fill="none" fill-rule="evenodd" transform="translate(-2 -2)"><path fill="none" d="M0 0h24v24H0z"/><use fill="#594D75" xlink:href="#a"/></g></svg>
