<?xml version="1.0" encoding="UTF-8"?>
<svg xmlns="http://www.w3.org/2000/svg" xmlns:xlink="http://www.w3.org/1999/xlink" viewBox="0 0 20 22"><defs><path id="a" d="M9 22c0-1.105 6-1.105 6 0s-1.895 2-3 2-3-.895-3-2zm3-20a2 2 0 0 1 2 2c0 .093 0 .183-.003.268a7.604 7.604 0 0 1 5.584 6.708L20 16l1.414 1.414A2 2 0 0 1 22 18.828V19a1 1 0 0 1-1 1H3a1 1 0 0 1-1-1v-.172a2 2 0 0 1 .586-1.414L4 16l.419-5.024a7.61 7.61 0 0 1 5.583-6.71A15.897 15.897 0 0 1 10 4a2 2 0 0 1 2-2z" style="fill: #ffffff;"/></defs><g fill="none" fill-rule="evenodd" transform="translate(-2 -2)"><path fill="none" d="M0 0h24v24H0z"/><use fill="#594D75" xlink:href="#a"/></g></svg>
