<?xml version="1.0" encoding="UTF-8"?>
<svg xmlns="http://www.w3.org/2000/svg" xmlns:xlink="http://www.w3.org/1999/xlink" viewBox="0 0 22 22"><defs><path id="a" d="M13.414 2.1l1.9 1.9H18a2 2 0 0 1 2 2v2.687l1.9 1.899a2 2 0 0 1 0 2.828L20 15.313V18a2 2 0 0 1-2 2h-2.687l-1.899 1.9a2 2 0 0 1-2.828 0l-1.9-1.9H6a2 2 0 0 1-2-2v-2.686l-1.9-1.9a2 2 0 0 1 0-2.828l1.9-1.9V6a2 2 0 0 1 2-2h2.686l1.9-1.9a2 2 0 0 1 2.828 0zM15.5 14a1.5 1.5 0 1 0 0 3 1.5 1.5 0 0 0 0-3zm1.207-6.707a1 1 0 0 0-1.414 0l-8 8-.083.094a1 1 0 0 0 1.497 1.32l8-8 .083-.094a1 1 0 0 0-.083-1.32zM8.5 7a1.5 1.5 0 1 0 0 3 1.5 1.5 0 0 0 0-3z" style="fill: #ffffff;"/></defs><g fill="none" fill-rule="evenodd" transform="translate(-1 -1)"><path fill="none" d="M0 0h24v24H0z"/><use fill="#594D75" xlink:href="#a"/></g></svg>
