<svg xmlns="http://www.w3.org/2000/svg" xmlns:xlink="http://www.w3.org/1999/xlink" width="1080" zoomAndPan="magnify" viewBox="0 0 810 809.999993" height="1080" preserveAspectRatio="xMidYMid meet" version="1.0"><defs><clipPath id="id1"><path d="M 210 397 L 782 397 L 782 779 L 210 779 Z M 210 397 " clip-rule="nonzero"/></clipPath><clipPath id="id2"><path d="M -121.046875 404.996094 L 407.691406 -123.742188 L 936.429688 404.996094 L 407.691406 933.738281 Z M -121.046875 404.996094 " clip-rule="nonzero"/></clipPath><clipPath id="id3"><path d="M -121.046875 404.996094 L 407.691406 -123.742188 L 936.429688 404.996094 L 407.691406 933.738281 Z M -121.046875 404.996094 " clip-rule="nonzero"/></clipPath><clipPath id="id4"><path d="M 110 61 L 568 61 L 568 644 L 110 644 Z M 110 61 " clip-rule="nonzero"/></clipPath><clipPath id="id5"><path d="M -121.046875 404.996094 L 407.691406 -123.742188 L 936.429688 404.996094 L 407.691406 933.738281 Z M -121.046875 404.996094 " clip-rule="nonzero"/></clipPath><clipPath id="id6"><path d="M -121.046875 404.996094 L 407.691406 -123.742188 L 936.429688 404.996094 L 407.691406 933.738281 Z M -121.046875 404.996094 " clip-rule="nonzero"/></clipPath><clipPath id="id7"><path d="M 120 66 L 782 66 L 782 723 L 120 723 Z M 120 66 " clip-rule="nonzero"/></clipPath><clipPath id="id8"><path d="M -121.046875 404.996094 L 407.691406 -123.742188 L 936.429688 404.996094 L 407.691406 933.738281 Z M -121.046875 404.996094 " clip-rule="nonzero"/></clipPath><clipPath id="id9"><path d="M -121.046875 404.996094 L 407.691406 -123.742188 L 936.429688 404.996094 L 407.691406 933.738281 Z M -121.046875 404.996094 " clip-rule="nonzero"/></clipPath><clipPath id="id10"><path d="M 33 31 L 557 31 L 557 633 L 33 633 Z M 33 31 " clip-rule="nonzero"/></clipPath><clipPath id="id11"><path d="M -121.046875 404.996094 L 407.691406 -123.742188 L 936.429688 404.996094 L 407.691406 933.738281 Z M -121.046875 404.996094 " clip-rule="nonzero"/></clipPath><clipPath id="id12"><path d="M -121.046875 404.996094 L 407.691406 -123.742188 L 936.429688 404.996094 L 407.691406 933.738281 Z M -121.046875 404.996094 " clip-rule="nonzero"/></clipPath><clipPath id="id13"><path d="M 265 187.382812 L 545 187.382812 L 545 556 L 265 556 Z M 265 187.382812 " clip-rule="nonzero"/></clipPath><clipPath id="id14"><path d="M 267 684 L 543 684 L 543 702.632812 L 267 702.632812 Z M 267 684 " clip-rule="nonzero"/></clipPath><clipPath id="id15"><path d="M 375.199219 599.328125 L 440.449219 599.328125 L 440.449219 661.578125 L 375.199219 661.578125 Z M 375.199219 599.328125 " clip-rule="nonzero"/></clipPath></defs><rect x="-81" width="972" fill="#ffffff" y="-80.999999" height="971.999992" fill-opacity="1"/><rect x="-81" width="972" fill="#ffffff" y="-80.999999" height="971.999992" fill-opacity="1"/><rect x="-81" width="972" fill="#ffffff" y="-80.999999" height="971.999992" fill-opacity="1"/><g clip-path="url(#id1)"><g clip-path="url(#id2)"><g clip-path="url(#id3)"><path fill="#d7c3ff" d="M 377.101562 587.820312 C 288.609375 634.671875 229.609375 699.195312 210.050781 722.453125 C 354.339844 812.460938 546.65625 794.769531 672.0625 669.367188 C 746.964844 594.460938 783.425781 495.679688 781.476562 397.519531 C 759.011719 418.800781 734.753906 437.851562 709.246094 452.058594 C 589.707031 518.664062 493.222656 526.347656 377.101562 587.820312 " fill-opacity="1" fill-rule="nonzero"/></g></g></g><g clip-path="url(#id4)"><g clip-path="url(#id5)"><g clip-path="url(#id6)"><path fill="#f3ecfe" d="M 354.851562 339.335938 C 288.246094 373.425781 219.378906 408.679688 166.261719 491.363281 C 139.675781 532.757812 121.144531 580.125 110.984375 632.523438 C 113.953125 636.386719 117.023438 640.195312 120.160156 643.964844 C 129.613281 589.222656 148.210938 539.996094 175.597656 497.359375 C 189.484375 475.742188 204.527344 457.449219 220.386719 441.59375 C 263.332031 398.644531 312.21875 373.617188 359.902344 349.210938 C 404.601562 326.332031 447.667969 304.285156 482.957031 268.996094 C 501.855469 250.097656 518.527344 227.390625 532.003906 198.730469 C 554.058594 151.832031 563.421875 102.949219 567.332031 66.828125 C 563.777344 65.152344 560.207031 63.511719 556.617188 61.957031 C 552.800781 100.175781 543.484375 148.246094 521.960938 194.007812 C 484.9375 272.738281 421.746094 305.089844 354.851562 339.335938 " fill-opacity="1" fill-rule="nonzero"/></g></g></g><g clip-path="url(#id7)"><g clip-path="url(#id8)"><g clip-path="url(#id9)"><path fill="#e0cffe" d="M 482.957031 268.996094 C 447.667969 304.285156 404.601562 326.332031 359.902344 349.210938 C 312.21875 373.617188 263.332031 398.644531 220.386719 441.59375 C 204.527344 457.449219 189.484375 475.742188 175.597656 497.359375 C 148.210938 539.996094 129.613281 589.222656 120.160156 643.964844 C 127.429688 652.691406 135.132812 661.179688 143.320312 669.367188 C 163.925781 689.972656 186.339844 707.664062 210.050781 722.453125 C 229.609375 699.195312 288.609375 634.671875 377.101562 587.820312 C 493.222656 526.347656 589.707031 518.664062 709.246094 452.058594 C 734.753906 437.851562 759.011719 418.800781 781.476562 397.519531 C 779.625 304.34375 743.164062 211.730469 672.0625 140.628906 C 640.730469 109.296875 605.21875 84.710938 567.332031 66.828125 C 563.421875 102.949219 554.058594 151.832031 532.003906 198.730469 C 518.527344 227.390625 501.855469 250.097656 482.957031 268.996094 " fill-opacity="1" fill-rule="nonzero"/></g></g></g><g clip-path="url(#id10)"><g clip-path="url(#id11)"><g clip-path="url(#id12)"><path fill="#ebdfff" d="M 166.261719 491.363281 C 219.378906 408.679688 288.246094 373.425781 354.851562 339.335938 C 421.746094 305.089844 484.9375 272.738281 521.960938 194.007812 C 543.484375 148.246094 552.800781 100.175781 556.617188 61.957031 C 419.933594 2.667969 255.0625 28.886719 143.320312 140.628906 C 9.039062 274.910156 -1.730469 485.917969 110.984375 632.523438 C 121.144531 580.125 139.675781 532.757812 166.261719 491.363281 " fill-opacity="1" fill-rule="nonzero"/></g></g></g><g clip-path="url(#id13)"><path fill="#5f33ba" d="M 544.042969 187.355469 L 544.042969 358.03125 C 544.042969 358.03125 513.84375 441.941406 431.644531 462.925781 L 431.644531 555.820312 L 377.992188 555.820312 L 377.992188 462.925781 C 295.769531 441.941406 265.59375 358.03125 265.59375 358.03125 L 265.59375 187.355469 L 544.042969 187.355469 " fill-opacity="1" fill-rule="nonzero"/></g><path fill="#5f33ba" d="M 278.175781 365.769531 C 233.03125 356.628906 203.117188 327.125 191.570312 280.484375 C 183.214844 246.59375 187.707031 215.6875 187.886719 214.390625 L 189.445312 204.183594 L 280.566406 204.183594 L 280.566406 228.152344 L 210.640625 228.152344 C 209.085938 255.371094 211.859375 327.855469 282.925781 342.269531 L 278.175781 365.769531 " fill-opacity="1" fill-rule="nonzero"/><path fill="#5f33ba" d="M 531.460938 365.769531 L 526.710938 342.265625 C 597.75 327.878906 600.550781 255.398438 598.996094 228.152344 L 529.097656 228.152344 L 529.097656 204.183594 L 620.191406 204.183594 L 621.722656 214.390625 C 621.929688 215.6875 626.421875 246.59375 618.039062 280.484375 C 606.546875 327.125 576.605469 356.628906 531.460938 365.769531 " fill-opacity="1" fill-rule="nonzero"/><path fill="#a578ff" d="M 496.898438 578.3125 L 312.738281 578.3125 L 324.230469 555.820312 L 483.925781 555.820312 L 496.898438 578.3125 " fill-opacity="1" fill-rule="nonzero"/><path fill="#a578ff" d="M 522.585938 684.683594 L 287.050781 684.683594 L 287.050781 578.3125 L 522.585938 578.3125 L 522.585938 684.683594 " fill-opacity="1" fill-rule="nonzero"/><g clip-path="url(#id14)"><path fill="#5f33ba" d="M 542.046875 702.65625 L 267.59375 702.65625 L 267.59375 684.683594 L 542.046875 684.683594 L 542.046875 702.65625 " fill-opacity="1" fill-rule="nonzero"/></g><path fill="#5f33ba" d="M 478.660156 667.960938 L 330.976562 667.960938 L 330.976562 595.035156 L 478.660156 595.035156 L 478.660156 667.960938 " fill-opacity="1" fill-rule="nonzero"/><g clip-path="url(#id15)"><path fill="#f3ecfe" d="M 407.824219 599.328125 L 416.226562 618.277344 C 416.546875 619.003906 417.054688 619.636719 417.699219 620.105469 C 418.339844 620.570312 419.09375 620.863281 419.882812 620.945312 L 440.445312 623.105469 L 425.078125 636.976562 C 424.488281 637.511719 424.046875 638.191406 423.800781 638.949219 C 423.554688 639.707031 423.511719 640.515625 423.679688 641.292969 L 427.984375 661.582031 L 410.085938 651.203125 C 409.398438 650.804688 408.617188 650.59375 407.824219 650.59375 C 407.027344 650.59375 406.25 650.804688 405.5625 651.203125 L 387.660156 661.582031 L 391.96875 641.292969 C 392.132812 640.515625 392.089844 639.707031 391.84375 638.949219 C 391.601562 638.191406 391.160156 637.511719 390.570312 636.976562 L 375.199219 623.105469 L 395.761719 620.945312 C 396.550781 620.863281 397.304688 620.570312 397.949219 620.105469 C 398.589844 619.636719 399.097656 619.003906 399.421875 618.277344 Z M 407.824219 599.328125 " fill-opacity="1" fill-rule="evenodd"/></g></svg>