<?xml version="1.0" encoding="UTF-8"?>
<svg xmlns="http://www.w3.org/2000/svg" fill="none" viewBox="0 0 48 48" width="2400" height="2400"><mask id="a" style="mask-type:alpha" width="48" height="48" x="0" y="0" maskUnits="userSpaceOnUse"><path fill="#fff" d="M0 0h48v48H0z"/></mask><g mask="url(#a)"><circle cx="24" cy="24" r="24" fill="#E2D3FF"/><mask id="b" style="mask-type:alpha" width="48" height="48" x="0" y="0" maskUnits="userSpaceOnUse"><circle cx="24" cy="24" r="24" fill="#fff"/></mask><g mask="url(#b)"><path fill="#fff" fill-opacity=".5" d="M31.334 25.053C17.824 21.453 4.66 39.403 6.1 55.741l20.076 10.157 50.695-31.334c-2.285-3.538-2.985-4.926-26.543-25.224 6.14 12.892-6.424 19.063-18.995 15.713z"/><path fill="#D7C5FF" d="M5.802 13.632c1.906.35 16.803 1.925 22.808-13.337l.044-20.906-59.351 5.398c.464 4.186 8.383 16.58 20.398 45.26-.475-7.172 3.305-18.761 16.1-16.415z"/><path fill="#fff" fill-opacity=".5" d="M21.9 39.186C11.796 31.82-1.818 29.028-10.845 42.72L8.665 76.787l59.188 6.969c.41-4.193-4.468-23.38-10.304-53.923-3.205 13.915-26.371 16.117-35.65 9.353z"/><path fill="#5F33BA" fill-rule="evenodd" d="M14.25 12a1.5 1.5 0 0 0 0 3h.477L12 21a3 3 0 1 0 6 0 3 3 0 1 0 6 0 3 3 0 1 0 6 0 3 3 0 1 0 6 0l-2.87-6h.62a1.5 1.5 0 0 0 0-3h-19.5zm0 18a1.5 1.5 0 0 0-.75 2.8v.2a3 3 0 0 0 3 3h15a3 3 0 0 0 3-3v-.2a1.5 1.5 0 0 0-.75-2.8v-4.5s-.75.167-1.5 0c-.87-.193-1.5-.75-1.5-.75V30h-13.5v-5.25s-.63.557-1.5.75c-.75.167-1.5 0-1.5 0V30z" clip-rule="evenodd"/></g></g></svg>
