<svg xmlns="http://www.w3.org/2000/svg" fill="none" viewBox="0 0 321 180"><mask id="a" width="321" height="180" x="0" y="0" maskUnits="userSpaceOnUse"><path fill="#fff" d="M.599 0h320v180h-320z"/></mask><g mask="url(#a)"><path fill="#FFE8B3" fill-rule="evenodd" d="M304.239 102.041c-.027.3-.058.593-.089.893l-.012.107a79.776 79.776 0 0 1-.932 6.31 79.993 79.993 0 0 1-1.003 4.616c-.132.537-.271 1.07-.41 1.6-.105.394-.217.784-.326 1.174a78.224 78.224 0 0 1-2.167 6.473 70.156 70.156 0 0 1-4.614 9.803 58.83 58.83 0 0 1-4.839 7.23c-2.23 2.833-4.657 5.33-7.258 7.403a34.882 34.882 0 0 1-3.86 2.684l-.278.166a154.81 154.81 0 0 1-7.297 4.097l-9.031 3.8-7.467 3.14c-16.785 5.29-35.787 5.966-70.425 6.05l-5.183.01c-1.01 0-2.032.003-3.07.003l-7.114.017-6.802.016-2.16.007c-3.298.027-6.569.067-9.813.11l-1.629.02c-2.931.04-5.838.083-8.722.12-.433.007-.867.01-1.3.017-3.91.05-7.773.086-11.582.093h-1.769c-.801 0-1.599-.003-2.392-.01a442.772 442.772 0 0 1-3.837-.027c-.189-.003-.379-.003-.569-.006-2.341-.03-4.656-.077-6.948-.144-7.32-.213-14.384-.643-21.14-1.426-.56-.067-1.122-.134-1.68-.203-11.19-1.407-21.51-3.834-30.684-7.94-6.105-2.727-11.699-6.194-16.715-10.594a62.15 62.15 0 0 1-7.138-7.403c-3.306-4.043-6.26-8.67-8.834-13.956a79.854 79.854 0 0 1-1.564-3.4 96.6 96.6 0 0 1-2.315-5.834 88.086 88.086 0 0 1-1.83-5.67c-.066-.23-.128-.456-.19-.686a76.052 76.052 0 0 1-1.893-8.81c-1.843-12.107-.182-22.493 3.402-31.183a56.128 56.128 0 0 1 7.37-12.76 59.738 59.738 0 0 1 2.985-3.604 63.81 63.81 0 0 1 4.03-4.1c.252-.23.503-.46.755-.686 6.174-5.54 12.724-9.227 17.826-11.067a26.278 26.278 0 0 1 1.416-.476c.264-.084.52-.16.77-.23.593-.164 1.181-.327 1.781-.49l.144-.04c.247-.067.491-.134.743-.2a312.321 312.321 0 0 1 16.668-3.98c2.226-.47 4.475-.924 6.747-1.354 20.919-3.996 43.564-6.45 66.039-7.336.023-.004.043-.004.066-.004a476.384 476.384 0 0 1 20.566-.376c3.875.013 7.727.073 11.547.186a433.274 433.274 0 0 1 12.314.527 370.628 370.628 0 0 1 21.937 1.883c2.113.244 4.207.51 6.274.79 9.527 1.297 18.515 2.967 26.745 5.017 1.486.367 2.938.747 4.37 1.14.322.09.639.177.96.27 4.042 1.13 7.87 2.367 11.458 3.697.627.233 1.251.47 1.862.71a96.604 96.604 0 0 1 8.749 3.877 55.555 55.555 0 0 1 5.384 3.12 51.66 51.66 0 0 1 7.088 5.59 50.694 50.694 0 0 1 6.697 7.732c2.825 4.014 5.04 8.37 6.689 12.94a60.937 60.937 0 0 1 1.804 5.937c.12.473.232.947.34 1.42.004.017.008.03.008.043.166.704.314 1.414.449 2.127l.116.627c.058.313.112.63.163.95.917 5.473 1.173 11.08.84 16.636-.054.94-.128 1.88-.221 2.817z" clip-rule="evenodd"/><mask id="b" width="322" height="169" x="-17" y="-1" maskUnits="userSpaceOnUse"><path fill="#fff" fill-rule="evenodd" d="M304.371 102.041c-.027.3-.058.593-.089.893l-.012.107a79.293 79.293 0 0 1-.933 6.309 79.012 79.012 0 0 1-1.002 4.617c-.132.537-.271 1.07-.411 1.6-.104.393-.216.783-.325 1.173a78.622 78.622 0 0 1-2.167 6.474 70.1 70.1 0 0 1-4.615 9.803 58.825 58.825 0 0 1-4.838 7.23c-2.23 2.833-4.657 5.33-7.258 7.403a35.007 35.007 0 0 1-3.86 2.683c-.093.057-.186.11-.279.167a155.186 155.186 0 0 1-7.296 4.097l-9.031 3.8-7.467 3.14c-16.785 5.29-35.787 5.966-70.425 6.05l-5.183.01c-1.01 0-2.032.003-3.07.003l-7.115.017-6.801.016-2.16.007c-3.298.027-6.569.067-9.813.11l-1.629.02c-2.931.04-5.838.083-8.722.12-.433.007-.867.01-1.3.017-3.91.05-7.773.086-11.582.093h-1.769c-.802 0-1.599-.003-2.393-.01a442.822 442.822 0 0 1-3.836-.027c-.189-.003-.379-.003-.569-.006-2.342-.03-4.657-.077-6.948-.144-7.32-.213-14.385-.643-21.14-1.426-.56-.067-1.122-.134-1.68-.204-11.19-1.406-21.51-3.833-30.685-7.94-6.104-2.726-11.698-6.193-16.715-10.593a62.287 62.287 0 0 1-7.138-7.403c-3.305-4.043-6.259-8.67-8.833-13.957a78.608 78.608 0 0 1-1.564-3.4c-.306-.703-.6-1.403-.883-2.096-.51-1.26-.987-2.507-1.432-3.737a88.024 88.024 0 0 1-1.83-5.67c-.067-.23-.128-.457-.19-.687-.748-2.7-7.38-2.006-7.801-4.559-8.5 3.321-27.822 4.818-27.864 4.508C-18.125 98.543 2.146 45.744 5.73 37.054c1.963-4.763.537-19.696 3.405-23.439.964-1.26 1.42-1.71 2.446-2.853 1.308-1.457 12.66-3.853 14.03-5.127.252-.23 6.335-1.702 6.587-1.928 6.174-5.54 13.199 26.757 18.3 24.917.256-.093 3.911-1.94 4.163-2.023.22-.073 2.95 2.544 3.163 2.477.263-.083.635 2.713.887 2.643.592-.163.644 1.517 1.244 1.354.046-.014 1.473-.654 1.52-.667.247-.067-.252-.62 0-.687 5.376-1.447 6.454-11.468 12.175-12.675 2.226-.47 5.578 4.01 7.85 3.58l2.42-10.309c20.915-3.997 21.6-8.3 44.074-9.187.024-.003 21.789-3.13 21.812-3.13 3.914-.157 17.082 3.19 20.976 3.13 2.702-.04 10.454 2.352 13.141 2.355.223 0 12.875-1.747 9.812 2.08-.424.53 12.007 1.146 6.837 4.507-.875.57 4.085 4.054 4.09 4.054 3.875.013-3.821 4.575 0 4.688 3.403.1-3.344 2.014 0 2.19.732.037-2.273 2.303-1.546 2.346 7.518.427 4.398.424 11.478 1.251 2.114.244 4.208.51 6.275.79 9.527 1.297 18.515 2.967 26.745 5.017 1.486.367 2.938.746 4.37 1.14.321.09.639.176.96.27 4.041 1.13 7.87 2.366 11.458 3.696a114.994 114.994 0 0 1 2.543.977 96.279 96.279 0 0 1 8.067 3.61 55.551 55.551 0 0 1 5.385 3.12 51.66 51.66 0 0 1 7.088 5.59 50.628 50.628 0 0 1 6.696 7.733c2.826 4.014 5.041 8.37 6.69 12.94a60.658 60.658 0 0 1 1.803 5.937c.12.473.233.946.341 1.42.004.016.008.03.008.043.166.703.313 1.413.449 2.127l.116.626c.058.314.112.63.162.95.918 5.474 1.173 11.08.841 16.637-.055.94-.128 1.88-.221 2.817z" clip-rule="evenodd"/></mask><g mask="url(#b)"><path fill="#FFD066" fill-rule="evenodd" d="M56.153 117.992C41.83 107.426 24.3 102.383 13.184 101.824c-11.115-.558-13.557-24.913 12.533-19.1 26.09 5.815 30.436 35.268 30.436 35.268zm-15.7-52.632C29.215 40.021-1.442 35.181 9.489 21.674 20.419 8.167 39.183 36.91 40.453 65.359zm19.617 45.26c2.742-28.05 37.182-78.211 35.517-55.717C93.923 77.396 58.75 124.11 60.07 110.62z" clip-rule="evenodd"/><path fill="#FFD066" fill-rule="evenodd" d="M48.571 120.961c-4.73-53.248-6.119-93.859 9.952-84.21 16.07 9.65 1.476 58.599-9.952 84.21z" clip-rule="evenodd"/><path fill="#FFD066" fill-rule="evenodd" d="M58.498 105.053C44.694 61.001 2.943 29.863 3.742 56.908c.8 27.045 29.177 14.105 54.756 48.145zm10.015-32.507c2.841-14.33 1.99-29.544 0-38.414-1.988-8.87 10.872-17.958 13.068 4.187 2.197 22.145-13.068 34.227-13.068 34.227z" clip-rule="evenodd"/><path fill="#FFB000" fill-rule="evenodd" d="M9.91 92.253c1.337-.736 2.765-1.264 4.207-1.716a35.212 35.212 0 0 1 4.409-1.031 40 40 0 0 1 9.049-.473c3.03.192 6.087.703 8.993 1.827.726.278 1.436.607 2.125.982.343.192.69.372 1.018.594.335.207.66.428.969.678 1.254.953 2.36 2.152 3.072 3.548a.518.518 0 0 1-.842.588l-.01-.01c-1.909-2.07-4.464-3.232-7.14-3.947-2.687-.717-5.51-1.023-8.342-1.144a61.61 61.61 0 0 0-4.272-.023 99.42 99.42 0 0 0-4.289.191c-2.867.182-5.723.484-8.612.909h-.006a.522.522 0 0 1-.328-.973zm5.197-33.641c3.216 1.645 6.302 3.511 9.312 5.499a106.829 106.829 0 0 1 8.724 6.43c2.8 2.298 5.487 4.765 7.908 7.523 1.206 1.381 2.347 2.837 3.336 4.415.972 1.575 1.83 3.298 2.178 5.177a.516.516 0 0 1-.975.316l-.012-.027c-.733-1.544-1.715-2.953-2.851-4.265-1.121-1.32-2.338-2.572-3.599-3.788-2.525-2.428-5.211-4.723-7.939-6.982-2.73-2.256-5.513-4.468-8.308-6.681-2.788-2.224-5.6-4.43-8.344-6.76a.518.518 0 0 1 .57-.857zM53.978 87.09a76.504 76.504 0 0 1-.565-2.51c-.127-.843-.25-1.688-.362-2.537a65.328 65.328 0 0 1-.36-5.09c-.122-3.394-.019-6.781.209-10.152.225-3.372.545-6.733 1.009-10.076.453-3.344.985-6.673 1.734-9.977a.517.517 0 0 1 1.02.131v.005c-.115 3.36-.31 6.713-.507 10.058l-.589 10.021-.27 5.001c-.062 1.664-.169 3.33-.216 4.993-.117 3.325-.23 6.649-.088 9.969l.001.018a.517.517 0 0 1-1.016.146zM39.95 67.024a258.582 258.582 0 0 0-4.478-10.112c-1.556-3.322-3.141-6.63-4.826-9.888-1.693-3.253-3.477-6.46-5.418-9.55-.975-1.541-1.99-3.052-3.092-4.48-.27-.364-.564-.695-.846-1.048-.301-.322-.581-.683-.897-.983-.617-.629-1.275-1.222-2.009-1.608l-.023-.012a.517.517 0 0 1 .356-.961c1.034.237 1.916.753 2.728 1.309.421.271.793.58 1.183.882.362.32.75.627 1.091.967 1.413 1.325 2.676 2.773 3.856 4.272 2.353 3.005 4.391 6.215 6.214 9.534 1.814 3.323 3.44 6.753 4.697 10.335a52.066 52.066 0 0 1 1.62 5.463c.43 1.852.757 3.74.849 5.656a.522.522 0 0 1-1.003.227l-.002-.003zm28.125 5.254l2.756-7.493c.889-2.483 1.788-4.954 2.537-7.467.75-2.51 1.39-5.05 1.8-7.619.41-2.567.614-5.161.345-7.777v-.006a.52.52 0 0 1 .998-.242c.512 1.305.818 2.691.984 4.082.179 1.394.202 2.798.144 4.192-.126 2.79-.628 5.534-1.34 8.2-.723 2.666-1.637 5.274-2.844 7.748a35.294 35.294 0 0 1-2.004 3.609c-.744 1.16-1.555 2.285-2.498 3.31a.524.524 0 0 1-.878-.537zm9.253 12.475c-.165-.788-.148-1.573-.075-2.326.076-.756.224-1.489.413-2.204.37-1.433.951-2.773 1.53-4.102a94.066 94.066 0 0 1 1.838-3.929c.645-1.29 1.314-2.565 1.994-3.833a110.633 110.633 0 0 1 2.115-3.76 103.424 103.424 0 0 1 2.237-3.687 88.315 88.315 0 0 1 2.387-3.601c.413-.592.843-1.173 1.286-1.752.222-.29.453-.574.697-.857.123-.142.246-.282.387-.426a4 4 0 0 1 .23-.218c.054-.044.09-.076.16-.126a2.78 2.78 0 0 1 .126-.075.788.788 0 0 1 .31-.078.514.514 0 1 1 0 1.03.301.301 0 0 0 .157-.024c.02-.01.03-.015.026-.011.006.002.01.001.015 0 0 .004-.027.035-.04.05l-.13.179a8.554 8.554 0 0 0-.273.416c-.181.292-.354.597-.53.9-.351.608-.685 1.233-1.022 1.856-.675 1.246-1.32 2.513-1.977 3.772l-1.928 3.8-1.882 3.818a175.67 175.67 0 0 0-1.82 3.839 146.39 146.39 0 0 0-1.736 3.858c-.56 1.29-1.057 2.596-1.645 3.853-.575 1.266-1.197 2.486-1.827 3.741l-.014.03a.539.539 0 0 1-1.01-.133z" clip-rule="evenodd"/><path fill="#3D3450" fill-rule="evenodd" d="M87.908 92.207C65.82 73.19 33.538 79.845 22.323 107.27c-11.213 27.427 5.438 57.33 10.195 58.35 4.758 1.019 79.517-22.454 55.39-73.413z" clip-rule="evenodd"/><path fill="#231E2F" fill-rule="evenodd" d="M47.342 162.259c-15.395-29.666 6.203-57.696 21.192-55.982 14.99 1.715 19.185 10.577 19.185 10.577S77.62 170.7 47.342 162.259z" clip-rule="evenodd"/><path fill="#231E2F" fill-rule="evenodd" d="M45.776 121.725c-7.634 11.603-8.098 32.843 7.375 40.831-7.905 1.795-27.06-23.722-7.375-40.831z" clip-rule="evenodd"/><path fill="#6B608A" fill-rule="evenodd" d="M79.306 88.054c-4.23-1.117-8.591-1.686-12.94-1.786-4.347-.084-8.7.336-12.886 1.412a38.9 38.9 0 0 0-11.775 5.172c-3.585 2.38-6.748 5.38-9.369 8.8-2.606 3.434-4.665 7.279-6.17 11.332a50.348 50.348 0 0 0-1.802 6.232c-.106.53-.238 1.057-.325 1.592l-.273 1.602c-.141 1.075-.29 2.15-.368 3.232-.167 2.162-.247 4.337-.142 6.51.1 2.172.324 4.339.662 6.492a59.178 59.178 0 0 0 1.445 6.379 67.206 67.206 0 0 0 2.182 6.185l-.314.139a57.323 57.323 0 0 1-2.47-6.137 60.097 60.097 0 0 1-1.696-6.412c-.852-4.345-1.175-8.809-.885-13.246.06-1.11.19-2.215.316-3.32l.249-1.651c.08-.551.203-1.094.303-1.641a48.047 48.047 0 0 1 1.768-6.443c1.502-4.198 3.585-8.209 6.29-11.778 2.71-3.559 5.982-6.717 9.744-9.165a38.181 38.181 0 0 1 5.923-3.162 40.395 40.395 0 0 1 6.372-2.077c4.35-1.022 8.837-1.338 13.264-1.077 2.214.13 4.416.412 6.588.825 2.173.406 4.323.938 6.41 1.664l-.101.327z" clip-rule="evenodd"/><path fill="#39304A" fill-rule="evenodd" d="M191.637 79.151c3.717 5.847-1.33 23.115-11.956 22.851 8.236-7.705 17.004-14.347 4.783-28.961 3.139 6.79 2.447 13.966-1.615 17.941-1.903 1.862-4.219 2.701-6.125 3.075a20.715 20.715 0 0 1-2.68-3.07s-1.308-1.84-2.229-4.014c-2.226-5.257-8.679-71.661.425-77.697 4.324-2.867 13.815 16.205 13.815 16.205 17.004 20.992 10.894 27.137 5.582 34.557-5.315 7.424-3.72 13.27 0 19.113z" clip-rule="evenodd"/><path fill="#F69C93" fill-rule="evenodd" d="M227.165 141.222c-6.238 9.721-33.292.655-46.48-5.514a78.187 78.187 0 0 1-1.57-.747c-2.287-1.125-4.015-2.112-4.945-2.809-2.681-2.009-3.83-4.598-3.83-4.598a11.597 11.597 0 0 1-.47-1.207c-4.18-12.635 18.568-17.107 18.568-17.107a47.56 47.56 0 0 0 1.824 2.373 51.443 51.443 0 0 0 1.592 1.855c.044.052.089.1.133.151.182.199.364.398.549.593.14.151.284.302.428.453 7.846 8.178 18.136 13.376 28.323 12.889.847.209 3.392.919 5.26 2.822a7.333 7.333 0 0 1 1.406 1.982c1.506 3.127.498 6.865-.788 8.864z" clip-rule="evenodd"/><path fill="#E97286" fill-rule="evenodd" d="M179.115 134.961c.212 1.152.538 2.376.984 3.683-8.641-2.915-11.137-7.596-10.229-12.297 1.475-7.667 12.009-15.389 19.707-15.591a52.445 52.445 0 0 0 2.276 2.712l.134.151c-9.196 7.523-14.569 12.187-12.872 21.342z" clip-rule="evenodd"/><path fill="#E97286" fill-rule="evenodd" d="M192.818 114.545c-3.011 1.149-8.754 5.263-9.869 10.667 1.447-4.186 5.953-6.882 10.298-10.214l-.429-.453z" clip-rule="evenodd"/><path fill="#00C6CD" fill-rule="evenodd" d="M191.082 112.542c-1.78.535-12.849 4.033-15.914 13.699a16.746 16.746 0 0 0-.768 4.533c-.007.216-.01.439-.01.662-.082.562-.281.933-.59 1.114-.634.374-1.749-.068-3.34-1.327-3-2.366-7.694-7.622-14.086-15.776-3.926 5.496-2.705 14.58-2.832 18.002a892.816 892.816 0 0 0-13.668 2.054c-14.864-1.327-25.536-10.695-26.653-20.08-.97-8.158 5.184-17.052 14.12-22.861l31.91-15.821c14.477 6.573 25.522 29.005 31.831 35.801z" clip-rule="evenodd"/><path fill="#AEA4D8" fill-rule="evenodd" d="M286.904 146.006C175.282 225.283 13.568 174.799 5.679 170.852c12.18-6.642 30.319-12.783 50.621-18.194 16.713-4.451 34.88-8.408 52.384-11.734a1011.233 1011.233 0 0 1 31.19-5.421 890.961 890.961 0 0 1 13.668-2.054 727.15 727.15 0 0 1 16.918-2.226c1.591 1.259 2.706 1.701 3.34 1.327a.99.99 0 0 0 .37-.397c1.787 1.392 4.012 2.585 6.515 3.555 13.188 6.169 40.242 15.235 46.48 5.514 1.286-1.999 2.294-5.736.788-8.864a7.349 7.349 0 0 0-1.406-1.982c24.916 1.653 52.591 5.854 60.357 15.63z" clip-rule="evenodd"/><path fill="#6B608A" fill-rule="evenodd" d="M249.856 101.863c2.368-9.74 2.368-10.325-12.727-8.57-15.095 1.755-13.153.467-15.456 8.57-2.303 8.102-8.519 37.059-10.591 43.786-2.072 6.728 2.96 6.278 9.176 4.163 6.215-2.116 16.279-4.748 18.351-6.503 2.072-1.755 11.247-41.446 11.247-41.446z" clip-rule="evenodd"/><path fill="#3D3450" fill-rule="evenodd" d="M249.916 103.341c2.245-9.448 2.245-10.015-12.065-8.313-14.311 1.703-12.47.454-14.653 8.313-2.184 7.86-8.076 35.949-10.04 42.475-1.965 6.526 2.806 6.09 8.698 4.038 5.893-2.052 15.433-4.606 17.397-6.308 1.965-1.703 10.663-40.205 10.663-40.205z" clip-rule="evenodd"/><path fill="#584D74" fill-rule="evenodd" d="M226.72 102.664c-.013-1.899 2.217-3.45 3.911-2.838 1.103.398 1.836 1.661 1.746 2.898-.106 1.466-1.361 2.834-2.956 2.762-1.556-.069-2.692-1.477-2.701-2.822z" clip-rule="evenodd"/><path fill="#231E2F" fill-rule="evenodd" d="M227.717 102.786c-.01-1.377 1.621-2.501 2.86-2.057.806.288 1.342 1.204 1.277 2.1-.078 1.063-.996 2.054-2.162 2.003-1.138-.05-1.969-1.071-1.975-2.046z" clip-rule="evenodd"/><path fill="#C2AFE9" fill-rule="evenodd" d="M267.568 172.268l-.635 7.221-14.322-2.928c-23.558-1.608-40.66-3.43-42.872-4.348-1.458-.605-2.884-1.751-2.884-1.751-.852-.684-1.487-1.207-1.882-2.144-.148-.351-.636-1.722-.009-3.129.213-.476.656-.908 1.514-1.363h.004c-1.623 1.676-.933 1.824 4.128 2.407 5.058.583 52.97 5.349 52.97 5.349l3.988.686z" clip-rule="evenodd"/><path fill="#E9F3FF" fill-rule="evenodd" d="M270.359 140.464l-2.791 31.804-.634 7.221-14.323-2.928c-23.558-1.608-40.661-3.43-42.872-4.348-1.458-.605-2.884-1.75-2.884-1.751-.852-.684-1.487-1.207-1.882-2.144-.148-.351-.636-1.722-.009-3.129.213-.476.656-.908 1.514-1.363h.004a1858.416 1858.416 0 0 0 63.877-23.362z" clip-rule="evenodd"/><path fill="#E9F3FF" fill-rule="evenodd" d="M265.79 131.534c8.365-43.085 5.914-43.245 14.933-45.055 9.019-1.81 32.637-5.166 32.637-5.166v79.406l-54.793 10.864 7.223-40.049z" clip-rule="evenodd"/><path fill="#C2AFE9" fill-rule="evenodd" d="M268.682 134.744c8.364-43.085 5.914-43.245 14.933-45.055 9.019-1.809 32.637-5.166 32.637-5.166v79.406l-54.793 10.864 7.223-40.049z" clip-rule="evenodd"/><path fill="#FFD066" fill-rule="evenodd" d="M219.082 5.133c-.381 37.276 1.821 74.162 1.821 74.162 42.008.846 86.219 0 86.219 0-.961-50.049 0-74.162 0-74.162-49.977-1.334-88.04 0-88.04 0z" clip-rule="evenodd"/><path fill="#FFF8E9" fill-rule="evenodd" d="M207.012-.407c-.381 37.276 1.82 74.162 1.82 74.162 42.009.846 86.219 0 86.219 0-.961-50.049 0-74.162 0-74.162-49.977-1.334-88.039 0-88.039 0z" clip-rule="evenodd"/><path fill="#F4E9D7" fill-rule="evenodd" d="M212.726 10.026c-.249 21.212 1.997 56.417 1.997 56.417 17.968.731 74.367 1.351 74.367 1.351.499-21.582 0-58.811 0-58.811l-76.364 1.043z" clip-rule="evenodd"/><path fill="#FFF8E9" fill-rule="evenodd" d="M215.96 12.136c-.228 19.17 1.828 50.985 1.828 50.985 16.45.66 68.085 1.221 68.085 1.221.457-19.505 0-53.149 0-53.149l-69.913.943z" clip-rule="evenodd"/><path fill="#231E2F" fill-rule="evenodd" d="M181.711 87.717c-2.239 2.527-4.65 3.161-6.639 3.076a44.71 44.71 0 0 1-3.257-3.82c2.726-5.051 9.896-16.01 9.896-16.01-1.718 6.587 4.66 11.487 0 16.754z" clip-rule="evenodd"/><path fill="#F69C93" fill-rule="evenodd" d="M188.903 46.746c-.511 4.876-2.201 9.937-4.204 15.745a246.375 246.375 0 0 1-1.399 3.954v.004c-5.788 15.934-15.536 36.895-32.006 31.498-17.875-5.86-23.444-45.712-15.53-63.292 7.911-17.583 26.959-27.253 39.852-15.238 11.377 10.602 14.192 18.67 13.287 27.329z" clip-rule="evenodd"/><path fill="#E97286" fill-rule="evenodd" d="M153.518 45.682c.625 9.977.626 12.227-7.461 17.233-8.086 5.005-5.133 9.09-4.39 13.02-11.517-3.893 4.285-31.33 11.851-30.253zM175.7 19.5c2.045 4.486.513 18.007 6.665 24.149 6.151 6.141 9.346 2.033 9.346 2.033S178.742 18.29 175.7 19.501z" clip-rule="evenodd"/><path fill="#F69C93" fill-rule="evenodd" d="M249.292 138.136c.713 3.093 3.555 7.249-.624 9.42a9.25 9.25 0 0 1-1.77.675c-6.641 1.862-9.827 5.846-14.878 2.126-5.047-3.72-4.516-14.347-2.205-17.268 2.311-2.925 5.925-5.051 13.366-5.534 0 0-1.436-5.991-4.131-4.729-.371.168-.765.48-1.183.964-3.454 3.984-10.894 6.374-6.91-1.063 3.47-6.474 13.544-10.568 19.103-3.793.833 1.012 1.56 2.267 2.153 3.793 1.91 4.924-3.72 11.956-2.921 15.409z" clip-rule="evenodd"/><path fill="#E97286" fill-rule="evenodd" d="M144.458 93.438c1.678 11.244 4.21 16.457-5.471 19.585-4.767-25.47 5.471-19.585 5.471-19.585z" clip-rule="evenodd"/><path fill="#39304A" fill-rule="evenodd" d="M191.925 48.462c-5.064-1.673-10.307-8.675-11.816-17.896-.813-4.961-2.774-7.934-5.537-9.762-.134.233-.268.46-.405.683-.003.003-.003.007-.007.01a11.02 11.02 0 0 1-.116.195c-3.392 5.528-7.078 8.35-10.353 9.862-3.374 1.557-5.558 1.656-7.824 4.32-1.924 2.26-2.394 4.691-2.428 7.164-.068 4.533 1.324 9.206-2.088 13.235-2.798 3.302-6.872 3.875-10.044 9.046-.562.919-1.237 2.212-1.426 3.912-.319 2.874.95 5.089 1.787 6.704 1.443 2.788 4.519 8.73 4.467 14-.003.467-.137 6.097-4.077 9.972-4.491 4.416-11.267 4.029-14.453 3.689-12.488-1.33-37.728-43.575-44.902-47.21 1.859-17.717 22.583-8.85 25.505-21.074 2.925-12.22 2.393-6.11 11.425-11.957 5.459-10.022 9.937-14.233 14.659-16.284l.054-.024c4.455-1.92 9.129-1.93 15.047-3.086 7.043-1.378 12.231-2.38 17.552-1.42.028.004.052.011.076.014 3.889.714 7.849 2.48 12.66 5.922 17.052 10.469 17.309 41.655 12.244 39.985z" clip-rule="evenodd"/><path fill="#231E2F" fill-rule="evenodd" d="M174.044 21.692c-3.392 5.528-7.078 8.35-10.352 9.862-3.375 1.557-5.558 1.656-7.825 4.32-1.924 2.26-2.394 4.691-2.428 7.164-.027.01-.041.013-.041.013-.611-12.749 5.064-11.854 10.218-13.362 4.945-1.45 9.293-6.241 10.428-7.997z" clip-rule="evenodd"/><path fill="#231E2F" fill-rule="evenodd" d="M152.737 36.565c1.837-5.027 4.912-7.633 12.318-6.764-5.412-2.1-12.944 1.223-12.318 6.764zm-9.16 43.288c-9.221-8.014-7.802-13.057-2.728-19.647-16.832 8.83-15.159 39.4-7.019 42.73 8.14 3.329 22.823-10.338 9.747-23.083z" clip-rule="evenodd"/><path fill="#231E2F" fill-rule="evenodd" d="M130.96 67.304c2.141-3.996 8.23-7.593 8.23-7.593-6.667.409-7.893 2.815-8.23 7.593z" clip-rule="evenodd"/><path fill="#169FBF" fill-rule="evenodd" d="M118.025 102.005c3.458 16.179-21.255-36.11-12.634-25.264 8.622 10.845 10.567 15.592 12.634 25.264z" clip-rule="evenodd"/><path fill="#6B608A" fill-rule="evenodd" d="M231.071 177.786c-18.666-1.425-35.933-3.139-20.379-8.411 15.553-5.273 33.375 2.3 33.375 2.3l-12.996 6.111z" clip-rule="evenodd"/><path fill="#00C6CD" fill-rule="evenodd" d="M116.448 109.604c-.69-.405-1.276-.511-1.739-.508-5.912.062-9.772 18.373-8.703 25.104a14.473 14.473 0 0 0 1.248 3.912 12.338 12.338 0 0 0 1.876 2.678c-17.505 3.326-35.671 7.283-52.384 11.734 3.299-8.507 7.533-2.335 13.469-22.038a1501.19 1501.19 0 0 1 2.116-6.954c0-.007.003-.01.003-.017 6.138-20.018 12.718-40.167 13.558-42.978 1.876-6.934 4.475-12.056 7.334-15.194 6.447-7.088 14.203-4.08 17.907 10.942.87 3.535 1.642 6.539 2.314 9.131l.004.004c3.453 13.307 4.327 15.821 2.997 24.184z" clip-rule="evenodd"/><path fill="#169FBF" fill-rule="evenodd" d="M109.663 75.72c.744 5.719 6.248 23.04 12.284 26.295-11.838-6.277-15.71-25.758-12.284-26.295z" clip-rule="evenodd"/><path fill="#159FBF" fill-rule="evenodd" d="M92.798 115.021c-1.878 6.854-1.163 26.251 8.107 8.494 2.586-15.548-8.107-8.494-8.107-8.494z" clip-rule="evenodd"/><path fill="#7E4EE3" fill-rule="evenodd" d="M147.371 20.023l-14.481 3.459 1.878 4.428 15.732-2.98-3.129-4.907z" clip-rule="evenodd"/><path fill="#F69C93" fill-rule="evenodd" d="M140.094 148.763c-9.529 6.137-18.568 4.42-28.073-5.209-.011-.014-.024-.024-.035-.038a53.073 53.073 0 0 1-1.028-1.07c-3.398-3.645-6.865-8.291-10.435-13.952-.168-.267-.336-.538-.504-.809a134.138 134.138 0 0 1-1.738-2.856c-.072-.12-.141-.24-.213-.361a223.553 223.553 0 0 1-5.27-9.446c8.02-19.71 19.6-13.524 22.631-11.453.483.333.751.559.751.559 1.594-33.477-1.471-52.175-1.471-52.175-13.109-15.938-9.385-32.321 8.192-29.938 8.49-11.02 18.468-10.873 25.021-9.978 6.556.891 2.088 3.723-2.829 4.468-4.914.744-12.361 2.98-10.277 11.617 2.085 8.637 6.406 9.385 9.385 8.343 2.976-1.043 6.255-5.662 8.936-2.384 2.682 3.275-15.972 15.383-20.752 17.872-4.78 2.49 23.382 86.715 7.709 96.81z" clip-rule="evenodd"/><path fill="#231E2F" fill-rule="evenodd" d="M167.778 49.985c-4.626-5.33-13.002-2.572-13.43-2.715 5.143 6.001 20.002 10.287 13.43 2.715zm10.715 2.143c4.99-8.78 11.145-7.572 11.716-2.428.572 5.143-1.286 3.178-2.572.66-1.285-2.518-10.653 4.425-9.144 1.768z" clip-rule="evenodd"/><path fill="#fff" fill-rule="evenodd" d="M163.501 66.538c3.207-7.966-6.707-13.1-10.992-4.552-3.879 8.962 7.784 12.518 10.992 4.552z" clip-rule="evenodd"/><path fill="#39304A" fill-rule="evenodd" d="M198.614 42.105c1.016 7.366-.075 19.578-7.531 21.59 13.881-1.017 10.817-19.226 7.531-21.59z" clip-rule="evenodd"/><path fill="#fff" fill-rule="evenodd" d="M184.783 62.428c-.936 2.565-2.496 4.42-4.139 5.603-3.278 2.356-6.878 2.016-6.44-.727.388-2.198 2.103-3.422 4.043-4.098 3.001-1.045 6.536-.778 6.536-.778z" clip-rule="evenodd"/><path fill="#231E2F" fill-rule="evenodd" d="M161.963 66.727c1.929-4.854-4.033-7.981-6.609-2.773-2.334 5.46 4.68 7.627 6.609 2.773zm18.777 1.109c-.03.065-.061.13-.096.195-3.278 2.356-6.878 2.016-6.44-.727.388-2.198 2.103-3.422 4.043-4.098 2.003.223 3.604 2.164 2.493 4.63z" clip-rule="evenodd"/><path fill="#231E2F" fill-rule="evenodd" d="M164.883 60.13c-.099-1.466-.999-2.77-2.205-3.555a6.878 6.878 0 0 0-4.088-1.131 6.42 6.42 0 0 0-3.871 1.49 7.575 7.575 0 0 0-1.397 1.56c-.388.59-.695 1.231-.959 1.892a.682.682 0 0 1-1.102.24l-.008-.007h-.001c-.467-.58-.806-1.17-1.127-1.77a22.908 22.908 0 0 1-.863-1.822.173.173 0 0 1 .091-.226.173.173 0 0 1 .204.053l.003.003a22.86 22.86 0 0 0 1.266 1.498c.439.473.904.93 1.377 1.273h.001l-1.111.233a11.81 11.81 0 0 1 1.215-2.088 8.75 8.75 0 0 1 1.724-1.719 7.412 7.412 0 0 1 4.547-1.468c1.603.023 3.183.545 4.45 1.501a5.75 5.75 0 0 1 1.571 1.766c.39.69.616 1.476.626 2.264a.172.172 0 0 1-.169.174.174.174 0 0 1-.174-.161z" clip-rule="evenodd"/><path fill="#E97286" fill-rule="evenodd" d="M169.04 75.505c6.259-.595 7.695-.572 4.41 3.222-3.285 3.793-4.184 4.977-8.26 1.14-4.076-3.835-1.509-3.852 3.85-4.362z" clip-rule="evenodd"/><path fill="#231E2F" fill-rule="evenodd" d="M171.769 68.653c-.104.82-.116 1.62-.124 2.427-.001.806.023 1.617.049 2.432l.079 2.46c.024.825.04 1.658.005 2.502l-.001.003a.174.174 0 0 1-.336.06c-.329-.797-.538-1.62-.699-2.451a16.213 16.213 0 0 1-.294-2.529c-.035-.85-.011-1.712.139-2.567.141-.85.373-1.718.863-2.462a.174.174 0 0 1 .242-.05.175.175 0 0 1 .078.168l-.001.007zm2.6-1.395c.177-1.083.577-2.16 1.276-3.099l.128-.177.149-.162.301-.324c.205-.214.453-.382.682-.574.251-.156.503-.32.767-.454.271-.111.537-.258.817-.337 1.114-.377 2.262-.471 3.365-.42.554.023 1.098.096 1.637.19.539.094 1.071.215 1.596.39a.142.142 0 1 1-.02.276c-1.085.188-2.15.248-3.186.355-1.034.101-2.041.22-2.969.502-.241.053-.45.167-.679.245-.22.092-.425.21-.64.316-.195.135-.405.252-.594.4l-.281.23-.142.114-.127.133c-.708.684-1.271 1.56-1.819 2.488l-.001.002a.14.14 0 1 1-.26-.094zm.645-5.858c.221-.485.567-.87.941-1.205.38-.326.801-.592 1.24-.812a7.65 7.65 0 0 1 1.369-.527c.476-.123.956-.22 1.474-.213a.231.231 0 0 1 .149.406l-.008.007c-.373.323-.769.583-1.16.838-.393.251-.791.479-1.189.698-.397.223-.795.431-1.21.618a9.65 9.65 0 0 1-1.313.513l-.011.003a.236.236 0 0 1-.282-.326zm-16.936 25.599c-3.632.982-4.534 5.714 1.172 3.809 5.707-1.905 5.868-5.714-1.172-3.81z" clip-rule="evenodd"/><path fill="#E97286" fill-rule="evenodd" d="M110.571 33.67c.779 4.045 6.247 5.29 6.469 9.024 2.556-7.78-4.106-10.667-6.469-9.024zm12.385-11.818c1.942.418 3.857.969 5.711 1.808.462.216.92.445 1.369.707.222.136.445.27.659.425.218.146.43.306.637.477.838.657 1.576 1.548 2.028 2.6.428 1.06.547 2.23.396 3.3-.136 1.077-.475 2.079-.887 3.02a18.02 18.02 0 0 1-1.487 2.651 20.906 20.906 0 0 1-1.84 2.37l-.287-.188c.811-1.81 1.687-3.558 2.282-5.354.299-.893.525-1.795.613-2.676a5.449 5.449 0 0 0-.303-2.504c-.32-.763-.834-1.46-1.507-2.063a6.58 6.58 0 0 0-.521-.438c-.176-.146-.37-.274-.559-.41a15.655 15.655 0 0 0-1.192-.763c-1.651-.963-3.45-1.759-5.224-2.637l.112-.325z" clip-rule="evenodd"/><path fill="#E97286" fill-rule="evenodd" d="M128.122 27.283a59.75 59.75 0 0 1 .462 4.03c.101 1.35.153 2.716.061 4.1-.037.345-.065.691-.11 1.037-.062.345-.096.693-.181 1.037-.085.342-.163.686-.283 1.02-.057.168-.106.338-.17.503l-.216.486a9.405 9.405 0 0 1-2.513 3.31l-.261-.222c.693-1.162 1.328-2.301 1.759-3.507l.161-.452.136-.46c.102-.302.162-.618.233-.93.082-.31.118-.634.181-.95.047-.32.078-.646.119-.969.124-1.303.152-2.635.167-3.976.026-1.34.034-2.69.112-4.041l.343-.016zm-6.504 1.491a18.773 18.773 0 0 1 1.639 3.495c.407 1.231.694 2.528.718 3.864.032 1.328-.206 2.714-.849 3.92a6.807 6.807 0 0 1-2.807 2.78l-.201-.277c.883-.899 1.613-1.865 2.077-2.95.456-1.086.655-2.263.657-3.463-.004-1.2-.192-2.416-.472-3.62-.282-1.21-.688-2.394-1.072-3.604l.31-.145z" clip-rule="evenodd"/><path fill="#97FCFF" fill-rule="evenodd" d="M149.725 99.618c.169.778.341 1.562.454 2.355.053.398.096.797.139 1.197.051.399.073.802.08 1.207.077 1.611-.037 3.268-.515 4.881a9.09 9.09 0 0 1-1.041 2.328c-.112.185-.262.348-.393.52-.142.166-.257.352-.427.493l-.482.442c-.155.153-.35.257-.522.386-.343.27-.746.431-1.125.623-.193.088-.394.152-.594.22-.199.07-.397.135-.601.174-.203.047-.404.095-.607.135l-.61.079c-.404.056-.812.049-1.216.057l-.049-.339c1.501-.502 2.968-1.002 4.065-1.945.575-.433 1.007-1.007 1.411-1.59.363-.618.69-1.27.903-1.983.228-.705.376-1.447.507-2.196.043-.379.085-.759.139-1.14.05-.381.052-.77.081-1.156.075-.772.041-1.554.074-2.338.002-.784-.028-1.571-.011-2.367l.34-.043z" clip-rule="evenodd"/><path fill="#169FBF" fill-rule="evenodd" d="M156.375 115.446c6.151-9.545 19.824-9.851 6.034-2.423 4.032-.169 12.941 1.393-6.034 2.423z" clip-rule="evenodd"/><path fill="#159FBF" fill-rule="evenodd" d="M84.007 86.48c-1.513 13.134 2.894 34.949 6.42 43.102-10.356 3.085-13.353-21.672-6.42-43.102z" clip-rule="evenodd"/><path fill="#159FBF" fill-rule="evenodd" d="M79.419 121.234c2.428 6.651 6.8 11.017 11.008 8.348-5.505 7.206-12.555-5.811-11.008-8.348zm79.831-5.394c3.448-.842 9.271-.394 9.271-.394-4.844 1.448-9.271.394-9.271.394zM57.017 152.452c2.37-4.67 5.373-3.755 8.737-6.659 4.077-3.518 3.172-4.866 6.576-22.261-.713 2.328-1.422 4.657-2.115 6.954-.093.309-.185.61-.278.905-.044.148-.092.295-.137.439-.069.213-.134.422-.202.631a71.498 71.498 0 0 1-.754 2.215c-.049.137-.1.275-.148.412-.048.137-.1.271-.148.401l-.147.391c-.096.257-.195.507-.291.751-.24.614-.48 1.183-.717 1.718-.093.212-.189.421-.281.624a31.913 31.913 0 0 1-.827 1.673 21.052 21.052 0 0 1-.405.734c-.044.079-.088.158-.133.233l-.072.124c-.051.089-.106.174-.154.257a18.36 18.36 0 0 1-.56.864c-.04.062-.082.12-.12.178-.328.466-.647.874-.96 1.241-.034.045-.071.086-.11.131-.84.963-1.635 1.625-2.39 2.218l-.218.172c-.484.373-.947.73-1.396 1.131-.058.052-.12.107-.178.165a3.283 3.283 0 0 0-.206.192c-.052.048-.103.103-.155.154a9.14 9.14 0 0 0-.723.826c-.048.066-.096.127-.14.193-.114.15-.223.308-.33.473l-.185.295a9.777 9.777 0 0 0-.274.48c-.014.024-.028.048-.038.072-.11.202-.216.415-.322.637v.004c-.09.188-.179.387-.264.593l-.052.124-.123.305-.031.082.27-.072z" clip-rule="evenodd"/><path fill="#E97286" fill-rule="evenodd" d="M243.181 127.555s-1.436-5.991-4.131-4.729c2.414-1.773 4.241-1.594 4.131 4.729zm6.111 10.581c.713 3.093 3.555 7.249-.624 9.42a.137.137 0 0 1-.031.013c4.626-5.232-4.201-7.89-.727-13.561 3.47-5.672 4.303-11.281 2.15-15.074.833 1.012 1.56 2.267 2.153 3.793 1.91 4.923-3.72 11.956-2.921 15.409zm-22.093-2.094c1.288-.014 2.577-.287 3.866-.529 1.291-.256 2.579-.546 3.874-.814 1.294-.282 2.587-.573 3.888-.843 1.3-.273 2.604-.546 3.923-.769l.098.328c-1.237.531-2.501.968-3.778 1.369-.639.199-1.28.39-1.928.56-.644.184-1.297.335-1.949.491a35.431 35.431 0 0 1-3.972.7l-1.014.082c-.335.032-.682.015-1.021.025-.68-.002-1.381-.066-2.052-.264l.065-.336zm.039 5.025c1.31.428 2.694.563 4.073.625 1.383.053 2.774.005 4.159-.11.346-.023.692-.057 1.037-.094.346-.033.692-.071 1.035-.123.691-.076 1.375-.197 2.059-.314 1.357-.263 2.727-.559 3.95-1.159l.194.283c-.296.209-.597.436-.924.588-.319.181-.654.314-.988.452-.672.265-1.36.474-2.055.648a25.75 25.75 0 0 1-4.233.674c-1.426.106-2.862.125-4.292-.03-1.421-.157-2.871-.435-4.158-1.128l.143-.312zm1.504 5.684c1.267.176 2.55.19 3.834.197 1.285-.011 2.573-.043 3.859-.101 1.288-.043 2.576-.125 3.861-.21.642-.046 1.285-.092 1.923-.159.63-.066 1.296-.126 1.852-.305l.174.295c-.62.392-1.262.53-1.904.706-.644.156-1.291.283-1.941.38a35.07 35.07 0 0 1-3.919.38c-1.312.044-2.628.045-3.942-.064-1.31-.118-2.64-.297-3.892-.79l.095-.329zm-97.995-91.956c2.867-5.018-5.551-.347-7.343 1.02-1.793 1.365 4.809 3.414 7.343-1.02zm-14.567 49.333c-11.076 1.323-16.874 10.04-18.112 20.34a223.441 223.441 0 0 1-5.27-9.446c8.02-19.71 19.6-13.524 22.631-11.453.484.333.751.559.751.559z" clip-rule="evenodd"/><path fill="#E97286" fill-rule="evenodd" d="M106.061 111.74c-2.873 2.298-5.565 8.727-6.042 15.945a134.975 134.975 0 0 1-1.738-2.856c.182-3.909 2.338-9.159 7.78-13.089z" clip-rule="evenodd"/><path fill="#231E2F" fill-rule="evenodd" d="M183.384 66.382c.497-1.361.96-2.685 1.399-3.954 2.003-5.808 3.693-10.87 4.204-15.745 4.653 5.013 3.696 8.541-5.603 19.699z" clip-rule="evenodd"/><path fill="#231E2F" fill-rule="evenodd" d="M191.172 47.774c1.846 4.384 1.841 7.507-2.956 12.432 5.442-4.303 6.773-8.048 2.956-12.432zm-81.468-8.658c-2.455 8.647-15.038 2.19-19.277 11.244 6.359-2.339 19.018 4.006 19.277-11.244z" clip-rule="evenodd"/><path fill="#231E2F" fill-rule="evenodd" d="M95.989 50.36c6.954.28 12.035.479 12.927-3.677-.535 6.007-6.508 5.27-12.927 3.677zm17.462 35.06l-.004-.004a740.874 740.874 0 0 1-2.314-9.132c-3.704-15.022-11.46-18.029-17.906-10.941-.378-2.287-.316-6.464 9.686-7.777 10.002-1.31 8.22 18.718 10.538 27.853z" clip-rule="evenodd"/><path fill="#231E2F" fill-rule="evenodd" d="M92.348 63.79c-.027-4.226 3.755-8.371 12.58-5.578-8.494-4.003-16.231 1.362-12.58 5.579zm74.673-61.235c-7.691-1.063-8.384 1.379-16.661 2.792-8.254 1.405-9.827-.85-16.014 1.7 4.455-1.92 9.129-1.93 15.047-3.086 7.043-1.378 12.231-2.38 17.552-1.42.028.004.052.011.076.014z" clip-rule="evenodd"/><path fill="#231E2F" fill-rule="evenodd" d="M165.643 2.908c-2.518-.605-7.418.554-10.658 1.919-3.24 1.364-7.076 1.496-10.188 1.025 6.607 1.916 9.421-.172 11.254-.897 1.833-.725 6.736-2.345 9.592-2.047z" clip-rule="evenodd"/><path fill="#E97286" fill-rule="evenodd" d="M116.351 104.135c.159 1.744.017 3.494-.199 5.208-.22 1.716-.515 3.41-.825 5.087-.307 1.676-.595 3.345-.776 5.009-.164 1.664-.224 3.333.224 4.96l-.313.139c-.465-.762-.736-1.636-.908-2.511a14.261 14.261 0 0 1-.209-2.651c.006-1.767.253-3.499.541-5.203.294-1.704.679-3.377 1.053-5.043.373-1.668.753-3.321 1.07-5.01l.342.015z" clip-rule="evenodd"/><path fill="#231E2F" fill-rule="evenodd" d="M163.914 80.117c.425-.14.853-.151 1.268-.137.417.016.826.077 1.226.164a9.37 9.37 0 0 1 1.184.331 6.68 6.68 0 0 1 1.135.503.115.115 0 0 1 .042.157.12.12 0 0 1-.098.058 9.55 9.55 0 0 1-1.226-.055 18.384 18.384 0 0 1-1.193-.155 20 20 0 0 1-2.32-.51l-.009-.002a.184.184 0 0 1-.129-.228.186.186 0 0 1 .12-.126z" clip-rule="evenodd"/><path fill="#7E4EE3" fill-rule="evenodd" d="M149.411 19.072c-.798-3.905-3.47-2.363-2.442 1.747s1.438 8.538 3.391 6.171c1.953-2.366-.949-7.918-.949-7.918z" clip-rule="evenodd"/><path fill="#7E4EE3" fill-rule="evenodd" d="M193.63 31.451c-2.545 2.778-8.957 2.486-9.307-10.657-.191-7.166 10.507-8.171 12.893-4.44 2.387 3.73-1.042 12.32-3.586 15.097zm-19.713-6.847c-.594 2.462-4.173 11.377-12.029 11.127-7.856-.247-9.92-11.56-10.668-16.75-.744-5.192 6.564-7.4 14.793-5.624 8.229 1.773 9.203 5.856 7.904 11.247zm24.976-9.317c-.178-3.02-11.645-6.456-17.789 3.018-1.396 1.423-2.236 1.244-3.594-.175-1.354-1.423-7.05-6.134-11.302-6.467-13.722-1.073-22.027 1.313-15.81 16.593 6.216 15.276 19.332 9.409 23.519 1.42 4.186-7.99 6.854-8.385 8.099-3.66 4.266 13.075 13.678 9.54 15.989-1.484 1.598.168 2.706.346 3.395-5.16.689-5.508-2.154-4.794-2.507-4.085z" clip-rule="evenodd"/><path stroke="#5D33BA" stroke-linecap="round" stroke-width="1.029" d="M146.452 20.72L148 26.369m50.893-11.082c.422 2.411.888 4.711 0 6.978"/><path fill="#D4E5F4" fill-rule="evenodd" d="M86.768 169.171l47.321-16.218 61.499 23.619-48.875 25.079-59.945-32.48z" clip-rule="evenodd"/><path fill="#E9F3FF" fill-rule="evenodd" d="M101.045 171.081l46.112-19.392 62.96 19.392-47.06 28.338-62.012-28.338z" clip-rule="evenodd"/><path fill="#D4E5F4" fill-rule="evenodd" d="M53.808 161.75l11.597-14.195 48.06 1.837-6.695 18.709-52.962-6.351z" clip-rule="evenodd"/><path fill="#A3CAFF" fill-rule="evenodd" d="M65.507 147.417c1.822 1.267 3.602 2.593 5.379 3.912 1.775 1.319 3.569 2.609 5.434 3.755.935.57 1.895 1.09 2.883 1.543.996.431 2.006.834 3.057 1.087 2.087.572 4.276.698 6.443.542 2.172-.161 4.325-.621 6.432-1.233a69.835 69.835 0 0 0 6.233-2.174c4.084-1.671 8.073-3.594 12.016-5.608l.162.302c-3.864 2.175-7.815 4.212-11.907 5.961-2.053.856-4.132 1.668-6.277 2.3-2.14.635-4.342 1.122-6.591 1.303-.563.033-1.125.09-1.69.076h-.85l-.847-.055-.424-.027-.421-.054-.844-.112-.834-.169-.416-.088-.41-.115c-1.102-.277-2.155-.708-3.185-1.166a28.736 28.736 0 0 1-2.958-1.619 40.025 40.025 0 0 1-2.759-1.901c-.898-.659-1.77-1.346-2.643-2.031l-5.187-4.153.204-.276z" clip-rule="evenodd"/><path fill="#E9F3FF" fill-rule="evenodd" d="M53.808 161.75l-1.866-3.409s17.62-8.068 24.65-7.983c7.03.084 28.008 10.701 28.008 10.701l2.17 7.042-52.962-6.351z" clip-rule="evenodd"/><path stroke="#D5CFE3" stroke-linecap="round" stroke-linejoin="round" stroke-width=".686" d="M183.595 165.62l-35.247 21.234-39.783-15.44 40.364-16.147 34.666 10.353z" clip-rule="evenodd"/><path stroke="#D5CFE3" stroke-linecap="round" stroke-linejoin="round" stroke-width=".686" d="M176.79 164.305l-35.612 20.293m32.787-22.636l-36.034 19.572m5.073-22.822l25.011 10m-44.222-1.498l26.605 11.491"/><path fill="#FFD066" fill-rule="evenodd" d="M182.181 171.748l6.844-4.026 11.406 3.339-7.637 5.119-10.613-4.432z" clip-rule="evenodd"/><path fill="#F0EAFA" fill-rule="evenodd" d="M199.977 157.654c-3.82 0-22.107.804-24.191 1.031-2.014.224-1.974-.948-2.23-3.106l-.028-.224c-.288-2.296-.983-6.89-.983-6.89-.347-2.986.231-3.103 4.747-3.217 4.512-.113 17.127-.537 20.368-.555 3.241-.019 3.241.212 3.934 2.394.514 1.611 1.092 4.416 1.497 6.464l.356 1.804c.349 1.722.349 2.299-3.47 2.299z" clip-rule="evenodd"/><path fill="#7E4EE3" fill-rule="evenodd" d="M203.091 153.551l-29.535 2.028-.028-.224c-.288-2.296-.983-6.89-.983-6.89-.347-2.987.231-3.103 4.747-3.217 4.512-.113 17.127-.537 20.368-.555 3.241-.019 3.241.212 3.934 2.394.514 1.611 1.092 4.416 1.497 6.464z" clip-rule="evenodd"/><path fill="#5D33BA" fill-rule="evenodd" d="M200.522 150.18l-.645-1.65-13.166.382.644 1.55 13.167-.282zm-.967-2.279l-.507-1.492h-5.995l.563 1.492h5.939z" clip-rule="evenodd"/><path fill="#00C6CD" fill-rule="evenodd" d="M175.567 154.32c-.249-1.886.373-2.007 2.026-1.933 1.652.073 3.217-.593 3.646 1.542.428 2.134 1.432 3.145-.515 3.334-1.947.189-1.493-.026-2.831.078-1.337.104-1.935-.06-2.326-3.021z" clip-rule="evenodd"/><path fill="#5D33BA" fill-rule="evenodd" d="M191.711 147.901l-.524-1.492-8.846.206.409 1.286h8.961z" clip-rule="evenodd"/></g></g></svg>