<svg xmlns="http://www.w3.org/2000/svg" fill="none" viewBox="0 0 320 180"><mask id="a" width="320" height="180" x="0" y="0" maskUnits="userSpaceOnUse"><path fill="#fff" d="M0 0h320v180H0z"/></mask><g mask="url(#a)"><mask id="b" width="288" height="172" x="16" y="-4" maskUnits="userSpaceOnUse"><path fill="#fff" fill-rule="evenodd" d="M303.64 102.041c-.027.3-.058.593-.089.893l-.012.107a79.318 79.318 0 0 1-.933 6.31 79.157 79.157 0 0 1-1.002 4.616c-.132.537-.271 1.07-.411 1.6-.104.394-.216.784-.325 1.174a78.73 78.73 0 0 1-2.168 6.473c-1.32 3.456-2.864 6.746-4.614 9.803a58.83 58.83 0 0 1-4.839 7.23c-2.229 2.833-4.656 5.33-7.258 7.403a34.777 34.777 0 0 1-3.859 2.684l-.279.166a155.692 155.692 0 0 1-7.296 4.097l-9.031 3.8-7.467 3.14c-16.785 5.29-35.788 5.966-70.425 6.05l-5.183.01c-1.011 0-2.032.003-3.07.003l-7.115.017-6.801.016-2.16.007c-3.298.027-6.569.067-9.813.11l-1.63.02c-2.93.04-5.837.083-8.721.12-.433.007-.867.01-1.301.017-3.909.05-7.772.086-11.581.093h-1.77c-.801 0-1.598-.003-2.392-.01a442.822 442.822 0 0 1-3.836-.027l-.569-.006c-2.342-.03-4.657-.077-6.948-.144-7.32-.213-14.385-.643-21.14-1.426-.56-.067-1.122-.134-1.68-.204-11.19-1.406-21.51-3.833-30.685-7.94-6.104-2.726-11.698-6.193-16.715-10.593a62.136 62.136 0 0 1-7.138-7.403c-3.306-4.043-6.26-8.67-8.833-13.957a78.607 78.607 0 0 1-1.564-3.4c-.306-.703-.6-1.403-.883-2.096-.51-1.26-.987-2.507-1.432-3.737a88.022 88.022 0 0 1-1.83-5.67 29.21 29.21 0 0 1-.19-.686 76.025 76.025 0 0 1-1.893-8.81c-1.843-12.107-.183-22.493 3.402-31.183a56.123 56.123 0 0 1 7.37-12.76 59.776 59.776 0 0 1 2.985-3.604 63.81 63.81 0 0 1 4.03-4.1c.251-.23.503-.46.754-.686 6.175-5.54 12.724-9.227 17.826-11.067a27.002 27.002 0 0 1 1.417-.476c.263-.084.519-.16.77-.23.593-.164 1.181-.327 1.781-.49.046-.014.097-.027.143-.04.248-.067.492-.134.743-.2a312.321 312.321 0 0 1 16.669-3.98c2.226-.47 4.475-.924 6.747-1.354 20.919-3.996 28.563-34.331 51.038-35.218.023-.003.043-.003.066-.003a476.72 476.72 0 0 1 20.566-.377c3.875.014 7.727.074 11.548.187 3.402.1 21.778 28.111 25.123 28.288a235.5 235.5 0 0 1 2.19.12 370.638 370.638 0 0 1 21.937 1.883c2.114.244 4.208.51 6.275.79 9.527 1.297 18.515 2.967 26.745 5.017 1.486.367 2.938.747 4.37 1.14.321.09.639.177.96.27a146.65 146.65 0 0 1 11.458 3.697 114.994 114.994 0 0 1 2.543.976 96.279 96.279 0 0 1 8.067 3.61 55.551 55.551 0 0 1 5.385 3.12 51.66 51.66 0 0 1 7.088 5.59 50.632 50.632 0 0 1 6.696 7.733c2.826 4.014 5.04 8.37 6.689 12.94a60.381 60.381 0 0 1 1.804 5.937c.12.473.232.947.341 1.42.004.017.008.03.008.043.166.704.313 1.413.449 2.127l.116.627c.058.313.112.63.162.95.918 5.473 1.173 11.08.84 16.636-.054.94-.127 1.88-.22 2.817z" clip-rule="evenodd"/></mask><g mask="url(#b)"><path fill="#FFE8B3" fill-rule="evenodd" d="M303.64 102.041c-.027.3-.058.593-.089.893l-.012.107a79.318 79.318 0 0 1-.933 6.31 79.157 79.157 0 0 1-1.002 4.616c-.132.537-.271 1.07-.411 1.6-.104.394-.216.784-.325 1.174a78.604 78.604 0 0 1-2.168 6.473c-1.32 3.457-2.864 6.746-4.614 9.803a58.83 58.83 0 0 1-4.839 7.23c-2.229 2.833-4.656 5.33-7.258 7.403a34.777 34.777 0 0 1-3.859 2.684l-.279.166a154.792 154.792 0 0 1-7.296 4.097l-9.031 3.8-7.467 3.14c-16.785 5.29-35.788 5.966-70.425 6.05l-5.183.01c-1.011 0-2.032.003-3.07.003l-7.115.017-6.801.016-2.16.007c-3.298.027-6.569.067-9.813.11l-1.63.02c-2.93.04-5.837.083-8.721.12-.433.007-.867.01-1.301.017-3.909.05-7.772.086-11.581.093h-1.77c-.801 0-1.598-.003-2.392-.01a442.822 442.822 0 0 1-3.836-.027l-.569-.006c-2.342-.03-4.657-.077-6.948-.144-7.32-.213-14.385-.643-21.14-1.426-.56-.067-1.122-.134-1.68-.203-11.19-1.407-21.51-3.834-30.685-7.94-6.104-2.727-11.698-6.194-16.715-10.594a62.136 62.136 0 0 1-7.138-7.403c-3.306-4.043-6.26-8.67-8.833-13.956a79.73 79.73 0 0 1-1.564-3.4c-.306-.704-.6-1.404-.883-2.097-.51-1.26-.987-2.507-1.432-3.737a88.022 88.022 0 0 1-1.83-5.67 29.21 29.21 0 0 1-.19-.686 76.025 76.025 0 0 1-1.893-8.81c-1.843-12.107-.183-22.493 3.402-31.183a56.124 56.124 0 0 1 7.37-12.76 59.776 59.776 0 0 1 2.985-3.604 63.81 63.81 0 0 1 4.03-4.1c.251-.23.503-.46.754-.686 6.175-5.54 12.724-9.227 17.826-11.067a26.383 26.383 0 0 1 1.417-.476c.263-.084.519-.16.77-.23.593-.164 1.181-.327 1.781-.49.046-.014.097-.027.143-.04.248-.067.492-.134.743-.2a312.321 312.321 0 0 1 16.669-3.98c2.226-.47 4.475-.924 6.747-1.354 20.919-3.996 43.564-6.45 66.039-7.336.023-.004.042-.004.065-.004a476.602 476.602 0 0 1 20.567-.376c3.875.013 7.726.073 11.547.186a433.274 433.274 0 0 1 12.313.527 370.555 370.555 0 0 1 21.937 1.883c2.114.244 4.208.51 6.275.79 9.527 1.297 18.515 2.967 26.745 5.017 1.486.367 2.938.747 4.37 1.14.321.09.639.177.96.27a146.65 146.65 0 0 1 11.458 3.697 114.994 114.994 0 0 1 2.543.976 96.311 96.311 0 0 1 8.067 3.61 55.572 55.572 0 0 1 5.385 3.12 51.66 51.66 0 0 1 7.088 5.59 50.632 50.632 0 0 1 6.696 7.733c2.826 4.014 5.04 8.37 6.689 12.94a60.39 60.39 0 0 1 1.804 5.937c.12.473.232.947.341 1.42.004.017.008.03.008.043.166.704.313 1.414.449 2.127l.116.627c.058.313.112.63.162.95.918 5.473 1.173 11.08.84 16.636-.054.94-.127 1.88-.22 2.817z" clip-rule="evenodd"/><path fill="#FFD066" d="M99.49 190.568c-12.88-8.06-28.127-11.21-37.622-10.966-9.495.244-13.164-20.301 9.42-17.066 22.584 3.235 28.202 28.032 28.202 28.032z"/><path fill="#FFBA21" d="M58.334 171.388a15.818 15.818 0 0 1 3.41-2.079 24.652 24.652 0 0 1 3.703-1.37 29.59 29.59 0 0 1 7.81-1.092c2.704-.06 5.4.33 7.975 1.157a14.061 14.061 0 0 1 3.743 1.879 8.936 8.936 0 0 1 2.806 3.145.757.757 0 0 1-.103.843.765.765 0 0 1-1.033.114h-.035c-1.874-1.406-4.027-1.994-6.28-2.338a38.933 38.933 0 0 0-6.978-.244 65.64 65.64 0 0 0-3.554.254c-1.186.11-2.383.224-3.579.344l-7.292.758a.776.776 0 0 1-.578-1.376l-.015.005z"/><path fill="#FFD066" d="M44 30H25v150h19V30z"/><path fill="#FFD87E" d="M117 49H60v53h57V49z"/><path fill="#FFD066" d="M85.886 163.522c-11.215-20.834-37.622-22.953-29.198-35.164 8.423-12.212 26.267 11.035 29.198 35.164zm19.07 36.885c.499-23.776 26.243-68.196 26.293-49.161.05 19.035-26.542 60.595-26.293 49.161zm-8.538 9.909c-7.477-45.009-11.32-79.481 2.99-72.319 14.311 7.163 5.05 49.774-2.99 72.319z"/><path fill="#FFD066" d="M103.83 196.13c-14.62-36.595-52.177-60.376-49.715-37.408 2.463 22.968 25.73 10.104 49.715 37.408zm6.405-28.316c1.495-12.386-.229-25.276-2.492-32.697-2.263-7.422 8.084-15.99 11.394 2.711 3.31 18.701-8.902 29.986-8.902 29.986z"/><path fill="#FFBA21" d="M64.03 159.161a58.632 58.632 0 0 1 8.528 3.674 73.334 73.334 0 0 1 7.975 4.819 49.108 49.108 0 0 1 7.222 6.052 27.204 27.204 0 0 1 3.066 3.733c.224.339.433.698.648 1.047.214.348.403.717.568 1.106.364.762.63 1.568.792 2.398a.758.758 0 0 1-1.365.578l-.035-.045a18.924 18.924 0 0 0-2.881-3.16 61.478 61.478 0 0 0-3.375-2.796c-2.332-1.8-4.765-3.524-7.207-5.259-2.442-1.735-4.91-3.459-7.402-5.249-2.492-1.789-4.92-3.588-7.282-5.607a.754.754 0 0 1-.266-.521.765.765 0 0 1 .181-.556.771.771 0 0 1 .833-.214zm34.481 22.046a36.526 36.526 0 0 1-.792-2.093c-.25-.708-.404-1.421-.588-2.139a43.39 43.39 0 0 1-.793-4.326 67.943 67.943 0 0 1-.568-8.698c0-2.896.08-5.787.32-8.668a70.4 70.4 0 0 1 1.205-8.608.754.754 0 0 1 .78-.603.757.757 0 0 1 .716.678c.319 2.871.463 5.737.603 8.588.14 2.851.2 5.702.269 8.543.07 2.841.115 5.673.15 8.474.034 2.801.05 5.642.159 8.473v.025a.759.759 0 0 1-1.456.324l-.005.03zm-13.238-16.144c-1.196-2.891-2.572-5.703-4.047-8.474a139.135 139.135 0 0 0-4.706-8.149 88.323 88.323 0 0 0-5.358-7.706 44.53 44.53 0 0 0-3.025-3.489 15.896 15.896 0 0 0-1.665-1.525 6.65 6.65 0 0 0-1.79-1.082h-.03a.768.768 0 0 1 .43-1.475 7.174 7.174 0 0 1 2.432 1.091c.698.452 1.364.951 1.993 1.495a34.518 34.518 0 0 1 3.455 3.49 67.15 67.15 0 0 1 5.786 7.775 72.365 72.365 0 0 1 4.716 8.444 43.228 43.228 0 0 1 3.25 9.146.751.751 0 0 1-.515.869.757.757 0 0 1-.916-.425l-.01.015zm24.269 2.492c.434-2.233.997-4.391 1.445-6.565.449-2.173.967-4.326 1.351-6.504s.703-4.382.942-6.59.419-4.441.588-6.694a.752.752 0 0 1 1.229-.538.757.757 0 0 1 .267.469c.358 2.286.524 4.599.498 6.913a49.742 49.742 0 0 1-.558 6.928 41.63 41.63 0 0 1-1.55 6.779 30.934 30.934 0 0 1-2.816 6.33.77.77 0 0 1-.469.343.752.752 0 0 1-.573-.089.77.77 0 0 1-.354-.792v.01zm7.95 9.968a5.784 5.784 0 0 1-.533-2.073 9.234 9.234 0 0 1 .054-1.994 17.04 17.04 0 0 1 .997-3.623 76.184 76.184 0 0 1 2.802-6.804 83.379 83.379 0 0 1 3.354-6.505 62.184 62.184 0 0 1 1.904-3.14c.334-.498.688-1.022 1.052-1.53.184-.254.379-.498.583-.758.105-.124.209-.254.334-.388.066-.074.136-.144.209-.21.052-.051.107-.1.165-.144l.139-.095.07-.04.11-.045a.75.75 0 1 1 .339 1.446.51.51 0 0 0 .169-.025l.08-.035c.035 0 .05-.03.05 0l.05-.025-.065.14-.17.363-.339.803c-.229.538-.438 1.096-.658 1.65l-1.3 3.364-2.542 6.709c-.833 2.228-1.66 4.456-2.418 6.674-.384 1.107-.693 2.228-1.176 3.275a16.534 16.534 0 0 1-1.77 3.06l-.059.085a.837.837 0 0 1-.875.322.856.856 0 0 1-.297-.137.793.793 0 0 1-.259-.32z"/><path fill="#FFD066" d="M209 167.767l61.707.468 30.145.234L315.96 4.892 296.197 4l-67.259 11.639a775.173 775.173 0 0 0-11.036 56.747A777.105 777.105 0 0 0 209 167.767z"/><path fill="#FFBA21" d="M217.653 126.182l45.388 8.558 6.39-40.458 5.019-31.825.658-4.147 1.44-9.142-49.918 7.776-5.912 45.592-3.065 23.646z"/><path fill="#FFD066" d="M270.512 114.573l-53.637-5.981.494-8.07 58.566 2.707-5.423 11.344z"/><path fill="#FFF8E9" d="M233.922 84.931c.538.09 1.091.165 1.655.24 10.861 1.495 26.89 1.56 35.294 1.495l4.84-30.659.384-2.427-30.056 3.932a101.51 101.51 0 0 0-12.117 27.414v.005z"/><path fill="#FFBA21" d="M220.22 95.214c2.602-4.9 15.122-28.326 23.067-40.313 0 0 18.713-2.901 33.48-5.668l1.496-9.505-51.898 8.105-6.145 47.381z"/><path fill="#FFD066" d="M242.495 54.631c-1.296-.364-2.557-.802-3.813-1.266a108.93 108.93 0 0 1-3.728-1.465 74.845 74.845 0 0 1-3.659-1.625c-1.206-.573-2.407-1.161-3.579-1.83a.224.224 0 0 1-.067-.058.223.223 0 0 1-.046-.17.217.217 0 0 1 .029-.085.238.238 0 0 1 .264-.11c1.296.364 2.557.803 3.813 1.266 1.256.464 2.492.957 3.723 1.495 1.231.539 2.452 1.052 3.664 1.625 1.211.573 2.407 1.162 3.573 1.825a.218.218 0 0 1 .071.058c.02.024.034.052.042.082a.226.226 0 0 1-.023.179.227.227 0 0 1-.264.08zm18.741 63.93l-1.56 12.855-37.323-6.744 1.361-10.831 37.522 4.72z"/><path fill="#FFBA21" d="M270.702 168.235l30.145.234L315.96 4.892 296.197 4c-16.568 55.017-24.942 113.768-25.495 164.235z"/><path fill="#7E4EE3" d="M234.352 100.734a35.051 35.051 0 0 1-5.892 4.616 26.5 26.5 0 0 1-2.123 1.211c-6.699 3.489-12.331 3.489-19.938 8.942l-.712.524s-.997 11.743-1.266 32.503c-6.799-1.795-8.907-2.991-11.021-4.486-2.113-1.496-5.812.458-2.901 3.987 2.911 3.529 7.796 7.477 7.796 7.477-12.536-5.358-14.525-5.169-16.513-3.2-1.735 1.729-.434 2.283-.08 2.397-2.682-.693-3.27 1.266-1.909 2.173 1.361.908 12.541 5.847 12.541 5.847-8.564.115-11.165.115-14.221-1.106-3.055-1.222-5.194 3.823-1.994 4.74 3.2.917 15.452 2.442 19.724.762a44.879 44.879 0 0 0 8.503-4.64c.025 5.169.09 10.726.229 16.633h-84.929s3.699-33.585 2.403-61.034c3.648.184 5.543-1.994 6.405.917 1.116 3.709 2.228 8.788 5.323 7.915 3.095-.872-.498-11.374 0-14.953 3.958 5.817 7.422 13.119 9.65 12.371 2.228-.747 2.078-1.729 2.078-1.729 1.142 2.103 5.349.498 4.985-1.854-.364-2.353-4.835-10.263-4.985-10.512a30.478 30.478 0 0 1 8.559 8.902c1.495 2.223 2.965 1.61 3.718.737.753-.872-3.095-10.641-9.042-13.238 5.817-.498 8.912-3.22 9.904-5.194.992-1.974-6.066-1.954-12.017-1.804-5.952.15-26.482 6.106-32.299 5.363h-.12a65.944 65.944 0 0 1-6.978-10.691 78.841 78.841 0 0 1-7.94-23.322c-.13-.783-.244-1.55-.339-2.303 0 0 16.449-4.616 28.007-7.063 11.559-2.447 52.012 2.447 65.121 4.227 3.21.433 7.297 1.934 12.068 4.43 2.292 1.207 6.768 3.784 13.776 10.578a118.064 118.064 0 0 1 16.429 19.877z"/><path fill="#5D33BA" d="M204.311 112.323c-8.379-19.818-.139-26.691 2.991-26.377 3.13.314-1.137 23.75-1.137 23.75 3.694-7.531 5.553-19.439 5.553-19.439 2.113 15.317-.449 22.28-7.407 22.066z"/><path fill="#7E4EE3" d="M148.661 106.606c5.941 2.602 9.779 12.376 9.036 13.243-.742.868-2.228 1.496-3.713-.742a30.4 30.4 0 0 0-8.558-8.902c.134.249 4.605 8.189 4.984 10.507.379 2.318-3.838 3.962-4.984 1.859 0 0 .149.997-2.079 1.735-2.228.737-5.692-6.56-9.679-12.357-.499 3.589 3.095 14.106 0 14.953-3.096.848-4.202-4.211-5.319-7.92-.867-2.906-2.751-.732-6.405-.917a186.364 186.364 0 0 0-.334-5.553 49.719 49.719 0 0 1-7.476-7.526h.119c5.817.743 26.353-5.204 32.294-5.363 5.942-.16 12.989-.21 12.008 1.774-.982 1.984-4.078 4.716-9.894 5.209z"/><path fill="#3D3450" d="M160.404 154.815c.528-22.928 22.659-35.115 32.328-35.962 9.565 7.975 18.443 22.295 18.443 22.295-1.167 12.934-14.809 23.033-31.272 27.02-8.743-4.974-19.499-13.353-19.499-13.353z"/><path fill="#231E2F" d="M192.877 120.203C181.5 134 188.5 150 162.128 154.396c-.05-25.624 28.037-35.409 30.749-34.193z"/><path fill="#1E71EC" d="M190.106 121.489c-8.653 2.493-25.999 20.282-26.537 31.631C178 151.5 184.5 136 190.106 121.489z"/><path fill="#569AFF" d="M183.483 125c.259 5.792.084 10.826-5.483 16.249 5.587-5.338 7.083-7.905 5.483-16.249z"/><path fill="#569AFF" d="M183.706 134c-2.098 7.925-11.06 14.838-18.706 14.659 8.663-3.404 14.071-7.761 18.706-14.659z"/><path fill="#231E2F" d="M186.5 141c3-4.5 12-5.5 15-5.5-5.6 1.6-12.333 4.333-15 5.5zm-4 5c5.167 3.5 16 11.1 18 13.5-8-2.8-15.333-10.167-18-13.5z"/><path fill="#E9F3FF" d="M181.041 139.536s-1.126.654-3.137 1.575a64.897 64.897 0 0 1-13.319 4.336l-.056-.008a59.526 59.526 0 0 1-32.2-1.899l-5.585-3.96.333-1.757-2.657-.529-.16-.188-2.846-3.352c-2.181-12.491-.043-27.395-.043-27.395 14.429.54 26.808-1.241 35.626-3.987a41.786 41.786 0 0 0 9.697-4.21 17.832 17.832 0 0 0 1.505-1.042c1.872.65 3.701 1.42 5.475 2.303l.45 3.112 3.227-1.63a7.834 7.834 0 0 0 5.621 3.81 96133.7 96133.7 0 0 1-1.931 34.821z"/><path fill="#569AFF" d="M174.124 102.535s-2.341 1.55-13.712 3.609c-1.692.287-3.592.627-5.709.954 1.742-.507 3.422-1.085 5.017-1.649 6.1-2.227 11.012-4.776 13.954-6.026l.45 3.112z"/><path fill="#A3CAFF" d="M164.585 145.447l-.056-.008a135.131 135.131 0 0 1-27.582 3.037c1.184-9.632 4.178-30.303 3.174-33.869 1.913-2.623-1.572-5.959-5.093-8.43 8.613-.567 16.082-1.969 21.969-3.805.889 1.07 1.784 2.104 2.724 3.072a76.085 76.085 0 0 1-5.017 1.649c2.116-.327 4.014-.647 5.709-.954a23.03 23.03 0 0 0 7.381 4.952c-.95 16.138-.86 26.458-3.209 34.356z"/><path fill="#569AFF" d="M126.743 139.585l.334-1.757-2.657-.529-.161-.188-2.846-3.352c-2.18-12.491-.043-27.394-.043-27.394 4.554.168 9.114.1 13.66-.203 3.521 2.471 6.975 5.802 5.093 8.43 1.004 3.566.877 19.167-3.174 33.869l-10.206-8.876z"/><path fill="#1E71EC" d="M127.077 137.828c3.092-19.15.222-28.119.222-28.119-1.249 6.935-2.882 27.574-2.882 27.574l2.66.545z"/><path fill="#569AFF" d="M138.402 115.677c11.842 1.642 40.516-7.035 44.503-10.904l-5.65-3.994-3.149 1.721-.455-3.085c-.876-.649-3.571-1.753-5.585-2.497-7.396 5.297-26.147 9.966-33.533 11.842-7.387 1.876-7.973 5.276 3.869 6.917z"/><path fill="#1E71EC" d="M154.833 110.243c3.607-.634 11.723-2.125 15.335-3.014-4.235 2.411-11.988 3.014-15.335 3.014zm4.692-3.959c4.666.185 11.645-2.464 14.552-3.811l-.347-3.118c-2.252 1.251-8.246 4.388-14.205 6.929zM137 121c.5 7-1.5 20-3.5 21.5.8-5.2 2.667-16.5 3.5-21.5z"/><path fill="#7E4EE3" d="M204.241 162.471a44.856 44.856 0 0 1-8.503 4.635c-4.282 1.68-16.513.155-19.723-.762-3.21-.917-1.067-5.982 1.993-4.74 3.061 1.241 5.658 1.216 14.221 1.106 0 0-11.16-4.929-12.541-5.847-1.38-.917-.777-2.866 1.909-2.173-.354-.109-1.66-.668.08-2.397 1.994-1.969 3.987-2.158 16.508 3.195 0 0-4.894-3.988-7.79-7.477-2.896-3.489.762-5.483 2.896-3.987 2.133 1.495 4.231 2.716 11.025 4.486-.065 4.311-.09 8.947-.075 13.961z"/><path fill="#5D33BA" d="M124.835 107.374c-6.021-10.238-10.881-32.847-7.008-33.57 3.873-.723 7.008 28.142 7.008 28.142 2.637-8.658 2.492-21.887 2.492-21.887 4.955 11.544 3.769 19.998-2.492 27.315z"/><path fill="#F69C93" d="M148.661 106.606c5.941 2.602 9.779 12.376 9.036 13.243-.742.868-2.228 1.496-3.713-.742a30.4 30.4 0 0 0-8.558-8.902c.134.249 4.605 8.189 4.984 10.507.379 2.317-3.838 3.962-4.984 1.859 0 0 .149.997-2.079 1.734-2.228.738-5.692-6.559-9.679-12.356-.499 3.589 3.095 14.106 0 14.953-3.096.848-4.202-4.211-5.319-7.92-.867-2.906-2.751-.733-6.405-.917a9.696 9.696 0 0 1-3.489-.867s-21.801 10.357-41.33 4.441c-19.529-5.917-26.333-29.592-22.49-31.372 3.126-1.44 24.967-12.63 42.258-18.527.78-.269 1.553-.525 2.318-.767a78.858 78.858 0 0 0 7.935 23.322c-1.994.443-4.377.996-6.704 1.495-3.26.747-6.445 1.495-8.474 2.028 0 0 16.229 6.336 22.151 7.153h.12c5.816.743 26.352-5.204 32.293-5.363 5.942-.16 12.99-.21 12.008 1.774-.982 1.984-4.063 4.731-9.879 5.224zm99.966 41.545c-1.994 2.293-16.354 11.309-38.061 7.975-1.101 2.203-3.568 4.441-6.325 6.35a44.935 44.935 0 0 1-8.503 4.64c-4.252 1.655-16.508.16-19.703-.772-3.195-.932-1.062-5.982 1.993-4.74 3.056 1.241 5.653 1.221 14.221 1.106 0 0-11.165-4.929-12.541-5.847-1.375-.917-.777-2.866 1.904-2.173-.349-.114-1.655-.668.085-2.397 1.994-1.969 3.987-2.158 16.513 3.2 0 0-4.899-3.988-7.8-7.477-2.901-3.489.767-5.483 2.901-3.987 2.133 1.495 4.226 2.711 11.025 4.486.1.03.194.054.294.074 6.42-3.823-2.143-16.812 1.376-19.259 3.519-2.448 5.069 2.786 6.569 12.231 0 0 3.524-3.514 7.038-6.873 0 0-4.86-6.724-10.078-14.385-1.067-1.58-2.159-3.2-3.22-4.815 7.616-5.483 13.248-5.453 19.937-8.942a29.106 29.106 0 0 0 2.119-1.211c.548.837 1.106 1.705 1.679 2.572 2.333 3.589 4.775 7.387 6.979 10.966 7.337 11.842 13.592 26.97 11.598 29.278z"/><path fill="#E97286" d="M225.285 109.781c-5.109 2.298-11.075 5.897-15.775 10.537-1.067-1.58-2.159-3.2-3.22-4.815 7.616-5.483 13.248-5.453 19.937-8.942a29.106 29.106 0 0 0 2.119-1.211c.548.837 1.106 1.705 1.679 2.572a48.18 48.18 0 0 0-4.75 1.859M107.161 94.295c-1.994.443-4.377.996-6.704 1.495-4.486-6.889-4.137-15.452-3.55-24.065a97.982 97.982 0 0 1 2.319-.767 78.86 78.86 0 0 0 7.935 23.337zm-40.608-3.963a16.18 16.18 0 0 1 6.863-1.45 18.22 18.22 0 0 1 6.919 1.575 42.056 42.056 0 0 1 6.076 3.384c1.924 1.246 3.798 2.537 5.722 3.763a.269.269 0 0 1 .08.364.26.26 0 0 1-.33.095c-2.098-.947-4.112-2.064-6.11-3.16a119.494 119.494 0 0 0-2.99-1.61l-1.496-.748-1.53-.658a20.33 20.33 0 0 0-6.376-1.495 29.206 29.206 0 0 0-6.644.444.27.27 0 0 1-.304-.22.28.28 0 0 1 .12-.284zm115.144 64.119c1.107.389 2.198.818 3.29 1.241a183.892 183.892 0 0 1 6.484 2.677l1.605.713c.529.254 1.067.498 1.59.752a.268.268 0 0 1-.194.499 58.065 58.065 0 0 1-3.33-1.147 94.503 94.503 0 0 1-3.274-1.286 83.101 83.101 0 0 1-3.225-1.405c-1.062-.494-2.129-.997-3.16-1.555a.263.263 0 0 1-.13-.154c-.01-.033-.013-.068-.01-.102a.255.255 0 0 1 .03-.098.271.271 0 0 1 .137-.128.273.273 0 0 1 .187-.007zM149.149 63.97c-.673 5.148-1.376 11.22 2.313 15.451 6.13 7.058 21.811 6.076 29.617-2.118a19.903 19.903 0 0 0 4.715-8.648 413.278 413.278 0 0 1-10.966-22.828 386.043 386.043 0 0 1-6.629-15.866c-6.44 5.942-16.902 17.56-19.05 34.009z"/><path fill="#C2AFE9" d="M143.601 70.958l.299 2.033.454 1.994c.219.648.414 1.296.648 1.929l.409.932c.12.314.263.619.428.912a17.41 17.41 0 0 0 5.154 6.046c.269.195.558.364.833.549.273.183.558.35.852.498a17.58 17.58 0 0 0 1.799.872l.922.384c.314.115.638.204.957.304.319.1.633.22.962.284l.997.22a24.58 24.58 0 0 0 8.035.289 34.464 34.464 0 0 0 15.048-5.902 45.297 45.297 0 0 0 6.34-5.219 56.682 56.682 0 0 0 5.363-6.285.261.261 0 0 1 .429.3 50.674 50.674 0 0 1-5.109 6.653 42.898 42.898 0 0 1-6.31 5.583 34.395 34.395 0 0 1-15.576 6.39c-2.842.392-5.73.295-8.539-.29a19.753 19.753 0 0 1-7.84-3.488 17.681 17.681 0 0 1-5.309-6.71 20.447 20.447 0 0 1-1.749-8.258.263.263 0 0 1 .016-.1.265.265 0 0 1 .139-.144.249.249 0 0 1 .099-.02.26.26 0 0 1 .264.224l-.015.02z"/><path fill="#E97286" d="M219.399 134.543a22.157 22.157 0 0 1 2.088-3.673 39.712 39.712 0 0 1 2.567-3.3 29.396 29.396 0 0 1 2.926-2.99 16.9 16.9 0 0 1 3.489-2.408.283.283 0 0 1 .374.125.287.287 0 0 1 0 .244 20.615 20.615 0 0 1-2.273 3.544 39.08 39.08 0 0 1-2.711 3.095 69.37 69.37 0 0 1-2.911 2.906 59.578 59.578 0 0 1-3.155 2.791.265.265 0 0 1-.379-.039.256.256 0 0 1-.052-.145.262.262 0 0 1 .037-.15zm-6.659 10.527a22.65 22.65 0 0 1 .314 3.704 19.462 19.462 0 0 1-.319 3.748 11.615 11.615 0 0 1-1.296 3.619 8.15 8.15 0 0 1-2.607 2.806.257.257 0 0 1-.201.037.256.256 0 0 1-.168-.117.282.282 0 0 1-.047-.154c0-.055.017-.109.047-.155a12.81 12.81 0 0 0 1.824-2.991c.443-1.073.767-2.191.967-3.334a26.94 26.94 0 0 0 .284-1.75l.12-.887c.025-.299.06-.598.1-.897.129-1.196.244-2.407.433-3.629a.27.27 0 0 1 .529 0h.02zm-85.806-31.212c.4.79.733 1.612.996 2.458.287.84.509 1.702.663 2.576a.271.271 0 0 1-.219.305.285.285 0 0 1-.279-.14 17.74 17.74 0 0 1-.997-2.492 16.38 16.38 0 0 1-.668-2.587.267.267 0 0 1 .176-.305.265.265 0 0 1 .323.14l.005.045zm12.082-3.374c.876.77 1.664 1.636 2.347 2.582a24.077 24.077 0 0 1 1.865 2.941 29.042 29.042 0 0 1 1.465 3.15c.451 1.079.785 2.204.997 3.354a.254.254 0 0 1-.123.265.264.264 0 0 1-.381-.125 22.614 22.614 0 0 0-.682-1.536 34.057 34.057 0 0 1-.733-1.525c-.499-.997-.997-1.993-1.545-2.99a67.305 67.305 0 0 0-1.68-2.921 37.023 37.023 0 0 0-1.889-2.796.265.265 0 0 1 .055-.369.254.254 0 0 1 .304-.03zm5.513-6.565a9.367 9.367 0 0 1 3.334 1.291c.509.299.997.632 1.461.997.47.375.903.796 1.29 1.256a.25.25 0 0 1 .05.09c.01.033.014.068.011.102a.262.262 0 0 1-.095.177.273.273 0 0 1-.151.062.272.272 0 0 1-.158-.037c-.997-.603-1.919-1.246-2.876-1.849a49.91 49.91 0 0 0-1.466-.847c-.493-.275-.997-.499-1.52-.743a.263.263 0 0 1-.03-.461.255.255 0 0 1 .15-.038z"/><path fill="#F69C93" d="M173.842 35.454c1.161-8.24 9.739-4.665 8.249 5.219-1.491 9.884-5.633 11.788-7.352 6.285-1.72-5.503-.897-11.504-.897-11.504zm-40.344 16.653c-7.392-4.576-9.63 4.9-.708 10.303 8.922 5.403 12.96 3.274 9.52-1.845-3.439-5.119-8.812-8.458-8.812-8.458z"/><path fill="#F69C93" d="M122.782 20.895c-7.532 5.657-1.037 12.022 8.069 26.347 9.107 14.325 21.857 35.853 38.644 28.964 16.788-6.888 6.106-41.166 1.944-50.342-4.162-9.176-13.697-31.222-48.657-4.97z"/><path fill="#3D3450" d="M172.82 15.81c-1.939 5.752 1.271 7.976 2.926 10.129.603.787.997 1.56.847 2.492-.498 3.534-.583 4.252-1.052 9.196 0 0-2.198-1.086-3.848-7.078-.997-3.568-3.105-5.562-6.066-7.706-1.993-1.445-4.371-2.955-7.033-5.059 3.111 4.362 1.546 13.184-3.987 19.036 0 0 1.201-4.845-1.366-13.957 1.246 6.67-.917 13.987-7.028 20.606.517-1.864.823-3.78.912-5.712.394-12.052-9.968-15.183-14.733-12.013-1.735 1.162-5.668 4.327-3.659 7.093.256.34.556.643.892.902 1.81 1.406 2.811 2.682 3.145 3.913.364 1.33-.064 2.602-1.091 3.918-1.72 2.203-1.391 3.195 3.424 11.653.698 1.227 1.495 2.612 2.383 4.187a18.513 18.513 0 0 0-6.679-5.717c-2.278-1.101-3.779-2.168-4.756-3.4a7.759 7.759 0 0 1-1.555-3.703c-.538-3.11-.997-5.557-6.041-7.735a7.692 7.692 0 0 1-4.162-4.426v-.055c-1.226-3.38-.438-8.075 3.893-13.01 0 0-5.657.275-8.473-4.555 9.291-.364 20.012-5.483 33.893-12.043a38.084 38.084 0 0 1 6.331-2.492h.044c5.109-1.276 1.86 3.34 7.308 4.61l1.928.43c4.661.996 10.363 2.203 12.785 5.098 1.177 1.351 1.59 3.096.818 5.399z"/><path fill="#231E2F" d="M165.622 22.854c-1.993-1.446-4.371-2.956-7.033-5.06-2.407-2.362-4.062-2.452-4.062-2.452 7.292-.947 4.74 2.034 11.095 7.511z"/><path fill="#E97286" d="M134.485 55.626c-4.302-3.719-5.902 1.415-1.416 3.987 4.486 2.572 8.394 2.064 1.416-3.987zm42.248-15.556c-1.212-6.156 2.89-9.795 3.384-2.243.493 7.55-1.864 9.998-3.384 2.242z"/><path fill="#231E2F" d="M147.125 37.742c.399-12.052-9.968-15.187-14.724-12.017-1.739 1.16-5.672 4.326-3.663 7.092-7.088-8.279.633-9.305 5.428-10.292 4.795-.987 15.417 1.515 12.959 15.217zm-14.374-.1c.368 1.331-.06 2.602-1.082 3.913-1.725 2.208-1.396 3.2 3.414 11.658-4.361-7.008-5.901-5.657-6.574-9.66-.673-4.002 4.87-1.285 4.242-5.91zm20.505-14.773c-.912-3.843-3.823-4.985-3.823-4.985 5.782.678 5.573 5.932 5.483 13.862-.454-3.43-1.66-8.877-1.66-8.877zm19.564-7.053c-1.939 5.747 1.271 7.975 2.926 10.123-4.113-4.71-4.486 1.047-6.445-5.667-1.959-6.714 6.235-4.132 2.746-9.894 1.132 1.385 1.55 3.13.773 5.438z"/><path fill="#231E2F" d="M170.951 14.226c-2.667 2.083-3.554 3.808-2.348 6.34-3.574-2.966-.573-6.276 2.348-6.34zm-45.757 14.838c-1.65-3.175 2.178-6.948 7.786-7.895-5.049-1.74-11.355 4.142-7.786 7.895zm-4.351-12.899a24.875 24.875 0 0 0-2.697 3.19s-5.652.274-8.443-4.556c2.711 2.318 8.513 3.015 11.14 1.366zm5.198 32.119a7.803 7.803 0 0 1-1.56-3.709c-.528-3.105-.996-5.547-6.036-7.735a7.64 7.64 0 0 1-4.157-4.421c2.109 5.313 5.702.279 9.944 4.67 4.242 4.391-1.53 2.542 1.809 11.195zm31.258-43.439c.608.145 1.256.284 1.923.429-5.148-1.207-7.855.842-7.147-.987.708-1.83.693-4.705-2.089-4.072 5.114-1.257 1.86 3.359 7.313 4.63z"/><path fill="#231E2F" d="M115.5 31.337c.682 2.492.927 3.085 4.027 3.23 3.1.144 4.321.802 5.263 2.183-1.565-3.42-4.486-2.956-6.365-2.966-1.879-.01-2.925-2.447-2.925-2.447z"/><path fill="#3D3450" d="M113.007 25.37c-1.53 4.237-.184 9.47 2.622 10.468-5.014-1.002-6.156-8.09-2.622-10.467zm59.618-16.672c3.489 3.165-.643 9.734.917 12.072.31-2.233 3.734-11.065-.917-12.072z"/><path fill="#E97286" d="M158.211 53.996c7.272-1.67 7.008-1.605 5.911 3.26-1.096 4.864-4.097 4.765-7.447 1.764-3.349-3-3.623-3.838 1.536-5.024z"/><path fill="#231E2F" d="M148.95 46.03a13.83 13.83 0 0 1 3.419 2.144 23.894 23.894 0 0 1 2.856 2.821 32.375 32.375 0 0 1 2.432 3.165 28.901 28.901 0 0 1 2.039 3.43.265.265 0 0 1-.449.27c-.757-1.063-1.555-2.11-2.342-3.146a55.287 55.287 0 0 0-2.463-3.03 36.716 36.716 0 0 0-2.671-2.817 19.38 19.38 0 0 0-3.046-2.363.26.26 0 0 1 .036-.474.267.267 0 0 1 .189 0zm16.727 9.676a3.268 3.268 0 0 1-.678 1.176 8.063 8.063 0 0 1-.902.902c-.313.272-.646.52-.997.743a4.975 4.975 0 0 1-1.151.538.272.272 0 0 1-.294-.089.268.268 0 0 1-.056-.217.274.274 0 0 1 .046-.113c.249-.331.528-.64.832-.922.299-.274.603-.538.922-.782.319-.245.623-.499.942-.738.319-.24.618-.498.878-.718l.039-.035a.257.257 0 0 1 .318-.036.258.258 0 0 1 .111.3l-.01-.01z"/><path fill="#fff" d="M166.564 38.719c5.982 1.365 1.835 10.721-3.439 8.423-5.273-2.297-3.898-10.093 3.439-8.423z"/><path fill="#231E2F" d="M160.967 43.733c-.793-4.8 7.427-5.802 7.521-.693.095 5.11-6.709 5.608-7.521.693zm.289-6.45a7.756 7.756 0 0 1 4.81-1.27 5.074 5.074 0 0 1 2.492.827 4.127 4.127 0 0 1 1.56 2.048.263.263 0 0 1-.071.282.267.267 0 0 1-.392-.043 4.983 4.983 0 0 0-1.59-1.495 5.267 5.267 0 0 0-2.064-.618 8.512 8.512 0 0 0-2.243.105c-.758.126-1.5.334-2.213.623a.265.265 0 0 1-.249-.459h-.04z"/><path fill="#fff" d="M147.384 47.083c5.982 1.365 1.835 10.721-3.439 8.428-5.273-2.293-3.883-10.098 3.439-8.428z"/><path fill="#231E2F" d="M142.639 52.311c-.752-4.66 7.198-5.602 7.288-.673.089 4.93-6.485 5.423-7.288.673zm12.397-18.149c5.438-.68 13.429-4.8 13.429-4.8-.739 5.89-10.94 7.855-13.429 4.8zm-10.522 7.183c-4.961.704-12.27 4.876-12.27 4.876.73-5.91 10.034-7.922 12.27-4.876zm19.423 22.303c9.683-5.003 10.292.714 4.08 4.078-6.213 3.364-14.927 1.52-4.08-4.078z"/><path fill="#83B7FF" d="M180.602 108.881c-2.629 1.645-7.342 3.594-10.423 4.319v4.803c5.166-1.722 6.671-2.255 10.205-4.031.218-1.062.313-3.69.218-5.091zm-33.244 29.464c-1.597.42-5.079.595-6.621.63 0 1.997-.168 6.432-.84 8.198 2.438 0 5.29-.491 6.411-.736.315-1.716.966-5.738 1.05-8.092z"/><ellipse cx="163.365" cy="130.223" fill="#83B7FF" rx="7.541" ry="8.362" transform="rotate(28.382 163.365 130.223)"/><path fill="#C2AFE9" fill-rule="evenodd" d="M103.439 65.915c.184 1.529.651 3.104 1.153 4.663.501 1.563 1.082 3.12 1.656 4.678a422.142 422.142 0 0 0 3.679 9.33 1318.26 1318.26 0 0 1 3.779 9.335c1.238 3.121 2.461 6.252 3.57 9.419l.002.003c.078.224-.041.444-.268.489a.502.502 0 0 1-.515-.245c-1.746-2.984-3.288-6.033-4.748-9.11a160.907 160.907 0 0 1-4.057-9.331c-.616-1.573-1.241-3.144-1.794-4.735a90.69 90.69 0 0 1-1.592-4.79 58.213 58.213 0 0 1-1.276-4.86c-.329-1.635-.622-3.297-.5-4.973.017-.236.234-.387.485-.338a.53.53 0 0 1 .423.435l.003.03zm104.523 45.312c1.169-.55 2.254-1.3 3.309-2.069 1.059-.77 2.078-1.591 3.102-2.408a307.56 307.56 0 0 0 6.021-5.052 953.406 953.406 0 0 1 5.982-5.12c2.011-1.695 4.037-3.382 6.141-5.004l.002-.002a.403.403 0 0 1 .518.042.3.3 0 0 1 .025.41c-1.678 1.995-3.497 3.872-5.375 5.702a113.475 113.475 0 0 1-5.857 5.304c-1.016.849-2.029 1.703-3.088 2.515a69.62 69.62 0 0 1-3.22 2.396 46.632 46.632 0 0 1-3.418 2.206c-1.193.675-2.424 1.334-3.848 1.721-.2.055-.419-.048-.489-.228-.061-.161.014-.328.172-.403l.023-.01z" clip-rule="evenodd"/></g></g></svg>