<svg xmlns="http://www.w3.org/2000/svg" fill="none" viewBox="0 0 320 180"><mask id="a" width="320" height="180" x="0" y="0" maskUnits="userSpaceOnUse"><path fill="#fff" d="M0 0h320v180H0z"/></mask><g mask="url(#a)"><path fill="#FFE8B3" fill-rule="evenodd" d="M303.64 102.04c-.027.3-.058.594-.089.894l-.012.106a79.318 79.318 0 0 1-.933 6.31 79.012 79.012 0 0 1-1.002 4.617c-.132.537-.271 1.07-.411 1.6-.104.393-.216.783-.325 1.173a78.627 78.627 0 0 1-2.168 6.474c-1.32 3.456-2.864 6.746-4.614 9.803a58.83 58.83 0 0 1-4.839 7.23c-2.229 2.833-4.656 5.33-7.258 7.403a34.902 34.902 0 0 1-3.859 2.683c-.093.057-.186.11-.279.167a155.692 155.692 0 0 1-7.296 4.097l-9.031 3.8-7.467 3.14c-16.785 5.29-35.788 5.966-70.425 6.05l-5.183.01c-1.011 0-2.032.003-3.07.003l-7.115.017-6.801.016-2.16.007c-3.298.027-6.569.067-9.813.11l-1.63.02c-2.93.04-5.837.083-8.721.12-.433.007-.867.01-1.301.017-3.909.05-7.772.086-11.581.093h-1.77c-.801 0-1.598-.003-2.392-.01a442.822 442.822 0 0 1-3.836-.027l-.569-.006c-2.342-.03-4.657-.077-6.948-.144-7.32-.213-14.385-.643-21.14-1.426-.56-.067-1.122-.134-1.68-.204-11.19-1.406-21.51-3.833-30.685-7.94-6.104-2.726-11.698-6.193-16.715-10.593a62.289 62.289 0 0 1-7.138-7.403c-3.306-4.043-6.26-8.67-8.833-13.957a78.607 78.607 0 0 1-1.564-3.4c-.306-.703-.6-1.403-.883-2.096-.51-1.26-.987-2.507-1.432-3.737a88.022 88.022 0 0 1-1.83-5.67 45.04 45.04 0 0 1-.19-.687 75.968 75.968 0 0 1-1.893-8.81c-1.843-12.106-.183-22.493 3.402-31.183a56.124 56.124 0 0 1 7.37-12.76 59.807 59.807 0 0 1 2.985-3.603 63.834 63.834 0 0 1 4.03-4.1c.251-.23.503-.46.754-.686 6.175-5.54 12.724-9.227 17.826-11.067a26.684 26.684 0 0 1 1.417-.477c.263-.083.519-.16.77-.23.593-.163 1.181-.326 1.781-.49.046-.013.097-.026.143-.04l.743-.2a312.32 312.32 0 0 1 16.669-3.98c2.226-.47 4.475-.923 6.747-1.353 20.919-3.997 43.564-6.45 66.039-7.337.023-.003.042-.003.065-.003a476.603 476.603 0 0 1 20.567-.377c3.875.014 7.726.074 11.547.187a433.825 433.825 0 0 1 12.313.527 370.724 370.724 0 0 1 21.937 1.883c2.114.244 4.208.51 6.275.79 9.527 1.297 18.515 2.967 26.745 5.017 1.486.366 2.938.746 4.37 1.14.321.09.639.176.96.27 4.041 1.13 7.87 2.366 11.458 3.696.627.234 1.25.47 1.862.71a96.344 96.344 0 0 1 8.748 3.877 55.552 55.552 0 0 1 5.385 3.12 51.667 51.667 0 0 1 7.088 5.59 50.637 50.637 0 0 1 6.696 7.733c2.826 4.014 5.04 8.37 6.689 12.94a60.381 60.381 0 0 1 1.804 5.937c.12.473.232.946.341 1.42.004.016.008.03.008.043.166.703.313 1.413.449 2.127l.116.626c.058.314.112.63.162.95.918 5.474 1.173 11.08.84 16.637-.054.94-.127 1.88-.22 2.816z" clip-rule="evenodd"/><mask id="b" width="289" height="178" x="15" y="-10" maskUnits="userSpaceOnUse"><path fill="#fff" fill-rule="evenodd" d="M303.64 102.041c-.027.299-.058.593-.089.893l-.012.106a79.318 79.318 0 0 1-.933 6.31 79.012 79.012 0 0 1-1.002 4.617c-.132.537-.271 1.07-.411 1.6-.104.393-.216.783-.325 1.173a78.627 78.627 0 0 1-2.168 6.474c-1.32 3.456-2.864 6.746-4.614 9.803a58.83 58.83 0 0 1-4.839 7.23c-2.229 2.833-4.656 5.33-7.258 7.403a34.902 34.902 0 0 1-3.859 2.683c-.093.057-.186.11-.279.167a155.692 155.692 0 0 1-7.296 4.097l-9.031 3.8-7.467 3.14c-16.785 5.29-35.788 5.966-70.425 6.05l-5.183.01c-1.011 0-2.032.003-3.07.003l-7.115.017-6.801.016-2.16.007c-3.298.027-6.569.067-9.813.11l-1.63.02c-2.93.04-5.837.083-8.721.12-.433.007-.867.01-1.301.017-3.909.05-7.772.086-11.581.093h-1.77c-.801 0-1.598-.003-2.392-.01a442.822 442.822 0 0 1-3.836-.027l-.569-.006c-2.342-.03-4.657-.077-6.948-.144-7.32-.213-14.385-.643-21.14-1.426-.56-.067-1.122-.134-1.68-.204-11.19-1.406-21.51-3.833-30.685-7.94-6.104-2.726-11.698-6.193-16.715-10.593a62.303 62.303 0 0 1-7.138-7.403c-3.306-4.043-6.26-8.67-8.833-13.957a78.607 78.607 0 0 1-1.564-3.4c-.306-.703-.6-1.403-.883-2.096-.51-1.26-.987-2.507-1.432-3.737a88.022 88.022 0 0 1-1.83-5.67 45.04 45.04 0 0 1-.19-.687 76.009 76.009 0 0 1-1.893-8.809c-1.843-12.107-.926-55.965 2.659-64.655a56.128 56.128 0 0 1 7.37-12.76 59.77 59.77 0 0 1 2.985-3.603 63.808 63.808 0 0 1 4.03-4.1c.251-.23.503-.46.754-.687 6.174-5.54 12.724-9.226 17.826-11.066a26.718 26.718 0 0 1 1.417-.477c.263-.083.519-.16.77-.23.592-.163 1.18-.326 1.78-.49l.144-.04.743-.2a312.328 312.328 0 0 1 16.669-3.98c2.225-.47 4.474-.923 6.747-1.353 20.918-3.997 43.564-6.45 66.038-7.337.024-.003.043-.003.066-.003a476.664 476.664 0 0 1 20.567-.377c3.874.014 7.726.074 11.547.187a433.352 433.352 0 0 1 12.313.527 370.648 370.648 0 0 1 21.937 1.883c2.114.243 4.208.51 6.275.79 9.526 1.297 18.515 2.967 26.744 5.017 1.487.366 2.938.746 4.371 1.14.321.09.638.176.96.27a146.792 146.792 0 0 1 11.458 3.696 114.436 114.436 0 0 1 2.543.977 96.308 96.308 0 0 1 8.067 3.61 55.556 55.556 0 0 1 5.385 3.12 51.657 51.657 0 0 1 7.087 5.59 50.59 50.59 0 0 1 6.697 7.733c2.826 4.013 5.04 8.37 6.689 12.94a60.381 60.381 0 0 1 1.804 5.937c.12.473.232.946.341 1.42.004.016.007.03.007.043.167.703.314 1.413.449 2.127.039.21.821 33.887.86 34.097.058.314.112.63.162.95.918 5.474 1.173 11.08.84 16.637-.054.94-.127 1.88-.22 2.817z" clip-rule="evenodd"/></mask><g fill-rule="evenodd" clip-rule="evenodd" mask="url(#b)"><path fill="#FFD066" d="M298.362 134.76c-.511 20.7-9.982 35.445-14.19 41.25l-3.993-.198c-3.722-.189-7.445-.373-11.167-.558-64.043-3.201-128.083-6.399-192.126-9.597 3.386-13.117 11.682-36.824 33.211-54.483 19.853-16.278 41.805-19.1 85.035-22.407 2.904-.22 5.742-.438 8.51-.643.726-.053 1.446-.109 2.162-.162 7.398-.544 14.305-1.01 20.744-1.333 5.002-.25 9.721-.419 14.163-.469 6.217-.075 11.893.08 17.048.538 15.705 1.41 26.598 5.673 33.283 15.124 7.858 11.111 7.492 25.978 7.32 32.938z"/><path fill="#FFB000" d="M254.869 131.076c-.369 4.41 2.749 18.93 2.749 18.93-5.035 2.177-9.261 2.128-9.261 2.128-4.407 21.868-12.58 40.451-12.58 40.451l-23.596-12.57 14.859-48.939h27.829zm-19.092-38.341c7.978.516 20.302-1.625 22.931 3.798 2.629 5.422-3.458 11.634-3.454 29.56-14.292-23.809-19.477-33.358-19.477-33.358zm-9.229-6.105c-4.911 1.57-6.056 3.408-6.056 7.088-11.352 1.841-14.111-2.594-14.688-5.756 7.398-.544 14.305-1.01 20.744-1.333z"/><path fill="#FFB000" d="M298.362 134.76c-.511 20.7-9.982 35.445-14.19 41.25l-3.993-.198c7.118-9.62 16.55-26.938 14.893-49.718-2.584-35.564-36.637-39.323-54.361-39.933 6.217-.076 11.893.079 17.048.537 15.705 1.41 26.598 5.673 33.283 15.124 7.858 11.111 7.492 25.978 7.32 32.938z"/><path fill="#47258B" d="M253.548 145.683c-7.551 4.323-35.543-1.406-35.543-1.406s24.214-13.918 35.543 1.406z"/><path fill="#F69C93" d="M251.789 123.708c-.97 5.204-2.178 10.841-3.432 16.319l-2.36 9.979c-2.64 10.844-4.923 19.222-4.923 19.222s-43.692 2.693-38.844-2.693c3.656-4.059 11.368-11.338 15.777-19.638 1.102-2.069 1.997-4.204 2.571-6.366a21.7 21.7 0 0 0 .439-2.009c1.953-11.58 30.772-14.814 30.772-14.814z"/><path fill="#E97286" d="M248.357 140.026l-2.359 9.98c-6.868-4.234-19.173-6.551-27.988-2.974 0-.046-.003-.089-.003-.135-.049-2.68.944-4.759 2.571-6.366 6.554-6.484 23.351-5.372 23.351-5.372s2.656 1.241 4.428 4.867z"/><path fill="#F69C93" d="M115.215 143.659a93.973 93.973 0 0 1-23.175 14.667 93.81 93.81 0 0 1-21.391 6.565l51.643 7.459 26.135-33.134-33.212 4.443z"/><path fill="#E97286" d="M115.215 143.659c7.937 1.853 14.848 9.064 13.848 14.391 9.364-7.629 4.803-13.122 4.803-13.122s-15.673-3.726-18.651-1.269z"/><path fill="#7E4EE3" d="M131.185 120.716c5.964-14.315 5.174-18.444 20.019-19.344 14.846-.9 61.614-10.122 77.593-8.997 15.979 1.124 27.675-.995 27.45 14.123-.225 15.118-2.699 39.186-2.699 39.186-13.271-7.198-33.065-4.499-35.539 1.349-1.575 16.645-2.699 22.718-2.699 22.718l-97.474.839a53.625 53.625 0 0 0 10.088-10.843 53.437 53.437 0 0 0 4.672-8.116c-1.015-2.973-2.509-4.609-3.8-5.568-4.942-3.675-13.58-2.404-13.581-2.404 6.298-7.647 12.465-14.528 15.97-22.943z"/><path fill="#5D33BA" d="M149.865 153.917c-4.011 11.22 14.331 13.371 41.236 1.866-32.424 23.246-52.453 7.752-41.236-1.866z"/><path fill="#5D33BA" d="M145.705 155.783c-2.078 3.497-.902 8.598 1.438 9.731-5.405-.378-5.599-7.866-1.438-9.731z"/><path fill="#3D3450" d="M233.781 21.603c2.977 3.771 4.528 6.507 4.736 8.54.111 1.082-.152 1.967-.786 2.703-.28.326-.6.656-.95 1.016-1.927 1.977-4.874 4.927-8.471 14.177L171.18 27.68s-7.9-11.243-1.891-18.84c6.01-7.6 11.616-5.47 23.467-4.56 0 0 .002-.003.006-.003a50.74 50.74 0 0 1 4.214-1.403h.01c3.617-1.04 8.887-2.158 13.071-1.419 1.65.287 3.129.865 4.274 1.845 4.561 3.904 10.484 4.894 18.288 5.277.05.003.1.003.149.006 2.56.126 5.323.182 8.306.258-.003 0-.003.003-.006.003-.301.178-11.788 7.058-7.287 12.758z"/><path fill="#F69C93" d="M221.017 62.397s-6.079 15.193-8.811 31.297c-6.99 15.501-40.415 16.411-42.544 11.547-2.128-4.861 5.468-5.164 7.293-8.204 1.195-1.993 2-6.21 3.185-12.48.198-1.06.409-2.175.633-3.347a388.478 388.478 0 0 1 1.65-8.18l38.594-10.633z"/><path fill="#E97286" d="M210.806 71.037c-9.015 21.641-24.403 18.334-30.666 13.52.198-1.06.409-2.175.633-3.347 3.402-3.24 11.91-9.018 30.033-10.173z"/><path fill="#231E2F" d="M189.684 9.77c-4.229-3.677-20.746-3.36-18.066 15.091 6.266-8.726 18.066-15.091 18.066-15.091z"/><path fill="#F69C93" d="M214.331 67.258c-11.547 13.065-21.879 18.233-33.838 15.418-11.956-2.812-14.174-19.368-12.656-23.929 1.522-4.557 1.522-17.925 3.343-31.297.574-4.217 1.574-7.256 3.036-9.534v-.003c3.172-4.943 8.511-6.313 16.415-8.392a73.599 73.599 0 0 1 2.359-.818c27.32-8.986 36.204 6.006 35.32 39.105 6.685 9.725.303 17.625-13.979 19.45z"/><path fill="#E97286" d="M192.61 13.168c-1.165-3.089-11.355-1.403-18.394 4.748v-.003c3.171-4.943 8.511-6.313 16.414-8.392a75.39 75.39 0 0 1 2.36-.818c.534 1.775-.38 4.465-.38 4.465z"/><path fill="#E97286" d="M191.957 19.263c-1.439 1.13-1.988 1.668-3.025 2.014 7.173.605 12.57.424 11.235-8.109 6.396 4.48 3.544 12.085 1.383 13.122 9.247-3.112 11.408-5.03 10.112-12.195-18.409-7.338-19.705 5.168-19.705 5.168zm25.267 10.649c-.013-.248.259-3.573-.013-.248-.273 3.324.179 7.574.969 9.718.791 2.145-1.013 5.834-1.049 6.46 8.785-10.991 1.622-15.73.093-15.93z"/><path fill="#3D3450" d="M228.31 47.808c-1.937-3.643-5.518-1.967-8.798 2.736-3.277 4.702-7.306 1.521-5.788 0 .264-.264.62-.713 1.029-1.287v-.003c1.934-2.72 4.996-8.25 4.746-10.257-.225-1.795-2.934-4.749-2.258-10.081.01-.093.024-.185.037-.28.267-1.83.934-3.931 2.221-6.353 0 0-4.228-3.96-9.23-8.188-.363-.307-.733-.617-1.103-.927 1.822 3.95 1.518 10.029-11.909 13.675.835-.38 2.739-1.386 3.719-3.481.524-1.129.66-2.31.554-3.452-.356-3.676-3.25-6.953-3.914-6.739-.247.08-.161.63-.059 1.4.158 1.214.353 2.966-.673 4.266-1.518 1.921-4.93 1.858-8.079 1.32 6.079-4.864 1.825-10.636-2.125-12.764 0 0 14.599-5.092 24.813-2.297 10.213 2.795 19.566 8.923 16.817 42.712z"/><path fill="#231E2F" d="M219.499 22.282s-4.228-3.96-9.23-8.187c10.715 4.91 10.876 6.267 9.23 8.187z"/><path fill="#F69C93" d="M222.224 171.862l-40.025 1.617s-9.739-22.348-17.391-32.802a35.35 35.35 0 0 0-1.571-2.01.126.126 0 0 1-.026.013c-.255.122-2.449 1.059-7.247-.013-1.079 9.629-6.735 12.187-10.118 9.761.386 1.617-5.237 2.155-8.197-3.501-1.888 1.346-4.31-.809-11.045-12.388-9.702-3.763-15.012-10.852-13.845-15.908.447-1.932 2.22-5.22 5.696-6.532 2.353-.888 4.508-.503 5.51-.251a90.302 90.302 0 0 0-1.001-1.127c-10.631-11.74-17.345-12.342-20.856-20.104-1.826-4.036-2.317-8.971-.907-9.734 1.379-.747 4.57 2.474 5.203 3.288 5.657 7.27 33.937 22.087 54.678 32.32 20.74 10.237 48.484 35.554 61.142 57.371z"/><path fill="#3D3450" d="M180.004 31.218c-.967-.75-1.806-1.249-2.672-1.57a8.11 8.11 0 0 0-2.601-.514 7.177 7.177 0 0 0-2.65.454c-.886.324-1.736.858-2.644 1.631l-.296-.145c.083-1.247.784-2.46 1.819-3.309 1.036-.857 2.398-1.33 3.764-1.354 1.366-.039 2.761.408 3.818 1.27 1.056.853 1.76 2.113 1.76 3.395l-.298.142zm15.027-.861c.522-1.414 1.682-2.559 3.033-3.31 1.361-.756 2.941-1.106 4.508-1.077 1.568.028 3.151.478 4.465 1.362 1.304.874 2.358 2.195 2.626 3.72l-.27.19a12.18 12.18 0 0 1-.946-.482 16.557 16.557 0 0 1-.889-.404 15.733 15.733 0 0 1-.865-.33 13.56 13.56 0 0 1-.85-.27 16.78 16.78 0 0 0-3.397-.589 14.149 14.149 0 0 0-3.493.21c-1.189.215-2.366.602-3.678 1.202l-.244-.222z"/><path fill="#E97286" d="M183.686 46.334c7.342 1.688 12.72 1.976 5.878 5.693-6.841 3.717-8.999 3.744-10.422-2.288-1.424-6.032 1.259-4.16 4.544-3.405z"/><path fill="#3D3450" d="M181.733 32.084c.411 1.29.607 2.599.799 3.908a69.69 69.69 0 0 1 .432 3.937c.106 1.315.192 2.631.241 3.95.052 1.318.079 2.638.04 3.961a.166.166 0 0 1-.33.022 76.875 76.875 0 0 1-.518-3.922c-.149-1.31-.266-2.62-.385-3.93l-.162-1.966-.141-1.966c-.101-1.307-.16-2.626-.296-3.915l-.002-.012a.166.166 0 0 1 .322-.067zm-1.518 19.247a12.99 12.99 0 0 1 1.99.486c.648.199 1.28.437 1.904.695.623.26 1.24.536 1.842.847a14.93 14.93 0 0 1 1.767 1.033.17.17 0 0 1-.125.306 14.821 14.821 0 0 1-1.984-.498 24.255 24.255 0 0 1-1.91-.683 21.624 21.624 0 0 1-1.847-.835 13.072 13.072 0 0 1-1.762-1.045.17.17 0 0 1 .125-.306z"/><path fill="#E97286" d="M220.56 53.612c1.126-2.231 3.451-4.795 5.017-4.296.89.284 1.313 1.487 1.707 2.605.191.544.664 1.943.345 3.7-.453 2.494-2.178 3.927-3.014 4.621-1.035.86-2.953 2.453-4.171 1.864-1.637-.792-1.505-5.283.116-8.494z"/><path fill="#3D3450" d="M176.056 62.144c1.024.657 2.136.933 3.274 1.095 1.14.15 2.3.185 3.467.15a43.83 43.83 0 0 0 7.041-.807 60.242 60.242 0 0 0 6.965-1.827c2.308-.726 4.566-1.62 6.845-2.567a.166.166 0 0 1 .168.284c-1.955 1.54-4.123 2.806-6.388 3.87a37.25 37.25 0 0 1-7.111 2.462c-2.455.568-4.996.93-7.575.751-1.285-.096-2.582-.338-3.818-.809-.614-.247-1.217-.534-1.758-.937-.537-.395-1.026-.873-1.354-1.442a.17.17 0 1 1 .238-.227l.006.004z"/><path fill="#231E2F" d="M197.06 35.057a7.965 7.965 0 0 1 1.556-.72 8.331 8.331 0 0 1 1.701-.357c1.162-.1 2.373.044 3.475.513a6.324 6.324 0 0 1 2.784 2.193c.682.975 1.088 2.12 1.137 3.267a.167.167 0 0 1-.322.07l-.001-.002c-.409-1.019-.913-1.957-1.587-2.738-.672-.775-1.485-1.412-2.426-1.82-.934-.418-1.97-.613-3.02-.626a10.27 10.27 0 0 0-1.583.129 13.17 13.17 0 0 0-1.574.39l-.005.002a.166.166 0 0 1-.135-.301z"/><path fill="#fff" d="M193.448 40.266c1.084-5.079 11.993-5.521 11.005 1.498-.989 7.019-12.553 5.754-11.005-1.498zm-22.41-.75c.971-4.907 10.749-5.334 9.863 1.447-.886 6.78-11.251 5.558-9.863-1.447z"/><path fill="#3D3450" d="M194.077 41.428c.696-5.106 9.251-5.086 8.912.532-.339 5.62-9.784 5.861-8.912-.532zm-22.341-.402c.659-4.835 8.761-4.817 8.44.505-.321 5.32-9.266 5.55-8.44-.505z"/><path fill="#C2AFE9" d="M165.073 103.677c.444 1.158.999 2.254 1.702 3.22.35.484.747.926 1.165 1.338.437.394.879.777 1.372 1.092a12.041 12.041 0 0 0 3.16 1.496c1.115.376 2.297.572 3.48.706 2.376.265 4.813.176 7.234-.099 2.424-.275 4.833-.772 7.219-1.377 2.387-.601 4.746-1.337 7.082-2.152 2.339-.805 4.645-1.718 6.934-2.674 2.29-.957 4.556-1.98 6.805-3.045a283.192 283.192 0 0 0 6.696-3.322.165.165 0 0 1 .166.286 116.073 116.073 0 0 1-13.108 7.331 101.89 101.89 0 0 1-6.922 2.984 80.492 80.492 0 0 1-7.185 2.368 52.171 52.171 0 0 1-7.461 1.497l-.95.113-.957.077c-.636.064-1.281.07-1.922.092-1.286.001-2.579-.037-3.868-.236-1.284-.206-2.568-.481-3.802-.96-1.226-.487-2.406-1.129-3.437-1.972-.52-.417-.977-.904-1.415-1.397a9.655 9.655 0 0 1-1.098-1.637 10.135 10.135 0 0 1-.763-1.785 11.649 11.649 0 0 1-.446-1.86.166.166 0 0 1 .319-.084zm54.493 38.754c1.097-1.279 2.557-2.207 4.069-2.918 1.52-.714 3.124-1.216 4.743-1.607a40.07 40.07 0 0 1 4.913-.835 53.435 53.435 0 0 1 4.959-.321c1.655-.04 3.31-.002 4.961.089 1.651.086 3.298.249 4.937.475 1.637.232 3.267.529 4.873.939 1.603.407 3.194.93 4.668 1.708a.165.165 0 1 1-.137.3l-.006-.002c-1.507-.595-3.09-.975-4.687-1.267a57.669 57.669 0 0 0-4.832-.649c-3.238-.306-6.496-.384-9.742-.297-3.246.111-6.483.414-9.654 1.021-1.584.308-3.148.707-4.653 1.262-1.5.562-2.944 1.287-4.175 2.332l-.005.004a.165.165 0 0 1-.232-.234z"/><path fill="#E97286" d="M125.864 112.67c.154 1.691.193 3.353.247 5.006.041 1.653.086 3.294.149 4.931.065 1.637.144 3.268.24 4.908.094 1.641.219 3.285.265 4.984a.17.17 0 0 1-.164.174.17.17 0 0 1-.157-.096c-.742-1.541-1.238-3.179-1.587-4.843a28.637 28.637 0 0 1-.574-5.06 34.05 34.05 0 0 1 .228-5.071c.21-1.678.521-3.342 1.025-4.968a.17.17 0 0 1 .211-.111.17.17 0 0 1 .117.146zm9.678 4.601a51.948 51.948 0 0 0-.851 6.987l-.06 1.749-.01 1.747c.027 1.165.073 2.327.161 3.486.208 2.315.519 4.619 1.02 6.888a44.656 44.656 0 0 0 1.99 6.721l.001.002a.166.166 0 0 1-.096.214.165.165 0 0 1-.194-.058c-1.412-1.956-2.378-4.214-3.083-6.522a31.816 31.816 0 0 1-1.235-7.129c-.025-.603-.076-1.206-.08-1.809.005-.603-.004-1.207.02-1.809.034-.602.048-1.205.1-1.805.066-.6.125-1.199.199-1.796.327-2.384.89-4.743 1.802-6.96a.166.166 0 0 1 .216-.091c.074.031.114.11.1.185zm14.424 8.087c-1.359 1.545-2.22 3.338-2.873 5.206-.651 1.867-1.077 3.812-1.351 5.779a37.915 37.915 0 0 0-.34 5.966c.041 2.005.244 4.01.598 6.063l-.309.115c-1.082-1.829-1.714-3.913-2.038-6.025a22.05 22.05 0 0 1-.021-6.413c.302-2.126.896-4.227 1.866-6.168.489-.966 1.07-1.894 1.775-2.724.714-.819 1.537-1.563 2.491-2.061l.202.262zm9.074 9.163c-.307-.11-.579-.231-.82-.297-.244-.069-.421-.05-.44.005-.03.029-.144.139-.257.34-.11.198-.21.447-.299.707-.181.523-.329 1.098-.498 1.674-.173.577-.344 1.168-.6 1.743l-.325-.054a14.244 14.244 0 0 1-.041-1.847c.03-.618.097-1.239.262-1.877.085-.319.192-.643.373-.976a2.1 2.1 0 0 1 .371-.499c.157-.159.388-.314.658-.378a1.24 1.24 0 0 1 .76.044c.112.037.205.088.29.144.092.052.159.117.232.178.274.253.451.546.571.864l-.237.229z"/><path fill="#6B608A" d="M34.06 79.233C27.103 64.719 26.908 63.8 51.205 61.54c24.296-2.26 20.817-3.636 27.127 8.326 6.311 11.962 25.699 55.385 31.19 65.264 5.49 9.879-2.563 10.846-13.03 9.589-10.468-1.258-27.151-2.048-30.99-4.117-3.838-2.068-31.442-61.37-31.442-61.37z"/><path fill="#3D3450" d="M34.457 81.575c-6.667-14.096-6.855-14.987 16.19-17.07 23.047-2.081 19.739-3.43 25.781 8.19 6.042 11.62 24.634 53.787 29.888 63.386 5.255 9.598-2.383 10.499-12.322 9.234-9.939-1.265-25.774-2.106-29.425-4.127-3.652-2.022-30.112-59.613-30.112-59.613z"/><path fill="#584D74" d="M70.67 72.801c-.61-2.987-4.629-4.68-7.087-3.157-1.6.992-2.33 3.22-1.78 5.132.654 2.268 3.08 4 5.562 3.357 2.422-.626 3.738-3.215 3.305-5.332z"/><path fill="#231E2F" d="M69.145 73.324c-.442-2.165-3.377-3.388-5.176-2.28-1.171.721-1.708 2.337-1.308 3.724.475 1.644 2.247 2.896 4.061 2.427 1.772-.457 2.737-2.336 2.423-3.87z"/><path fill="#E97286" d="M59.414 128.385c10.398 1.095 21.576-3.482 25.403-3.076 3.829.406 2.416 8.069-18.298 12.946-1.57 2.023-4.924 5.689-10.336 7.366a19.3 19.3 0 0 1-4.088.798c.293 1.337.584 2.637.864 3.897 6.415 28.704 9.138 37.406-20.34 11.574-7.535-52.183 15.064-67.251 31.072-71.96 12.22-3.59 10.451 1.59 5.369 5.92-.208.175-.42.353-.637.525-1.439 1.145-3.085 2.197-4.732 2.973-8.003 3.765-11.662 11.771-11.662 11.771 15.43-5.65 32.73-11.771 32.788-5.178.063 6.488-26.01 11.917-26.825 12.085 25.63-2.274 29.528-1.04 29.713.003.185 1.043-3.062 3.568-28.29 10.356z"/><path fill="#5D33BA" d="M220.524 138.617c-.858-24.676 15.137-36.256 11.003-26.083a1777.992 1777.992 0 0 0-8.367 21.036c11.717-13.479 23.881-17.041-2.636 5.047z"/><path fill="#231E2F" d="M170.295 38.293c.044-.828.323-1.67.835-2.38a4.354 4.354 0 0 1 2.101-1.573 4.523 4.523 0 0 1 2.616-.117c.84.214 1.609.62 2.211 1.202a.17.17 0 0 1-.168.283l-.003-.001c-.762-.238-1.491-.447-2.218-.524-.723-.075-1.435-.051-2.103.158a4.18 4.18 0 0 0-1.772 1.116c-.508.518-.882 1.178-1.176 1.904l-.001.003a.167.167 0 0 1-.322-.071zm52.454.793c-.633 5.68-2.848 3.198-7.996 10.167 1.934-2.719 4.996-8.25 4.745-10.256-.224-1.795-2.933-4.749-2.256-10.081-.565 5.207 6.128 4.593 5.507 10.17zm11.032-17.714c2.977 3.772 4.528 6.507 4.736 8.54-.845-5.389-6.934-4.494-8.617-9.543-1.683-5.05 1.888-8.204 11.168-11.755-.301.178-11.788 7.059-7.287 12.758zm-24.615-8.204c-1.357-2.706-4.09-4.23-5.363-4.554-1.273-.323.899-1.436 3.182 0 2.284 1.436 2.181 4.554 2.181 4.554z"/><path fill="#231E2F" d="M204.664 7.392c1.722.075 3.781 1.048 4.305 2.92-.374-3.294-3.406-3.569-4.305-2.92zm16.353 25.53c3.795 4.1 3.795 4.936 2.875 8.032-.92 3.095-3.74 2.303-6.157 4.888 2.56-.956 6.492-.333 7.412-3.907.92-3.575.357-6.42-4.13-9.013z"/><path fill="#DB536B" d="M68.423 96.375c-1.438 1.145-3.085 2.198-4.732 2.973-8.003 3.765-11.662 11.771-11.662 11.771-5.214 1.013-5.752 1.366-1.268-5.445 4.195-6.372 14.144-6.917 17.662-9.3z"/><path fill="#C2AFE9" d="M114.106 141.313c1.586-.625 3.27-.971 4.964-1.157a22.725 22.725 0 0 1 5.128.016c1.706.205 3.413.626 4.986 1.4 1.559.763 3.004 1.959 3.758 3.533l-.28.176c-1.047-1.278-2.428-2.143-3.914-2.741-1.49-.598-3.085-.941-4.7-1.154-1.618-.211-3.263-.26-4.91-.224a36.203 36.203 0 0 0-4.941.469l-.091-.318z"/><path fill="#3D3450" d="M237.748 24.396c3.054 4.656 4.297 8.162 0 9.859 6.107-1.584 6.899-5.692 0-9.859z"/><path fill="#E97286" d="M220.405 66.156c-.41.222-.84.37-1.272.5-.433.125-.87.228-1.312.305-.442.08-.885.146-1.333.186-.447.042-.897.07-1.355.05a.17.17 0 0 1-.162-.176.172.172 0 0 1 .105-.149c.422-.174.853-.304 1.284-.424a19.697 19.697 0 0 1 2.621-.528c.442-.052.887-.09 1.344-.084a.17.17 0 0 1 .17.17.173.173 0 0 1-.09.15z"/><path fill="#584D74" d="M176.508 2.509c-1.229.254-4.555 1.115-7.236 4.129-3.937 4.426-3.298 9.918-3.184 10.776-1.802-5.223-.367-10.605 3.279-13.241 2.796-2.023 6.019-1.797 7.141-1.664z"/><path fill="#231E2F" d="M183.042 7.926c-6.946-.245-14.865 3.02-13.059 12.954 1.528-7.433 3.819-12.431 13.059-12.954z"/><path fill="#E97286" d="M172.467 137.373c-.046 2.373-4.616 3.389-7.659 3.304a35.35 35.35 0 0 0-1.571-2.01c4.481-2.534 4.861-2.643 6.052-3.884 1.191-1.241 3.261-1.604 3.178 2.59z"/><path fill="#231E2F" d="M236.781 33.631c-1.927 1.977-4.874 4.927-8.471 14.177-1.756-10.27 5.088-12.134 8.471-14.177z"/><path fill="#231E2F" d="M230.969 26.858c3.752 2.523 3.808 4.869-.229 7.397-4.038 2.528-4.206 7.188-4.206 7.188 2.748-5.389 4.558-6.87 7.242-7.812 2.683-.942 2.301-5.372-2.807-6.773zM201.53 19.91c-.356-3.677-3.25-6.953-3.913-6.739-.248.08-.162.63-.06 1.4-.713-2.62-1.149-4.334.004-3.284 1.148 1.05 4.421 4.758 3.969 8.623zm13.223-4.928c5.127 2.174 8.171 5.144 6.378 7.3 3.804-3.278-1.776-7.953-6.378-7.3zM173.479 7.11c-3.501 2.458-4.229 4.559-4.19 6.71-1.14-3.416 2.04-7.118 4.19-6.71zm59.14 1.468c-3.969-.139-11.764-.241-15.79-1.67-4.062-1.442-2.538-4.574-6.771-5.452 1.65.287 3.128.865 4.273 1.845 4.56 3.904 10.484 4.894 18.288 5.277zM192.755 4.28l.007-.002a50.74 50.74 0 0 1 4.214-1.403h.01c2.93-.218-.449 1.683-4.231 1.406z"/><path fill="#E97286" d="M215.66 161.498c.956.795 1.804 1.681 2.607 2.597a39.063 39.063 0 0 1 2.258 2.858 30.4 30.4 0 0 1 1.966 3.058c.581 1.069 1.123 2.164 1.486 3.376l-.274.183c-.978-.799-1.789-1.706-2.568-2.635a36.087 36.087 0 0 1-2.141-2.918c-.672-1-1.313-2.022-1.918-3.07-.605-1.047-1.179-2.116-1.679-3.25l.263-.199z"/><path fill="#DB536B" d="M52.96 150.317c-1.334 2.168-4.31 3.963-7.749 1.438-6.363-4.663-4.171-6.784-1.274-5.989 2.897.795 4.442.742 8.158.653.294 1.337.584 2.637.864 3.898z"/><path fill="#DB536B" d="M40.217 147.339c3.019 4.673 9.547 5.545 10.74 3.79 1.194-1.755 2.176 0-.913 2.247-3.088 2.246-8.914-1.404-9.827-4.072-.913-2.667-.518-2.768 0-1.965z"/><path fill="#E97286" d="M125.329 117.224c-3.812-1.774-4.369 2.13-1.116 3.803 3.253 1.673 1.116-3.803 1.116-3.803zm-8.72-14.937c.907.426 1.733.939 2.559 1.457a44.732 44.732 0 0 1 2.395 1.658c.393.287.78.58 1.166.877.39.291.771.594 1.152.899.76.613 1.513 1.238 2.227 1.924l-.18.276c-.919-.383-1.785-.848-2.638-1.336a28.252 28.252 0 0 1-1.257-.765 32.475 32.475 0 0 1-1.228-.808 27.292 27.292 0 0 1-2.338-1.79c-.736-.654-1.454-1.336-2.066-2.135l.208-.257z"/><path fill="#00C6CD" d="M85.943 7.773c11.726-.941 34.327-2.303 51.526-.579 5.15.516 9.136 4.74 9.34 9.912.503 12.795-.329 22.005-1.227 27.852a10.348 10.348 0 0 1-9.145 8.71c-20.825 2.197-41.249 1.034-52.489.024-5.255-.473-9.326-4.81-9.444-10.085-.243-10.797.968-20.701 2.055-27.221a10.35 10.35 0 0 1 9.384-8.613z"/><path fill="#00C6CD" d="M101.188 47.48c1.018 13.567-5.087 22.806-5.087 22.806 15.262-4.83 23.063-17.557 23.063-17.557l-17.976-5.248z"/><path fill="#fff" d="M92.296 17.87c0-1.153.955-2.074 2.108-2.034a569.704 569.704 0 0 0 31.588.22 2.039 2.039 0 0 1 2.079 1.987c.309 12.428.137 21.11.023 24.887a2.034 2.034 0 0 1-2.175 1.966c-14.522-.99-26.668-.359-31.446-.02a2.035 2.035 0 0 1-2.177-2.033V17.87z"/><path fill="#00C6CD" d="M93.63 18.35s11.391 14.887 16.641 14.322c5.25-.566 16.195-14.322 16.195-14.322-11.981 22.483-21.595 22.64-32.836 0zM73.063 42.762c.391 4.325 2.758 11.798 8.717 11.903 5.959.105-.41 3.973-5.436 0-5.025-3.972-5.538-10.295-5.025-11.903.513-1.607 1.585-1.74 1.743 0zm65.731-36.625c6.572 1.95 9.267 8.221 9.342 10.858.029 1.014.292 1.493.574 1.51.334.021.643-1.894.631-3.167-.042-4.767-4.647-9.725-9.139-10.344-.901-.124-2.68-.195-2.768.177-.069.29.875.822 1.36.966z"/></g></g></svg>