<svg xmlns="http://www.w3.org/2000/svg" fill="none" viewBox="0 0 320 180"><mask id="a" width="321" height="180" x="0" y="0" maskUnits="userSpaceOnUse"><path fill="#fff" d="M0 0h320v180H0z"/></mask><g mask="url(#a)"><mask id="b" width="321" height="192" x="-16" y="-24" maskUnits="userSpaceOnUse"><path fill="#fff" fill-rule="evenodd" d="M303.64 102.041c-.027.3-.058.593-.089.893l-.012.107a79.293 79.293 0 0 1-.933 6.309 79.012 79.012 0 0 1-1.002 4.617c-.132.537-.271 1.07-.411 1.6-.104.393-.216.783-.325 1.173a78.627 78.627 0 0 1-2.168 6.474c-1.32 3.456-2.864 6.746-4.614 9.803a58.825 58.825 0 0 1-4.838 7.23c-2.23 2.833-4.657 5.33-7.258 7.403a35.007 35.007 0 0 1-3.86 2.683c-.093.057-.186.11-.279.167a155.186 155.186 0 0 1-7.296 4.097l-9.031 3.8-7.467 3.14c-16.785 5.29-35.787 5.966-70.425 6.05l-5.183.01c-1.01 0-2.032.003-3.07.003l-7.115.017-6.801.016-2.16.007c-3.298.027-6.569.067-9.813.11l-1.629.02c-2.931.04-5.838.083-8.722.12-.433.007-.867.01-1.3.017-3.91.05-7.773.086-11.582.093h-1.769c-.802 0-1.599-.003-2.393-.01a442.822 442.822 0 0 1-3.836-.027c-.189-.003-.379-.003-.569-.006-2.342-.03-4.657-.077-6.948-.144-7.32-.213-14.385-.643-21.14-1.426-.56-.067-1.122-.134-1.68-.204-11.19-1.406-21.51-3.833-30.685-7.94-6.104-2.726-11.698-6.193-16.715-10.593a62.289 62.289 0 0 1-7.138-7.403c-3.305-4.043-6.259-8.67-8.833-13.957a78.488 78.488 0 0 1-1.564-3.4c-.306-.703-.6-1.403-.883-2.096-.51-1.26-.987-2.507-1.432-3.737a88.022 88.022 0 0 1-1.83-5.67 45.04 45.04 0 0 1-.19-.687 76.009 76.009 0 0 1-1.893-8.809C14.916 89.784-18.584 70.624-15 61.934c1.963-4.763 7.132-28.52 10-32.263.964-1.26 29.216 33.054 5-25.29C-24.216-53.964 10.532 2.273 11.902 1c.252-.23 8.519 3.607 8.77 3.38C26.846-1.16 32.42-6.716 37.522-8.556c.255-.093 10.204.084 10.455 0 .22-.073.955.067 1.168 0 .263-.083 7.04 4.627 7.291 4.557.593-.163-4.411-4.393-3.812-4.557.047-.013 6.085.014 6.131 0 .248-.066 3.451.067 3.703 0 5.377-1.446 13.782 1.207 19.504 0 2.225-.47 16.277-5.939 18.549-6.369 20.919-3.996 27.072 4.262 49.547 3.375.023-.003 11.787 0 11.811 0 3.913-.156 9.616 7.611 13.51 7.551 2.702-.04 3.794-4.56 6.481-4.557 16.335-32.558 9.812-2.997 10.068-2.994 3.874.014 5.916-.113 9.736 0 3.403.1-15.272 35.972-11.927 36.149.731.037 1.463.076 2.191.12C199.445 25.145 214.46-.827 221.54 0c2.114.243 10.447-15.206 12.514-14.926 9.526 1.297 27.543 19.41 35.772 21.46 1.487.366 6.593 7.188 8.025 7.582.322.09 8.582-9.829 8.904-9.735 4.041 1.13-5.707 21.578-2.119 22.908.627.233-19.714 10.695-19.102 10.935a96.279 96.279 0 0 1 8.748 3.877 55.551 55.551 0 0 1 5.385 3.12 51.66 51.66 0 0 1 7.088 5.59 50.632 50.632 0 0 1 6.696 7.733c2.826 4.014 5.04 8.37 6.689 12.94a60.39 60.39 0 0 1 1.804 5.937c.12.473.233.946.341 1.42.004.016.008.03.008.043.166.703.313 1.413.449 2.127l.116.626c.058.314.112.63.162.95.918 5.474 1.173 11.08.84 16.637-.054.94-.127 1.88-.22 2.817z" clip-rule="evenodd"/></mask><g mask="url(#b)"><mask id="c" width="289" height="144" x="16" y="24" maskUnits="userSpaceOnUse"><path fill="#fff" fill-rule="evenodd" d="M303.64 102.04c-.027.3-.058.594-.089.894l-.012.106a79.318 79.318 0 0 1-.933 6.31 79.19 79.19 0 0 1-1.002 4.617c-.132.536-.271 1.07-.411 1.6-.104.393-.216.783-.325 1.173a78.478 78.478 0 0 1-2.168 6.473c-1.32 3.457-2.864 6.747-4.614 9.804a58.825 58.825 0 0 1-4.838 7.23c-2.23 2.833-4.657 5.33-7.258 7.403a35.007 35.007 0 0 1-3.86 2.683c-.093.057-.186.11-.279.167a154.248 154.248 0 0 1-7.296 4.096l-9.031 3.8-7.467 3.14c-16.785 5.29-35.787 5.967-70.425 6.05l-5.183.01c-1.01 0-2.032.004-3.07.004l-7.115.016-6.801.017-2.16.007c-3.298.026-6.569.066-9.813.11l-1.629.02c-2.931.04-5.838.083-8.722.12l-1.3.016c-3.91.05-7.773.087-11.582.094h-1.769c-.802 0-1.599-.004-2.393-.01a540.387 540.387 0 0 1-3.836-.027c-.189-.003-.379-.003-.569-.007-2.342-.03-4.657-.076-6.948-.143-7.32-.213-14.385-.643-21.14-1.427-.56-.066-1.122-.133-1.68-.203-11.19-1.407-21.51-3.833-30.685-7.94-6.104-2.727-11.698-6.193-16.715-10.593a62.304 62.304 0 0 1-7.138-7.403c-3.305-4.044-6.259-8.67-8.833-13.957a79.606 79.606 0 0 1-1.564-3.4 96.439 96.439 0 0 1-2.315-5.833 88.427 88.427 0 0 1-1.83-5.67 45.04 45.04 0 0 1-.19-.687 75.968 75.968 0 0 1-1.893-8.81c-1.843-12.106-.182-22.493 3.402-31.183a56.127 56.127 0 0 1 7.37-12.76 59.776 59.776 0 0 1 2.985-3.603 63.81 63.81 0 0 1 4.03-4.1c.251-.23.503-.46.755-.687 6.174-5.54 12.723-9.226 17.825-11.066a27.002 27.002 0 0 1 1.417-.477c.263-.083.519-.16.77-.23.593-.163 1.181-.326 1.781-.49.047-.013.097-.026.143-.04l.743-.2a312.321 312.321 0 0 1 16.669-3.98c2.226-.47 4.475-.923 6.747-1.353 20.919-3.997 43.564-6.45 66.039-7.337.023-.003.042-.003.066-.003a476.384 476.384 0 0 1 20.566-.377c3.875.014 7.726.074 11.547.187a433.274 433.274 0 0 1 12.314.527 370.593 370.593 0 0 1 21.936 1.883c2.114.243 4.208.51 6.275.79 9.527 1.297 18.515 2.967 26.745 5.017 1.486.366 2.938.746 4.37 1.14.321.09.639.176.96.27 4.041 1.13 7.87 2.366 11.458 3.696a114.994 114.994 0 0 1 2.543.977 96.279 96.279 0 0 1 8.067 3.61 55.551 55.551 0 0 1 5.385 3.12 51.66 51.66 0 0 1 7.088 5.59 50.632 50.632 0 0 1 6.696 7.733c2.826 4.013 5.04 8.37 6.689 12.94a60.398 60.398 0 0 1 1.804 5.936c.12.474.233.947.341 1.42.004.017.008.03.008.044.166.703.313 1.413.449 2.126l.116.627c.058.313.112.63.162.95.918 5.473 1.173 11.08.84 16.637-.054.94-.127 1.88-.22 2.816z" clip-rule="evenodd"/></mask><g fill-rule="evenodd" clip-rule="evenodd" mask="url(#c)"><path fill="#FFE8B3" d="M303.64 102.04c-.027.3-.058.594-.089.894l-.012.106a79.318 79.318 0 0 1-.933 6.31 79.19 79.19 0 0 1-1.002 4.617c-.132.536-.271 1.07-.411 1.6-.104.393-.216.783-.325 1.173a78.104 78.104 0 0 1-2.168 6.473c-1.32 3.457-2.864 6.747-4.614 9.804a58.825 58.825 0 0 1-4.838 7.23c-2.23 2.833-4.657 5.33-7.258 7.403a35.007 35.007 0 0 1-3.86 2.683c-.093.057-.186.11-.279.167a154.248 154.248 0 0 1-7.296 4.096l-9.031 3.8-7.467 3.14c-16.785 5.29-35.787 5.967-70.425 6.05l-5.183.01c-1.01 0-2.032.004-3.07.004l-7.115.016-6.801.017-2.16.007c-3.298.026-6.569.066-9.813.11l-1.629.02c-2.931.04-5.838.083-8.722.12l-1.3.016c-3.91.05-7.773.087-11.582.094h-1.769c-.802 0-1.599-.004-2.393-.01a540.387 540.387 0 0 1-3.836-.027c-.189-.003-.379-.003-.569-.007-2.342-.03-4.657-.076-6.948-.143-7.32-.213-14.385-.643-21.14-1.427-.56-.066-1.122-.133-1.68-.203-11.19-1.407-21.51-3.833-30.685-7.94-6.104-2.727-11.698-6.193-16.715-10.593a62.304 62.304 0 0 1-7.138-7.403c-3.305-4.044-6.259-8.67-8.833-13.957a79.606 79.606 0 0 1-1.564-3.4 96.439 96.439 0 0 1-2.315-5.833 88.427 88.427 0 0 1-1.83-5.67 45.04 45.04 0 0 1-.19-.687 75.968 75.968 0 0 1-1.893-8.81c-1.843-12.106-.182-22.493 3.402-31.183a56.127 56.127 0 0 1 7.37-12.76 59.776 59.776 0 0 1 2.985-3.603 63.81 63.81 0 0 1 4.03-4.1c.251-.23.503-.46.755-.687 6.174-5.54 12.723-9.226 17.825-11.066a27.002 27.002 0 0 1 1.417-.477c.263-.083.519-.16.77-.23.593-.163 1.181-.326 1.781-.49.047-.013.097-.026.143-.04l.743-.2a312.321 312.321 0 0 1 16.669-3.98c2.226-.47 4.475-.923 6.747-1.353 20.919-3.997 43.564-6.45 66.039-7.337.023-.003.042-.003.066-.003a476.384 476.384 0 0 1 20.566-.377c3.875.014 7.726.074 11.547.187a433.274 433.274 0 0 1 12.314.527 370.593 370.593 0 0 1 21.936 1.883c2.114.243 4.208.51 6.275.79 9.527 1.297 18.515 2.967 26.745 5.017 1.486.366 2.938.746 4.37 1.14.321.09.639.176.96.27 4.041 1.13 7.87 2.366 11.458 3.696a114.994 114.994 0 0 1 2.543.977 96.279 96.279 0 0 1 8.067 3.61 55.551 55.551 0 0 1 5.385 3.12 51.66 51.66 0 0 1 7.088 5.59 50.632 50.632 0 0 1 6.696 7.733c2.826 4.013 5.04 8.37 6.689 12.94a60.39 60.39 0 0 1 1.804 5.936c.12.474.233.947.341 1.42.004.017.008.03.008.044.166.703.313 1.413.449 2.126l.116.627c.058.313.112.63.162.95.918 5.473 1.173 11.08.84 16.637-.054.94-.127 1.88-.22 2.816z"/><path fill="#FFDA9F" d="M143.617 76.001h22.646c-.412-.92 0-19.33 0-19.33 0-6.443-7-7.977-7-7.977 1.235-5.83 1.647-7.364 1.647-7.364h2.882l-.412-2.454h-13.999l-.411 2.147 2.882.307V49c-5.764 0-6.588 4.603-7 7.671-.412 3.069-1.235 19.33-1.235 19.33zm95.873-18.102v-2.455h29.234V57.9h-3.294c7.823 12.886 5.352 15.034 3.294 18.102-28.41 1.534-30.469.614-30.469.614-2.882-2.761-1.235-16.262 4.941-18.716h-3.706zm-109.46 58.603h45.291V91.036H130.03v25.466zm104.101 2.41c-4.443-17.321 9.571-30.312 7.178-3.312 15.724-12.736 24.952-3.056 10.938 3.312-14.014 6.368-18.116 0-18.116 0z"/><path fill="#FCD38B" d="M64.928 34.242v108.661c-6.529-2.714-12.517-6.166-17.88-10.545a63.635 63.635 0 0 1-5.589-5.134V51.725a61.978 61.978 0 0 1 3.558-4.204c.222-.236.445-.472.667-.704 5.452-5.681 11.235-9.462 15.74-11.348a21.209 21.209 0 0 1 1.251-.49c.233-.085.458-.163.68-.235.523-.168 1.043-.335 1.573-.502zm146.214-10.88v137.323h-23.469V21.488l23.469 1.874z"/><path fill="#FCD38B" d="M271.271 35.195H46.657a42.312 42.312 0 0 1 1.512-.451c.629-.168 1.253-.335 1.89-.502l.152-.042.789-.205a341.26 341.26 0 0 1 17.69-4.08c2.362-.483 4.749-.948 7.16-1.389h.004c22.197-4.098 46.229-6.614 70.081-7.523.025-.003.046-.003.07-.003a807.533 807.533 0 0 1 19.908-.223h.99c4.984.014 9.938.076 14.847.185 3.044.069 6.072.154 9.079.26.777.037 1.553.078 2.325.123a406.787 406.787 0 0 1 23.282 1.931c2.243.25 4.465.523 6.659.81 10.11 1.33 19.649 3.042 28.383 5.145h.004c1.573.375 3.114.765 4.634 1.168.341.093.678.182 1.019.277h.004a159.97 159.97 0 0 1 12.156 3.791c.666.24 1.327.482 1.976.728zM183.144 75.08v3.99h-13.411c-2.882 0-20.175-.92-20.175-.92s-.07-1.228-.148-3.07h33.734z"/><path fill="#FCD38B" d="M169.733 79.07H82.68v-3.99h66.73c.078 1.841.148 3.068.148 3.068s17.293.92 20.175.92zm-96.935 41.728h110.346v-4.603H72.798v4.603zM281.837 79.07h-80.226v-3.681h79.522c.106.485.205.97.301 1.456.003.017.007.03.007.044.147.721.277 1.45.396 2.181z"/><path fill="#F4C57A" d="M262.959 30.677l-179.664-.868-20.982-.1-1.535-.009c1.097-.544 2.19-1.077 3.294-1.594l6.69.03 19.36.094h.004l167.44.801h.004c1.5.428 2.968.871 4.418 1.33.325.105.646.206.971.316z"/><path fill="#F4C57A" d="M193.7 156.77l4.922-127.1 3.042.01-4.912 127.075-3.052.015z"/><path fill="#FEC" d="M145.676 81.831h15.646v-5.523h-15.646v5.523zm-2.059 42.955h14.822v-5.523h-14.822v5.523zm103.696-42.955h15.646v-4.909h-15.646v4.91z"/><path fill="#FCD38B" d="M284.636 33.821v133.471l32.792.961V28.291l-32.792 5.53z"/><path fill="#F4C57A" d="M292.22 158.764l-2.556-127.169 3.036-.17 2.566 127.145-3.046.194z"/><path fill="#FCD38B" d="M-16 32.819v133.47l32.792.961V27.288L-16 32.818z"/></g><path fill="#3D3450" fill-rule="evenodd" d="M142.849 123.632c-.556 1.805-3.539 9.76-7.068 19.037a6058.373 6058.373 0 0 1-10.88 28.372v.007c-.326.858-.631 1.652-.905 2.369h-.379a630.579 630.579 0 0 1-5.706-.039c-.174-.004-.348-.004-.521-.007-8.99-.132-17.605-.575-25.733-1.671-.514-.071-1.028-.141-1.54-.216l10.97-39.273 1.539-3.341c1.975-4.28 5.27-11.398 6.292-13.441 1.489-2.982 4.475-2.982 6.713-2.982 2.234 0 24.608 2.982 24.608 2.982 3.355.373 4.103 3.355 2.61 8.203z" clip-rule="evenodd"/><path fill="#FF6686" fill-rule="evenodd" d="M140.239 124.005a8616.561 8616.561 0 0 1-8.813 23.172c-.776 2.043-1.567 4.114-2.351 6.17l-7.65 20.059a371.44 371.44 0 0 1-3.514-.029l-.521-.006a345.525 345.525 0 0 1-6.366-.153l-14.413-9.685 4.848-29.46s7.458-14.916 8.575-17.526c1.121-2.611 5.221-2.611 7.831-2.235 2.61.372 18.647 2.235 21.257 2.61 2.61.373 3.355 1.117 1.117 7.083z" clip-rule="evenodd"/><path fill="#fff" fill-rule="evenodd" d="M127.809 142.973c-1.925 7.09-8.379 11.509-14.415 9.87-6.036-1.639-9.369-8.716-7.443-15.806 1.926-7.091 8.38-11.51 14.416-9.87 6.036 1.639 9.368 8.716 7.442 15.806z" clip-rule="evenodd"/><path fill="#F69C93" fill-rule="evenodd" d="M137.04 173.3c-.397.007-.794.01-1.191.018-3.582.053-7.122.091-10.611.099a22.213 22.213 0 0 1-.337-2.369v-.011c-.422-5.178 1.404-8.415 3.032-10.862 1.653-2.476 1.88-4.951 1.142-6.827a5.168 5.168 0 0 0-1.142-1.749c-1.862-1.865-4.1-3.727-2.983-8.947 3.05 1.088 5.21 3.067 6.476 4.525.905 1.039 1.355 1.812 1.355 1.812 1.121-3.355 2.983-6.337 2.983-6.337.003.007.014.01.017.017 6.111 7.082 5.529 22.343 1.259 30.631z" clip-rule="evenodd"/><path fill="#FF6686" fill-rule="evenodd" d="M115.651 145.547c-.175 1.127-1.095 1.92-2.056 1.772-.961-.149-1.599-1.183-1.425-2.31.174-1.127 1.095-1.92 2.056-1.772.961.149 1.599 1.183 1.425 2.31zm5.26-10.979l-4.035 7.152a1.374 1.374 0 0 1-2.494-1.122l2.677-7.764a2.12 2.12 0 1 1 3.852 1.734z" clip-rule="evenodd"/><path fill="#3D3450" fill-rule="evenodd" d="M117.138 113.131l.155 3.592 15.813 2.535 3.235-2.958-19.203-3.169z" clip-rule="evenodd"/><path fill="#F69C93" fill-rule="evenodd" d="M246.933 61.036c9.344-3.953 14.376 14.735-2.157 16.532a827.059 827.059 0 0 1 2.157-16.532zm-34.143 17.61c.36-10.063.719-15.454.719-15.454-10.063-3.953-16.533 6.47-.719 15.454z" clip-rule="evenodd"/><path fill="#7E4EE3" fill-rule="evenodd" d="M288.183 119.709c.152 2.789.34 6.789.463 11.62.084 3.314.056 6.664 0 13.363-.083 9.928-.219 11.521-1.671 13.029-.719.747-2.706 1.945-6.681 4.343-.667.402-3.341 2.004-3.341 2.004l-4.009 2.339c-2.058 1.195-6.584 2.848-17.038 5.011l-9.02-1.336-17.372 3.006-12.026 1.003c-12.248.725-16.178-1.904-32.826-2.242a164.286 164.286 0 0 0-7.287.013l-10.716.031c8.6-29.003 14.483-48.226 20.464-58.644 3.736-6.512 7.51-9.581 12.011-9.445 23.001-4.313 50.674-6.47 66.486-3.233 12.839 2.625 17.86 1.699 22.563 19.138z" clip-rule="evenodd"/><path fill="#5D33BA" fill-rule="evenodd" d="M271.438 151.473a31.202 31.202 0 0 1-3.333 2.683c-.328.23-.656.455-.981.677.058-25.017 3.705-39.445 5.312-42.524 2.256-2.677 2.82.088 3.103 4.344.267 4.054-.871 21.257-3.766 29.146 5.294-13.242 7.437-21.739 7.017-24.545 2.092 7.554-3.056 21.486-7.352 30.219zm-45.789 15.098c1.025 1.313 1.975 2.482 2.823 3.432l-.947.123c-2.191.28-4.481.513-6.884.707-10.846-12.811-17.62-21.353-16.475-28.261.971-5.865 13.412 13.618 21.479 23.992 0 0 .004.004.004.007z" clip-rule="evenodd"/><path fill="#5D33BA" fill-rule="evenodd" d="M229.313 169.887c-.277.037-.557.078-.841.116l-.947.123a84.28 84.28 0 0 1-1.876-3.555c0-.003-.004-.007-.004-.007-2.881-5.841-3.213-8.617-4.655-12.445 2.047 2.892 6.07 9.765 8.323 15.768zm-47.453-41.1c5.151 14.665 10.627 27.268 10.304 36.172 0 4.064 6.148 1.029 5.172-6.167s-9.323-35.711-15.476-30.005z" clip-rule="evenodd"/><path fill="#5D33BA" fill-rule="evenodd" d="M190.802 142.573c4.912 6.764 10.499 12.934 9.158 22.112 2.531-11.798-1.483-17.58-9.158-22.112z" clip-rule="evenodd"/><path fill="#F69C93" fill-rule="evenodd" d="M250.526 101.647a19.695 19.695 0 0 1-4.986 7.907 19.717 19.717 0 0 1-8.75 4.885c-5.883 1.723-11.644-.33-13.957-4.454-1.755-3.128-.999-6.507-.698-7.62 3.524-1.005 3.346-2.365 2.922-6.668-.133-1.375-.294-3.05-.365-5.107-.028-.7-.041-1.446-.041-2.239 0 0 4.279-1.832 9.348-2.81 2.704-.523 5.637-.803 8.262-.427.29 3.357.54 6.002.803 8.094v.004c1.032 8.203 2.307 7.865 7.462 8.435z" clip-rule="evenodd"/><path fill="#E97286" fill-rule="evenodd" d="M243.064 93.208v.004c-4.174 4.993-9.933 7.971-15.693 5.23 5.811 1.367 8.204 1.025 14.015-6.153-5.934 6.966-12.063 6.337-16.329 3.407-.133-1.374-.294-3.048-.365-5.106l9.307-5.049c2.704-.523 5.637-.803 8.262-.427.29 3.357.54 6.002.803 8.094z" clip-rule="evenodd"/><path fill="#F69C93" fill-rule="evenodd" d="M249.362 54.365c-.683 10.125-3.022 22.502-3.867 27.157-1.437 7.906-12.938 15.094-24.079 11.5-11.141-3.594-10.423-19.048-11.141-30.19-.044-.654-.08-1.29-.112-1.908-.234-4.305-.227-7.705.237-10.674a15.91 15.91 0 0 1 3.156-3.03c8.442-6.196 24.223-6.314 35.806 7.145z" clip-rule="evenodd"/><path fill="#F69C93" fill-rule="evenodd" d="M249.362 54.365c-11.583-13.46-27.364-13.34-35.807-7.145a15.934 15.934 0 0 0-3.155 3.03 22.32 22.32 0 0 1 .683-3.055c.762-2.544 1.991-4.866 3.863-7.364 6.469-8.625 26.955-3.594 32.346 0 2.218 1.478 2.548 7.458 2.07 14.534zm-38.609 67.767l-.004.004c-.072.003-.143.007-.219.007-.15.003-.297.003-.444-.004a2.52 2.52 0 0 1-.171-.007 3.773 3.773 0 0 1-.359-.024c-2.416-.184-6.026-1.052-8.986-1.052-1.295 0-2.321.892-3.251 2.208-1.073 1.517-2.02 3.599-3.107 5.523 0 .004-.003.004-.003.007l-.133.233c-1.87 3.247-4.177 5.961-8.241 4.607-2.379-.793-4.509 1.203-6.382 4.779-2.03 3.883-3.757 9.632-5.151 15.706-1.412 6.122-2.489 12.568-3.21 17.761l-6.005.017-1.908.006c-2.912.028-5.8.069-8.665.113 7.472-35.729 22.943-56.764 30.962-58.508a15.322 15.322 0 0 1 1.647-.259c8.672-.916 23.602 3.715 24.949 7.089.502 1.258-.096 1.723-1.319 1.794z" clip-rule="evenodd"/><path fill="#fff" fill-rule="evenodd" d="M242.717 135.837a41.735 41.735 0 0 0-.855 2.016c-1.578 3.979-2.922 8.885-3.544 14.782a67.091 67.091 0 0 0-.37 6.157s-19.767-1.437-30.908-.719c0-3.953 3.594-24.439 13.657-35.94l12.55.906c-.884 2.031 3.892 4.367 6.857 7.001 1.991 1.772 2.947 3.846 2.613 5.797z" clip-rule="evenodd"/><path fill="#fff" fill-rule="evenodd" d="M250.527 124.29s-1.247 1.063-2.958 3.299c-1.449 1.89-3.224 4.618-4.852 8.248.334-1.951-.622-4.025-2.613-5.797-2.965-2.634-7.741-4.97-6.857-7.001l5.402.392 11.878.859z" clip-rule="evenodd"/><path fill="#F69C93" fill-rule="evenodd" d="M272.944 166.407a109.133 109.133 0 0 1-9.354 3.34l-7.684 1.671c-1.761-6.281-2.537-11.017-2.917-14.263-.116-.995-.284-2.728-.662-5.76-.345-2.769-.718-5.599-1.07-8.344l-.01-.072s-5.907 7.558-12.927 9.656a60.97 60.97 0 0 1 .663-4.624 50.29 50.29 0 0 1 .588-2.81 52.408 52.408 0 0 1 2.29-7.349 4.89 4.89 0 0 0 .858-2.017c.242-1.428-.206-2.925-1.248-4.32a9.637 9.637 0 0 0-1.367-1.477c-2.964-2.632-7.742-4.97-6.857-7 .082-.185.209-.366.39-.547.923-.923 2.642-.26 5.011.94 2.368 1.196 5.39 2.936 8.921 4.157 1.915.662 3.312.928 3.678 1.015 3.484.822 9.721 8.879 21.697 37.804z" clip-rule="evenodd"/><path fill="#7E4EE3" fill-rule="evenodd" d="M251.296 56.468c0 .014-.004.025-.004.036-.018.071-.032.147-.046.22-.169-.23-.342-.458-.518-.68a37.22 37.22 0 0 0-1.366-1.679 36.103 36.103 0 0 0-4.524-4.427 31.472 31.472 0 0 0-5.478-3.612c-5.825-3.012-11.874-3.699-17.107-2.739-3.314.607-6.3 1.876-8.697 3.633a15.912 15.912 0 0 0-3.156 3.03l-.003.004a53.019 53.019 0 0 1-3.239-2.005c-4.485-3.023-6.821-5.816-7.198-8.108-.629-3.832 4.194-6.268 13.549-6.06-.359-10.782 23.361-12.22 33.783-4.313 10.376 7.871 7.928 7.195 4.004 26.7z" clip-rule="evenodd"/><path fill="#231E2F" fill-rule="evenodd" d="M231.479 52.05c3.234-3.953 9.703-3.593 11.141 1.438-3.234-1.437-5.75-2.515-11.141-1.437zm-20.414 2.989c3.069-1.763 5.461-3.095 10.934-2.578-3.625-3.599-10.023-2.575-10.934 2.578z" clip-rule="evenodd"/><path fill="#fff" fill-rule="evenodd" d="M242.979 61.934a4.852 4.852 0 1 1-9.704 0 4.852 4.852 0 0 1 9.704 0z" clip-rule="evenodd"/><path fill="#3D3450" fill-rule="evenodd" d="M241.542 61.934a3.774 3.774 0 1 1-7.548 0 3.774 3.774 0 0 1 7.548 0z" clip-rule="evenodd"/><path fill="#fff" fill-rule="evenodd" d="M212.431 61.934a4.852 4.852 0 1 0 9.704 0 4.852 4.852 0 0 0-9.704 0z" clip-rule="evenodd"/><path fill="#3D3450" fill-rule="evenodd" d="M213.868 61.934a3.774 3.774 0 1 0 7.548 0 3.774 3.774 0 0 0-7.548 0zm8.985 16.712c-3.254 0-4.672 1.078-2.515 5.032 2.156 3.953 6.109 3.594 7.906 3.594 1.797 0 6.829-1.078 9.344-5.75 2.516-4.673-2.515-3.595-6.109-3.235-3.594.36-7.548.36-8.626.36z" clip-rule="evenodd"/><path fill="#F3F3F3" fill-rule="evenodd" d="M223.213 79.005c-1.482 0-1.438 1.797 0 2.157 1.437.36 8.625 0 9.703-.36 1.078-.359 1.438-2.515-.359-2.156-1.797.36-8.266.36-9.344.36z" clip-rule="evenodd"/><path fill="#3D3450" fill-rule="evenodd" d="M213.555 47.22a16.24 16.24 0 0 0-2.553 2.312c-.212.232-.41.471-.601.717-.465 2.97-.472 6.368-.24 10.675-1.921 1.798-3.746 1.029-4.539-.106a2.367 2.367 0 0 1-.379-.861c-.359-1.798 1.076-2.516-1.439-5.75-1.764-2.27-.1-4.556 3.353-5.957.26-.106.533-.205.813-.301h.004a19.37 19.37 0 0 1 3.11-.755c.438-.072.885-.127 1.347-.175.451-.048.824.028 1.124.202z" clip-rule="evenodd"/><path fill="#231E2F" fill-rule="evenodd" d="M248.73 61.061c-3.648-3.856-2.958-8.033-3.892-11.123a36.114 36.114 0 0 1 4.524 4.428c.644.743 1.269 1.53 1.883 2.357.015-.072.029-.147.047-.22-.337 2.107-1.484 1.029-.406 2.377 1.438 1.796-.719 3.928-2.156 2.181zM230.041 47.02c1.517 5.462-4.399 3.238-7.788-3.433 5.233-.96 11.281-.273 17.107 2.739 1.319 3.745-7.256 2.462-9.319.693z" clip-rule="evenodd"/><path fill="#00C6CD" fill-rule="evenodd" d="M228.244 145.854a2.156 2.156 0 1 1-4.311 0 2.156 2.156 0 0 1 4.311 0z" clip-rule="evenodd"/><path fill="#231E2F" fill-rule="evenodd" d="M204.164 48.457c-1.796 1.797-3.234 3.235-2.156 5.75-2.156-2.875.719-6.469 2.156-5.75z" clip-rule="evenodd"/><path fill="#331B64" fill-rule="evenodd" d="M250.727 56.043a39.913 39.913 0 0 0-1.363-1.678 36.179 36.179 0 0 0-4.526-4.427 31.507 31.507 0 0 0-5.479-3.613c-5.825-3.01-11.875-3.698-17.104-2.737-3.316.608-6.303 1.876-8.7 3.633a16.24 16.24 0 0 0-2.553 2.31c-.212.233-.41.472-.601.718l-.004.004a52.253 52.253 0 0 1-3.24-2.003c-4.485-3.025-6.819-5.818-7.199-8.111 1.262-6.406 27.697-4.755 34.038-4.006 7.752.916 15.504 6.21 16.731 19.91z" clip-rule="evenodd"/><path fill="#231E2F" fill-rule="evenodd" d="M210.161 60.924c-1.921 1.798-3.746 1.03-4.539-.106-.25-1.463 1.788-3.353.598-5.78-1.453-2.95-1.658-3.363.937-6.788a52.253 52.253 0 0 0 3.24 2.003l.003-.003c-.464 2.97-.471 6.367-.239 10.674z" clip-rule="evenodd"/><path fill="#E97286" fill-rule="evenodd" d="M221.434 68.766c2.098-1.346 7.576-.026 8.506.423.93.45-2.691 4.507-3.501 4.956-.81.448-7.157-4-5.005-5.38z" clip-rule="evenodd"/><path fill="#00C6CD" fill-rule="evenodd" d="M223.283 142.067c.392-.308.869-.56 1.389-.731a5.278 5.278 0 0 1 1.632-.261c.81-.001 1.584.195 2.195.555.307.18.577.399.809.665.233.266.43.578.586.962a1.708 1.708 0 1 0 3.17-1.277 6.756 6.756 0 0 0-1.185-1.938 6.804 6.804 0 0 0-2.588-1.82 7.997 7.997 0 0 0-2.987-.565 8.683 8.683 0 0 0-2.7.433 7.954 7.954 0 0 0-2.432 1.289 1.708 1.708 0 1 0 2.111 2.688z" clip-rule="evenodd"/><path fill="#00C6CD" fill-rule="evenodd" d="M219.982 137.321c2.278-2.043 4.843-2.967 7.235-2.969a8.683 8.683 0 0 1 4.245 1.087c1.283.716 2.408 1.776 3.272 3.204a1.709 1.709 0 1 0 2.925-1.769c-1.158-1.919-2.729-3.416-4.532-4.421a12.106 12.106 0 0 0-5.91-1.519c-3.282-.001-6.669 1.282-9.519 3.844a1.71 1.71 0 1 0 2.284 2.543z" clip-rule="evenodd"/><path fill="#3D3450" fill-rule="evenodd" d="M224.13 60.455c.266 1.53.338 3.095.241 4.645a18.14 18.14 0 0 1-.258 2.32 10.68 10.68 0 0 1-.277 1.143 4.72 4.72 0 0 1-.196.563 2.637 2.637 0 0 1-.298.55.17.17 0 0 1-.293-.17l.009-.02c.135-.303.215-.682.29-1.046.076-.367.126-.743.186-1.115.107-.75.198-1.505.253-2.263a38.5 38.5 0 0 0 .086-2.28 36.3 36.3 0 0 0-.082-2.283v-.003a.17.17 0 0 1 .158-.182.172.172 0 0 1 .181.141zm.783 12.035a5.45 5.45 0 0 1 .468-.018c.752 0 1.647.13 2.416.34.384.105.738.228 1.025.361.286.131.505.276.616.394a.303.303 0 1 0 .439-.42c-.199-.207-.473-.373-.8-.526-.981-.45-2.465-.754-3.696-.757-.18 0-.354.007-.52.021a.304.304 0 0 0 .052.605z" clip-rule="evenodd"/><path fill="#E97286" fill-rule="evenodd" d="M209.556 122.108c-2.416-.184-6.026-1.052-8.986-1.052-1.296 0-2.321.892-3.251 2.208 1.446-8.409 6.385-1.716 12.237-1.156zm1.197.024l-.004.004c-.072.003-.143.007-.219.007.072 0 .147-.007.223-.011zm-16.677 6.895c-1.87 3.247-4.177 5.961-8.242 4.607-2.379-.793-4.508 1.203-6.381 4.779 2.263-8.135 4.443-8.317 6.621-7.592 2.146.718 4.942 3.408 8.002-1.794zm48.708 10.951c-1.21.968-2.42 2.468-3.213 5.223a52.408 52.408 0 0 1 2.29-7.349 4.887 4.887 0 0 0 .858-2.016c.242-1.429-.205-2.926-1.248-4.321 5.288 4.697 2.881 7.206 1.313 8.463z" clip-rule="evenodd"/><path fill="#E97286" fill-rule="evenodd" d="M240.469 141.851c.37-.297.821-.625 1.364-.981 3.9-2.546 4.926-4.658 2.468-8.227 2.461 1.979 2.666 5.869 1.326 7.12-1.039.974-3.572 1.196-5.387 2.868l.229-.78zm11.858 9.544c-.345-2.769-.718-5.599-1.07-8.344.827-2.29 2.468.489 2.341 2.882.25-2.803.011-3.736.011-3.736 1.394 2.696.051 7.899-1.282 9.198z" clip-rule="evenodd"/><path fill="#C2AFE9" fill-rule="evenodd" d="M214.375 104.018l.24.926.119.461.06.23.082.224.319.894.16.445.204.428.405.853c.133.284.318.543.473.815.169.265.311.545.498.797l.562.752c1.499 2.007 3.498 3.599 5.696 4.767 2.206 1.156 4.628 1.927 7.117 2.18 2.484.29 5.015.122 7.459-.427 2.449-.542 4.8-1.51 6.979-2.777 2.183-1.268 4.173-2.868 5.977-4.666 1.794-1.813 3.346-3.868 4.746-6.026l1.02-1.644c.315-.564.612-1.138.92-1.708l.457-.857.405-.884.83-1.765.013-.028a.511.511 0 0 1 .944.397l-.695 1.867-.356.933-.413.908c-.28.605-.549 1.216-.838 1.818l-.949 1.767c-1.339 2.314-2.87 4.547-4.718 6.526a29.631 29.631 0 0 1-6.28 5.149 25.704 25.704 0 0 1-7.567 3.086 23.833 23.833 0 0 1-8.19.425 20.964 20.964 0 0 1-7.791-2.588c-.297-.176-.603-.335-.89-.526l-.849-.591-.423-.296c-.137-.105-.266-.22-.399-.329l-.79-.667c-.266-.219-.491-.485-.737-.725-.236-.251-.491-.484-.711-.749l-.65-.803-.324-.401-.285-.431c-1.529-2.283-2.54-4.907-2.843-7.599a.512.512 0 0 1 1.006-.186l.007.025z" clip-rule="evenodd"/><path fill="#F69C93" fill-rule="evenodd" d="M270.954 154.119c3.524-1.066 14.781-.766 17.397 0 .786 15.002-16.129 16.166-18.525 16.007 0-8.334 1.128-16.007 1.128-16.007z" clip-rule="evenodd"/><path fill="#E97286" fill-rule="evenodd" d="M249.362 65.03c.471-2.077 5.107 2.094 1.998 5.458-3.109 3.365-3.881 2.849-1.998-5.458zm-39.751.678c-.626-3.914-6.657 1.347-3.149 5.469 3.508 4.12 4.337 1.966 3.149-5.469z" clip-rule="evenodd"/><path stroke="#3D3450" stroke-linecap="round" stroke-width=".583" d="M237.049 57.083c2.497-.625 5.589 1.053 5.93 4.156m-26.838-4.156c-2.684.381-4.065 3.027-3.71 4.851"/><path fill="#3D3450" fill-rule="evenodd" d="M155.287 144.056s-3.595-.718-3.595 2.516v12.22c0 1.437 0 2.875 2.516 2.516h11.249l-.37 10.588 6.005-.017 6.283-.017 1.373-.001 1.337-.002v-10.551h14.376c2.156 0 2.875 0 2.875-2.516v-12.22c0-2.875-1.078-3.234-3.235-3.234-2.156 0-38.814.718-38.814.718z" clip-rule="evenodd"/><path fill="#009499" fill-rule="evenodd" d="M155 148.153c0-2.153 3.071-1.675 3.071-1.675s31.323-.478 33.165-.478c1.843 0 2.764.239 2.764 2.153v8.135c0 1.675-.614 1.675-2.457 1.675H157.15c-2.15.239-2.15-.718-2.15-1.675v-8.135z" clip-rule="evenodd"/><path fill="#3D3450" fill-rule="evenodd" d="M139 173.73s2.371-6.754 3.335-8.09c.966-1.337.966-1.704 5.749-1.632 4.784.073 55.391 0 57.657 0 2.266 0 3.735 6.754 4.259 11.209-23.898-.668-71-1.487-71-1.487z" clip-rule="evenodd"/><path fill="#F69C93" fill-rule="evenodd" d="M85.472 122.561a72.506 72.506 0 0 0-1.167 5.547s-22.37 7.458-41.39 0c1.422-3.245 6.153-13.892 10.175-22.921.443-.996.88-1.971 1.298-2.915 2.773-6.23 4.936-11.079 4.936-11.079s21.626-2.237 34.677 7.83c0 0-1.6 3.359-3.54 8.296l-4.989 15.242zm51.714-54.272c-.101.056-.202.104-.302.156 1.491 4.475-1.492 8.204-1.492 8.204-1.864-.373-3.729-1.492-3.729-1.492-.745 8.577.373 8.95 1.119 10.441-4.475 3.73 1.864 19.763-29.086 10.814-30.949-8.95-35.423-36.17-35.797-44.374-.372-8.203.746-54.441 55.561-44 10.068 6.338 16.78 16.407 13.796 32.068-1.305 6.854-1.398 11.492-.835 14.7.716 4.123 2.513 5.88 4.191 6.927 2.902 1.813.157 4.688-3.426 6.556z" clip-rule="evenodd"/><path fill="#3D3450" fill-rule="evenodd" d="M126.21 37.947h-.011c-5.979.87-11.522 4.025-13.178 15.21-.873-11.628-13.984-5.123-12.65 6.785v.004c.099.883.276 1.79.546 2.727v.004c.539 1.89 1.447 3.883 2.816 5.93a27.26 27.26 0 0 0 1.83 2.45c2.603 3.124 4.287 5.759 5.372 8.068v.003c4.873 10.338-2.191 14.094 8.047 25.719h.004a50.371 50.371 0 0 0 1.865 2.007c-9.994.748-19.619.912-28.79.536-14.224-.582-27.35-2.458-39.035-5.458-15.289-3.923-28.112-9.76-37.706-17.115a64.971 64.971 0 0 1-1.194-.944C8.139 79.068 3.5 73.642.408 67.698c2.88 2.348 5.288 3.812 7.334 4.557.046.018.092.036.135.05a9.596 9.596 0 0 0 2.351.535c3.65.32 5.93-2.166 7.81-5.95 1.201-2.423 2.24-5.373 3.372-8.459 1.23-3.358 2.57-6.88 4.344-10.057l.007-.01a29.055 29.055 0 0 1 2.28-3.508c.075-.1.153-.199.231-.295 2.27-2.88 5.153-5.16 9-6.291 21.308-6.26 7.98-20.055 28.415-31.503.138-.078.28-.155.422-.234.22-.12.443-.24.674-.361a26.068 26.068 0 0 1 3.184-1.76l.075-.031C75.58 1.803 83.032.33 91.079.05h.004c16.618-.586 35.797 3.883 45.986 14.061v.004c3.145 3.142 5.433 6.826 6.525 11.075 4.227 16.43-7.213 11.288-17.384 12.756z" clip-rule="evenodd"/><path fill="#3D3450" fill-rule="evenodd" d="M133.901 48.31c3.728-1.12 5.966-2.61 6.339-3.356-2.611 4.101-2.611 3.355-6.339 3.355z" clip-rule="evenodd"/><path fill="#E97286" fill-rule="evenodd" d="M137.186 68.289c-1.775-3.964-1.831-8.659-.765-13.484.716 4.124 2.513 5.88 4.191 6.929 2.902 1.812.157 4.687-3.426 6.555z" clip-rule="evenodd"/><path fill="#3D3450" fill-rule="evenodd" d="M142.809 21.305c4.919 12.305 8.362 18.67-10.33 19.094 18.201 2.122 18.692-5.94 10.33-19.094z" clip-rule="evenodd"/><path fill="#E97286" fill-rule="evenodd" d="M109.663 58.75c0-10.447-9.322-6.712-6.712-1.491 2.61 5.22 5.966 13.424 6.712 8.95.746-4.476 0-5.221 0-7.459z" clip-rule="evenodd"/><path fill="#3D3450" fill-rule="evenodd" d="M38.441 34.886c-12.305 5.966-14.915 13.05-16.407 17.152-2.237-9.695 11.187-16.407 16.407-17.152z" clip-rule="evenodd"/><path fill="#231E2F" fill-rule="evenodd" d="M137.069 14.112v.004C111.531.458 82.848 4.413 78.663 12.938 81.29 5.998 86.029 2.115 91.079.051h.004c16.618-.585 35.797 3.883 45.986 14.061zM70.144 4.38c-1.67 1.253-3.067 2.27-4.241 3.171-.248.192-.486.376-.713.56-5.32 4.224-5.674 6.451-7.518 21.655-.468 3.844-1.529 6.34-3.015 7.958a7.794 7.794 0 0 1-2.34 1.745c-6.387 3.135-16.867-1.617-24.172 5.387 2.305-3.018 5.252-5.416 9.23-6.586 21.308-6.26 7.98-20.055 28.415-31.503a39.917 39.917 0 0 1 1.095-.595 25.987 25.987 0 0 1 3.185-1.76l.075-.031z" clip-rule="evenodd"/><path fill="#231E2F" fill-rule="evenodd" d="M66.212 6.533l-.31 1.018c-1.407 4.75-2.666 10.097-3.68 15.757-1.025 5.71 1.145 15.672-9.905 16.161-1.394.064-2.997-.025-4.845-.294 2.433.149 5.018-.224 7.185-1.451 2.458-1.39 4.38-3.876 4.93-7.94 1.195-8.838 1.752-12.934 5.603-21.672.188-.437.39-.883.6-1.344l.421-.235zm-40.348 41.83C21.122 59.506 28.928 80.416 7.98 72.305c10.735 3.788 11.413-12.363 17.878-23.931l.007-.01zm77.971 20.243c-.882 3.64-1.365 7.295-1.241 10.19-1.844-5.817-3.191-10.08-1.574-16.12.539 1.891 1.446 3.884 2.815 5.93z" clip-rule="evenodd"/><path fill="#231E2F" fill-rule="evenodd" d="M126.302 37.947c-5.979.87-11.522 4.025-13.179 15.21-.872-11.628-13.983-5.124-12.649 6.785v.004c-2.16 3.918-2.987 11.717.723 23.785-4.49-4.468-10.973-10.994-8.231-27.704 2.5-15.228 15.561-16.99 33.336-18.08zM15.32 84.817a2.424 2.424 0 0 1-1.195-.944 2.613 2.613 0 0 1-.269-.525 165.929 165.929 0 0 1-3.628-10.508c3.65.32 5.93-2.166 7.81-5.95 1.865 6.163 3.911 10.582 5.3 12.32 1.611 2.862-4.819 6.83-8.017 5.607zM29.921 42.8c1.69 19.117 7.19 28.557 8.623 31.33 1.433 2.772 3.685 2.158 1.843-1.118-1.842-3.275-10.503-25.81-10.466-30.212z" clip-rule="evenodd"/><path fill="#231E2F" fill-rule="evenodd" d="M37.521 85.908c.106-9.18.818-21.696 1.023-23.232.205-1.535 5.732-5.424 5.732 1.74 0 7.164 1.228 12.43 0 16.45-1.229 4.018-4.442 9.75-6.755 5.042zm9.006-5.042c.41-5.807-1.282-20.63-1.282-20.63 4.558 10.73 1.47 29.125 1.282 20.63zm44.038-53.772C87.842 38.92 62.872 45.202 67.963 68.29c1.393 5.986 2.015 4.331 4.592-6.742 2.578-11.073 21.571-12.46 21.549-28.636-.022-16.175-2.438-8.643-3.54-5.817z" clip-rule="evenodd"/><path fill="#231E2F" fill-rule="evenodd" d="M96.714 27.865c-.322 8.512-16.042 26.957-16.785 27.448-7.282 4.815-10.229 8.137-9.785 10.874 3.102-5.7 6.661-7.053 10.283-8.451 2.883-1.113 5.805-2.253 8.57-5.636 6.24-7.635 7.717-24.235 7.717-24.235z" clip-rule="evenodd"/><path fill="#231E2F" fill-rule="evenodd" d="M83.408 54.805c-.418 15.08-.187 27.694 11.829 36.176 5.084 3.398 6.47-.752 0-10.115-6.47-9.364-10.256-34.439-11.83-26.06zm39.975 46.465c-17.416-8.529-3.89-14.773-7.756-24.789 4.696 9.964-2.113 13.584 7.756 24.789z" clip-rule="evenodd"/><path fill="#E97286" fill-rule="evenodd" d="M90.462 107.319l-4.284 13.086c-.738-.12-1.493-.23-2.266-.33-7.863-11.153-22.577-14.402-30.822-14.887l1.298-2.916c10.898 2.692 23.009 4.419 36.074 5.047z" clip-rule="evenodd"/><path fill="#00C6CD" fill-rule="evenodd" d="M113.265 176.422c-90.078-2.088-100.42-45.744-105.285-55.92 7.311 2.529 16.725 2.557 26.767 1.733 13.741-1.125 28.65-3.842 40.942-3.897 8.2-.037 15.235 1.108 19.969 4.7 17.015 12.91 16.797 45.345 27.994 53.442-3.575.041-7.038.021-10.387-.058z" clip-rule="evenodd"/><path fill="#169FBF" fill-rule="evenodd" d="M123.652 176.48c-3.575.041-7.038.021-10.387-.058-4.823-5.394-7.729-15.706-7.684-33.084-.192.916-2.42 17.627-13.27 21.346 5.87-3.592 9.544-25.919 3.347-41.646 17.015 12.91 16.797 45.345 27.994 53.442zM75.69 118.338c-18.56 2.635-22.42 14.216-47.215 11.987-24.798-2.225-7.92-6.583 4.01-7.827.7-.072 1.46-.161 2.262-.263 13.741-1.125 28.65-3.842 40.942-3.897z" clip-rule="evenodd"/><path fill="#169FBF" fill-rule="evenodd" d="M63.664 123.039c-9.864 3.399-13.958 11.296-36.823 9.217 21.975 4.01 24.499-1.211 36.823-9.217zm41.181 30.107c.961 9.485 2.767 20.966 7.886 23.355-5.27 1.184-10.202-11.462-7.886-23.355z" clip-rule="evenodd"/></g></g></svg>