<svg xmlns="http://www.w3.org/2000/svg" fill="none" viewBox="0 0 320 180"><mask id="a" style="mask-type:alpha" width="320" height="180" x="0" y="0" maskUnits="userSpaceOnUse"><path fill="#fff" d="M0 0h320v180H0z"/></mask><g mask="url(#a)"><path fill="#FFE8B3" fill-rule="evenodd" d="M303.64 102.041c-.027.3-.058.593-.089.893l-.012.107a79.318 79.318 0 0 1-.933 6.31 79.157 79.157 0 0 1-1.002 4.616c-.132.537-.271 1.07-.411 1.6-.104.394-.217.784-.325 1.174a78.604 78.604 0 0 1-2.168 6.473c-1.32 3.457-2.864 6.746-4.614 9.803a58.83 58.83 0 0 1-4.839 7.23c-2.229 2.833-4.656 5.33-7.258 7.403a34.777 34.777 0 0 1-3.859 2.684l-.279.166a154.792 154.792 0 0 1-7.296 4.097l-9.031 3.8-7.467 3.14c-16.785 5.29-35.788 5.966-70.425 6.05l-5.183.01c-1.011 0-2.032.003-3.07.003l-7.115.017-6.801.016-2.16.007c-3.298.027-6.569.067-9.813.11l-1.63.02c-2.93.04-5.837.083-8.721.12-.433.007-.867.01-1.301.017-3.909.05-7.772.086-11.581.093h-1.77c-.801 0-1.598-.003-2.392-.01a442.822 442.822 0 0 1-3.836-.027l-.569-.006c-2.342-.03-4.657-.077-6.948-.144-7.32-.213-14.385-.643-21.14-1.426-.56-.067-1.122-.133-1.68-.203-11.19-1.407-21.51-3.834-30.685-7.94-6.104-2.727-11.698-6.194-16.715-10.594a62.136 62.136 0 0 1-7.138-7.403c-3.306-4.043-6.26-8.67-8.833-13.956a79.73 79.73 0 0 1-1.564-3.4c-.306-.704-.6-1.404-.883-2.097-.51-1.26-.987-2.507-1.432-3.737a88.022 88.022 0 0 1-1.83-5.67c-.067-.23-.129-.456-.19-.686a76.025 76.025 0 0 1-1.893-8.81c-1.843-12.107-.183-22.493 3.402-31.183a56.124 56.124 0 0 1 7.37-12.76 59.776 59.776 0 0 1 2.985-3.604 63.81 63.81 0 0 1 4.03-4.1c.251-.23.503-.46.754-.686 6.175-5.54 12.724-9.227 17.826-11.067a26.383 26.383 0 0 1 1.417-.476c.263-.084.519-.16.77-.23.593-.164 1.181-.327 1.781-.49.046-.014.097-.027.143-.04.248-.067.492-.134.743-.2a312.321 312.321 0 0 1 16.669-3.98c2.226-.47 4.475-.924 6.747-1.354 20.919-3.996 43.564-6.45 66.039-7.336.023-.004.042-.004.065-.004a476.602 476.602 0 0 1 20.567-.376c3.875.013 7.726.073 11.547.186a433.274 433.274 0 0 1 12.313.527 370.555 370.555 0 0 1 21.937 1.883c2.114.244 4.208.51 6.275.79 9.527 1.297 18.515 2.967 26.745 5.017 1.486.367 2.938.747 4.37 1.14.321.09.639.177.96.27 4.041 1.13 7.87 2.367 11.458 3.697a114.994 114.994 0 0 1 2.543.976 96.311 96.311 0 0 1 8.067 3.61 55.572 55.572 0 0 1 5.385 3.12 51.72 51.72 0 0 1 7.088 5.59 50.632 50.632 0 0 1 6.696 7.733c2.826 4.014 5.04 8.37 6.689 12.94a60.39 60.39 0 0 1 1.804 5.937c.12.473.232.947.341 1.42.004.017.008.03.008.043.166.704.313 1.414.449 2.127l.116.627c.058.313.112.63.162.95.918 5.473 1.173 11.08.84 16.636-.054.94-.127 1.88-.22 2.817z" clip-rule="evenodd"/><mask id="b" style="mask-type:alpha" width="289" height="178" x="15" y="-10" maskUnits="userSpaceOnUse"><path fill="#fff" fill-rule="evenodd" d="M303.64 102.041c-.028.3-.058.593-.089.893l-.012.106a79.318 79.318 0 0 1-.933 6.31 78.206 78.206 0 0 1-1.003 4.617c-.131.537-.27 1.07-.41 1.6-.104.393-.217.783-.325 1.173a78.627 78.627 0 0 1-2.168 6.474c-1.32 3.456-2.864 6.746-4.614 9.803a58.83 58.83 0 0 1-4.839 7.23c-2.229 2.833-4.656 5.33-7.258 7.403a34.902 34.902 0 0 1-3.859 2.683c-.093.057-.186.11-.279.167a155.204 155.204 0 0 1-7.297 4.097l-9.031 3.8-7.467 3.14c-16.784 5.29-35.787 5.966-70.424 6.05l-5.183.01c-1.011 0-2.033.003-3.07.003l-7.115.017-6.801.016-2.16.007c-3.298.027-6.569.067-9.813.11l-1.63.02c-2.93.04-5.837.083-8.721.12-.434.007-.867.01-1.301.017-3.909.05-7.773.086-11.582.093h-1.769c-.801 0-1.598-.003-2.392-.01a442.822 442.822 0 0 1-3.836-.027l-.569-.006c-2.342-.03-4.657-.077-6.948-.144-7.32-.213-14.385-.643-21.14-1.426-.561-.067-1.122-.134-1.68-.204-11.19-1.406-21.51-3.833-30.685-7.94-6.105-2.726-11.698-6.193-16.715-10.593a62.303 62.303 0 0 1-7.138-7.403c-3.306-4.043-6.26-8.67-8.833-13.957a78.728 78.728 0 0 1-1.564-3.4 97.99 97.99 0 0 1-.883-2.096c-.51-1.26-.987-2.507-1.432-3.737a88.086 88.086 0 0 1-1.831-5.67c-.066-.23-.128-.457-.19-.687a76.009 76.009 0 0 1-1.893-8.809c-1.842-12.107-.925-55.965 2.66-64.655a56.127 56.127 0 0 1 7.37-12.76 59.77 59.77 0 0 1 2.985-3.603 63.807 63.807 0 0 1 4.03-4.1c.25-.23.503-.46.754-.687 6.174-5.54 12.724-9.226 17.826-11.066a26.58 26.58 0 0 1 1.417-.477c.263-.083.518-.16.77-.23.592-.163 1.18-.326 1.78-.49l.144-.04.743-.2a312.323 312.323 0 0 1 16.668-3.98 326.61 326.61 0 0 1 6.748-1.353c20.918-3.997 43.563-6.45 66.038-7.337.023-.003.043-.003.066-.003a476.72 476.72 0 0 1 20.566-.377c3.875.014 7.727.074 11.548.187a433.352 433.352 0 0 1 12.313.527 370.648 370.648 0 0 1 21.937 1.883c2.113.243 4.208.51 6.275.79 9.526 1.297 18.515 2.967 26.744 5.017 1.487.366 2.938.746 4.371 1.14.321.09.638.176.96.27a146.792 146.792 0 0 1 11.458 3.696 114.344 114.344 0 0 1 2.543.977 96.308 96.308 0 0 1 8.067 3.61 55.419 55.419 0 0 1 5.384 3.12 51.607 51.607 0 0 1 7.088 5.59 50.59 50.59 0 0 1 6.697 7.733c2.826 4.013 5.04 8.37 6.689 12.94a60.381 60.381 0 0 1 1.804 5.937c.12.473.232.946.341 1.42.003.016.007.03.007.043.167.703.314 1.413.449 2.127.039.21.821 33.887.86 34.097.058.314.112.63.162.95.918 5.474 1.173 11.08.84 16.637-.054.94-.128 1.88-.22 2.817z" clip-rule="evenodd"/></mask><g fill-rule="evenodd" clip-rule="evenodd" mask="url(#b)"><path fill="#FFD066" d="M298.362 134.759c-.512 20.701-9.983 35.445-14.19 41.25l-3.993-.198c-3.722-.188-7.445-.373-11.167-.558-64.044-3.201-128.083-6.398-192.126-9.596 3.386-13.118 11.682-36.825 33.211-54.483 19.853-16.279 41.804-19.1 85.034-22.407 2.904-.221 5.742-.439 8.511-.643.726-.053 1.445-.11 2.162-.162 7.398-.545 14.305-1.01 20.743-1.333 5.003-.251 9.722-.42 14.164-.469 6.217-.076 11.893.08 17.048.538 15.704 1.409 26.598 5.673 33.283 15.124 7.858 11.111 7.492 25.977 7.32 32.937"/><path fill="#FFB000" d="M254.869 131.075c-.37 4.41 2.749 18.93 2.749 18.93-5.035 2.177-9.261 2.128-9.261 2.128-4.407 21.868-12.58 40.451-12.58 40.451l-23.596-12.57 14.858-48.939h27.83M235.777 92.735c7.978.516 20.302-1.625 22.931 3.797 2.629 5.422-3.458 11.635-3.454 29.561-14.292-23.81-19.477-33.358-19.477-33.358M226.547 86.629c-4.91 1.57-6.056 3.409-6.056 7.088-11.351 1.842-14.11-2.593-14.688-5.755 7.399-.544 14.306-1.01 20.744-1.333"/><path fill="#FFB000" d="M298.362 134.759c-.512 20.701-9.983 35.445-14.19 41.25l-3.993-.198c7.118-9.619 16.549-26.938 14.893-49.718-2.584-35.564-36.637-39.323-54.361-39.933 6.217-.076 11.893.08 17.048.538 15.704 1.409 26.598 5.673 33.283 15.124 7.858 11.111 7.492 25.977 7.32 32.937"/><path fill="#47258B" d="M253.548 145.683c-7.551 4.322-35.543-1.407-35.543-1.407s24.214-13.917 35.543 1.407"/><path fill="#F69C93" d="M251.789 123.707c-.97 5.204-2.178 10.841-3.432 16.319l-2.36 9.979c-2.64 10.844-4.923 19.222-4.923 19.222s-43.692 2.693-38.845-2.693c3.657-4.059 11.369-11.338 15.778-19.638 1.102-2.069 1.997-4.204 2.571-6.366a21.7 21.7 0 0 0 .439-2.009c1.953-11.58 30.772-14.814 30.772-14.814"/><path fill="#E97286" d="M248.357 140.026l-2.36 9.979c-6.867-4.234-19.173-6.55-27.987-2.973 0-.046-.003-.089-.003-.135-.05-2.68.944-4.759 2.571-6.366 6.553-6.485 23.35-5.373 23.35-5.373s2.657 1.241 4.429 4.868"/><path fill="#F69C93" d="M115.215 143.658a93.971 93.971 0 0 1-23.176 14.667 93.812 93.812 0 0 1-21.39 6.565l51.643 7.459 26.135-33.134-33.212 4.443z"/><path fill="#E97286" d="M115.215 143.659c7.937 1.852 14.848 9.064 13.848 14.391 9.364-7.629 4.803-13.122 4.803-13.122s-15.673-3.726-18.651-1.269"/><path fill="#7E4EE3" d="M131.185 120.716c5.964-14.315 5.174-18.445 20.019-19.345 14.846-.899 61.614-10.121 77.593-8.997 15.979 1.125 27.675-.994 27.45 14.124-.225 15.118-2.699 39.185-2.699 39.185-13.271-7.198-33.065-4.499-35.539 1.35-1.575 16.644-2.699 22.718-2.699 22.718l-97.474.838a53.59 53.59 0 0 0 10.088-10.842 53.395 53.395 0 0 0 4.672-8.117c-1.015-2.973-2.509-4.608-3.8-5.568-4.943-3.674-13.581-2.403-13.581-2.403 6.298-7.648 12.465-14.528 15.97-22.943"/><path fill="#5D33BA" d="M149.865 153.917c-4.011 11.22 14.331 13.371 41.235 1.865-32.423 23.246-52.452 7.752-41.235-1.865"/><path fill="#5D33BA" d="M145.704 155.782c-2.078 3.498-.901 8.598 1.439 9.732-5.406-.378-5.599-7.866-1.439-9.732"/><path fill="#3D3450" d="M233.781 21.602c2.976 3.772 4.527 6.508 4.735 8.54.112 1.083-.151 1.967-.785 2.703a23.74 23.74 0 0 1-.95 1.017c-1.928 1.976-4.875 4.927-8.472 14.176L171.18 27.681s-7.9-11.243-1.891-18.84c6.009-7.6 11.616-5.471 23.466-4.56 0 0 .003-.004.007-.004a50.585 50.585 0 0 1 4.214-1.402h.01c3.617-1.04 8.887-2.159 13.071-1.42 1.65.288 3.129.865 4.274 1.845 4.56 3.904 10.484 4.894 18.288 5.277.05.003.099.003.149.007 2.56.125 5.323.181 8.306.257-.003 0-.003.003-.007.003-.3.179-11.787 7.06-7.286 12.758"/><path fill="#F69C93" d="M221.017 62.397s-6.079 15.193-8.811 31.297c-6.99 15.5-40.415 16.411-42.544 11.546-2.128-4.861 5.468-5.164 7.293-8.203 1.195-1.994 2-6.211 3.185-12.481.198-1.06.408-2.175.633-3.346a388.478 388.478 0 0 1 1.65-8.18l38.594-10.633z"/><path fill="#E97286" d="M210.806 71.036c-9.015 21.641-24.403 18.335-30.667 13.52.198-1.06.41-2.174.634-3.346 3.402-3.24 11.91-9.019 30.033-10.174"/><path fill="#231E2F" d="M189.683 9.77c-4.228-3.677-20.745-3.36-18.065 15.091 6.266-8.726 18.065-15.091 18.065-15.091"/><path fill="#F69C93" d="M214.331 67.258c-11.547 13.064-21.879 18.232-33.839 15.417-11.956-2.811-14.173-19.367-12.655-23.928 1.521-4.557 1.521-17.926 3.343-31.297.574-4.218 1.574-7.257 3.036-9.534v-.003c3.171-4.944 8.51-6.313 16.414-8.392a75.347 75.347 0 0 1 2.359-.819c27.321-8.986 36.205 6.006 35.32 39.105 6.686 9.725.304 17.626-13.978 19.45"/><path fill="#E97286" d="M192.61 13.167c-1.165-3.089-11.355-1.402-18.394 4.749v-.004c3.171-4.943 8.511-6.312 16.414-8.391a76.253 76.253 0 0 1 2.359-.819c.535 1.775-.379 4.465-.379 4.465"/><path fill="#E97286" d="M191.957 19.263c-1.439 1.13-1.988 1.668-3.025 2.014 7.173.605 12.57.424 11.235-8.11 6.395 4.48 3.544 12.085 1.383 13.123 9.247-3.112 11.408-5.03 10.112-12.195-18.409-7.338-19.705 5.168-19.705 5.168M217.224 29.911c-.014-.248.259-3.573-.014-.248-.272 3.324.18 7.574.97 9.719.791 2.144-1.013 5.833-1.049 6.46 8.785-10.992 1.622-15.731.093-15.93"/><path fill="#3D3450" d="M228.31 47.808c-1.937-3.643-5.518-1.967-8.798 2.736-3.277 4.702-7.306 1.52-5.788 0 .264-.264.62-.713 1.029-1.287v-.004c1.934-2.719 4.996-8.25 4.746-10.256-.225-1.795-2.934-4.749-2.258-10.082.01-.092.024-.184.037-.28.267-1.828.934-3.93 2.221-6.353 0 0-4.228-3.96-9.23-8.187-.363-.307-.733-.617-1.103-.927 1.822 3.95 1.518 10.028-11.909 13.675.835-.38 2.739-1.386 3.719-3.482.524-1.128.66-2.31.554-3.451-.356-3.677-3.25-6.954-3.914-6.739-.247.08-.161.63-.059 1.4.158 1.214.353 2.966-.673 4.266-1.518 1.92-4.93 1.858-8.079 1.32 6.079-4.864 1.825-10.636-2.125-12.764 0 0 14.599-5.092 24.813-2.297 10.213 2.795 19.566 8.923 16.817 42.712"/><path fill="#231E2F" d="M219.498 22.282s-4.227-3.96-9.23-8.187c10.715 4.91 10.877 6.266 9.23 8.187"/><path fill="#F69C93" d="M222.224 171.861l-40.025 1.617s-9.739-22.348-17.391-32.802a35.35 35.35 0 0 0-1.571-2.01.09.09 0 0 1-.026.013c-.255.122-2.449 1.06-7.247-.013-1.079 9.63-6.735 12.187-10.118 9.762.386 1.617-5.237 2.154-8.197-3.502-1.888 1.347-4.31-.808-11.045-12.388-9.702-3.763-15.012-10.851-13.845-15.907.447-1.932 2.22-5.221 5.696-6.533 2.353-.888 4.508-.503 5.51-.25-.217-.25-.567-.647-1.001-1.127-10.631-11.742-17.345-12.342-20.856-20.104-1.826-4.037-2.317-8.972-.907-9.735 1.379-.747 4.57 2.475 5.203 3.288 5.657 7.27 33.937 22.087 54.678 32.32 20.74 10.237 48.484 35.555 61.142 57.371"/><path fill="#3D3450" d="M180.003 31.217c-.966-.75-1.806-1.248-2.672-1.57a8.096 8.096 0 0 0-2.6-.513 7.177 7.177 0 0 0-2.65.453c-.886.325-1.736.859-2.644 1.632l-.296-.145c.083-1.247.784-2.46 1.819-3.31 1.036-.856 2.398-1.33 3.764-1.354 1.366-.038 2.761.409 3.818 1.27 1.056.853 1.76 2.114 1.759 3.395l-.298.142zM195.031 30.357c.521-1.415 1.682-2.56 3.033-3.31 1.361-.756 2.94-1.106 4.508-1.078 1.568.03 3.151.478 4.465 1.363 1.304.873 2.357 2.195 2.626 3.72l-.27.19c-.348-.161-.662-.318-.946-.483a16.477 16.477 0 0 1-.889-.404 15.654 15.654 0 0 1-.865-.33 13.876 13.876 0 0 1-.851-.269 16.758 16.758 0 0 0-3.396-.59 14.144 14.144 0 0 0-3.493.21c-1.19.215-2.366.602-3.678 1.203l-.244-.222z"/><path fill="#E97286" d="M183.686 46.334c7.342 1.688 12.72 1.976 5.878 5.693-6.841 3.717-8.999 3.744-10.423-2.288-1.423-6.032 1.26-4.16 4.545-3.405"/><path fill="#3D3450" d="M181.733 32.083c.411 1.29.607 2.6.799 3.908.188 1.31.319 2.623.431 3.938.107 1.315.193 2.63.242 3.949.052 1.318.079 2.638.04 3.962a.167.167 0 0 1-.171.16.167.167 0 0 1-.159-.139 76.87 76.87 0 0 1-.518-3.922c-.149-1.309-.266-2.62-.385-3.93l-.162-1.965-.142-1.966c-.1-1.308-.159-2.627-.296-3.915l-.001-.012a.166.166 0 0 1 .147-.182.166.166 0 0 1 .175.114M180.215 51.331c.687.104 1.344.28 1.99.485.648.2 1.28.438 1.904.696.623.26 1.24.536 1.842.847.604.308 1.199.637 1.767 1.033a.17.17 0 0 1-.125.305 14.821 14.821 0 0 1-1.984-.498 24.297 24.297 0 0 1-1.91-.682 21.593 21.593 0 0 1-1.847-.835 13.072 13.072 0 0 1-1.762-1.045.17.17 0 0 1 .125-.306"/><path fill="#E97286" d="M220.56 53.611c1.126-2.23 3.451-4.795 5.017-4.295.89.284 1.313 1.486 1.707 2.605.191.543.664 1.942.345 3.7-.453 2.493-2.178 3.927-3.014 4.621-1.035.86-2.953 2.453-4.171 1.864-1.637-.793-1.505-5.284.116-8.495"/><path fill="#3D3450" d="M176.055 62.144c1.024.656 2.137.932 3.274 1.094 1.141.15 2.301.185 3.468.15a43.807 43.807 0 0 0 7.041-.806 60.295 60.295 0 0 0 6.965-1.828c2.308-.725 4.565-1.62 6.844-2.567a.167.167 0 0 1 .219.088.17.17 0 0 1-.05.196c-1.955 1.54-4.124 2.807-6.388 3.871a37.25 37.25 0 0 1-7.111 2.462c-2.455.568-4.996.93-7.575.751-1.285-.096-2.582-.338-3.818-.81-.614-.247-1.218-.533-1.758-.936-.537-.396-1.026-.873-1.354-1.442a.17.17 0 1 1 .238-.227l.005.004z"/><path fill="#231E2F" d="M197.06 35.056a7.96 7.96 0 0 1 1.556-.72 8.324 8.324 0 0 1 1.701-.357c1.162-.1 2.373.044 3.474.513a6.322 6.322 0 0 1 2.785 2.193c.682.976 1.088 2.12 1.137 3.268a.167.167 0 0 1-.322.07l-.001-.003c-.409-1.019-.913-1.957-1.587-2.738-.672-.775-1.486-1.412-2.426-1.82-.935-.418-1.97-.613-3.021-.626a10.291 10.291 0 0 0-1.583.13c-.526.093-1.049.227-1.574.39h-.004a.166.166 0 0 1-.135-.3"/><path fill="#fff" d="M193.448 40.265c1.084-5.079 11.993-5.521 11.005 1.498-.989 7.02-12.553 5.754-11.005-1.498M171.037 39.515c.972-4.906 10.75-5.334 9.864 1.447-.886 6.78-11.251 5.559-9.864-1.447"/><path fill="#3D3450" d="M194.077 41.428c.696-5.106 9.251-5.086 8.912.532-.339 5.62-9.784 5.861-8.912-.532M171.736 41.026c.659-4.836 8.761-4.817 8.44.504-.321 5.321-9.266 5.55-8.44-.504"/><path fill="#C2AFE9" d="M165.073 103.676c.444 1.158.999 2.254 1.702 3.22.35.484.747.926 1.165 1.338.437.394.878.777 1.372 1.092a12.026 12.026 0 0 0 3.16 1.496c1.115.377 2.296.573 3.48.707 2.376.264 4.812.176 7.234-.099 2.424-.275 4.833-.773 7.218-1.378 2.388-.601 4.747-1.337 7.083-2.152 2.339-.804 4.645-1.717 6.934-2.674 2.29-.957 4.555-1.98 6.804-3.045a283.246 283.246 0 0 0 6.697-3.322.165.165 0 0 1 .166.286 115.947 115.947 0 0 1-13.108 7.331 101.709 101.709 0 0 1-6.923 2.985 80.682 80.682 0 0 1-7.184 2.367 52.173 52.173 0 0 1-7.461 1.498l-.951.112-.956.078c-.637.063-1.281.069-1.922.091-1.287.001-2.58-.037-3.868-.236-1.284-.205-2.569-.481-3.802-.96-1.226-.486-2.407-1.129-3.437-1.971-.52-.417-.977-.904-1.415-1.398a9.576 9.576 0 0 1-1.098-1.637 10.157 10.157 0 0 1-.763-1.784 11.678 11.678 0 0 1-.447-1.86.166.166 0 0 1 .32-.085M219.566 142.43c1.097-1.279 2.557-2.207 4.069-2.918 1.52-.714 3.124-1.215 4.742-1.607a40.119 40.119 0 0 1 4.914-.835 53.783 53.783 0 0 1 4.959-.321c1.655-.04 3.31-.002 4.961.089 1.651.086 3.298.249 4.936.475 1.638.232 3.268.529 4.874.939 1.603.407 3.194.93 4.668 1.708a.165.165 0 1 1-.137.3l-.006-.002c-1.507-.595-3.09-.975-4.687-1.267a57.669 57.669 0 0 0-4.832-.649c-3.238-.306-6.496-.384-9.743-.297-3.245.111-6.482.414-9.653 1.021-1.584.308-3.148.707-4.653 1.262-1.5.562-2.944 1.287-4.175 2.332l-.005.004a.165.165 0 0 1-.232-.234"/><path fill="#E97286" d="M125.864 112.67c.154 1.69.193 3.352.247 5.005.041 1.653.085 3.294.148 4.931.066 1.637.145 3.269.24 4.908.094 1.641.22 3.285.265 4.984a.169.169 0 0 1-.32.079c-.742-1.542-1.239-3.179-1.587-4.844a28.637 28.637 0 0 1-.574-5.06c-.05-1.697.026-3.393.227-5.071.211-1.678.522-3.342 1.026-4.968a.168.168 0 0 1 .328.036M135.541 117.27a52.108 52.108 0 0 0-.85 6.987l-.06 1.749-.01 1.748a66.34 66.34 0 0 0 .161 3.485c.208 2.315.519 4.62 1.02 6.888a44.656 44.656 0 0 0 1.99 6.721l.001.002a.168.168 0 0 1-.096.215.17.17 0 0 1-.195-.058c-1.411-1.956-2.377-4.215-3.082-6.523a31.816 31.816 0 0 1-1.235-7.129c-.025-.603-.076-1.205-.08-1.809.005-.603-.004-1.206.02-1.809.034-.602.048-1.204.1-1.805.066-.599.124-1.199.199-1.796.327-2.384.89-4.743 1.801-6.96a.166.166 0 0 1 .316.094M149.966 125.357c-1.359 1.545-2.22 3.338-2.873 5.206-.651 1.868-1.077 3.813-1.351 5.779a37.795 37.795 0 0 0-.34 5.966c.041 2.006.244 4.01.598 6.064l-.309.115c-1.082-1.829-1.714-3.913-2.038-6.025a22.05 22.05 0 0 1-.021-6.413c.301-2.126.895-4.228 1.866-6.168.489-.967 1.07-1.894 1.775-2.724.714-.82 1.537-1.564 2.491-2.061l.202.261zM159.039 134.521c-.306-.11-.579-.231-.82-.298-.243-.069-.42-.05-.439.006-.03.028-.145.139-.257.339-.11.198-.21.447-.299.707-.182.524-.329 1.098-.498 1.675-.173.576-.344 1.167-.6 1.743l-.325-.055a14.24 14.24 0 0 1-.041-1.847c.03-.618.097-1.238.261-1.876.086-.319.192-.643.374-.977a2.12 2.12 0 0 1 .371-.499c.157-.158.388-.314.658-.378a1.24 1.24 0 0 1 .76.045c.112.037.204.088.29.144.092.051.159.116.232.177.274.254.45.546.57.864l-.237.23z"/><path fill="#6B608A" d="M34.06 79.232c-6.957-14.514-7.152-15.433 17.145-17.693 24.296-2.26 20.816-3.636 27.127 8.326 6.311 11.963 25.699 55.385 31.19 65.264 5.49 9.879-2.564 10.846-13.03 9.589-10.468-1.257-27.152-2.048-30.99-4.116-3.838-2.069-31.442-61.37-31.442-61.37"/><path fill="#3D3450" d="M34.456 81.574c-6.666-14.096-6.854-14.987 16.191-17.069 23.047-2.082 19.739-3.431 25.781 8.19 6.042 11.62 24.634 53.787 29.888 63.385 5.255 9.599-2.384 10.499-12.322 9.235-9.939-1.266-25.774-2.106-29.426-4.128-3.65-2.021-30.112-59.613-30.112-59.613"/><path fill="#584D74" d="M70.67 72.8c-.61-2.987-4.629-4.68-7.087-3.157-1.6.992-2.33 3.22-1.78 5.133.653 2.267 3.08 3.999 5.562 3.357 2.422-.627 3.738-3.215 3.305-5.332"/><path fill="#231E2F" d="M69.145 73.324c-.442-2.166-3.377-3.39-5.177-2.281-1.17.722-1.707 2.338-1.307 3.724.474 1.644 2.246 2.896 4.06 2.428 1.772-.458 2.738-2.337 2.424-3.871"/><path fill="#E97286" d="M59.414 128.384c10.398 1.096 21.575-3.481 25.403-3.075 3.828.406 2.416 8.068-18.298 12.946-1.57 2.023-4.924 5.689-10.336 7.365a19.307 19.307 0 0 1-4.088.799c.293 1.336.584 2.637.864 3.897 6.415 28.704 9.138 37.406-20.341 11.573-7.534-52.183 15.064-67.25 31.073-71.96 12.22-3.59 10.45 1.591 5.369 5.92-.208.176-.42.354-.637.525-1.439 1.145-3.085 2.198-4.732 2.974-8.003 3.765-11.662 11.771-11.662 11.771 15.43-5.65 32.729-11.771 32.788-5.178.063 6.488-26.01 11.916-26.825 12.085 25.63-2.274 29.528-1.04 29.713.003.185 1.043-3.063 3.567-28.291 10.355"/><path fill="#5D33BA" d="M220.524 138.616c-.858-24.676 15.137-36.256 11.002-26.083a1788.206 1788.206 0 0 0-8.366 21.036c11.717-13.479 23.88-17.041-2.636 5.047"/><path fill="#231E2F" d="M170.295 38.292c.044-.828.323-1.67.835-2.38a4.354 4.354 0 0 1 2.101-1.572 4.523 4.523 0 0 1 2.616-.118c.84.214 1.609.62 2.211 1.202a.17.17 0 0 1-.168.284l-.003-.002c-.762-.237-1.491-.446-2.218-.523-.723-.076-1.435-.052-2.103.157a4.18 4.18 0 0 0-1.772 1.116c-.508.519-.882 1.178-1.176 1.904l-.001.004a.167.167 0 0 1-.322-.072M222.749 39.086c-.634 5.679-2.848 3.197-7.996 10.167 1.934-2.72 4.996-8.25 4.745-10.257-.224-1.795-2.933-4.748-2.257-10.081-.564 5.207 6.128 4.594 5.508 10.17M233.781 21.371c2.976 3.772 4.527 6.508 4.735 8.54-.844-5.388-6.933-4.494-8.616-9.543-1.683-5.05 1.888-8.204 11.167-11.755-.3.178-11.787 7.059-7.286 12.758M209.166 13.168c-1.357-2.706-4.09-4.23-5.363-4.554-1.273-.323.898-1.436 3.182 0s2.181 4.554 2.181 4.554"/><path fill="#231E2F" d="M204.664 7.392c1.722.075 3.781 1.048 4.305 2.92-.374-3.295-3.406-3.57-4.305-2.92M221.017 32.922c3.795 4.1 3.795 4.936 2.875 8.031-.92 3.096-3.74 2.304-6.157 4.889 2.56-.957 6.492-.333 7.412-3.907.92-3.575.357-6.42-4.13-9.013"/><path fill="#DB536B" d="M68.423 96.374c-1.438 1.145-3.085 2.198-4.732 2.973-8.003 3.766-11.662 11.771-11.662 11.771-5.214 1.014-5.752 1.367-1.268-5.445 4.195-6.372 14.144-6.916 17.662-9.299"/><path fill="#C2AFE9" d="M114.106 141.312c1.586-.625 3.27-.971 4.964-1.157a22.725 22.725 0 0 1 5.128.016c1.706.205 3.413.626 4.986 1.4 1.559.763 3.004 1.959 3.758 3.533l-.28.176c-1.047-1.278-2.428-2.143-3.914-2.741-1.49-.598-3.085-.941-4.7-1.154-1.618-.21-3.263-.26-4.91-.224a36.362 36.362 0 0 0-4.941.469l-.091-.318z"/><path fill="#3D3450" d="M237.748 24.395c3.054 4.656 4.297 8.162 0 9.859 6.107-1.583 6.899-5.692 0-9.858"/><path fill="#E97286" d="M220.405 66.156c-.41.222-.84.37-1.272.5-.433.125-.87.228-1.312.304-.442.08-.885.146-1.333.187-.447.042-.897.07-1.355.05a.17.17 0 0 1-.162-.176.172.172 0 0 1 .105-.15c.422-.173.853-.304 1.284-.423.431-.12.867-.219 1.303-.308.436-.092.876-.163 1.318-.22.442-.052.887-.09 1.344-.085a.17.17 0 0 1 .17.172c0 .063-.038.12-.09.149"/><path fill="#584D74" d="M176.508 2.509c-1.229.254-4.555 1.115-7.236 4.129-3.937 4.426-3.298 9.918-3.184 10.776-1.802-5.223-.367-10.605 3.279-13.241 2.796-2.023 6.019-1.797 7.141-1.664"/><path fill="#231E2F" d="M183.042 7.926c-6.946-.245-14.865 3.02-13.059 12.954 1.528-7.433 3.819-12.431 13.059-12.954"/><path fill="#E97286" d="M172.467 137.373c-.047 2.372-4.617 3.389-7.659 3.303a35.809 35.809 0 0 0-1.571-2.01c4.481-2.534 4.861-2.643 6.052-3.884 1.191-1.241 3.261-1.604 3.178 2.591"/><path fill="#231E2F" d="M236.781 33.63c-1.927 1.978-4.874 4.928-8.471 14.178-1.756-10.27 5.088-12.134 8.471-14.177"/><path fill="#231E2F" d="M230.969 26.857c3.752 2.524 3.808 4.87-.23 7.398-4.037 2.528-4.205 7.188-4.205 7.188 2.748-5.39 4.558-6.87 7.241-7.812 2.684-.942 2.302-5.372-2.806-6.774M201.53 19.91c-.357-3.677-3.251-6.953-3.914-6.739-.247.08-.162.63-.059 1.4-.713-2.62-1.149-4.334.003-3.284 1.148 1.05 4.422 4.758 3.97 8.623M214.753 14.982c5.127 2.174 8.171 5.143 6.377 7.3 3.805-3.279-1.775-7.953-6.377-7.3M173.479 7.109c-3.501 2.459-4.229 4.559-4.19 6.71-1.14-3.416 2.04-7.118 4.19-6.71M232.619 8.577c-3.969-.138-11.764-.24-15.79-1.67-4.062-1.441-2.538-4.573-6.772-5.45 1.65.286 3.128.864 4.274 1.844 4.56 3.904 10.484 4.894 18.288 5.276M192.755 4.28s.004-.003.007-.003a50.74 50.74 0 0 1 4.214-1.402h.01c2.93-.218-.449 1.683-4.231 1.406"/><path fill="#E97286" d="M215.66 161.497c.956.796 1.804 1.681 2.607 2.598a38.85 38.85 0 0 1 2.258 2.858c.713.98 1.374 1.996 1.966 3.057.581 1.07 1.123 2.165 1.486 3.377l-.275.182c-.977-.799-1.789-1.706-2.567-2.635a35.66 35.66 0 0 1-2.141-2.917 53.81 53.81 0 0 1-1.918-3.07c-.605-1.048-1.179-2.117-1.679-3.251l.263-.199z"/><path fill="#DB536B" d="M52.96 150.316c-1.334 2.168-4.31 3.963-7.75 1.439-6.362-4.663-4.17-6.785-1.273-5.99 2.897.795 4.442.743 8.158.654.293 1.336.584 2.636.864 3.897"/><path fill="#DB536B" d="M40.217 147.338c3.019 4.674 9.547 5.546 10.74 3.791 1.193-1.755 2.176 0-.913 2.246-3.088 2.247-8.914-1.403-9.827-4.071-.913-2.667-.518-2.768 0-1.966"/><path fill="#E97286" d="M125.329 117.224c-3.812-1.774-4.369 2.129-1.116 3.803 3.253 1.673 1.116-3.803 1.116-3.803M116.609 102.286c.907.426 1.733.939 2.559 1.457a44.732 44.732 0 0 1 2.395 1.658c.392.287.78.58 1.166.877.39.291.771.594 1.152.899.76.613 1.513 1.238 2.227 1.924l-.18.277c-.919-.384-1.785-.849-2.638-1.337a28.252 28.252 0 0 1-1.257-.765 33.338 33.338 0 0 1-1.229-.808 27.434 27.434 0 0 1-2.337-1.79c-.736-.654-1.454-1.336-2.066-2.135l.208-.257z"/><path fill="#00C6CD" d="M90.127 7.419c10.353-.95 30.308-2.325 45.492-.585 4.548.521 8.067 4.784 8.247 10.004.444 12.913-.291 22.209-1.083 28.11-.63 4.684-3.951 8.294-8.074 8.79-18.387 2.217-36.42 1.044-46.343.024-4.64-.477-8.234-4.854-8.338-10.178-.215-10.897.855-20.893 1.814-27.473.69-4.728 4.106-8.309 8.285-8.692"/><path fill="#fff" d="M98.034 22.076a3.535 3.535 0 0 1 2.191-3.323l9.772-4.038a4.444 4.444 0 0 1 3.448.022l10.22 4.38a3.555 3.555 0 0 1 2.145 3.534l-1.106 14.747c-.025.331-.073.661-.19.972-1.552 4.113-8.506 6.806-11.836 7.883-1.161.376-2.414.34-3.524-.168-4.1-1.878-7.62-5.04-9.423-6.836-.857-.854-1.315-2.011-1.358-3.221a751.825 751.825 0 0 1-.339-13.952z"/><path fill="#00C6CD" d="M120.345 24.632c.832.981.72 2.461-.25 3.306l-7.344 8.143a2.295 2.295 0 0 1-2.965.047l-4.527-3.704a2.363 2.363 0 0 1-.343-3.296c.805-1.008 2.17-.762 3.094-.209l3.236 1.821 6.042-6.077c.857-.715 2.225-1.012 3.057-.03zM101.188 47.48c1.018 13.566-5.087 22.805-5.087 22.805 15.262-4.83 23.063-17.557 23.063-17.557l-17.976-5.248zM77.9 43.256c.393 4.324 2.76 11.798 8.718 11.903 5.959.105-.41 3.973-5.435 0-5.026-3.972-5.539-10.295-5.026-11.903.513-1.607 1.586-1.74 1.744 0M136.364 5.242c6.572 1.95 9.267 8.222 9.342 10.858.029 1.014.292 1.493.574 1.51.334.022.643-1.893.631-3.167-.042-4.767-4.647-9.724-9.139-10.343-.902-.124-2.68-.195-2.768.177-.069.29.875.822 1.36.965"/></g></g></svg>