<svg width="320" height="180" viewBox="0 0 320 180" fill="none" xmlns="http://www.w3.org/2000/svg">
<mask id="mask0" mask-type="alpha" maskUnits="userSpaceOnUse" x="0" y="0" width="320" height="180">
<rect width="320" height="180" fill="white"/>
</mask>
<g mask="url(#mask0)">
<path fill-rule="evenodd" clip-rule="evenodd" d="M303.64 102.04C303.613 102.34 303.582 102.633 303.551 102.933C303.547 102.966 303.543 103.003 303.539 103.04C303.311 105.16 303.001 107.27 302.606 109.35C302.32 110.903 301.979 112.446 301.604 113.966C301.472 114.503 301.333 115.036 301.193 115.566C301.089 115.96 300.977 116.35 300.868 116.74C300.233 118.946 299.509 121.11 298.7 123.213C297.38 126.669 295.836 129.959 294.086 133.016C292.611 135.606 290.989 138.029 289.247 140.246C287.018 143.079 284.591 145.576 281.989 147.649C280.743 148.643 279.454 149.543 278.13 150.333C278.037 150.389 277.944 150.443 277.851 150.499C275.347 151.989 272.927 153.353 270.555 154.596L261.524 158.396L254.057 161.536C237.272 166.826 218.269 167.502 183.632 167.586C181.944 167.589 180.218 167.592 178.449 167.596C177.438 167.596 176.417 167.599 175.379 167.599L168.264 167.616L161.463 167.632L159.303 167.639C156.005 167.666 152.734 167.706 149.49 167.749C148.944 167.756 148.402 167.762 147.86 167.769C144.93 167.809 142.023 167.852 139.139 167.889C138.706 167.896 138.272 167.899 137.838 167.906C133.929 167.956 130.066 167.992 126.257 167.999H124.487C123.686 167.999 122.889 167.996 122.095 167.989C120.81 167.986 119.533 167.976 118.259 167.962C118.069 167.959 117.88 167.959 117.69 167.956C115.348 167.926 113.033 167.879 110.742 167.812C103.422 167.599 96.3572 167.169 89.6023 166.386C89.0411 166.319 88.4798 166.252 87.9223 166.182C76.7314 164.776 66.4114 162.349 57.2372 158.243C51.1327 155.516 45.5391 152.049 40.5224 147.649C38.703 146.053 36.9649 144.336 35.3004 142.486C34.6501 141.763 34.0114 141.016 33.3843 140.246C30.0785 136.203 27.1249 131.576 24.5507 126.289C24.0088 125.183 23.4901 124.053 22.9869 122.889C22.6811 122.186 22.3869 121.486 22.1043 120.793C21.5933 119.533 21.1172 118.286 20.672 117.056C19.9791 115.133 19.3714 113.243 18.8411 111.386C18.7753 111.156 18.7133 110.93 18.6514 110.7C17.9043 108 17.3275 105.373 16.9056 102.82C16.8514 102.506 16.8011 102.2 16.7585 101.89C14.9159 89.7831 16.5765 79.3965 20.1611 70.7066C22.1236 65.9433 24.663 61.69 27.5314 57.9467C28.4953 56.6867 29.4901 55.4868 30.5159 54.3434C31.8243 52.8868 33.1753 51.5168 34.5456 50.2435C34.7972 50.0135 35.0488 49.7835 35.3004 49.5568C41.4746 44.0169 48.0243 40.3302 53.1262 38.4902C53.3817 38.3969 53.6372 38.3069 53.8888 38.2236C54.1094 38.1502 54.3301 38.0802 54.543 38.0136C54.8062 37.9302 55.0617 37.8536 55.3133 37.7836C55.9056 37.6202 56.494 37.4569 57.094 37.2936C57.1404 37.2802 57.1907 37.2669 57.2372 37.2536C57.4849 37.1869 57.7288 37.1202 57.9804 37.0536C63.3572 35.6069 68.9275 34.2803 74.6488 33.0736C76.8746 32.6036 79.1236 32.1503 81.3959 31.7203C102.315 27.7237 124.96 25.2703 147.435 24.3837C147.458 24.3804 147.477 24.3804 147.5 24.3804C151.414 24.2237 155.324 24.117 159.218 24.057C161.92 24.017 164.61 23.997 167.297 24.0004C167.556 24.0004 167.811 24.0004 168.067 24.0037C171.942 24.017 175.793 24.077 179.614 24.1904C183.017 24.2904 186.392 24.4204 189.737 24.597C190.468 24.6337 191.2 24.6737 191.927 24.717C199.445 25.1437 206.784 25.7737 213.864 26.6003C215.978 26.8437 218.072 27.1103 220.139 27.3903C229.666 28.687 238.654 30.357 246.884 32.407C248.37 32.7736 249.822 33.1536 251.254 33.5469C251.575 33.6369 251.893 33.7236 252.214 33.8169C256.255 34.9469 260.084 36.1836 263.672 37.5136C264.299 37.7469 264.922 37.9836 265.534 38.2236C265.762 38.3102 265.991 38.4002 266.215 38.4902C269.076 39.6236 271.77 40.8269 274.282 42.1002C276.179 43.0635 277.975 44.1068 279.667 45.2202C282.257 46.9202 284.614 48.7935 286.755 50.8101C289.29 53.1968 291.512 55.7901 293.451 58.5434C296.277 62.5567 298.491 66.9133 300.14 71.4833C300.841 73.4266 301.445 75.4099 301.944 77.4199C302.064 77.8932 302.176 78.3666 302.285 78.8399C302.289 78.8565 302.293 78.8699 302.293 78.8832C302.459 79.5865 302.606 80.2965 302.742 81.0099C302.78 81.2199 302.819 81.4265 302.858 81.6365C302.916 81.9499 302.97 82.2665 303.02 82.5865C303.938 88.0598 304.193 93.6664 303.86 99.223C303.806 100.163 303.733 101.103 303.64 102.04Z" fill="#FFE8B3"/>
<mask id="mask1" mask-type="alpha" maskUnits="userSpaceOnUse" x="16" y="-19" width="288" height="187">
<path fill-rule="evenodd" clip-rule="evenodd" d="M303.64 102.04C303.613 102.34 303.582 102.633 303.551 102.933C303.547 102.966 303.543 103.003 303.539 103.04C303.311 105.16 303.001 107.27 302.606 109.35C302.32 110.903 301.979 112.446 301.604 113.966C301.472 114.503 301.333 115.036 301.193 115.566C301.089 115.96 300.977 116.35 300.868 116.74C300.233 118.946 299.509 121.11 298.7 123.213C297.38 126.67 295.836 129.959 294.086 133.016C292.611 135.606 290.989 138.029 289.247 140.246C287.018 143.079 284.591 145.576 281.989 147.649C280.743 148.643 279.454 149.543 278.13 150.333C278.037 150.389 277.944 150.443 277.851 150.499C275.347 151.989 272.927 153.353 270.555 154.596L261.524 158.396L254.057 161.536C237.272 166.826 218.269 167.502 183.632 167.586C181.944 167.589 180.218 167.592 178.449 167.596C177.438 167.596 176.417 167.599 175.379 167.599L168.264 167.616L161.463 167.632L159.303 167.639C156.005 167.666 152.734 167.706 149.49 167.749C148.944 167.756 148.402 167.762 147.86 167.769C144.93 167.809 142.023 167.852 139.139 167.889C138.706 167.896 138.272 167.899 137.838 167.906C133.929 167.956 130.066 167.992 126.257 167.999H124.487C123.686 167.999 122.889 167.996 122.095 167.989C120.81 167.986 119.533 167.976 118.259 167.962C118.069 167.959 117.88 167.959 117.69 167.956C115.348 167.926 113.033 167.879 110.742 167.812C103.422 167.599 96.3572 167.169 89.6023 166.386C89.0411 166.319 88.4798 166.252 87.9223 166.182C76.7314 164.776 66.4114 162.349 57.2372 158.242C51.1327 155.516 45.5391 152.049 40.5224 147.649C38.703 146.053 36.9649 144.336 35.3004 142.486C34.6501 141.763 34.0114 141.016 33.3843 140.246C30.0785 136.203 27.1249 131.576 24.5507 126.29C24.0088 125.183 23.4901 124.053 22.9869 122.89C22.6811 122.186 22.3869 121.486 22.1043 120.793C21.5933 119.533 21.1172 118.286 20.672 117.056C19.9791 115.133 19.3714 113.243 18.8411 111.386C18.7753 111.156 18.7133 110.93 18.6514 110.7C17.9043 108 17.3275 105.373 16.9056 102.82C16.8514 102.506 16.8011 102.2 16.7585 101.89C14.9159 89.7832 16.5765 79.3967 20.1611 70.7068C22.1236 65.9435 24.663 61.6902 27.5314 57.9469C28.4953 56.6869 29.4901 55.4869 30.5159 54.3436C31.8243 52.8869 33.1753 51.5169 34.5456 50.2436C34.7972 50.0136 35.0488 49.7836 35.3004 49.5569C41.4746 44.017 44.8981 -2.66978 50 -4.50977C50.2555 -4.6031 50.511 -4.6931 50.7626 -4.77643C50.9832 -4.84977 51.2039 -4.91977 51.4168 -4.98643C51.68 -5.06976 51.9355 -5.14643 52.1871 -5.21643C52.7794 -5.37976 53.3677 -5.54309 53.9677 -5.70642C54.0142 -5.71976 54.0645 -5.73309 54.111 -5.74642C54.3587 -5.81309 54.6026 -5.87976 54.8542 -5.94642C60.231 -7.39308 65.8013 -8.71973 71.5226 -9.92639C73.7484 -10.3964 75.9974 -10.8497 78.2697 -11.2797C99.1884 -15.2763 121.834 -17.7297 144.308 -18.6163C144.332 -18.6196 144.351 -18.6196 144.374 -18.6196C148.288 -18.7763 152.197 -18.883 156.092 -18.943C158.794 -18.983 161.484 -19.003 164.17 -18.9996C164.43 -18.9996 164.685 -18.9996 164.941 -18.9963C168.815 -18.983 172.667 -18.923 176.488 -18.8096C179.89 -18.7096 183.266 -18.5796 186.61 -18.403C187.342 -18.3663 188.074 -18.3263 188.801 -18.283C196.319 -17.8563 203.658 -17.2263 210.738 -16.3997C212.852 -16.1563 214.946 -15.8897 217.013 -15.6097C226.539 -14.313 235.528 -12.643 243.757 -10.593C245.244 -10.2264 246.695 -9.84639 248.128 -9.45306C248.449 -9.36306 248.766 -9.27639 249.088 -9.18306C253.129 -8.05307 256.957 -6.81641 260.546 -5.48643C261.173 -5.25309 261.796 -5.01643 262.408 -4.77643C262.636 -4.68977 262.864 -4.59977 263.089 -4.50977C265.95 -3.37644 271.77 40.827 274.282 42.1003C276.179 43.0636 277.975 44.107 279.667 45.2203C282.257 46.9203 284.614 48.7936 286.755 50.8102C289.29 53.1969 291.512 55.7902 293.451 58.5435C296.277 62.5568 298.491 66.9135 300.14 71.4834C300.841 73.4268 301.445 75.4101 301.944 77.4201C302.064 77.8934 302.176 78.3667 302.285 78.84C302.289 78.8567 302.293 78.87 302.293 78.8834C302.459 79.5867 302.606 80.2967 302.742 81.01C302.78 81.22 302.819 81.4267 302.858 81.6367C302.916 81.95 302.97 82.2667 303.02 82.5867C303.938 88.06 304.193 93.6666 303.86 99.2232C303.806 100.163 303.733 101.103 303.64 102.04Z" fill="white"/>
</mask>
<g mask="url(#mask1)">
<path d="M26.4178 102.377C25.8314 101.271 26.393 99.9047 27.5873 99.531L75.0558 84.6752C75.975 84.3876 76.9686 84.7959 77.42 85.6468L101.161 130.407C101.747 131.512 101.186 132.879 99.9912 133.253L52.5228 148.108C51.6036 148.396 50.6099 147.988 50.1586 147.137L26.4178 102.377Z" fill="#FFB000"/>
<path d="M32.69 106.106L52.6877 144.541L100.382 128.194L83.9284 90.0704L32.69 106.106Z" fill="#F2ECFD"/>
<path d="M35.5574 98.6182L52.3501 138.557L93.0171 101.981L87.934 86.8196L35.5574 98.6182Z" fill="white"/>
<path d="M48.9834 111.067C48.9616 110.174 49.5336 109.375 50.3855 109.109L97.7664 94.2806C99.0349 93.8836 100.331 94.8115 100.363 96.1403L101.232 131.601C101.254 132.493 100.682 133.292 99.83 133.559L52.4491 148.387C51.1806 148.784 49.8849 147.856 49.8524 146.527L48.9834 111.067Z" fill="#FFD066"/>
<path fill-rule="evenodd" clip-rule="evenodd" d="M49.2249 120.922L49.1393 117.432L100.491 101.361L100.577 104.851L49.2249 120.922Z" fill="#FFB000"/>
<path d="M77.4191 99.4227C77.5415 97.3484 78.934 95.566 80.9171 94.9454L99.3104 89.1892C99.9623 88.9852 100.622 89.4804 100.609 90.1634L100.405 100.456L76.9245 107.804L77.4191 99.4227Z" fill="#FFD066"/>
<path d="M133.473 84.9456C136.053 82.7951 138.849 68.996 139.924 62.3652C145.659 64.5157 158.849 72.3651 165.73 86.5585C191.536 92.4723 194.762 96.7734 196.375 103.763C197.988 110.752 208.74 163.439 213.041 186.019C199.063 189.783 157.128 195.374 101.215 187.632C99.9246 182.471 98.8852 166.844 98.5268 159.676C96.9139 159.497 93.1505 158.923 91 158.063C93.1505 111.289 96.9139 107.526 102.828 102.15C108.742 96.7734 130.247 87.6337 133.473 84.9456Z" fill="#F69C93"/>
<path d="M206.842 154.413C202.91 156.982 193.14 161.542 185.509 159.229V152.821L205.595 148.49L206.842 154.413Z" fill="#E77286"/>
<path fill-rule="evenodd" clip-rule="evenodd" d="M98.9857 167.373C98.7846 164.415 98.6284 161.705 98.5269 159.674C97.8711 159.601 96.8597 159.463 95.7458 159.267L98.527 149.997C107.846 152.148 126.484 157.739 126.484 162.9C115.622 168.012 105.472 168.298 98.9857 167.373ZM100.677 168.814C105.695 168.993 116.914 168.706 121.645 166.126C113.043 172.04 101.215 172.04 100.677 168.814Z" fill="#E77286"/>
<path d="M211.275 165.309C215.166 164.272 221.729 161.067 224.728 152.846V132.95C225.965 131.127 227.869 127.481 225.586 127.481C222.732 127.481 204.796 149.291 199.095 147.313C195.903 146.206 185.91 152.846 185.91 176.396L202.639 181.369C204.455 177.218 208.161 166.139 211.275 165.309Z" fill="#E77286"/>
<path fill-rule="evenodd" clip-rule="evenodd" d="M98.5313 159.765C98.5298 159.735 98.5283 159.705 98.5268 159.675C96.9139 159.495 93.1505 158.922 91 158.062C93.1505 111.288 96.9139 107.525 102.828 102.148C106.298 98.9934 115.139 94.5422 122.503 90.8595C141.238 106.305 165.239 107.079 170.958 87.8105C191.992 93.1041 194.878 97.2751 196.375 103.761C197.197 107.323 200.392 122.752 203.898 140.016L189.386 151.073V189.921C174.031 191.498 153.17 192.276 128.423 190.496C126.012 180.515 122.483 164.387 123.258 161.288C119.384 161.586 108.234 160.697 98.5313 159.765Z" fill="#7E4EE3"/>
<path d="M172.719 93.0088C165.73 104.837 150.677 113.439 125.946 98.9227C152.29 120.428 172.719 100.536 172.719 93.0088Z" fill="#C2AFE9"/>
<path d="M137.236 161.825C156.59 153.761 160.891 148.385 166.268 134.406C157.666 144.729 143.329 156.987 137.236 161.825Z" fill="#5F33BA"/>
<path d="M122.182 156.449C111 154.299 98.1682 154.119 93.1504 154.299C98.3116 156.019 114.655 156.449 122.182 156.449Z" fill="#C2AFE9"/>
<path fill-rule="evenodd" clip-rule="evenodd" d="M136.179 79.2092C140.407 95.0377 151.163 99.193 161.429 93.5467C162.206 91.9929 163.333 86.5215 163.941 83.232C163.523 82.5278 163.09 81.8416 162.645 81.1733L139.609 64.2227C138.844 68.5783 137.585 74.6982 136.179 79.2092ZM138.311 89.7833C144.225 97.3101 150.676 97.8477 153.364 97.3101C149.063 99.4606 141.537 99.4606 138.311 89.7833Z" fill="#E97286"/>
<path d="M110.747 111.086C116.075 109.474 120.87 126.403 123.001 152.199C99.5577 132.046 107.55 126.403 111.812 132.046C116.075 137.688 119.804 140.107 116.607 132.046C113.411 123.984 105.419 112.699 110.747 111.086Z" fill="#5F33BA"/>
<path d="M128.275 54.3419C128.813 51.1162 129.843 45.3971 136.295 48.0853C135.399 40.2001 137.236 24.3011 152.289 18.2796C171.106 10.7529 180.246 24.1935 182.934 30.1074C185.622 36.0213 182.934 47.8491 181.321 55.3759C179.708 62.9027 177.263 75.4609 173.5 80.8371C169.737 86.2134 166.805 87.6335 160.891 88.7088C154.978 89.784 147.5 85.5 145 82.5C143.461 80.6529 140 72.5 138.849 66.1284C131.86 66.1284 127.738 57.5677 128.275 54.3419Z" fill="#F69C93"/>
<path d="M173.5 33C176.667 34.8333 183 39.9 183 45.5L185.5 33L177 18.5L173.5 33Z" fill="#E97286"/>
<path d="M147.5 30.4998C161 25.9998 157 39.9998 154.5 44.9998L160.5 39C160.167 40.9999 159.3 45.4998 158.5 47.5L169 37.5L166 18C160.833 18.9999 149.9 22.8998 147.5 30.4998Z" fill="#E97286"/>
<path d="M161.098 48.4893C156.157 45.0661 149.695 44.6835 146.424 48.56C151.366 48.1816 154.635 48.1066 161.098 48.4893Z" fill="#3D3450"/>
<path d="M185.692 49.1213C180.992 45.3748 174.57 44.5602 171.046 48.2089C176.003 48.1624 179.27 48.3065 185.692 49.1213Z" fill="#3D3450"/>
<path d="M156.028 52.1904C150.354 50.0621 147.706 60.4454 155.404 59.9078C163.103 59.3701 160.567 53.8927 156.028 52.1904Z" fill="white"/>
<path d="M177.02 27.9561C174.87 41.9344 172.182 43.5473 158.203 48.3859C159.279 46.9524 161.644 43.2252 162.504 39.7844C160.712 41.7557 156.268 45.8057 152.827 46.2354C156.59 44.0849 159.279 38.7091 158.741 32.2576C158.203 25.8061 158.203 25.8061 152.29 27.9561C146.376 30.1061 142.075 33.8705 142.612 36.021C143.15 38.1715 145.3 40.322 142.075 42.4725C138.849 44.623 140.999 50.5369 142.612 55.3756C144.225 60.2142 137.774 50.5369 136.161 49.4617C134.548 48.3864 132.935 48.3859 129.172 50.5369C127.559 49.8199 125.193 47.4183 128.634 43.5478C132.935 38.7097 124.871 33.8705 124.871 30.1071C124.871 26.3437 129.709 21.5051 139.386 14.5159C136.519 12.5446 131.537 6.88163 134.548 0C137.236 5.9139 142.075 11.8273 152.827 9.67677C160.354 2.14999 166.805 4.83812 168.956 7.52626C171.106 10.2144 181.321 10.752 186.16 9.13914C185.085 10.9312 181.106 14.7305 173.795 15.5907C190.461 23.1174 188.848 33.87 182.934 46.2354C183.472 40.8591 181.321 33.87 177.02 27.9561Z" fill="#3D3450"/>
<path d="M158 10.9997C151 18.4997 147 14.9997 153 9.49974C159 3.99974 163.5 4.99974 158 10.9997Z" fill="#231E2E"/>
<path d="M162 6.99981C161 10.9997 156 14.9998 154 15.4998C159.5 15.9998 163 10.4998 162 6.99981Z" fill="#231E2E"/>
<path d="M128 35.9998C124 30.9998 128 29.4998 134.5 36.4998C141 43.4998 133.5 46.4998 128 35.9998Z" fill="#231E2E"/>
<path d="M135.5 35.4998C138 39.4998 138.5 40.4998 137 42.9998C141 42.9998 140.5 38.4998 135.5 35.4998Z" fill="#231E2E"/>
<path d="M158.5 28.9998C157 21.9998 151 17.9998 143.5 33.4998C146.5 29.9998 157 24.4998 158.5 28.9998Z" fill="#231E2E"/>
<path d="M143 12.9998C148 13.4998 144 16.4998 139.5 14.4998C137 13.4998 133.5 8.49981 133.5 4.99981C133.5 1.49981 138 12.4998 143 12.9998Z" fill="#231E2E"/>
<path d="M133.5 27.2353C134 24.4706 135 22 140 18C139.5 19 138.1 21.5 136.5 23.5C137.5 22.5 140 22 143 22C141 22.5 139 28 138 33.4998C137.5 32.9999 136.8 30.7 138 25.5C136.333 27 133.1 29.4471 133.5 27.2353Z" fill="#231E2E"/>
<path d="M167.5 12.9998C165.5 11.4998 180.5 12.9998 186 9.49974C185 11.9997 180 15.4998 174 15.4998C172.5 15.1665 169.1 14.1998 167.5 12.9998Z" fill="#231E2E"/>
<path d="M180.5 25C178 22.7647 177 25 177 28C179.167 30.6666 183.4 37.8998 183 45.5C185.5 39 183 27.2353 180.5 25Z" fill="#231E2E"/>
<path d="M171.5 30C171.5 26.5002 169 23.5 166 22C166.5 22 167.9 22.1 169.5 22.5C168.333 21.8333 165.2 20.4 162 20C163.833 19.6667 168.5 19.6 172.5 22C177.5 25 174 25.5 172 23.5C172.333 25 172.7 28.4 171.5 30Z" fill="#231E2E"/>
<path d="M162.5 39.5C163.821 35.9771 164.754 29.7392 163.592 27.2766C163.403 27.0196 163.206 26.7608 163 26.5C163.239 26.6789 163.434 26.9431 163.592 27.2766C170.279 36.3805 166.335 43.0549 160.5 45C161.7 42.6 162.333 40.3333 162.5 39.5Z" fill="#231E2E"/>
<path d="M169.605 66.3726C170.838 64.2321 173.127 61.8907 165.21 63.397C159.405 64.5017 160.46 64.3008 163.271 67.5777C166.082 70.8545 168.371 68.5131 169.605 66.3726Z" fill="#E97286"/>
<path d="M158.741 67.7415C161.752 66.4512 165.372 67.2357 166.268 67.5941C165 68 161 69 158.741 67.7415Z" fill="#3D3450"/>
<path d="M171.106 52.1504C168.096 56.0213 166.626 62.3653 166.268 65.0534C167.522 62.9029 170.246 57.3116 171.106 52.1504Z" fill="#3D3450"/>
<path d="M150.677 72.5801C153.723 74.193 161.859 76.7736 170.031 74.193C163.58 80.6445 154.44 78.494 150.677 72.5801Z" fill="#3D3450"/>
<path d="M129.172 20.9678C124.333 25.8065 121.645 29.0322 124.333 33.8709C117.881 27.4194 123.258 23.1183 129.172 20.9678Z" fill="#3D3450"/>
<path d="M182.934 19.8926C188.311 25.8065 189.386 30.6451 186.698 39.7848C193.687 29.0322 195.3 22.0431 182.934 19.8926Z" fill="#3D3450"/>
<path d="M157.363 60.1762C153.443 61.5874 149.646 55.071 154.156 53.316C158.666 51.5609 162.842 58.7292 157.363 60.1762Z" fill="#3D3450"/>
<path d="M177.481 59.4843C182.238 57.4386 177.726 49.473 173.299 54.3595C168.873 59.2461 173.677 61.121 177.481 59.4843Z" fill="white"/>
<path d="M178.263 56.5301C179.105 60.1687 173.332 62.5796 172.254 58.3747C171.176 54.1698 177.526 51.5182 178.263 56.5301Z" fill="#3D3450"/>
<path d="M197.663 96.1585C198.06 94.3163 199.689 93.001 201.574 93.001L228.056 93.001C229.33 93.001 230.279 94.1766 230.011 95.4222L218.518 148.767C218.121 150.609 216.492 151.924 214.607 151.924L190.602 151.924C188.054 151.924 186.155 149.573 186.692 147.082L197.663 96.1585Z" fill="#231E2F"/>
<path fill-rule="evenodd" clip-rule="evenodd" d="M226.716 95.0713C226.273 95.0958 225.806 95.1218 225.333 95.0939C223.738 95.0002 210.569 95.0587 204.867 95.084C203.546 95.0898 202.625 95.0939 202.343 95.0939C200.841 95.0939 200.379 95.4407 199.801 97.5201C199.339 99.1837 193.832 126.171 191.137 139.456L188.75 137.531L197.663 96.1585C198.06 94.3163 199.689 93.001 201.574 93.001H228.056C229.33 93.001 230.279 94.1766 230.011 95.4222L229.735 96.7045L229.607 96.5959C229.256 94.9303 228.108 94.9941 226.716 95.0713Z" fill="#3D3450"/>
<path d="M202.269 100.512C202.894 97.5462 207.241 97.5934 206.744 100.512C206.218 103.605 201.808 103.342 202.269 100.512Z" fill="#3D3450"/>
<path d="M202.903 100.532C203.357 98.3791 206.513 98.4134 206.152 100.532C205.77 102.778 202.569 102.587 202.903 100.532Z" fill="#231E2F"/>
<path d="M201.234 106.188C201.86 103.222 206.206 103.269 205.71 106.188C205.183 109.281 200.773 109.018 201.234 106.188Z" fill="#3D3450"/>
<path d="M201.868 106.208C202.322 104.055 205.478 104.089 205.117 106.208C204.735 108.454 201.534 108.262 201.868 106.208Z" fill="#231E2F"/>
<path d="M226.482 123.117C229.708 127.956 229.17 129.569 226.482 131.719C223.794 133.87 226.482 134.407 226.482 136.558C226.482 138.708 226.482 139.246 225.407 141.396C229.17 143.547 227.557 145.697 226.482 147.31C225.407 148.923 228.633 151.074 227.02 153.224C225.407 155.375 224.869 156.988 222.181 156.45C219.493 155.912 210.891 154.299 209.278 153.762C207.665 153.224 206.59 152.687 207.128 151.074C207.581 149.713 208.799 148.736 209.815 148.785C203.963 147.247 204.977 146.142 204.977 143.009C204.977 140.429 206.769 134.407 207.665 131.719C211.429 132.436 219.493 133.977 221.644 134.407C224.332 134.945 224.332 133.87 223.256 131.719C222.181 129.569 216.805 122.579 215.73 120.967C214.654 119.354 214.654 118.816 215.73 117.741C216.805 116.666 219.493 115.59 226.482 123.117Z" fill="#F28585"/>
<path d="M208.5 140.5C219.5 142 225 141 221.5 139.5C218.7 138.3 211.667 139.666 208.5 140.5Z" fill="#D55E72"/>
<path d="M173.257 143.546C164.117 155.912 137.774 182.793 124.333 194.083L154.44 202.686C161.608 193.187 177.236 171.073 182.397 158.6C189.386 160.213 195.837 154.837 200.676 151.073C205.515 147.31 210.891 147.31 215.73 146.772C220.568 146.235 218.418 143.546 215.73 143.546C213.041 143.546 208.203 143.546 200.676 144.622C201.572 143.547 204.87 140.751 210.891 138.17C218.418 134.945 218.418 136.557 218.418 132.794C218.418 129.031 216.267 130.106 213.579 129.568C218.955 127.418 218.418 126.88 218.418 124.73C218.418 122.579 217.342 122.041 212.504 122.579C207.665 123.117 202.289 124.192 195.837 128.493C200.138 122.041 208.203 117.74 208.203 116.665C208.203 115.59 208.203 112.902 197.988 117.74C187.773 122.579 182.397 131.181 173.257 143.546Z" fill="#F69C93"/>
<path d="M199.063 134.944C200.676 133.868 203.902 131.18 213.041 129.567C211.966 130.643 206.052 132.256 202.827 133.868C199.601 135.481 197.45 136.019 199.063 134.944Z" fill="#E97286"/>
<path d="M197.45 124.73C193.149 127.418 194.224 129.568 195.837 128.493L203.902 121.504C203.185 121.683 200.891 122.579 197.45 124.73Z" fill="#E77286"/>
<path d="M168 34.5C168.5 38.5 166.5 44 163.5 44.5C167.5 44 170 40.5 168 34.5Z" fill="#231E2E"/>
<path d="M137.361 54.5205C133.679 49.5232 128.157 51.3972 131.225 57.0192C134.293 62.6411 141.657 65.7641 137.361 54.5205Z" fill="#E97286"/>
<path d="M223.5 148.5C221.5 149 216.5 149 212 149C218.5 151.001 225 151 226 150.5C227 150 225.5 148 223.5 148.5Z" fill="#D45E72"/>
<path d="M174.226 51.2221C176.693 49.4192 181.248 49.8945 180.774 53.3578C179.587 51.2221 177.927 49.9886 174.226 51.2221Z" fill="#3D3450"/>
<path d="M157.758 51.4267C153.258 49.9267 149.758 49.9267 148.258 53.4267C150.758 51.4267 151.758 50.4267 157.758 51.4267Z" fill="#3D3450"/>
<rect x="204.945" y="14.0273" width="51.4084" height="53.7611" rx="4" transform="rotate(12.0562 204.945 14.0273)" fill="white"/>
<path fill-rule="evenodd" clip-rule="evenodd" d="M203.223 22.0909C209.971 30.6361 217.847 34.1581 227.556 34.6692C237.991 35.2185 237.841 42.2697 237.723 47.8293C237.698 49.0005 237.674 50.1055 237.751 51.0696C237.988 54.0314 242.975 56.5499 248.378 56.7969L254.384 28.677C254.846 26.5166 253.468 24.3912 251.308 23.9297L208.857 14.863C206.697 14.4016 204.571 15.7789 204.11 17.9393L203.223 22.0909Z" fill="#F7F3FF"/>
<path d="M214.077 41.3625C213.857 39.9432 215.489 39.5082 216.171 40.4992C216.171 21.7257 226.774 26.5889 229.206 27.4644C231.638 28.3399 236.599 30.6745 236.113 43.0286C241.463 43.0286 236.599 48.3788 233.097 48.6706C230.86 51.6862 227.619 55.6018 223.338 55.5045C219.058 55.4073 216.074 50.1907 216.171 45.6187C215.499 44.8763 214.535 44.3123 214.077 41.3625Z" fill="#F69C93"/>
<path d="M224.05 45.6016C224.863 45.1893 226.043 44.928 223.293 43.7949C221.276 42.9639 221.643 43.115 221.85 44.6951C222.057 46.2752 223.237 46.014 224.05 45.6016Z" fill="#E97286"/>
<path fill-rule="evenodd" clip-rule="evenodd" d="M246.295 66.5508L244.733 73.8624C244.272 76.0229 242.146 77.4002 239.986 76.9387L201.707 68.7629C201.826 68.5361 201.947 68.3046 202.071 68.0692C204.486 63.4613 207.663 57.4009 210.715 57.4009H219.751L221.257 49.1864L228.924 48.3643C229.11 49.1445 229.27 49.8465 229.416 50.4818C230.341 54.5288 230.646 55.8626 232.894 57.4009C233.485 57.8048 234.378 58.1311 235.458 58.5256C238.466 59.624 242.919 61.2505 246.295 66.5508Z" fill="#F69C93"/>
<path d="M220.037 48.063C221.145 49.2486 223.952 48.9245 228.309 47.793C223.398 51.2429 220.296 48.8718 220.037 48.063Z" fill="#3D3450"/>
<path d="M225.724 38.1933C226.949 37.7362 230.333 38.0053 230.955 38.8775C230.519 37.0511 227.427 35.8069 225.724 38.1933Z" fill="#3D3450"/>
<path d="M216.217 37.4462C217.442 36.9891 220.825 37.2583 221.448 38.1304C221.012 36.3041 217.92 35.0599 216.217 37.4462Z" fill="#3D3450"/>
<path d="M224.722 37.7336C222.674 37.8095 219.792 36.747 220.323 31.8186C217.351 30.9086 216.582 37.2787 216.228 41.6009C216.127 41.2219 215.622 40.009 214.408 38.189C212.892 35.9141 213.715 33.4116 215.308 31.8186C216.9 30.2255 216.153 30.7908 216.228 28.2884C216.304 25.7859 216.456 26.2076 220.323 24.9934C220.247 24.5637 221.901 23.1068 220.324 23.0462C221.613 21.6812 222.598 23.1735 226.238 24.9934C227.856 25.1706 231.698 25.252 234.125 24.16C234.125 24.6148 233.761 25.752 232.305 26.662C233.543 26.6367 235.445 27.9584 237.387 30.5068C239.813 33.6924 235.111 35.0793 236.627 37.7336C238.132 40.3674 237.173 41.5822 236.047 43.0086L236.021 43.0417C234.883 44.4825 230.636 40.236 232.305 37.7336C233.973 35.2311 232.229 32.1977 231.091 31.8186C229.954 31.4394 226.769 33.866 226.238 36.596C225.733 35.8629 225.025 33.8812 226.238 31.8186C224.797 31.9702 223.66 35.8377 224.722 37.7336Z" fill="#3D3450"/>
<path fill-rule="evenodd" clip-rule="evenodd" d="M246.295 66.5506L244.731 73.8728C244.27 76.0332 242.144 77.4105 239.984 76.9491L201.701 68.7726C201.822 68.5426 201.945 68.3076 202.071 68.0687C204.486 63.4608 207.663 57.4004 210.715 57.4004H217.314C217.849 61.8418 221.739 66.8256 234.162 58.0359C234.552 58.1941 234.987 58.3531 235.458 58.5251C238.466 59.6235 242.92 61.25 246.295 66.5506Z" fill="#7E4EE3"/>
<path d="M216.178 60.4229C217.512 64.9697 225.455 66.1225 233.216 61.5747C224.849 68.2438 216.178 64.789 216.178 60.4229Z" fill="#C2AFE9"/>
<path d="M208.613 63.7528C210.118 63.1506 210.268 66.9643 209.415 72.6848C207.509 73.9888 205.853 69.775 206.555 65.7106C206.706 67.2996 207.268 70.5779 208.311 70.9793C207.91 68.7712 207.408 64.2346 208.613 63.7528Z" fill="#5F34BA"/>
<path d="M221.378 55.1675C223.529 56.0015 225.59 56.2147 229.609 53.1767C227.776 56.4686 221.52 59.4031 221.378 55.1675Z" fill="#E97286"/>
<path d="M234.919 44.9646C236.583 43.8434 238.03 43.9169 236.836 45.3992C235.643 46.8816 232.496 46.7725 234.919 44.9646Z" fill="#E97286"/>
<circle cx="202.102" cy="72.9334" r="12.9343" fill="#00C6CE"/>
<path fill-rule="evenodd" clip-rule="evenodd" d="M200.148 67.8716C200.404 67.5509 200.793 67.3643 201.203 67.3643H203.148C203.559 67.3643 203.947 67.5509 204.204 67.8716L204.879 68.716H207.583C208.329 68.716 208.934 69.3212 208.934 70.0677V76.8263C208.934 77.5728 208.329 78.178 207.583 78.178H196.769C196.022 78.178 195.417 77.5728 195.417 76.8263V70.0677C195.417 69.3212 196.022 68.716 196.769 68.716H199.472L200.148 67.8716ZM205.555 73.447C205.555 75.3133 204.042 76.8263 202.176 76.8263C200.309 76.8263 198.796 75.3133 198.796 73.447C198.796 71.5806 200.309 70.0677 202.176 70.0677C204.042 70.0677 205.555 71.5806 205.555 73.447ZM206.907 71.4194C207.28 71.4194 207.583 71.1168 207.583 70.7435C207.583 70.3703 207.28 70.0677 206.907 70.0677C206.534 70.0677 206.231 70.3703 206.231 70.7435C206.231 71.1168 206.534 71.4194 206.907 71.4194ZM202.176 75.4746C203.296 75.4746 204.203 74.5668 204.203 73.447C204.203 72.3272 203.296 71.4194 202.176 71.4194C201.056 71.4194 200.148 72.3272 200.148 73.447C200.148 74.5668 201.056 75.4746 202.176 75.4746Z" fill="white"/>
<rect x="241.332" y="76.188" width="48.8109" height="66.8309" rx="5" fill="#FFD066"/>
<rect x="238.309" y="73.1768" width="48.8109" height="66.8309" rx="5" fill="white"/>
<rect x="242" y="84" width="19" height="6" rx="2" fill="#F0EBFA"/>
<rect x="263" y="84" width="20" height="6" rx="2" fill="#F0EBFA"/>
<rect x="243" y="99" width="40" height="7" rx="2" fill="#F0EBFA"/>
<rect x="242" y="79" width="14.707" height="2.9414" rx="1" fill="#9C91B8"/>
<rect x="243" y="94" width="14.707" height="2.9414" rx="1" fill="#9C91B8"/>
<rect x="243" y="110" width="14.707" height="2.9414" rx="1" fill="#9C91B8"/>
<rect x="251" y="117" width="9.08312" height="2.9414" rx="1" fill="#9C91B8"/>
<rect x="272" y="117" width="10" height="3" rx="1" fill="#9C91B8"/>
<rect x="243" y="115" width="6.32014" height="6.32014" rx="2" fill="#F0EBFA"/>
<rect x="264" y="115" width="6.32014" height="6.32014" rx="2" fill="#F0EBFA"/>
<rect x="243" y="127" width="39.6926" height="6.86276" rx="3.43138" fill="#7E4EE3"/>
<path d="M44.2898 35.4749C44.1076 34.3533 44.5748 33.225 45.4965 32.5605L47.5245 31.0985C47.948 30.7932 48.4438 30.6037 48.963 30.5487L86.8854 26.5331C88.3675 26.3761 89.7401 27.331 90.1083 28.7752L95.7028 50.7169C95.8287 51.2107 95.8268 51.7284 95.6971 52.2213L94.9479 55.0695C94.6463 56.216 93.6977 57.0774 92.5275 57.2675L51.9387 63.8591C50.3033 64.1247 48.7622 63.0143 48.4966 61.3788L44.2898 35.4749Z" fill="#D6CDE8"/>
<rect x="45.8967" y="31.002" width="46.0702" height="31.0974" rx="3" transform="rotate(-9.22438 45.8967 31.002)" fill="white"/>
<path fill-rule="evenodd" clip-rule="evenodd" d="M50.7489 30.3592L48.9628 30.5483C48.4436 30.6033 47.9477 30.7928 47.5242 31.0981L45.4963 32.5602C44.5746 33.2247 44.1074 34.3529 44.2895 35.4746L45.793 44.7323L47.7885 42.6507L51.2856 35.2677L50.7489 30.3592Z" fill="#FFB000"/>
<path fill-rule="evenodd" clip-rule="evenodd" d="M93.2101 34.9393L91.8524 26.5795C91.5868 24.9441 90.0458 23.8336 88.4103 24.0992L48.8583 30.5225C47.2229 30.7881 46.1124 32.3292 46.378 33.9646L47.7891 42.6532L93.2101 34.9393Z" fill="#FFD066"/>
<rect x="51.707" y="44.5098" width="15.8408" height="2.34174" rx="1" transform="rotate(-8.65836 51.707 44.5098)" fill="#D6CDE8"/>
<rect x="52.738" y="48.9805" width="27.8386" height="2.34174" rx="1" transform="rotate(-9.98678 52.738 48.9805)" fill="#D6CDE8"/>
<rect x="53.9136" y="54.293" width="27.8386" height="2.34174" rx="1" transform="rotate(-9.98678 53.9136 54.293)" fill="#D6CDE8"/>
<rect x="60.1877" y="34.0791" width="28.2862" height="2.34174" rx="1" transform="rotate(-8.65836 60.1877 34.0791)" fill="#FFB000"/>
<path d="M57.0744 36.1275C57.0744 38.8127 55.6349 39.4854 53.8592 39.4854C52.0834 39.4854 50.6791 38.6629 50.6791 36.8084C50.6791 33.2173 52.6613 32.7168 54.437 32.7168C56.2128 32.7168 57.0744 34.273 57.0744 36.1275Z" fill="#FFB000"/>
<path d="M62.4807 48.779C62.5371 47.6441 63.2299 46.6385 64.2702 46.1814L66.6373 45.1413C67.1153 44.9313 67.6398 44.8497 68.159 44.9045L106.768 48.9793C108.25 49.1357 109.393 50.3565 109.451 51.8458L110.351 74.9037C110.371 75.4129 110.26 75.9188 110.031 76.3736L108.66 79.0862C108.125 80.1443 107.018 80.7884 105.833 80.7295L64 78.6506C62.3452 78.5684 61.0703 77.1602 61.1526 75.5054L62.4807 48.779Z" fill="#70B0E0"/>
<rect x="65.0278" y="44.7036" width="46.8348" height="31.6135" rx="3" transform="rotate(2.84494 65.0278 44.7036)" fill="#ABD8F8"/>
<path fill-rule="evenodd" clip-rule="evenodd" d="M102.439 46.5612L85.9114 45.7398C80.0855 51.5744 72.2071 62.3858 65.1176 76.0359C65.5138 76.2622 65.9679 76.4012 66.4548 76.4254L82.0864 77.2022C85.5306 68.9916 92.2942 56.6048 102.439 46.5612ZM88.154 77.5038L92.1057 77.7001C93.5061 74.2364 94.9513 70.7752 96.2289 67.7155C97.5637 64.5187 98.7156 61.7601 99.4423 59.8944C96.0489 61.205 91.3198 70.3232 88.154 77.5038Z" fill="#BAE1FF"/>
<rect x="94.9683" y="55.5708" width="11.7087" height="14.0504" rx="1" transform="rotate(2.84494 94.9683 55.5708)" fill="#4490C9"/>
<rect x="76.606" y="47.6245" width="24.5882" height="4.68348" rx="1" transform="rotate(2.84494 76.606 47.6245)" fill="#3D3450"/>
<rect x="68.0132" y="55.4028" width="14.0504" height="2.34174" rx="1" transform="rotate(2.84494 68.0132 55.4028)" fill="#70B0E0"/>
<rect x="67.7227" y="61.2505" width="19.9048" height="2.34174" rx="1" transform="rotate(2.84494 67.7227 61.2505)" fill="#70B0E0"/>
<rect x="67.4321" y="67.0972" width="16.3922" height="2.34174" rx="1" transform="rotate(2.84494 67.4321 67.0972)" fill="#70B0E0"/>
<rect x="95.3237" y="72.0005" width="9.36695" height="2.34174" rx="1" transform="rotate(2.84494 95.3237 72.0005)" fill="#70B0E0"/>
<mask id="mask2" mask-type="alpha" maskUnits="userSpaceOnUse" x="94" y="55" width="13" height="16">
<rect x="94.9683" y="55.5718" width="11.7087" height="14.0504" rx="1" transform="rotate(2.84494 94.9683 55.5718)" fill="#4490C9"/>
</mask>
<g mask="url(#mask2)">
<path d="M96.5697 62.7454C96.4985 62.2871 97.2308 61.9788 97.4508 62.2987C97.4508 56.2378 100.874 57.8079 101.659 58.0905C102.444 58.3732 104.046 59.1269 103.889 63.1153C105.616 63.1153 104.046 64.8426 102.915 64.9368C102.541 66.2792 101.512 67.1907 100.13 67.1593C98.7482 67.1279 98.0655 66.0553 97.6282 64.5095C97.4113 64.2698 96.7176 63.6977 96.5697 62.7454Z" fill="#F69C93"/>
<path d="M102.85 67.7558C102.01 67.1812 102.01 66.695 101.568 64.8384L99.0929 65.1038L98.6067 67.7558C98.1205 67.7558 97.0404 67.7558 95.8066 68.4157C94.5205 69.1037 92.684 72.0431 91.9768 72.7503C92.1683 72.9419 92.7282 73.3338 93.4354 73.3691C93.3028 73.7817 93.0023 75.0134 92.8608 76.6399L103.557 78.8941C103.675 78.0248 104.026 76.1537 104.485 75.6233L106.386 78.8941C107.344 77.8186 108.976 74.9426 107.845 72.0431C106.43 68.4188 103.69 68.3304 102.85 67.7558Z" fill="#F69C93"/>
<path d="M100.212 61.6958C99.5505 61.7203 98.9347 61.0394 98.9347 60.1384C97.975 59.8447 97.5838 61.2598 97.4695 62.6552C97.4369 62.5329 97.2737 62.1413 96.882 61.5537C96.3923 60.8193 96.6581 60.0114 97.1723 59.4971C97.6864 58.9828 97.4451 59.1653 97.4695 58.3573C97.494 57.5494 97.543 57.6856 98.7915 57.2936C98.7671 57.1549 99.3009 56.6845 98.7916 56.6649C99.2078 56.2243 99.526 56.706 100.701 57.2936C101.223 57.3508 102.464 57.3771 103.247 57.0245C103.247 57.1714 103.13 57.5385 102.66 57.8323C103.06 57.8241 103.674 58.2508 104.3 59.0736C105.084 60.102 103.566 60.5498 104.055 61.4067C104.541 62.257 104.231 62.6492 103.868 63.1097L103.859 63.1204C103.492 63.5855 102.473 62.9974 103.011 62.1895C103.55 61.3816 102.607 60.2608 102.24 60.1384C101.873 60.016 101.032 60.6724 100.86 61.5537C100.697 61.3171 99.8198 60.8043 100.212 60.1384C99.7464 60.1874 99.8687 61.0837 100.212 61.6958Z" fill="#3D3450"/>
<path d="M99.2295 66.8921C99.9904 67.3073 101.144 67.1694 101.582 66.731C100.613 68.1607 99.2295 67.5615 99.2295 66.8921Z" fill="#E97286"/>
<path d="M103.259 67.9606C99.2484 70.7982 97.9928 69.1893 97.82 67.7554L95.7311 68.1185C94.6736 68.3402 93.6785 69.7119 92.8987 71.1996C92.5241 71.9141 92.2063 72.5204 91.9768 72.7499C92.1683 72.9414 92.7282 73.3333 93.4354 73.3687C93.4313 73.3815 93.427 73.3951 93.4225 73.4095C94.0627 73.4752 94.6772 73.496 95.0807 73.4153L94.3673 76.9569L103.557 78.8936C103.675 78.0244 104.026 76.1533 104.485 75.6229L104.704 75.9983C105.137 75.0593 106.504 73.3929 108.178 73.3369C108.121 72.91 108.014 72.4766 107.845 72.0427C106.751 69.2409 104.865 68.5522 103.678 68.1185C103.526 68.063 103.385 68.0116 103.259 67.9606Z" fill="#7E4EE3"/>
</g>
</g>
</g>
</svg>
