<svg xmlns="http://www.w3.org/2000/svg" fill="none" viewBox="0 0 320 180"><mask id="a" width="320" height="180" x="0" y="0" maskUnits="userSpaceOnUse"><path fill="#fff" d="M0 0h320v180H0z"/></mask><g mask="url(#a)"><path fill="#48268C" fill-rule="evenodd" d="M303.64 102.04c-.027.3-.058.593-.089.893l-.012.107a79.318 79.318 0 0 1-.933 6.31 79.157 79.157 0 0 1-1.002 4.616c-.132.537-.271 1.07-.411 1.6-.104.394-.216.784-.325 1.174a78.604 78.604 0 0 1-2.168 6.473c-1.32 3.456-2.864 6.746-4.614 9.803a58.83 58.83 0 0 1-4.839 7.23c-2.229 2.833-4.656 5.33-7.258 7.403a34.777 34.777 0 0 1-3.859 2.684l-.279.166a154.792 154.792 0 0 1-7.296 4.097l-9.031 3.8-7.467 3.14c-16.785 5.29-35.788 5.966-70.425 6.05l-5.183.01c-1.011 0-2.032.003-3.07.003l-7.115.017-6.801.016-2.16.007c-3.298.027-6.569.067-9.813.11l-1.63.02c-2.93.04-5.837.083-8.721.12-.433.007-.867.01-1.301.017-3.909.05-7.772.086-11.581.093h-1.77c-.801 0-1.598-.003-2.392-.01a442.822 442.822 0 0 1-3.836-.027l-.569-.006c-2.342-.03-4.657-.077-6.948-.144-7.32-.213-14.385-.643-21.14-1.426-.56-.067-1.122-.134-1.68-.204-11.19-1.406-21.51-3.833-30.685-7.939-6.104-2.727-11.698-6.194-16.715-10.594a62.136 62.136 0 0 1-7.138-7.403c-3.306-4.043-6.26-8.67-8.833-13.957a78.607 78.607 0 0 1-1.564-3.4c-.306-.703-.6-1.403-.883-2.096-.51-1.26-.987-2.507-1.432-3.737a88.022 88.022 0 0 1-1.83-5.67c-.067-.23-.129-.456-.19-.686a76.025 76.025 0 0 1-1.893-8.81c-1.843-12.107-.183-22.493 3.402-31.183a56.124 56.124 0 0 1 7.37-12.76 59.807 59.807 0 0 1 2.985-3.604 63.834 63.834 0 0 1 4.03-4.1c.251-.23.503-.46.754-.686 6.175-5.54 12.724-9.227 17.826-11.067a26.684 26.684 0 0 1 1.417-.476c.263-.084.519-.16.77-.23.593-.164 1.181-.327 1.781-.49.046-.014.097-.027.143-.04.248-.067.492-.134.743-.2a312.32 312.32 0 0 1 16.669-3.98c2.226-.47 4.475-.924 6.747-1.354 20.919-3.996 43.564-6.45 66.039-7.336.023-.004.042-.004.065-.004a476.603 476.603 0 0 1 20.567-.376c3.875.013 7.726.073 11.547.186a433.825 433.825 0 0 1 12.313.527 370.724 370.724 0 0 1 21.937 1.883c2.114.244 4.208.51 6.275.79 9.527 1.297 18.515 2.967 26.745 5.017 1.486.367 2.938.747 4.37 1.14.321.09.639.177.96.27 4.041 1.13 7.87 2.367 11.458 3.697.627.233 1.25.47 1.862.71a96.344 96.344 0 0 1 8.748 3.877 55.53 55.53 0 0 1 5.385 3.12 51.667 51.667 0 0 1 7.088 5.59 50.637 50.637 0 0 1 6.696 7.732c2.826 4.014 5.04 8.37 6.689 12.94a60.381 60.381 0 0 1 1.804 5.937c.12.473.232.947.341 1.42.004.016.008.03.008.043.166.704.313 1.413.449 2.127l.116.626c.058.314.112.63.162.95.918 5.474 1.173 11.08.84 16.637-.054.94-.127 1.88-.22 2.817z" clip-rule="evenodd"/><mask id="b" width="288" height="174" x="16" y="-6" maskUnits="userSpaceOnUse"><path fill="#fff" fill-rule="evenodd" d="M303.64 102.039c-.027.3-.058.594-.089.894l-.012.106a79.318 79.318 0 0 1-.933 6.31 79.012 79.012 0 0 1-1.002 4.617c-.132.536-.271 1.07-.411 1.6-.104.393-.216.783-.325 1.173a78.478 78.478 0 0 1-2.168 6.473c-1.32 3.457-2.864 6.747-4.614 9.804a58.83 58.83 0 0 1-4.839 7.23c-2.229 2.833-4.656 5.33-7.258 7.403a34.902 34.902 0 0 1-3.859 2.683c-.093.057-.186.11-.279.167a154.748 154.748 0 0 1-7.296 4.096l-9.031 3.8-7.467 3.14c-16.785 5.29-35.788 5.967-70.425 6.05l-5.183.01c-1.011 0-2.032.004-3.07.004l-7.115.016-6.801.017-2.16.007c-3.298.026-6.569.066-9.813.11l-1.63.02c-2.93.04-5.837.083-8.721.12l-1.301.016c-3.909.05-7.772.087-11.581.094h-1.77c-.801 0-1.598-.004-2.392-.01a540.387 540.387 0 0 1-3.836-.027c-.19-.003-.379-.003-.569-.007-2.342-.03-4.657-.076-6.948-.143-7.32-.213-14.385-.643-21.14-1.427-.56-.066-1.122-.133-1.68-.203-11.19-1.407-21.51-3.833-30.685-7.94-6.104-2.727-11.698-6.193-16.715-10.593a62.289 62.289 0 0 1-7.138-7.403c-3.306-4.044-6.26-8.67-8.833-13.957a79.73 79.73 0 0 1-1.564-3.4 96.439 96.439 0 0 1-2.315-5.833 88.425 88.425 0 0 1-1.83-5.67 45.04 45.04 0 0 1-.19-.687 75.968 75.968 0 0 1-1.893-8.81c-1.843-12.106-.183-22.493 3.402-31.183a56.124 56.124 0 0 1 7.37-12.76 59.776 59.776 0 0 1 2.985-3.603 63.81 63.81 0 0 1 4.03-4.1c.251-.23.503-.46.754-.687 6.175-5.54 12.724-9.226 17.826-11.066a26.383 26.383 0 0 1 1.417-.477c.263-.083.519-.16.77-.23.593-.163 1.181-.327 1.781-.49.046-.013.097-.026.143-.04l.743-.2c5.377-1.447 10.524-6.927 16.245-8.133 2.226-.47 4.475-.924 6.747-1.354 20.919-3.996 44.864-31.803 67.339-32.69.023-.003.043-.003.066-.003a476.583 476.583 0 0 1 20.566-.377c3.875.013 7.727.073 11.547.187 3.403.1 6.778.23 10.123.406.731.037.587 29.584 1.314 29.628a370.555 370.555 0 0 1 21.937 1.883c2.114.243 4.208.51 6.275.79 9.527 1.296 25.212-4.08 33.441-2.03 1.487.366 2.938.746 4.371 1.14.321.09.638.176.96.27a146.79 146.79 0 0 1 11.458 3.696 114.994 114.994 0 0 1 2.543.977 96.279 96.279 0 0 1 8.067 3.61 55.551 55.551 0 0 1 5.385 3.12 51.65 51.65 0 0 1 7.087 5.59c2.536 2.387-1.939 12.027 0 14.78 2.826 4.013 5.04 8.37 6.689 12.94a60.381 60.381 0 0 1 1.804 5.936c.12.474.232.947.341 1.42.004.017.008.03.008.044.166.703.313 1.413.449 2.126l.116.627c.058.313.112.63.162.95.918 5.473 1.173 11.08.84 16.637-.054.94-.127 1.88-.22 2.816z" clip-rule="evenodd"/></mask><g mask="url(#b)"><path fill="#33FBFF" d="M91.618 73.069c-5.127 3.691-10.142-1.333-12.883-5.209 2.975 3.193 7.337 5.227 9.332 4.77 2.96-.69 6.985-3.42 5.677-5.222 1.117 1.38.989 3.419-2.126 5.66z"/><path fill="#33FBFF" d="M91.619 73.07c-5.127 3.691-10.143-1.333-12.883-5.209a26.898 26.898 0 0 1-1.58-2.494 12.819 12.819 0 0 1-1.434-3.26c-.35-1.67 1.042-1.405 3.55-.127 3.556 1.808 5.222 4.85 8.891 3.791 1.819-.523 4.261.14 5.456 1.488.04.043.077.088.11.137 1.132 1.393 1.004 3.432-2.11 5.674zM96.758 76.23c-2.201 2.07-2.868 3.254-5.03 2.164-.99-.502-1.626-.959-1.876-1.438-.288-.57-.009-1.17.867-1.89 0 0 3.065-2.956 4.472-4.296 1.407-1.34 1.778-1.009 2.827 1.28a2091.392 2091.392 0 0 0 .375.89c.6 1.38.234 1.534-1.635 3.29zM119.071 53.822a27.2 27.2 0 0 1-.025 1.502c0 .068-.003.142-.01.217-.235 4.634-1.783 12.863-8.641 12.173-3.568-.364-4.787-1.851-4.712-3.486a.928.928 0 0 1 .01-.15c.17-1.892 2.078-3.901 4.047-4.387 3.706-.916 3.629-4.384 5.797-7.75 2.169-3.365 3.443-3.804 3.534 1.88zM112.489 72.016a8.265 8.265 0 0 1-.666 1.183c-1.334 2.01-2.496 1.335-5.438.644-2.942-.69-2.966-.496-3.195-3.003-.228-2.507-.097-2.987 1.833-2.533 1.929.454 6.035 1.5 6.035 1.5 1.618.275 1.985.952 1.431 2.209zM99.282 30.88a11.104 11.104 0 0 0-7.24 6.122 11.104 11.104 0 0 0-17.175 11.897 10.877 10.877 0 0 0 2.136 4.139.51.51 0 0 0 .023.053.304.304 0 0 0 .02.05c.148.18.304.353.47.517.01.024.028.044.052.055.023.03.054.051.09.064.465.442.986.889 1.54 1.366C85.564 60.348 96.757 67.2 99.635 66.43c2.013-.542 9.954-14.092 12.536-20.138.07-.145.121-.287.179-.413a11.084 11.084 0 0 0-13.068-14.997zm1.895 17.475a1.825 1.825 0 0 1-1.093.846l-2.648.708.786 2.938a1.832 1.832 0 0 1-3.538.947l-.786-2.939-2.653.71a1.831 1.831 0 0 1-2.104-2.69 1.83 1.83 0 0 1 1.155-.842l2.657-.712-.637-2.364a1.834 1.834 0 0 1 2.683-2.06c.42.245.727.645.855 1.113l.63 2.362 2.653-.71a1.831 1.831 0 0 1 2.057 2.686l-.017.007z" opacity=".5"/><path fill="#33FBFF" d="M112.936 44.24c-.136.556-.316 1.1-.538 1.627-.058.126-.109.268-.179.413-2.582 6.046-10.523 19.595-12.536 20.137-2.878.771-14.07-6.08-20.437-11.285a25.458 25.458 0 0 1-1.54-1.366.213.213 0 0 1-.09-.064.102.102 0 0 1-.052-.055 6.78 6.78 0 0 1-.47-.518.316.316 0 0 1-.02-.05.543.543 0 0 1-.022-.053C83.19 57.29 94.92 65.522 98.557 64.143c3.637-1.38 12.385-14.24 14.379-19.903zM96.757 76.23c-2.2 2.07-2.867 3.253-5.03 2.163-.989-.502-1.625-.96-1.875-1.438 1.874 1.448 2.989 1.49 4.822-.019 1.798-1.466 4.257-2.51 3.75-3.992.568 1.375.203 1.528-1.667 3.285zM112.488 72.013c-.19.412-.412.807-.667 1.183-1.333 2.01-2.496 1.335-5.437.645-2.942-.69-2.967-.497-3.195-3.004.159 1.31 1.744 1.942 4.397 2.498 2.653.555 3.707.58 4.902-1.322zM119.036 55.542c-.234 4.633-1.783 12.862-8.641 12.172-3.568-.364-4.787-1.85-4.712-3.486-.059 2.155 4.358 2.92 6.8 2.226 2.442-.693 6.29-7.6 6.553-10.912zM101.362 46.969a1.835 1.835 0 0 0-2.24-1.299l-2.653.71-.631-2.362a1.857 1.857 0 0 0-.855-1.114 1.835 1.835 0 0 0-2.683 2.06l.636 2.365-2.656.712a1.83 1.83 0 0 0-1.293 2.243c-.765-2.692 1.347-2.827 3.342-3.4-.817-3.356-.564-4.143.98-4.56 1.544-.418 2.772-.437 3.518 3.393 2.42-.645 4.068-1.17 4.535 1.252z"/><path fill="#33FBFF" d="M288.186 65.89a6.476 6.476 0 0 0-1.026-2.645l-2.116-3.147.725-3.725a6.38 6.38 0 0 0-.972-4.801 6.394 6.394 0 0 0-4.086-2.702l-3.715-.73-2.12-3.146a6.413 6.413 0 0 0-4.082-2.706 6.393 6.393 0 0 0-4.798.975l-3.142 2.11-3.725-.72a6.394 6.394 0 0 0-7.508 5.053l-.725 3.72-3.146 2.116c-.068.048-.132.092-.195.145a6.38 6.38 0 0 0-1.541 8.754l2.115 3.141-.729 3.72a6.407 6.407 0 0 0 5.057 7.514l3.725.725 2.111 3.141a6.386 6.386 0 0 0 4.079 2.711 6.394 6.394 0 0 0 4.801-.97l3.146-2.12 3.725.73a6.395 6.395 0 0 0 7.504-5.053l.729-3.726 3.146-2.115a6.387 6.387 0 0 0 2.763-6.249zm-29.83-10.62c.9-4.465 6.755-2.316 6.069 1.21-.574 2.947-5.028 3.283-5.972.705a3.407 3.407 0 0 1-.097-1.916zm14.535 17.02c-.607 3.083-5.47 3.307-6.098.306a3.698 3.698 0 0 1 .025-1.493c.817-4.22 6.039-2.587 6.122.545.007.213-.009.427-.049.637v.005zm4.966-13.811a2.818 2.818 0 0 1-.234.156c-2.037 1.162-17.064 9.935-19.836 11.598-1.386.812-2.339.36-2.704-.487a2.252 2.252 0 0 1 .9-2.708s16.412-9.634 19.316-11.433c2.786-1.726 4.255 1.57 2.558 2.869v.005z" opacity=".49"/><path fill="#74D8ED" d="M285.423 72.115l-3.146 2.115-.729 3.725a6.404 6.404 0 0 1-2.705 4.081 6.399 6.399 0 0 1-4.799.972l-3.725-.73-3.146 2.12a6.405 6.405 0 0 1-4.801.97 6.394 6.394 0 0 1-4.079-2.71l-2.111-3.142-3.725-.725a6.411 6.411 0 0 1-5.077-7.513l.73-3.72-2.096-3.161a6.38 6.38 0 0 1 1.541-8.753c-2.461 1.993-1.517 7.562 1.945 10.538-1.074 5.349-.71 10.3 7.295 10.3 3.195 5.937 7.192 8.821 13.067 3.302 6.04 2.305 11.063 1.152 11.146-6.682 4.352-2.091 6.75-3.312 7.202-7.246a6.382 6.382 0 0 1-2.787 6.259z"/><path fill="url(#paint0_linear)" d="M277.857 58.474c1.697-1.299.228-4.596-2.558-2.87-2.918 1.8-19.316 11.434-19.316 11.434a2.25 2.25 0 0 0-.9 2.708c-1.634-3.253.817-4.128 2.748-5.203 1.93-1.075 17.55-11.487 19.671-10.213 2.013 1.255 1.711 3.19.355 4.144z"/><path fill="#33FBFF" d="M264.43 56.451c.686-3.526-5.169-5.675-6.069-1.21.136-4.096 2.869-3.843 3.89-3.59 1.129.287 3.302 1.727 2.179 4.8zM272.946 71.64c-.083-3.133-5.306-4.767-6.123-.546-.109.491-.118 1-.024 1.493-1.041-4.337 1.493-5.125 2.553-5.242 1.06-.117 3.535.856 3.594 4.294z"/><path fill="#fff" d="M41.401 128.341l-1.897.578a3.521 3.521 0 0 1-4.138-1.726l-.078-.146c1.26 1.615 3.448.973 5.763-.053 2.762-1.25 2.305-3.507.51-8.788l2.101 5.51a3.52 3.52 0 0 1-2.261 4.625zM55.07 123.628l-3.34.973a3.686 3.686 0 0 1-4.518-2.271l-.438-1.226v-.073c1.206 2.519 3.2 2.432 7.056.91 3.404-1.352 2.359-6.385.336-13.826l3.404 10.869a3.675 3.675 0 0 1-2.5 4.644zM68.39 118.965l-3.5 1.031a3.683 3.683 0 0 1-3.919-1.257 3.682 3.682 0 0 1-.653-1.291l-.851-3.083c.934 3.18 2.51 4.863 6.867 3.637 4.478-1.264 2.917-9.317.607-22.914l4.027 19.622a3.674 3.674 0 0 1-2.578 4.255z" opacity=".6"/><path fill="#33FBFF" d="M55.924 70.422c.074.978.12 2.091.164 3.42.244 6.99-.627 6.527-4.98 4.177-.642 1.334-1.414 2.867-2.265 4.577-4.373 8.793-3.904 7.621-8.466 7.67-1.588 0-2.684 0-3.486.107l-.258.04-.21.039c-.087.017-.174.04-.259.068-.064 0-.124.04-.184.059a1.866 1.866 0 0 0-.458.254l-.1.068a4.156 4.156 0 0 0-.995 1.876c-.892 2.589-5.582 16.062-6.723 19.096a2.29 2.29 0 0 1-.93 1.238 2.373 2.373 0 0 1-1.52.379 2.598 2.598 0 0 1-.996-.274 2.094 2.094 0 0 1-.996-1.055 1.52 1.52 0 0 1-.14-.742c.023-.217.082-.428.175-.626l4.507-11.724c4.506-11.7 3.212-12.36 8.465-12.589 5.254-.23 5.07.083 6.673-2.492 1.095-1.778 2.893-4.933 4.581-7.742-6.732-3.093-6.334-2.975.642-7.186 5.17-3.122 6.852-3.42 7.47-.714.143.685.24 1.379.289 2.076z" opacity=".51"/><path fill="#33FBFF" d="M55.99 70.793c.073.973.117 2.081.16 3.404.244 6.959-.607 6.492-4.863 4.158-.632 1.328-1.38 2.85-2.217 4.557-4.265 8.724-3.813 7.581-8.267 7.634-1.551 0-2.621 0-3.404.107l-.253.04-.204.033-.258.069c-.06.017-.118.038-.175.063a1.946 1.946 0 0 0-.453.253l-.072.058c-.419.36-.681.934-.973 1.867-.875 2.578-5.452 15.985-6.565 19.005-.152.504-.474.94-.911 1.234-.437.295-1.902.393-2.426.344.919-.447 2.792-1.855 3.244-3.586.817-3.147 4.275-19.452 6.449-20.192 2.174-.739 7.567.774 9.337-.058 1.77-.832 6.419-13.49 6.419-13.49 3.7 2.368 5.821 3.34 5.432-5.5z"/><path fill="url(#paint1_linear)" d="M41.4 128.341l-1.896.579a3.521 3.521 0 0 1-4.138-1.727l-.078-.145-.617-1.216-2.432-4.649a3.524 3.524 0 0 1 .752-4.246 3.51 3.51 0 0 1 1.334-.758l2.675-.817a3.522 3.522 0 0 1 4.318 2.11l.278.72 2.1 5.51a3.52 3.52 0 0 1-2.295 4.639z" opacity=".51"/><path fill="url(#paint2_linear)" d="M55.07 123.629l-3.34.972a3.686 3.686 0 0 1-4.518-2.271l-.438-1.225-4.494-12.449a3.68 3.68 0 0 1 1.11-4.091 3.677 3.677 0 0 1 1.322-.699l3.978-1.129a3.68 3.68 0 0 1 4.518 2.432l.914 2.918 3.404 10.869a3.672 3.672 0 0 1-1.163 3.989c-.38.313-.82.545-1.293.684z" opacity=".51"/><path fill="url(#paint3_linear)" d="M68.39 118.964l-3.5 1.031a3.684 3.684 0 0 1-3.918-1.257 3.682 3.682 0 0 1-.654-1.291l-.85-3.083-.079-.268-6.424-23.23a3.683 3.683 0 0 1 3.098-4.635l5.47-.67a3.686 3.686 0 0 1 4.057 2.917l1.352 6.614 4.026 19.622a3.674 3.674 0 0 1-2.577 4.25z" opacity=".51"/><path fill="#fff" fill-opacity=".6" d="M287.529 125.325c1.633 0 2.957-1.296 2.957-2.896 0-1.599-1.324-2.896-2.957-2.896-1.633 0-2.957 1.297-2.957 2.896 0 1.6 1.324 2.896 2.957 2.896zM226.484 102.408c.782 0 1.416-.621 1.416-1.386 0-.766-.634-1.386-1.416-1.386-.781 0-1.415.62-1.415 1.386 0 .765.634 1.386 1.415 1.386zM238.475 159.01c1.568 0 2.84-1.246 2.84-2.782s-1.272-2.782-2.84-2.782c-1.569 0-2.841 1.246-2.841 2.782s1.272 2.782 2.841 2.782zM250.352 153.226c1.069 0 1.936-.849 1.936-1.896s-.867-1.895-1.936-1.895-1.935.848-1.935 1.895c0 1.047.866 1.896 1.935 1.896zM52.486 138.811c1.217 0 2.204-.934 2.204-2.087 0-1.152-.987-2.087-2.204-2.087s-2.204.935-2.204 2.087c0 1.153.987 2.087 2.204 2.087zM73.205 154.777c.637 0 1.154-.506 1.154-1.13 0-.624-.517-1.13-1.154-1.13-.637 0-1.154.506-1.154 1.13 0 .624.517 1.13 1.154 1.13zM75.246 144.388c1.366 0 2.472-1.083 2.472-2.42s-1.106-2.421-2.472-2.421c-1.364 0-2.471 1.084-2.471 2.421 0 1.337 1.106 2.42 2.471 2.42z"/><path fill="#33FBFF" d="M272.907 93.79l-27.177-3.045c-3.677-.412-6.971 2.05-7.358 5.5l-3.897 34.783c-.387 3.45 2.28 6.581 5.957 6.993l27.178 3.045c3.677.412 6.971-2.051 7.357-5.5l3.898-34.783c.386-3.45-2.281-6.58-5.958-6.993z" opacity=".49"/><path fill="#74D8ED" d="M274.967 135.566c-.386 3.449-3.68 5.912-7.357 5.5l-27.178-3.046c-3.677-.412-6.344-3.542-5.957-6.992l-.303 2.701a6.7 6.7 0 0 0 5.911 7.404l27.178 3.045a6.698 6.698 0 0 0 7.403-5.911l.303-2.701z"/><path fill="#9DC7E2" d="M270.943 97.52l-23.903-2.678a4.133 4.133 0 0 0-4.567 3.647l-2.7 24.089a4.133 4.133 0 0 0 3.647 4.567l23.904 2.679a4.133 4.133 0 0 0 4.567-3.647l2.699-24.09a4.132 4.132 0 0 0-3.647-4.567z"/><path fill="#ADFDFF" d="M244.764 110.235l-.178 1.394 4.991.76.177-1.622-4.99-.532zM252.22 111.027l-.16 1.438 2.483.214.143-1.301-2.466-.351z"/><path fill="#ADFDFF" fill-rule="evenodd" d="M248.887 99.453l2.902.325c1.603.18 2.756 1.637 2.574 3.255l-.328 2.93c-.181 1.618-1.628 2.784-3.231 2.605l-2.902-.326c-1.603-.179-2.756-1.637-2.575-3.255l.329-2.93c.181-1.618 1.628-2.784 3.231-2.604zm.05 2.548a.756.756 0 0 0-.831.67l-.253 2.26a.754.754 0 0 0 .662.837l2.239.251a.755.755 0 0 0 .831-.67l.253-2.26a.754.754 0 0 0-.662-.837l-2.239-.251zM265.058 101.265l2.903.325c1.603.18 2.755 1.637 2.574 3.255l-.328 2.93c-.182 1.618-1.628 2.784-3.231 2.605l-2.903-.325c-1.603-.18-2.755-1.637-2.574-3.256l.328-2.93c.182-1.618 1.628-2.784 3.231-2.604zm.051 2.548a.754.754 0 0 0-.831.67l-.254 2.26a.755.755 0 0 0 .662.837l2.24.251a.753.753 0 0 0 .83-.669l.254-2.261a.755.755 0 0 0-.662-.837l-2.239-.251zM249.96 116.102l-2.903-.325c-1.603-.18-3.049.986-3.23 2.604l-.329 2.93c-.181 1.618.971 3.076 2.575 3.255l2.902.326c1.603.179 3.05-.987 3.231-2.605l.328-2.93c.182-1.618-.971-3.076-2.574-3.255zm-3.683 2.893a.756.756 0 0 1 .831-.67l2.239.251a.755.755 0 0 1 .662.837l-.253 2.26a.756.756 0 0 1-.831.67l-2.239-.251a.754.754 0 0 1-.662-.837l.253-2.26zM263.229 117.589l2.903.325c1.603.18 2.755 1.637 2.574 3.255l-.328 2.93c-.182 1.618-1.628 2.784-3.231 2.605l-2.903-.326c-1.603-.179-2.756-1.637-2.574-3.255l.328-2.93c.181-1.618 1.628-2.784 3.231-2.604zm.05 2.548a.754.754 0 0 0-.83.67l-.254 2.26a.755.755 0 0 0 .662.837l2.239.251a.754.754 0 0 0 .831-.67l.253-2.26a.754.754 0 0 0-.662-.837l-2.239-.251z" clip-rule="evenodd"/><path fill="#ADFDFF" d="M255.23 117.782a1.079 1.079 0 0 1 1.187-.957l.355.04c.589.066 1.013.602.946 1.196l-.744 6.637a1.077 1.077 0 0 1-1.187.957l-.355-.04a1.079 1.079 0 0 1-.946-1.196l.744-6.637zM244.557 111.864a1.077 1.077 0 0 0 .946 1.195l2.843.319a1.078 1.078 0 0 0 1.187-.957l.04-.359a1.077 1.077 0 0 0-.946-1.195l-2.843-.319a1.078 1.078 0 0 0-1.187.957l-.04.359zM254.529 112.799a1.258 1.258 0 0 1-1.385 1.117 1.258 1.258 0 0 1-1.103-1.395 1.257 1.257 0 0 1 1.384-1.117 1.259 1.259 0 0 1 1.104 1.395zM256.336 107.916l.703-6.278a1.258 1.258 0 0 1 1.385-1.117 1.258 1.258 0 0 1 1.103 1.395l-.704 6.279c-.233 2.08 1.249 3.954 3.31 4.185l7.446.591c-.072.919-.045.808-.123 1.501a1.256 1.256 0 0 1-1.384 1.116l-6.22-.697c-3.435-.384-5.905-3.507-5.516-6.975z"/><path fill="#5F33BA" fill-rule="evenodd" d="M249.027 98.37l2.895.324c1.6.18 2.753 1.604 2.576 3.182l-.32 2.858c-.177 1.579-1.617 2.713-3.216 2.534l-2.896-.324c-1.599-.18-2.752-1.604-2.575-3.183l.32-2.858c.177-1.579 1.617-2.713 3.216-2.534zm.056 2.486a.745.745 0 0 0-.827.652l-.247 2.205a.745.745 0 0 0 .662.818l2.234.25a.744.744 0 0 0 .827-.651l.247-2.205a.744.744 0 0 0-.662-.818l-2.234-.251zM265.16 100.177l2.895.325c1.599.179 2.752 1.604 2.576 3.182l-.321 2.858c-.177 1.579-1.616 2.713-3.216 2.534l-2.895-.325c-1.599-.179-2.752-1.604-2.576-3.182l.321-2.858c.177-1.579 1.616-2.713 3.216-2.534zm.056 2.487a.745.745 0 0 0-.827.651l-.247 2.205a.745.745 0 0 0 .662.819l2.234.25a.745.745 0 0 0 .827-.652l.247-2.204a.745.745 0 0 0-.662-.819l-2.234-.25zM250.138 114.617l-2.895-.324c-1.6-.179-3.039.955-3.216 2.534l-.321 2.858c-.176 1.578.977 3.003 2.576 3.182l2.895.325c1.6.179 3.039-.956 3.216-2.534l.321-2.858c.176-1.579-.977-3.003-2.576-3.183zm-3.666 2.814a.744.744 0 0 1 .827-.651l2.234.25a.745.745 0 0 1 .662.818l-.247 2.205a.745.745 0 0 1-.827.652l-2.234-.251a.744.744 0 0 1-.662-.818l.247-2.205zM263.375 116.101l2.896.324c1.599.179 2.752 1.604 2.575 3.183l-.32 2.858c-.177 1.578-1.617 2.713-3.216 2.533l-2.896-.324c-1.599-.179-2.752-1.604-2.575-3.183l.32-2.858c.177-1.578 1.617-2.713 3.216-2.533zm.057 2.487a.743.743 0 0 0-.827.651l-.247 2.205a.744.744 0 0 0 .662.818l2.234.25a.744.744 0 0 0 .827-.651l.247-2.205a.744.744 0 0 0-.663-.818l-2.233-.25z" clip-rule="evenodd"/><path fill="#5F33BA" d="M255.398 116.27c.065-.58.594-.997 1.181-.931l.355.04c.587.066 1.011.589.946 1.169l-.725 6.474c-.065.58-.594.997-1.182.931l-.354-.04a1.062 1.062 0 0 1-.946-1.169l.725-6.474zM244.739 110.469c-.065.58.359 1.103.946 1.169l2.837.318a1.063 1.063 0 0 0 1.181-.931l.039-.35a1.063 1.063 0 0 0-.946-1.169l-2.836-.318a1.064 1.064 0 0 0-1.182.931l-.039.35zM254.687 111.406a1.24 1.24 0 0 1-1.379 1.086 1.24 1.24 0 0 1-1.103-1.364 1.24 1.24 0 0 1 1.378-1.086 1.242 1.242 0 0 1 1.104 1.364zM256.477 106.646l.686-6.125a1.24 1.24 0 0 1 1.378-1.085 1.24 1.24 0 0 1 1.104 1.363l-.687 6.125c-.227 2.029 1.256 3.861 3.312 4.092l6.205.695a1.24 1.24 0 0 1 1.103 1.364 1.241 1.241 0 0 1-1.378 1.086l-6.205-.696c-3.427-.384-5.898-3.437-5.518-6.819z"/><path fill="#33FBFF" d="M236.011 56.253c.42-.358.753-.804.975-1.306l.419-.934a3.682 3.682 0 0 0-.714-4.051 3.735 3.735 0 0 0-1.193-.83l-24.764-10.816a3.76 3.76 0 0 0-2.851-.063 3.713 3.713 0 0 0-2.063 1.953l-.415.934c-.21.47-.319.978-.318 1.492l-11.194 10.379c0 2.977 1.48 5.228 3.813 5.464l-5.463 12.272-1.083 2.434a5.006 5.006 0 0 0-.097 3.885 5.058 5.058 0 0 0 2.711 2.807l22.225 9.695c1.24.541 2.647.572 3.909.085a5.091 5.091 0 0 0 2.826-2.68l.415-.933 6.359-14.316c1.289 1.682 3.47 1.95 5.777-1.005.248-4.825.49-9.646.726-14.466zm-34.965 6.005l1.683-3.783c1.376 4.707 5.886 4.653 8.262 1.994-1.423 5.01 5.701 7.494 8.666 3.79.415 3.969 2.86 5.726 5.478 5.21l-1.235 2.778a5.054 5.054 0 0 1-1.146 1.617 5.115 5.115 0 0 1-3.646 1.4 5.146 5.146 0 0 1-1.946-.43l-13.505-5.905a5.08 5.08 0 0 1-2.699-2.8 5.017 5.017 0 0 1 .088-3.87z" opacity=".5"/><path fill="#33FBFF" d="M227.731 83.05h-.043l.032-.046.011.047z"/><path fill="#FEFFFF" d="M210.309 44.711l-7.916 12c-4.892 3.837-8.485.949-8.503-3.711l11.367-10.525c1.686.744 3.369 1.495 5.052 2.236zM219.668 64.259c-2.975 3.704-10.111 1.206-8.666-3.79l6.037-12.777c2.294 1.022 4.581 2.037 6.861 3.046l-4.232 13.52zM235.307 70.719c-3.661 4.652-6.991 1.288-6.973-2.981l2.499-13.925 5.182 2.297c-.234 4.867-.47 9.737-.708 14.609z" opacity=".5"/><path fill="#74D8ED" d="M223.156 86.04l-.415.933a5.05 5.05 0 0 1-1.145 1.62 5.112 5.112 0 0 1-1.683 1.063 5.152 5.152 0 0 1-3.914-.088l-22.225-9.695a5.105 5.105 0 0 1-1.638-1.136 5.045 5.045 0 0 1-1.416-3.623 5.023 5.023 0 0 1 .44-1.933l1.083-2.434c-2.04 4.653 1.242 6.95 5.207 8.514 3.965 1.564 15.671 6.442 18.741 7.748 3.069 1.306 5.012 1.067 6.965-.97z"/><path fill="#97FCFF" d="M193.89 53c.487-.118.78 2.505 2.787 3.736 1.741 1.074 4.005.587 5.716-.025 2.528 3.457 5.254 4.517 8.598 3.758 1.444 3.314 5.138 4.853 8.666 3.79 2.203 3.428 6.774 4.742 8.667 3.478 1.921 3.325 4.715 4.893 6.972 2.982-.657 1.503-2 2.53-3.387 2.548-1.971.028-3.972-1.98-3.842-4.653-3.264 3.962-9.063-.129-8.818-3.707-2.917 2.752-9.291 1.174-9.211-3.58-.105.098-2.087 1.908-4.55 1.236-2.051-.559-3.528-2.595-3.456-4.936-3.156 1.55-6.254 1.375-7.662-.236-1.343-1.55-.964-4.28-.48-4.391z"/><path fill="#F69C93" d="M214.186 145.25s3.135 1.024 3.064 2.5c-.132 2.748-.205 7 1.17 14.25 1.546 10.875 1.205 13.5 1.205 19.75-3.999 2.476-20.899 1.577-31.44 1.027-17.668-.899-41.555-5.053-61.694-9.161a944.15 944.15 0 0 1-10.164-2.12c-17.04-3.653-29.438-6.767-29.438-6.767s2.386-17.134 5.934-33.021c.367-1.64.746-3.268 1.137-4.866 2.653-10.868 5.827-20.175 9.081-21.509 8.357-3.428 33.009-10.323 39.263-13.199.391-.174.752-.41 1.067-.7 2.376-2.115 3.297-7.063 3.612-11.679.08-1.23.118-2.435.135-3.556.04-3.547-.199-6.268-.199-6.268l28.005-2.81s-.239 3.84.002 8.747c.098 1.972.269 4.135.565 6.28a39.68 39.68 0 0 0 1.421 6.572c.856 2.68 2.648 4.853 5.031 6.817 5.355 4.406 13.734 7.759 21.32 13.346 10.989 8.079 10.443 14.112 11.598 20.965.871 4.697 2.061 9.33 3.559 13.867 0 0-2.029 1.81-4.234 1.535z"/><path fill="#E97286" d="M138.371 139.597l-11.87 34.05a969.085 969.085 0 0 1-10.164-2.12c-17.04-3.654-29.438-6.767-29.438-6.767s2.386-17.134 5.935-33.021c.366-1.64.746-3.269 1.136-4.867 14.038 4.539 44.401 12.725 44.401 12.725z"/><path fill="#E97286" fill-rule="evenodd" d="M217.219 148.467c-.1 2.674-.062 6.636 1.09 12.935-4.713-.735-11.71-1.421-21.258-1.384l-3.852-10.414 24.02-1.137z" clip-rule="evenodd"/><path fill="#7E4EE3" d="M221.75 155.079c-6.848-.104-12.136 0-12.136 0-5.44-.023-10.876.269-16.282.877a156.658 156.658 0 0 0-2.497 10.593 158.555 158.555 0 0 0-2.3 15.503c-20.754-1.059-50.094-6.603-71.86-11.267.32-17.862.79-32.28.79-32.28-8.73-2.147-18.516-5.454-24.293-7.507.273-17.913 8.195-24.776 10.218-26.376 4.712-3.72 11.257-5.355 24.347-8.619a182.28 182.28 0 0 1 10.58-2.317c.926 1.659 6.901 11.989 19.483 14.72 10.326 2.238 21.223-1.481 28.539-9.61a58.995 58.995 0 0 1 17.272 9.376c2.816 2.218 6.263 5.191 9.152 10.168 1.686 2.9 2.879 5.99 3.976 11.027 1.784 8.483 3.261 16.383 5.011 25.712z"/><path fill="#E97286" d="M175.483 82.176c-10.119 12.416-21.348 8.61-28.508-2.392.08-1.23.117-2.436.134-3.556 5.101-2.236 20.04-7.793 27.809-.331.096 1.982.268 4.135.565 6.28z"/><path fill="#F69C93" d="M137.482 48.025c-11.329-4.377-10.631 11.328 3.29 16.185 3.832 18.12 19.046 20.184 25.492 19.58a12.638 12.638 0 0 0 5.15-1.45s4.124-2.098 6.882-7.36c4.602-8.772 10.65-57.917-10.581-65.253-8.218-2.838-19.086 1.085-25.501 7.651-6.065 6.232-7.138 13.817-4.732 30.647z"/><path fill="#3D3450" d="M146.486 24.395c-3.704 1.802-5.074 3.547-5.418 5.249-.454 2.261.463 3.238 1.756 5.84 1.396 2.8 1.531 7.693-4.584 16.84-.534-2.459-2.324-3.759-3.755-5.829-1.866-2.683-3.464-2.449-5.535-3.765-2.752-1.75-5.527-10.983-.259-17.04 5.269-6.058 5.997-10.524.208-11.687 5.171-1.39 9.824.127 12.342-1.274 2.517-1.402 4.646-12.075 12.699-10.277s19.839-2.525 27.298 1.526c-5.116.705-5.054 2.802-4.522 4.936.14.572 2.248 2.65 3.449 3.666 2.054 1.726 2.441 1.767 4.098 3.018 1.182.9 2.192 2.017 3.073 3.214 1.526 1.95 1.012 4.356.625 8.209-.472 4.73-4.845 7.409-5.494 7.783a14.37 14.37 0 0 1 .736-11.92c.181 1.45.05 2.92-.386 4.314a10.503 10.503 0 0 1-3.814 5.244c1.048-2.32.857-3.736.423-4.613 0 0-.29-.585-2.832-2.877.787 7.45-9.529 13.553-9.529 13.553.161-1.293 2.814-7.352-.198-11.57-.652-.909-2.565-2.966-6.195-3.968-2.045-.578-4.257-1.368-7.286-.854-2.843.5-4.311 1.005-6.9 2.282z"/><path fill="#5D33BA" d="M99.496 87.264l-.024-.003c.015.002.001-.014.024.004z"/><path fill="#231E2F" d="M183.849 35.698c-4.85-.404-12.689 1.941-12.689 1.941 1.947-5.403 11.211-5.296 12.689-1.941zM158.507 37.434c-4.834-.534-12.775 1.607-12.775 1.607 2.127-5.385 11.402-5.022 12.775-1.607z"/><path fill="#fff" d="M155.991 42.718c6.093 2.23.527 11.494-4.712 8.39-5.239-3.103-2.752-11.104 4.712-8.39z"/><path fill="#231E2F" d="M151.068 46.859c-.032-4.997 7.744-5.21 7.083.018-.661 5.228-7.053 5.095-7.083-.018z"/><path fill="#fff" d="M178.454 41.636c6.092 2.23.528 11.49-4.712 8.39-5.24-3.098-2.757-11.1 4.712-8.39z"/><path fill="#231E2F" d="M172.876 45.702c-.036-5.142 7.978-5.38 7.296.02-.683 5.4-7.266 5.246-7.296-.02z"/><path fill="#E97286" d="M166.259 52.936c-7.127 1.464-6.871 1.413-3.924 5.29 2.948 3.875 5.561 2.57 7.321-1.45 1.761-4.02 1.662-4.875-3.397-3.84z"/><path fill="#231E2F" d="M167.609 40.882a19.001 19.001 0 0 0-.416 3.736 34.877 34.877 0 0 0 .155 3.783c.103 1.263.269 2.523.45 3.786.18 1.262.38 2.527.602 3.78a.263.263 0 0 1-.189.317.262.262 0 0 1-.317-.19 28.835 28.835 0 0 1-1.002-3.755 32.098 32.098 0 0 1-.564-3.854 23.59 23.59 0 0 1-.03-3.924c.085-1.318.362-2.615.823-3.852a.257.257 0 0 1 .466-.025.264.264 0 0 1 .025.179l-.003.02zM161.556 58.735c.342-.036.719-.106 1.095-.177.377-.07.763-.145 1.148-.205.385-.06.775-.124 1.172-.163.403-.039.808-.042 1.212-.01a.265.265 0 0 1 .16.062.265.265 0 0 1-.047.442 5.019 5.019 0 0 1-1.144.494 7.936 7.936 0 0 1-1.198.248c-.41.061-.825.086-1.239.076a3.284 3.284 0 0 1-1.3-.265.256.256 0 0 1-.128-.27.255.255 0 0 1 .212-.21l.057-.022z"/><path fill="#E97286" d="M138.627 53.932c-4.468-6.267-7.202-.604-4.342 3.379 2.86 3.983 8.555 2.532 4.342-3.38z"/><path fill="#231E2F" d="M173.703 65.282c-.742-1.91-7.282.23-17.792.096-.832-.011-1.466-.031-1.538.23-.385 1.049 7.62 7.594 14.319 4.96 2.874-1.117 5.555-3.91 5.011-5.286z"/><path fill="#D5FEFF" fill-rule="evenodd" d="M82.922 98.763c-3.588-10.08-1.634-10.938 14.407-10.85 13.941 0 12.293-.58 15.628 7.765 3.336 8.346 13.038 37.102 14.646 44.211 1.099 4.859-1.352 6.831-8.115 5.313-6.763-1.518-17.623-3.132-19.996-4.754-2.374-1.622-16.57-41.685-16.57-41.685z" clip-rule="evenodd"/><path fill="#6B608A" fill-rule="evenodd" d="M82.812 99.025c-3.54-9.778-3.607-10.382 12.16-10.275 15.766.108 13.617-1 16.907 7.095 3.289 8.096 12.966 37.26 15.862 43.964 2.896 6.705-2.344 6.809-8.993 5.328-6.65-1.48-17.325-3.06-19.66-4.636-2.335-1.576-16.276-41.476-16.276-41.476z" clip-rule="evenodd"/><path fill="#3D3450" fill-rule="evenodd" d="M82.917 100.557c-3.38-9.491-3.445-10.076 11.506-9.935 14.951.141 12.911-.938 16.05 6.92 3.138 7.86 12.384 36.164 15.147 42.673 2.761 6.509-2.208 6.598-8.516 5.146-6.309-1.451-16.436-3.008-18.654-4.543-2.218-1.534-15.533-40.261-15.533-40.261z" clip-rule="evenodd"/><path fill="#584D74" fill-rule="evenodd" d="M89.409 96.993c-.2-1.96-2.675-3.307-4.354-2.485-1.093.535-1.705 1.92-1.474 3.186.275 1.5 1.724 2.768 3.36 2.515 1.598-.247 2.61-1.827 2.468-3.216z" clip-rule="evenodd"/><path fill="#231E2F" fill-rule="evenodd" d="M88.848 97.319c-.145-1.421-1.954-2.396-3.181-1.8-.8.39-1.249 1.395-1.08 2.312.2 1.087 1.258 2.006 2.455 1.82 1.168-.18 1.91-1.325 1.806-2.332z" clip-rule="evenodd"/><path fill="#F69C93" d="M86.759 172.104c-2.874-14.84-.905-26.709-5.23-36.196-4.326-9.488-5.032-23.009-.235-27.679 4.797-4.67 12.407-8.72 18.435-8.483 6.028.236 5.899 5.474 1.103 5.93-4.795.455-10.304 4.508-11.683 7.232l9.53 1.32c1.932.257 3.833.714 5.671 1.364 2.473.877 3.774 1.451 4.443 2.769.668 1.318.582 3.189-.396 3.999-.978.809-2.624.329-3.445.114-2.372-.624-5.95-1.016-11.276.035 4.48.907 14.852 3.322 15.005 6.771.03.661-.241 1.931-1.156 2.395-.572.301-1.578-.197-4.29-.966-4.83-1.391-10.047.276-10.047.276 5.87 3.672 6.777 4.844 8.333 7.145 1.555 2.301 1.458 7.288-6.516 1.555 2.408 8.2 15.082 35.322 15.082 35.322l-23.328-2.903z"/><path fill="#E97286" d="M89.143 112.981c-6.521-.583 3.61-6.287 9.198-6.986-6.288 3.609-9.198 5.707-9.198 6.986z"/><path fill="#C2AFE9" d="M135.086 99.439a39.491 39.491 0 0 0 11.252 10.224 32.908 32.908 0 0 0 21.903 4.499 37.143 37.143 0 0 0 7.383-1.863 43.5 43.5 0 0 0 6.924-3.258 41.058 41.058 0 0 0 6.265-4.424.208.208 0 0 1 .155-.042.216.216 0 0 1 .078.025.207.207 0 0 1 .026.339 40.645 40.645 0 0 1-13.13 8.302 36.62 36.62 0 0 1-7.561 2.081 33.887 33.887 0 0 1-7.878.297 33.1 33.1 0 0 1-14.814-4.959 35.253 35.253 0 0 1-10.995-10.986.215.215 0 0 1 .066-.29.207.207 0 0 1 .264-.016.207.207 0 0 1 .062.071z"/><path fill="#5D33BA" d="M191.129 151.065c2.149-15.081 9.405-25.752 12.023-20.848 2.618 4.904-8.574 19.127-8.574 19.127a35.907 35.907 0 0 0 11.099-11.275c-1.157 9.28-4.924 13.392-14.548 12.996zM129.294 136.702c6.902 19.125 25.881 35.728 26.75 18.811 13.909 12.569 26.294 15.04 26.294 15.04-19.814-2.471-23.624-6.66-23.624-6.66-.109 10.822-21.406 12.813-29.42-27.191z"/><path fill="#5D33BA" d="M130.559 149.626s3.905 14.076 9.136 17.561c-9.931.173-10.111-12.022-9.136-17.561z"/><path fill="#E97286" d="M148.856 85.044s9.805 6.065 15.644 4.66c-6.501 2.216-12.339.335-15.644-4.66z"/><path fill="#231E2F" d="M147.768 43.545a5.148 5.148 0 0 1 1.089-1.737 4.93 4.93 0 0 1 1.717-1.192 4.374 4.374 0 0 1 2.073-.354c.346.017.689.072 1.023.162.319.104.631.228.934.37a.24.24 0 0 1 .126.136.24.24 0 0 1-.233.327l-.043-.005c-.317-.01-.622-.078-.925-.086a6.646 6.646 0 0 0-.897 0 5.003 5.003 0 0 0-1.688.369 5.63 5.63 0 0 0-1.5.905 8.586 8.586 0 0 0-1.251 1.315l-.003.024a.245.245 0 0 1-.314.068.242.242 0 0 1-.108-.302zM173.382 40.02c.557-.41 1.192-.701 1.866-.855a4.946 4.946 0 0 1 2.09-.058 4.504 4.504 0 0 1 1.929.843c.279.207.535.442.765.703.213.264.409.54.588.828a.254.254 0 0 1 .035.088.252.252 0 0 1-.003.095.23.23 0 0 1-.039.086.232.232 0 0 1-.069.064.237.237 0 0 1-.269-.004l-.039-.005c-.26-.189-.473-.411-.726-.58a6.772 6.772 0 0 0-.748-.49 5.112 5.112 0 0 0-1.613-.618 5.773 5.773 0 0 0-1.752-.066 8.052 8.052 0 0 0-1.766.412l-.024-.003a.242.242 0 0 1-.298-.114.242.242 0 0 1 .071-.312l.002-.014z"/><path fill="#231E2E" d="M141.92 45.813c-.838 1.89-2.032 4.045-3.68 6.51-.368-1.694-1.332-2.838-2.364-4.062-.466-.553-.946-1.123-1.391-1.766-1.259-1.81-2.397-2.293-3.64-2.82-.598-.253-1.222-.518-1.895-.946-.908-.577-1.819-1.97-2.443-3.796 2.644 3.088 7.315 3.402 9.629 3.098-2.001-.864-3.06-3.053-3.34-4.04.839.265 1.577.465 2.235.644 3.399.923 4.667 1.267 6.809 6.962l.08.215zM152.195 4.54c-2.285 3.556-6.389 7.358-8.299 7.909 5.957-.857 8.015-5.63 8.299-7.908zM141.328 28.797c.6-1.433 2.065-2.897 5.158-4.402 2.589-1.277 4.057-1.781 6.9-2.282 2.739-.465 4.81.137 6.694.684l.592.17c3.629 1.002 5.543 3.06 6.194 3.969.715 1 1.11 2.102 1.296 3.221l.011.001c-2.905-14.497-12.283-15.666-17.279-12.58-.484.3-.959.587-1.423.867-4.324 2.612-7.675 4.636-8.297 10.353h.154zM179.07 32.289c.973-2.23.781-3.602.356-4.46 0 0-.29-.585-2.832-2.877l.002.02c-.393-1.733-.878-3.962-1.122-5.37 2.698 2.06 7.192 7.479 3.596 12.687zM146.977 7.151c-4.447 4.023-6.396 5.306-4.596 5.635 1.8.33 11.716-11.691 4.596-5.635z"/><path fill="#E97286" d="M95.706 120.131c-5.42.278-6.253 2.224-2.085 2.224 2.362-.417 8.226-1.001 12.784 0-1.76-.834-6.364-2.446-10.7-2.224z"/><path fill="#3D3450" d="M184.132 14.538c6.126 4.747 7.812 8.73 4.748 13.784 6.892-8.577.919-12.1-4.748-13.784zM125.013 30.107c-1.693 8.804-.678 12.868 4.063 14.477-8.212.169-9.143-8.89-4.063-14.477z"/><path fill="#E97286" d="M91.113 137.758c.463.18 2.135.999 4.233 2.11l1.88 5.217c-2.932.745-9.554.974-12.208-4.087 4.197 1.914 5.812-1.362 6.095-3.24z"/><path fill="#E97286" d="M85.862 143.583c.876 1.231 4.05 3.425 9.735 2.345-5.4 2.7-9.735 1.35-9.735-2.345z"/><path fill="url(#paint4_linear)" d="M188.056 116.104c9.585 14.659 24.116 53.092 30.694 70.758l-25.09 4.51a39271.297 39271.297 0 0 1-17.196-65.459c-9.584-4.228-12.684-7.685-16.359-11.043-2.695-2.464-.615-6.673 0-10.272.301-1.757 2.492-2.903 3.082-4.473.286-1.88-.375-1.102.602-3.055.976-1.953 2.831-3.605 5.086-2.195-.553-7.93-7.905-16.604-5.086-18.014 2.819-1.41 7.479 4.135 13.963 19.358 5.225 1.187 6.45 1.191 10.304 19.885z"/><path fill="#E97286" d="M167.737 89.488c.809 1.834.98 6.31 2.098 6.666 1.914.61.204-4.63-2.098-6.666zM172.625 123.75c6.125 1.75 8 .5 7.125 2.625s-7.125-2-7.125-2.625z"/></g></g><defs><linearGradient id="paint0_linear" x1="266.745" x2="266.745" y1="69.746" y2="54.243" gradientUnits="userSpaceOnUse"><stop stop-color="#33FBFF"/><stop offset=".57" stop-color="#6FFCFF"/><stop offset=".94" stop-color="#97FCFF"/></linearGradient><linearGradient id="paint1_linear" x1="37.007" x2="38.693" y1="115.323" y2="129.075" gradientUnits="userSpaceOnUse"><stop stop-color="#33FBFF"/><stop offset="1" stop-color="#97FCFF"/></linearGradient><linearGradient id="paint2_linear" x1="1046.54" x2="1046.54" y1="24077.8" y2="25088.1" gradientUnits="userSpaceOnUse"><stop stop-color="#33FBFF"/><stop offset="1" stop-color="#97FCFF"/></linearGradient><linearGradient id="paint3_linear" x1="1720.32" x2="1720.32" y1="36428.1" y2="38893.3" gradientUnits="userSpaceOnUse"><stop stop-color="#33FBFF"/><stop offset="1" stop-color="#97FCFF"/></linearGradient><linearGradient id="paint4_linear" x1="189.375" x2="189.375" y1="76.527" y2="191.372" gradientUnits="userSpaceOnUse"><stop stop-color="#F38585"/><stop offset="1" stop-color="#F69C93"/></linearGradient></defs></svg>