<svg xmlns="http://www.w3.org/2000/svg" fill="none" viewBox="0 0 320 181"><mask id="a" width="320" height="181" x="0" y="0" maskUnits="userSpaceOnUse"><path fill="#fff" d="M0 .998h320V181H0z"/></mask><g mask="url(#a)"><path fill="#FFE8B3" fill-rule="evenodd" d="M303.64 103.041c-.027.3-.058.593-.089.893l-.012.107a79.318 79.318 0 0 1-.933 6.31 79.157 79.157 0 0 1-1.002 4.616c-.132.537-.271 1.07-.411 1.6-.104.393-.217.783-.325 1.173a78.627 78.627 0 0 1-2.168 6.474c-1.32 3.456-2.864 6.746-4.614 9.803a58.83 58.83 0 0 1-4.839 7.23c-2.229 2.833-4.656 5.33-7.258 7.403a34.777 34.777 0 0 1-3.859 2.684l-.279.166a155.692 155.692 0 0 1-7.296 4.097l-9.031 3.8-7.468 3.14c-16.784 5.29-35.787 5.966-70.424 6.05l-5.183.01c-1.011 0-2.033.003-3.07.003l-7.115.017-6.801.016-2.16.007c-3.298.027-6.569.067-9.813.11l-1.63.02c-2.93.04-5.837.083-8.721.12-.434.007-.867.01-1.301.017-3.909.05-7.773.086-11.582.093h-1.769c-.801 0-1.598-.003-2.392-.01a442.822 442.822 0 0 1-3.836-.027l-.569-.006c-2.342-.03-4.657-.077-6.948-.144-7.32-.213-14.385-.643-21.14-1.426-.561-.067-1.122-.134-1.68-.204-11.19-1.406-21.51-3.833-30.685-7.94-6.104-2.726-11.698-6.193-16.715-10.593a62.135 62.135 0 0 1-7.138-7.403c-3.306-4.043-6.26-8.67-8.833-13.957a78.488 78.488 0 0 1-1.564-3.4c-.306-.703-.6-1.403-.883-2.096-.51-1.26-.987-2.507-1.432-3.737a88.024 88.024 0 0 1-1.831-5.67c-.066-.23-.128-.456-.19-.686a76.051 76.051 0 0 1-1.893-8.81c-1.842-12.107-.181-22.494 3.403-31.184a56.129 56.129 0 0 1 7.37-12.76 59.776 59.776 0 0 1 2.985-3.603 63.81 63.81 0 0 1 4.03-4.1c.251-.23.503-.46.754-.686 6.175-5.54 12.724-9.227 17.826-11.067a26.273 26.273 0 0 1 1.417-.477c.263-.083.519-.16.77-.23.593-.163 1.18-.326 1.78-.49.047-.013.098-.026.144-.04l.743-.2a312.293 312.293 0 0 1 16.669-3.98c2.225-.47 4.475-.923 6.747-1.353 20.919-3.996 43.564-6.45 66.039-7.336.023-.004.042-.004.065-.004a476.603 476.603 0 0 1 20.567-.376c3.875.013 7.726.073 11.547.186a433.739 433.739 0 0 1 12.313.527 370.638 370.638 0 0 1 21.937 1.883c2.114.244 4.208.51 6.275.79 9.526 1.297 18.515 2.967 26.745 5.017 1.486.367 2.938.746 4.37 1.14.321.09.639.176.96.27a146.65 146.65 0 0 1 11.458 3.697 114.068 114.068 0 0 1 2.543.976 96.311 96.311 0 0 1 8.067 3.61 55.552 55.552 0 0 1 5.385 3.12 51.657 51.657 0 0 1 7.087 5.59 50.59 50.59 0 0 1 6.697 7.733c2.826 4.014 5.04 8.37 6.689 12.94a60.381 60.381 0 0 1 1.804 5.937c.12.473.232.947.341 1.42.004.017.008.03.008.043.166.704.313 1.413.449 2.127l.116.626c.058.314.112.63.162.95.918 5.474 1.173 11.08.84 16.637-.054.94-.127 1.88-.22 2.817z" clip-rule="evenodd"/><mask id="b" width="305" height="183" x="-1" y="-14" maskUnits="userSpaceOnUse"><path fill="#fff" fill-rule="evenodd" d="M303.64 103.041c-.027.3-.058.593-.089.893l-.012.107a79.318 79.318 0 0 1-.933 6.31 79.157 79.157 0 0 1-1.002 4.616c-.132.537-.271 1.07-.411 1.6-.104.393-.217.783-.325 1.173a78.627 78.627 0 0 1-2.168 6.474c-1.32 3.456-2.864 6.746-4.614 9.803a58.83 58.83 0 0 1-4.839 7.23c-2.229 2.833-4.656 5.33-7.258 7.403a34.777 34.777 0 0 1-3.859 2.684l-.279.166a154.31 154.31 0 0 1-7.297 4.097l-9.031 3.8-7.467 3.14c-16.784 5.29-35.787 5.966-70.424 6.05l-5.183.01c-1.011 0-2.033.003-3.07.003l-7.115.017-6.801.016-2.16.007c-3.298.027-6.569.067-9.813.11l-1.63.02c-2.93.04-5.837.083-8.721.12-.434.007-.867.01-1.301.017-3.909.05-7.773.086-11.582.093h-1.769c-.801 0-1.598-.003-2.392-.01a442.822 442.822 0 0 1-3.836-.027l-.569-.006c-2.342-.03-4.657-.077-6.948-.144-7.32-.213-14.385-.643-21.14-1.426-.561-.067-1.122-.134-1.68-.204-11.19-1.406-21.51-3.833-30.685-7.94-6.104-2.726-11.698-6.193-16.715-10.593a62.15 62.15 0 0 1-7.138-7.403c-3.306-4.043-6.26-8.67-8.833-13.957a78.488 78.488 0 0 1-1.564-3.4c-.306-.703-.6-1.403-.883-2.096-.51-1.26-.987-2.507-1.432-3.737a87.962 87.962 0 0 1-1.831-5.67c-.066-.23-.128-.456-.19-.686a76.025 76.025 0 0 1-1.893-8.81C14.916 90.784-3.585 78.067 0 69.377c1.962-4.763 16.768-44.913 19.637-48.656a59.776 59.776 0 0 1 2.984-3.604 63.834 63.834 0 0 1 4.03-4.1c.252-.23.503-.46.755-.686C33.58 6.79 40.13 3.104 45.232 1.264a26.59 26.59 0 0 1 1.416-.476c.264-.084.519-.16.77-.23C48.012.394 48.6.23 49.2.068l.144-.04c.247-.067.491-.134.743-.2a312.32 312.32 0 0 1 16.668-3.98 326.45 326.45 0 0 1 6.747-1.354c20.919-3.996 43.564-6.45 66.039-7.336.023-.004.043-.004.066-.004a476.385 476.385 0 0 1 20.566-.376c3.875.013 7.727.073 11.547.186a433.825 433.825 0 0 1 12.314.527 370.797 370.797 0 0 1 21.937 1.883c2.113.244 4.207.51 6.274.79 9.527 1.297 18.515 2.967 26.745 5.017 1.486.367 2.938.747 4.37 1.14.322.09.639.177.96.27 4.042 1.13 7.87 2.367 11.458 3.697.627.233 1.251.47 1.862.71a96.604 96.604 0 0 1 8.749 3.877 55.534 55.534 0 0 1 5.384 3.12 51.667 51.667 0 0 1 7.088 5.59 50.7 50.7 0 0 1 6.697 7.732c2.825 4.014 12.934 46.597 14.583 51.167a60.381 60.381 0 0 1 1.804 5.937c.12.473.232.947.341 1.42.004.017.008.03.008.043.166.704.313 1.413.449 2.127l.116.627c.058.313.112.63.162.95.918 5.473 1.173 11.08.84 16.636-.054.94-.127 1.88-.22 2.817z" clip-rule="evenodd"/></mask><g mask="url(#b)"><path fill="#E97286" fill-rule="evenodd" d="M203.489 100.168a22.5 22.5 0 0 1-1.102 1.611c-5.159 6.878-13.615 9.695-21.203 9.728-6.492.027-12.347-1.979-14.964-5.229-5.906-7.333-15.072-39.714-17.313-56.618-3.46-2.851-4.073-10.385-4.274-15.886-.205-5.497-2.65-14.254-2.855-16.291-.201-2.037-1.628-2.037 1.223-3.665 2.851-1.631 2.446 2.85 7.333 11.608-1.222-5.092-.814-13.444-.814-17.313 0-3.87.61-3.591 2.211-3.883 1.598-.288 2.878-.539 3.102 2.603 0 0 .449-1.57 2.245-1.57 1.795 0 2.693.224 2.02 10.324-.673 10.097.673 9.423 1.347 7.852.673-1.57 2.917-8.525 5.383-12.79 2.469-4.265 6.509-2.245 5.162 1.276-1.346 3.524-6.06 16.677-6.954 24.981 0 0 3.139-.224 7.628-2.918 4.489-2.693 4.04-2.918 6.733 0 0 0-7.631 10.322-11.896 12.352-4.261 2.03-5.383 6.723-2.465 13.906 2.914 7.179 2.69 4.489 10.994 20.508l4.104-1.095 1.035-.275 1.752-.469h.004l4.593-1.223 10.73-2.86s4.814 5.376 6.241 25.336z" clip-rule="evenodd"/><path fill="#DB536B" fill-rule="evenodd" d="M157.812 41.15c.311-.714.663-1.374 1.064-2.033.406-.65.861-1.323 1.579-1.908.169-.149.39-.267.587-.397l.334-.15a1.66 1.66 0 0 1 .342-.124l.352-.09c.117-.029.234-.029.351-.042.115-.009.234-.027.347-.023l.335.019c.883.085 1.651.38 2.33.833a.353.353 0 0 1-.153.646l-.017.002c-.783.094-1.506.08-2.134.18l-.231.031c-.075.015-.142.037-.213.053a2.333 2.333 0 0 0-.398.121c-.131.035-.241.114-.366.162-.115.082-.238.13-.354.231-.474.347-.964.871-1.492 1.4-.529.53-1.098 1.066-1.748 1.516a.348.348 0 0 1-.517-.424l.002-.004zm-2.811-34.31c.109 1.44.18 2.875.238 4.311.062 1.436.092 2.872.111 4.31a96.94 96.94 0 0 1-.033 4.313c-.049 1.44-.118 2.879-.316 4.324a.169.169 0 0 1-.335 0v-.004a58.234 58.234 0 0 1-.384-4.308 79.713 79.713 0 0 1-.119-4.318 81 81 0 0 1 .094-4.322c.074-1.441.182-2.885.409-4.32a.17.17 0 0 1 .193-.14.171.171 0 0 1 .142.155z" clip-rule="evenodd"/><path fill="#E97286" fill-rule="evenodd" d="M166.724 48.364c-3.351.798-4.161 4.679-2.312 9.425-.77-5.118 2.312-9.425 2.312-9.425z" clip-rule="evenodd"/><path fill="#F69C93" fill-rule="evenodd" d="M264.573 60.245a126.569 126.569 0 0 0-3.572 27.69l8.284 1.035c-21.095 18.851-42.863 8.08-39.497-15.485l34.785-13.24z" clip-rule="evenodd"/><path fill="#E97286" fill-rule="evenodd" d="M230.37 77.66c3.475 6.073 18.157 18.232 26.63 1.762 8.474-16.47 7.573-19.177 7.573-19.177-15.23 3.814-37.517 11.75-34.203 17.415z" clip-rule="evenodd"/><path fill="#E97286" fill-rule="evenodd" d="M260.488 76.394c-3.87 7.117-10.919 12.57-18.823 9.015 3.725 3.795 14.47 3.162 18.823-9.015z" clip-rule="evenodd"/><path fill="#7E4EE3" fill-rule="evenodd" d="M273.674 137.842c5.615 6.616.865 32.987.865 32.987s-99.16 14.003-96.577-3.079c2.582-17.085 7.427-16.502 17.44-52.025 0 0-1.615-1.29-1.953-6.847l3.872-2.218s-4.502-19.675-15.396-27.745c0 0 8.495-2.265 18.321-7.286 9.822-5.025 7.748-4.02 15.175-7.25 7.427-3.229 8.399 2.583 18.348 7.25-6.307 19.48 14.914 33.44 32.753 16.076 0 0 7.35 3.156 16.717 8.647 9.363 5.487 10.656 22.927 18.083 34.23 0 0-14.211 5.166-27.648 7.26z" clip-rule="evenodd"/><path fill="#5D33BA" fill-rule="evenodd" d="M273.675 137.842c-1.623-21.425 8.136-29.78 5.983-19.36-2.152 10.421-4.305 12.287-4.305 12.287 5.453-7.176 9.703-9.534-1.678 7.073zm-73.907.205c-5.412-11.115 6.867-18.626 8.421-4.422 1.553 14.205 9.995 32.48 9.247 21.602-.748-10.877.197-21.676 6.208-21.443 6.01.235 17.267 34.353 29.512 38.259 12.245 3.905-6.953 11.525-15.791-2.354-8.838-13.879-13.811-25.315-13.811-25.315-5.424 20.702-4.577 33.125-23.786-6.327z" clip-rule="evenodd"/><path fill="#5D33BA" fill-rule="evenodd" d="M226.839 144.056c-2.118 2.855-5.434 10.845-5.249 17.695 2.283-8.039 5.538-15.25 5.249-17.695zm-28.306-13.543c-.068 17.28 4.035 22.14 9.258 30.243-3.231-9.299-8.883-21.218-6.516-29.226.282-2.935-2.756-3.067-2.742-1.017zm11.028 28.646c5.279 8.039 8.328 13.864 12.028 2.592-1.931 16.355-9.915 6.377-12.028-2.592zm-12.239-52.498c3.518-23.973 4.696-22.824 7.833-21.648 3.136 1.176-2.932 7.842-3.917 16.075-.984 8.234-4.977 12.802-3.916 5.573z" clip-rule="evenodd"/><path fill="#5D33BA" fill-rule="evenodd" d="M197.79 97.695c1.674-12.72 4.017-14.863 4.888-15.198-4.151.87-5.758 9.775-4.888 15.198z" clip-rule="evenodd"/><path fill="#C2AFE9" fill-rule="evenodd" d="M228.771 76.4a26.476 26.476 0 0 0 1.323 7.716l.147.466.173.457.347.913c.24.605.532 1.188.794 1.78.312.571.602 1.152.928 1.712l.508.828.254.414.28.396c1.474 2.124 3.239 4.04 5.289 5.578 2.047 1.533 4.385 2.658 6.854 3.235a18.07 18.07 0 0 0 7.565.148c2.519-.455 4.942-1.42 7.227-2.641l.859-.457c.288-.15.553-.342.832-.511.546-.355 1.108-.686 1.644-1.06l1.588-1.152.398-.288.379-.313.758-.629.763-.624.381-.313.363-.335 1.456-1.337c.5-.432.945-.92 1.414-1.385l1.406-1.403.007-.007a.168.168 0 0 1 .247.226c-.853 1.019-1.669 2.078-2.58 3.054-.915.972-1.82 1.96-2.822 2.851l-.739.682-.371.34-.392.317-1.568 1.269c-.533.411-1.104.773-1.656 1.162-.281.186-.549.394-.842.563l-.878.511c-2.334 1.368-4.886 2.43-7.583 2.983-2.694.534-5.528.534-8.22-.121-.335-.085-.674-.159-1.006-.254l-.98-.342c-.663-.203-1.278-.521-1.908-.803-.32-.133-.616-.308-.915-.48l-.898-.512c-.293-.18-.568-.388-.852-.582-.278-.202-.573-.382-.835-.603a24.109 24.109 0 0 1-5.457-6.059l-.278-.426-.251-.443-.501-.886c-.324-.596-.596-1.219-.89-1.828-.244-.632-.517-1.251-.735-1.89l-.315-.965-.155-.481-.122-.492c-.682-2.609-.983-5.321-.769-7.99a.167.167 0 0 1 .334.008v.004zm-47.729-.166c1.169.276 2.311.69 3.394 1.221.278.121.537.276.802.42l.792.442c.499.337 1.02.65 1.504 1.01a24.729 24.729 0 0 1 5.13 5.092c.73.964 1.387 1.98 1.98 3.031l.837 1.604.711 1.66a29.423 29.423 0 0 1 1.763 6.95.168.168 0 0 1-.328.066l-.001-.005c-.613-2.283-1.346-4.511-2.306-6.64a30.906 30.906 0 0 0-3.567-5.976 29.305 29.305 0 0 0-4.827-4.988 23.459 23.459 0 0 0-5.98-3.566l-.006-.002a.168.168 0 0 1 .102-.319z" clip-rule="evenodd"/><path fill="#5D33BA" fill-rule="evenodd" d="M288.162 101.168c3.236 11.637-3.656 24.992 2.374 25.207 6.031.215 3.437-22.628-2.374-25.207z" clip-rule="evenodd"/><path fill="#5D33BA" fill-rule="evenodd" d="M287.17 113.772c-1.286 8.445-1.91 13.403.789 13.771-6.85 1.653-2.489-12.884-.789-13.771z" clip-rule="evenodd"/><path fill="#C2AFE9" fill-rule="evenodd" d="M273.441 133.337c.582-.292 1.167-.579 1.756-.861l.885-.42.899-.383 1.807-.751 1.836-.673.92-.332.932-.299c.621-.195 1.24-.403 1.864-.588a96.811 96.811 0 0 1 3.775-1.016c2.533-.609 5.086-1.13 7.662-1.502 2.578-.379 5.159-.652 7.784-.71a.577.577 0 0 1 .103 1.147l-.017.002a207.19 207.19 0 0 0-7.564 1.339 160.17 160.17 0 0 0-7.496 1.657c-2.488.59-4.95 1.28-7.396 2.017l-1.834.561-1.819.608-.913.296-.901.328c-.602.217-1.208.428-1.816.634l-.023.008a.576.576 0 0 1-.444-1.062z" clip-rule="evenodd"/><path fill="#5D33BA" fill-rule="evenodd" d="M195.402 115.725s-1.615-1.29-1.953-6.847l3.872-2.218c1.25 2.938-1.919 9.065-1.919 9.065z" clip-rule="evenodd"/><path fill="#F69C93" fill-rule="evenodd" d="M297.373 166.967c-.406 9.52-26.861.013-36.59-4.647a75.548 75.548 0 0 1-15.262-9.728c-.003 0-.006-.004-.01-.007a78.882 78.882 0 0 1-6.841-6.315c-6.086 2.459-11.326 3.069-14.177 2.55-2.804-.513-4.713-1.813-4.713-1.813-.804-.415-1.374-.924-1.769-1.507-2.543-3.742.884-8.158-1.487-13.97-1.052-2.573-2.667-3.735-2.067-5.407.499-1.397 2.137-1.996 3.085-2.331 4.067-1.427 7.527-1.595 10.221-1.796.154-.01.301-.023.449-.033.017 0 .037 0 .053-.004 2.938-.241 4.875-.63 5.568-3.055a9.45 9.45 0 0 1 2.717-4.372c2.512-2.304 5.755-2.854 6.448-1.33 1.019 2.238-2.445 1.833-2.036 8.553.405 6.72-.097 13.035 8.401 15.886 6.235 2.09 16.546 4.294 21.605 5.326 1.839.372 2.985.59 2.985.59a188.123 188.123 0 0 1-.278-5.715c.864-.349 9.792-3.89 20.884-5.957.813 3.33 1.417 6.72 1.859 10.054 1.303 9.808 1.206 19.125.955 25.028z" clip-rule="evenodd"/><path fill="#E97286" fill-rule="evenodd" d="M294.558 131.885c.814 3.33 1.417 6.72 1.86 10.054-3.809-2.499-13.008-3.488-22.626-1.22-.047-.968-.084-1.929-.118-2.877.865-.349 9.793-3.89 20.884-5.957z" clip-rule="evenodd"/><path fill="#E97286" fill-rule="evenodd" d="M273.178 140.111c16.686 1.213 21.995 1.517 20.478 6.523 2.579-5.916-.758-7.737-20.478-6.523zm-38.37-18.49c-2.285 1.712-2.925.154-6.543.338 2.938-.241 4.875-.629 5.568-3.055a9.454 9.454 0 0 1 2.717-4.372h.007c-1.867 2.332.636 5.3-1.749 7.089zm10.703 30.964a78.735 78.735 0 0 1-6.841-6.315c-6.087 2.459-11.326 3.069-14.177 2.55-2.804-.513-4.713-1.813-4.713-1.813-.804-.415-1.374-.924-1.769-1.507-2.543-3.742.885-8.158-1.487-13.97-1.052-2.573-2.667-3.735-2.067-5.407-.721 2.456 4.15 1.759 4.348 5.236.201 3.481-4.573 22.69 19.48 13.581 3.189-1.186 3.236 4.094 7.226 7.645z" clip-rule="evenodd"/><path fill="#F69C93" fill-rule="evenodd" d="M239.887 16.035c-3.009 3.08-5.264 6.07-6.99 9.283-4.748 8.836-5.413 16.544-6.026 26.623-.743 12.208 1.073 17.834 2.917 21.545 1.53 3.077 2.814 4.3 3.591 4.936 5.402 4.428 14.015 3.15 19.619.21 3.909-2.05 7.496-5.794 10.004-12.103 14.138 2.468 20.646-17.641 6.957-18.134 2.244-27.872-6.508-44.703-30.072-32.36z" clip-rule="evenodd"/><path fill="#231E2F" fill-rule="evenodd" d="M266.523 35.667c.199 4.493.199 8.302-1.463 12.595-1.661 4.293.128 4.257 2.173 1.591 2.044-2.666 2.726-1.458 2.726-1.458 3.152-7.213 4.543-21.95-3.436-12.728z" clip-rule="evenodd"/><path fill="#3D3450" fill-rule="evenodd" d="M270.975 39.174l-.667-4.496c-3.833 5.163-6.663 5.163-6.663 5.163v-.007c.08-.409.144-.81.201-1.203 1.3-8.924-2.369-14.113-2.369-14.113-.168 1.03-.981 5.274-4.885 8.395-4.389 3.51-9.361 2.94-10.238 2.824a5.443 5.443 0 0 0 1.493-1.877c.862-1.8.43-3.518.287-4.012v-.01c-.667-7.437-7.624-13.49-10.974-10.486a25.676 25.676 0 0 0-1.585 1.93c-.067.087-.134.177-.198.264-.003.004-.003.004-.003.007-1.608 2.198-2.928 4.633-3.933 6.998-1.333 3.136-2.111 6.144-2.278 8.292-4.495-1.665.191-2.999-2.985-10.161-3.179-7.162 0-11.494 0-11.494 7.317-7.33 11.812-1.497 22.141-5.829 10.324-4.331 19.151.164 22.984 4.16-.017-.002-.067-.023-.151-.05l-.117-.04a.626.626 0 0 0-.07-.023c-4.5-1.484-7.987-.218-7.987-.218 13.326 5.498 17.155 13.162 17.989 16.824.834 3.665-7.661 3.665-9.992 9.162z" clip-rule="evenodd"/><path fill="#231E2F" fill-rule="evenodd" d="M250.187 38.433c2.833-6.127 7.892-8.04 11.036-1.205-4.648-1.23-5.941-2.922-11.036 1.205zm-13.299-2.766c-4.101-7.599-9.98-3.908-9.023 1.971 3.008-3.69 4.512-4.216 9.023-1.971z" clip-rule="evenodd"/><path fill="#fff" fill-rule="evenodd" d="M248.494 49.859c-3.669-3.834 1.384-11.27 7.245-7.171 5.86 4.1-3.345 11.245-7.245 7.17z" clip-rule="evenodd"/><path fill="#231E2F" fill-rule="evenodd" d="M254.339 46.315a3.262 3.262 0 1 1-6.525 0 3.262 3.262 0 0 1 6.525 0z" clip-rule="evenodd"/><path stroke="#231E2F" stroke-linecap="round" stroke-width=".67" d="M252.895 39.841c2.567-.411 7.524.69 7.593 5.029"/><path fill="#fff" fill-rule="evenodd" d="M235.567 40.91c4.146 2.633 1.766 9.35-4.326 6.79-6.092-2.558-.08-9.587 4.326-6.79z" clip-rule="evenodd"/><path fill="#231E2F" fill-rule="evenodd" d="M233.772 47.086a2.894 2.894 0 1 1-2.894-5.012 2.894 2.894 0 0 1 2.894 5.012z" clip-rule="evenodd"/><path fill="#E97286" fill-rule="evenodd" d="M241.338 51.906c6.117.97 6.415 1.27 2.593 3.916-3.822 2.645-4.027 2.962-6.178-1.165-2.151-4.126-.039-3.325 3.585-2.751z" clip-rule="evenodd"/><path fill="#231E2F" fill-rule="evenodd" d="M241.036 44.11c.219.842.331 1.7.384 2.562.049.862.035 1.729-.047 2.593a12.321 12.321 0 0 1-.504 2.57 6.755 6.755 0 0 1-.524 1.24c-.229.386-.493.806-.961 1.03l-.186-.279c.233-.28.362-.659.463-1.042.114-.378.179-.784.254-1.182.136-.805.219-1.628.306-2.452l.228-2.49c.069-.836.136-1.674.253-2.528l.334-.021z" clip-rule="evenodd"/><path fill="#E97286" fill-rule="evenodd" d="M267.114 56.725c1.593-5.46 8.388-6.117 7.309-1.084-1.078 5.033-10.29 11.3-7.309 1.084z" clip-rule="evenodd"/><path fill="#3D3450" fill-rule="evenodd" d="M234.967 61.13c5.729 1.883 11.376 1.892 15.22 0 3.843-1.892 6.172.728.788 6.403-5.384 5.675-11.087 5.239-14.711 0-3.625-5.239-2.594-6.83-1.297-6.403z" clip-rule="evenodd"/><path stroke="#231E2F" stroke-linecap="round" stroke-width=".67" d="M228.604 41.19c.389-.617 1.014-1.375 1.98-1.906 2.042-1.122 4.764-.761 7.063.823"/><path fill="#231E2F" fill-rule="evenodd" d="M240.114 55.454c.493-.06.958.021 1.399.133.442.116.861.275 1.261.464.403.183.79.395 1.156.635.365.245.715.502 1.031.827a.341.341 0 0 1-.366.557l-.011-.005c-.393-.15-.773-.338-1.148-.519l-1.109-.56a16.34 16.34 0 0 0-1.107-.506c-.37-.15-.741-.29-1.106-.356l-.02-.004a.336.336 0 0 1 .02-.666zm23.732-16.822c1.299-8.925-2.369-14.114-2.369-14.114 5.588 2.241 5.879 5.17 2.369 14.114z" clip-rule="evenodd"/><path fill="#231E2F" fill-rule="evenodd" d="M263.645 39.834c.08-.409.144-.81.201-1.203 3.343-7.758 3.966-7.386 3.219-10.378 2.198 3.538-1.243 8.62-3.42 11.581zm17.38-9.037c-1.035 2.92-5.541-.41-8.574 1.925-3.033 2.335 7.952 1.94 8.574-1.925zm-32.891-.959c-.667-7.437-7.625-13.49-10.975-10.486a27.21 27.21 0 0 0-1.782 2.195c.838-2.416-.09-7.32 4.51-5.511 4.599 1.805 8.482 6.264 8.247 13.802z" clip-rule="evenodd"/><path fill="#231E2F" fill-rule="evenodd" d="M235.568 20.83c.694-2.106-1.129-8.697 4.06-5.752-2.805-2.735-5.666-2.1-4.06 5.752zm.007.452c-.067.087-.134.177-.198.265-.003.003-.003.003-.003.006-1.608 2.198-2.928 4.633-3.933 6.998-.174-.847-.204-2.26.014-4.033.442-3.578.09-6.824 4.113-3.688 0 0 .021.154.007.452z" clip-rule="evenodd"/><path fill="#3D3450" fill-rule="evenodd" d="M276.474 19.564c4.245 4.776 6.111 9.808 5.452 12.01 2.415-4.93-2.773-11.97-5.452-12.01zm-49.773-6.158c-2.78 1.948-4.458 6.084-2.398 10.652-6.864-6.34.982-11.38 2.398-10.652z" clip-rule="evenodd"/><path fill="#fff" fill-rule="evenodd" d="M235.877 61.948c1.483.804 11.251 2.411 13.848 0-.495 2.659-1.855 3.215-7.666 3.03-5.811-.186-5.273-2.212-6.182-3.03z" clip-rule="evenodd"/><path fill="#231E2F" fill-rule="evenodd" d="M270.964 13.406c-4.499-1.484-7.986-.218-7.986-.218-2.114-1.109-6.288-1.263-6.288-1.263 4.137-1.799 12.489.871 14.274 1.481zm-37.523 5.169c-3.572.44-3.071 8.198-3.071 8.198-2.44-4.76 1.199-9.02 3.071-8.198z" clip-rule="evenodd"/><path fill="#3D3450" fill-rule="evenodd" d="M118.057 65.88c-3.125 10.07-3.3 14.757-.697 15.454-3.672.804-7.387 2.177-10.951 3.574-5.919 2.319-11.427 4.704-15.628 4.66-2.003-.017-3.708-.59-5.025-1.983-5.728-6.077-9.671-65.419-9.671-65.419 9.326 3.253 33.001 12.064 27.731 24.09-5.27 12.026 17.367 9.55 14.241 19.624z" clip-rule="evenodd"/><path fill="#E97286" fill-rule="evenodd" d="M81.324 87.568s-1.125 1.933-2.492 4.958c0 0-.003 0-.003.004-1.186 2.636-2.553 6.097-3.515 9.835a45.583 45.583 0 0 0-.546 2.375s-19.433 14.01-34.347 5.2c11.752-8.362 15.366-18.981 18.757-30.057 8.585-3.386 22.146 7.685 22.146 7.685z" clip-rule="evenodd"/><path fill="#F69C93" fill-rule="evenodd" d="M78.829 92.53c-1.186 2.636-2.553 6.096-3.515 9.835-2.2 1.953-5.61 2.992-10.757 1.538 2.52-5.638 9.712-8.154 14.272-11.374z" clip-rule="evenodd"/><path fill="#F69C93" fill-rule="evenodd" d="M73.312 94.43c-6.235 3.836-6.115 4.196-8.753 9.472.36-7.554 8.753-9.473 8.753-9.473zm22.812-7.75c-2.83 2.057-5.892 3.397-9.205 3.866-6.566.928-14.114-1.58-22.797-8.73-13.055-10.753-26.877-66.303 22.016-50.943 2.78 1.735 4.667 3.37 6.094 5.487 1.725 2.566 2.77 5.846 3.892 10.894 2.047 9.216 8.446 33.283 0 39.426z" clip-rule="evenodd"/><path fill="#3D3450" fill-rule="evenodd" d="M92.232 36.36c-.764-1.26-3.059-3.333-6.475 0-7.294-5.383-11.98-5.558-14.76 2.777-2.594 7.779 7.976 14.2 1.624 22.928a16.664 16.664 0 0 1-1.625 1.902c-9.547 9.725 3.126 21.534-11.98 31.085C34.19 78.553 19.95 86.892 11.963 73.87l-.003-.003c8.857-1.41 5.756-10.325 10.137-15.226.047-.05.09-.104.141-.154 1.55-1.645 4.003-2.808 8.127-3.029 1.638-.087 2.85-.368 3.745-.817 5.776-2.884-1.527-12.697 7.933-22.16a25.04 25.04 0 0 1 2.72-2.352c0-.003.004-.003.004-.003 3.842-2.891 9.514-5.689 17.895-8.181 11.12-3.353 16.998 1.387 20.037 6.308 2.435.255 7.45 1.588 9.534 8.107z" clip-rule="evenodd"/><path fill="#231E2F" fill-rule="evenodd" d="M78.93 43.05c-2.895-2.796-6.989-2.197-8.986 3.794-1.996 5.991 2.098-.399 3.894-1.298 1.798-.898 7.889.7 5.093-2.496zm8.387-.64c1.664-3.048 5.792-3.894 8.887 1.299 2.696 4.193 0 1.897-2.296.898-2.297-.998-3.595-1.198-4.793-.3-1.198.9-2.465-.673-1.798-1.897zm-1.56-6.05c-7.294-5.383-11.98-5.558-14.76 2.777 3.212-16.897 11.7-10.884 14.76-2.777z" clip-rule="evenodd"/><path fill="#231E2F" fill-rule="evenodd" d="M76.788 26.797c-3.112 1.779-5.705 7.229-5.792 12.34-4.435-10.45 9.147-15.976 5.792-12.34zm34.686 39.747c-.73 4-1.634 12.267-5.065 18.364-5.919 2.319-11.427 4.704-15.628 4.66 1.866-.68 3.648-1.655 5.344-2.888 8.445-6.143 2.046-30.21 0-39.426-1.123-5.048-2.168-8.328-3.893-10.894 6.988 1.776 10.569 3.608 8.144 11.306-2.426 7.702 12.582 10.707 11.098 18.878zM47.862 44.328c-1.874 6.759-19.063 10.35-15.559 23.544.959 3.422 1.387 2.475 3.161-3.853 1.775-6.329 14.85-7.121 14.834-16.366-.015-9.245-1.677-4.94-2.436-3.325z" clip-rule="evenodd"/><path fill="#231E2F" fill-rule="evenodd" d="M53.927 43.69c-.222 4.866-11.043 15.408-11.555 15.689-5.013 2.751-7.041 4.65-6.736 6.214 2.136-3.258 4.585-4.031 7.078-4.83 1.985-.636 3.997-1.288 5.9-3.221 4.296-4.364 5.313-13.851 5.313-13.851zm-9.968 37.931c.13-5.604.796-13.24.98-14.175.182-.937 4.968-3.278 4.938 1.095-.03 4.373 1.008 7.596-.068 10.042-1.077 2.446-3.873 5.925-5.85 3.038zm8.119-1.641c.377-3.542-1.02-12.6-1.02-12.6 3.888 6.576 1.147 17.787 1.02 12.6zm-12.96-33.627c.117 3.95.05 6.452-5.009 8.288 5.776-2.884-1.527-12.696 7.933-22.16-3.47 4.261-3.022 10.606-2.924 13.872zM21.597 70.872c-3.323 5.162-9.457 3.058-9.635 2.998l-.003-.003c8.858-1.41 5.756-10.325 10.137-15.226-2.944 3.43 2.824 7.068-.499 12.23z" clip-rule="evenodd"/><path fill="#231E2F" fill-rule="evenodd" d="M22.94 59.469c-1.653 2.152 3.031 8.366.389 10.852 4.818-3.574-.233-3.054-.388-10.852zm48.056 4.499c-9.547 9.724 3.126 21.533-11.98 31.084 6.148-6.077 4.078-8.475 3.354-20.706-.72-12.234 6.023-6.707 10.251-12.281a16.703 16.703 0 0 1-1.625 1.903zm40.159-3.967c3.051 3.432 3.496 5.68 0 14.015 6.902-8.136 3.337-13.824 0-14.015zM61.376 32.408c-1.968 5.658-3.906 8.497 0 14.691 1.295-7.075 0-14.69 0-14.69z" clip-rule="evenodd"/><path fill="#231E2F" fill-rule="evenodd" d="M57.547 39.754c.564 5.365 2.937 9.465 5.649 11.313-7.457-2.671-5.65-11.313-5.65-11.313z" clip-rule="evenodd"/><path fill="#169FBF" fill-rule="evenodd" d="M63.197 102.124a3.97 3.97 0 0 0-.227.047l.22-.05c.004 0 .004.003.007.003z" clip-rule="evenodd"/><path fill="#E97286" fill-rule="evenodd" d="M88.913 61.145c7.09-2.242 5.462-.08 3.746 3.012-1.716 3.092-3.507.73-6.374 0-2.866-.73 1.147-2.544 2.628-3.012z" clip-rule="evenodd"/><path fill="#fff" fill-rule="evenodd" d="M81.29 52.072c-4.163-3.38-10.191 4.28-4.452 7.615 5.74 3.335 8.421-4.39 4.452-7.614zm14.172-1.73c-3.394-2.847-7.112 4.767-2.56 7.452 4.554 2.685 5.797-4.737 2.56-7.452z" clip-rule="evenodd"/><path fill="#231E2F" fill-rule="evenodd" d="M81.533 53.43c-2.961-2.475-7.249 3.135-3.166 5.577 4.082 2.443 5.99-3.215 3.166-5.576zm14.228-2.063c-2.565-2.043-5.417 3.468-1.971 5.389 3.446 1.921 4.418-3.442 1.971-5.39z" clip-rule="evenodd"/><path fill="#3D3450" fill-rule="evenodd" d="M93.53 69.825c4.125-.754 4.498.134 2.736 2.59-1.763 2.456-.583 7-5.47 8.227-4.888 1.228-12.5-2.372-15.693-5.484-3.193-3.111.484-2.052 18.428-5.333z" clip-rule="evenodd"/><path fill="#231E2F" fill-rule="evenodd" d="M87.184 52.88a19.697 19.697 0 0 0 1.901 3.542c.375.555.78 1.09 1.206 1.608.431.508.881 1.029 1.396 1.408l.018.013a.166.166 0 0 1-.151.291c-.728-.244-1.28-.716-1.808-1.196-.522-.49-.98-1.04-1.39-1.625a9.035 9.035 0 0 1-1.02-1.883c-.263-.667-.447-1.372-.478-2.09a.168.168 0 0 1 .324-.072l.002.003zm4.95-4.245c.43-.408.945-.765 1.585-.934.157-.046.33-.05.496-.072.17.013.347 0 .513.045.169.04.338.082.49.159.163.062.304.15.443.243a4.2 4.2 0 0 1 1.241 1.406c.29.532.504 1.087.606 1.678l-.24-.074.995-.602a.167.167 0 1 1 .173.286l-.994.603-.158.096-.081-.17c-.381-.451-.687-.923-1.012-1.362-.322-.436-.638-.87-1.032-1.154-.385-.286-.821-.448-1.315-.383-.494.047-1.005.263-1.515.508l-.005.002a.169.169 0 0 1-.19-.275zM78.02 50.183c-.66.117-1.263.4-1.806.77a7.232 7.232 0 0 0-1.46 1.33 8.43 8.43 0 0 0-1.079 1.64c-.29.586-.5 1.197-.55 1.864l-.017.217-.175-.026-1.905-.285-.01-.002a.167.167 0 1 1 .049-.33l1.918.286-.192.19c-.241-.73-.114-1.534.144-2.23.261-.707.685-1.333 1.176-1.886a6.268 6.268 0 0 1 1.739-1.376c.658-.341 1.41-.566 2.158-.497a.17.17 0 0 1 .014.334h-.004z" clip-rule="evenodd"/><path stroke="#231E2F" stroke-linecap="round" stroke-width=".89" d="M91.96 63.603c-1.69.442-4.503 1.403-4.503 1.403"/><path fill="#231E2F" fill-rule="evenodd" d="M113.13 56.21c7.714 4.065 8.42 6.92 5.95 13.167 5.998-9.279.844-11.735-5.95-13.167zm-86.68-1.569c-4.94 1.046-10.16 6.163-9.138 13.397-2.684-11.292 5.223-14.214 9.137-13.397z" clip-rule="evenodd"/><path fill="#fff" fill-rule="evenodd" d="M93.486 70.449c-1.607.428-14.5 2.196-15.471 2.356-.971.16-.06 1.244 2.082 1.211 2.142-.032 14.996.503 13.39-3.567z" clip-rule="evenodd"/><path fill="#F69C93" fill-rule="evenodd" d="M152.391 54.792c-.573 8.428-4.405 41.185-14.75 52.87-6.864 7.755-17.778 13.822-30.387 18.364a105.751 105.751 0 0 1-3.438 1.189 157.37 157.37 0 0 1-9.135 2.727c-2.51.67-5.052 1.287-7.611 1.856 0 0 .767-13.601 10.15-27.966a69.331 69.331 0 0 0 7.725-2.633c19.192-7.855 34.13-24.823 36.297-57.52-1.185-10.344-12.796-12.257-11.644-14.173 1.149-1.916 3.829-1.725 8.428 2.49-.957-5.173-5.172-10.155-8.046-13.984-2.874-3.832-3.257-5.558 1.916-4.6-3.065-1.721-2.493-4.978 4.787-2.488-1.916-2.875-1.722-5.364 1.726-3.066 3.446 2.298 8.331 9.923 9.577 14.308 1.246 4.385.958 8.298 2.489 5.042 1.534-3.26.767-6.516.576-9.196-.191-2.683 2.684-2.683 3.692 0 1.011 2.68 2.439 17.43-2.352 36.78z" clip-rule="evenodd"/><path fill="#E97286" fill-rule="evenodd" d="M104.623 126.948a157.31 157.31 0 0 1-9.942 2.994c-5.517-6.368 1.444-21.373 6.743-27.416a64.421 64.421 0 0 0 3.521-1.327c1.29 6.637 2.69 16.191-.322 25.749z" clip-rule="evenodd"/><path fill="#E97286" fill-rule="evenodd" d="M107.253 126.026a105.686 105.686 0 0 1-3.437 1.19c2.516-3.736 5.139-9.384 3.286-22.412 2.657 4.75 4.613 15.46.151 21.222zm29.56-115.208a32.652 32.652 0 0 1 2.286 2.684 35.927 35.927 0 0 1 2.002 2.909c.622 1 1.197 2.033 1.699 3.102.51 1.063.954 2.161 1.292 3.291a.167.167 0 0 1-.112.21.169.169 0 0 1-.202-.094 44.249 44.249 0 0 0-1.539-3.122 57.679 57.679 0 0 0-1.77-2.992 93.647 93.647 0 0 0-1.929-2.899l-1.987-2.878a.168.168 0 1 1 .26-.211zm-4.818 2.459c.916.63 1.658 1.399 2.416 2.167.738.782 1.439 1.6 2.087 2.461.651.858 1.265 1.75 1.789 2.7.515.95.987 1.962 1.112 3.075a.167.167 0 1 1-.329.058l-.002-.01c-.238-1-.749-1.93-1.291-2.823a34.785 34.785 0 0 0-1.828-2.578 59.53 59.53 0 0 0-2.017-2.45 37.002 37.002 0 0 0-1.048-1.195c-.354-.388-.713-.79-1.087-1.134l-.01-.01a.167.167 0 0 1 .208-.26z" clip-rule="evenodd"/><path fill="#F69C93" fill-rule="evenodd" d="M131.896 75.227c-5.951 11.11-18.766 19.825-18.766 19.825a1272.894 1272.894 0 0 0 18.766-19.825z" clip-rule="evenodd"/><path fill="#00C6CD" fill-rule="evenodd" d="M92.607 139.249c-10.321.897-18.01 4.264-18.01 4.264s0 .004.004.007c1.403 5.601 9.668 14.509-3.025 24.18-.02.017-.044.034-.064.05a449.496 449.496 0 0 1-6.017-2.817C11.106 138.944 19.9 128.478 19.9 128.478l.01-.01c16.823-19.741 22.415-27.58 27.527-24.756-4.171 5.578-.02 5.554 9.313.894.563-.281 1.145-.579 1.748-.894 1.283-.674 2.79-1.173 4.473-1.541l.22-.05c7.967-1.679 19.615-.486 28.744-.503 4.82-.01 8.937-.355 11.443-1.641-1.122 25.584-10.77 39.272-10.77 39.272z" clip-rule="evenodd"/><path fill="#169FBF" fill-rule="evenodd" d="M56.749 104.606c-3.434 2.386-4.462 5.625-11.983 8.245-10.576 3.681-24.425 15.259-24.857 15.617 16.823-19.741 22.415-27.58 27.527-24.756-4.171 5.578-.02 5.554 9.313.894zM71.576 167.7c-.044.007-.09.014-.134.017-2.248.288-4.971.318-8.245.033 0 0 1.025-1.125 2.299-2.817 2.408-3.216 5.715-8.479 4.6-12-1.703 4.158-5.146 6.268-4.279 2.097.871-4.167 2.11-8.636 8.78-11.517 0 0 0 .004.004.007 1.404 5.601 9.668 14.509-3.025 24.18zm31.801-67.723c-8.324 4.361-31.513 13.788-25.751 7.617 2.757-2.954 8.78-4.827 14.308-5.976 4.82-.01 8.938-.355 11.443-1.641z" clip-rule="evenodd"/><path fill="#169FBF" fill-rule="evenodd" d="M91.6 106.496c-4.16 1.941-12.477 4.99-16.497 3.743 4.99 4.99 15.36-2.091 16.496-3.743zm-74.288 24.308c-7.683 4.32 28.58-19.008 23.11-11.586-5.471 7.422-19.569 9.594-23.11 11.586z" clip-rule="evenodd"/><path fill="#fff" fill-rule="evenodd" d="M182.112 33.396c1.695-.05 4.46-1.914 4.639-4.431 0 2.843 3.835 4.48 4.192 4.43-2.319.37-3.479 4.053-4.192 6.663-.714-2.796-1.428-6.333-4.639-6.662zm-33.852 81.046c2.49-.07 6.55-2.689 6.812-6.226 0 3.995 5.632 6.296 6.156 6.226-3.405.52-5.108 5.694-6.156 9.361-1.048-3.929-2.096-8.899-6.812-9.361zm-19.628-64.431c1.245-.038 3.275-1.465 3.406-3.392 0 2.177 2.816 3.43 3.078 3.392-1.703.283-2.554 3.102-3.078 5.1-.524-2.14-1.048-4.848-3.406-5.1zm-5.048 80.964c1.307-.037 3.44-1.413 3.578-3.271 0 2.099 2.958 3.307 3.233 3.271-1.789.273-2.683 2.99-3.233 4.917-.551-2.064-1.101-4.675-3.578-4.917zm73.549-72.291c2.017-.058 5.307-2.26 5.519-5.23 0 3.356 4.563 5.288 4.988 5.23-2.759.437-4.139 4.783-4.988 7.864-.849-3.301-1.698-7.476-5.519-7.864z" clip-rule="evenodd"/></g></g></svg>