<svg width="347" height="392" viewBox="0 0 347 392" fill="none" xmlns="http://www.w3.org/2000/svg">
<rect width="347" height="392" fill="#E5E5E5"/>
<g clip-path="url(#clip0)">
<path opacity="0.41" d="M342.77 299.52C341.5 306.1 339.87 312.73 336.55 318.52C336.24 319.06 335.93 319.59 335.55 320.1V319.87L7.1 318.97V320.39C6.1 294.01 0.0999966 267.92 0.0299966 241.51C0.00799881 226.253 1.99166 211.06 5.92999 196.32C9.63999 182.44 15.15 168.88 23.68 157.32C46.96 125.75 87.89 113.99 121.04 93.03C156.31 70.74 168.58 20.7 207.34 5.27C227.77 -2.89 251.67 -1.37 271.37 8.41C291.07 18.19 306.54 35.91 314.52 56.41C324.74 82.7 322.91 111.86 326.18 139.87C330.3 175.27 342.67 209.27 345.67 244.71C347.223 263.027 346.247 281.47 342.77 299.52V299.52Z" fill="white"/>
<path opacity="0.66" d="M335.59 319.91V320.33C313.95 364.15 263.17 389.39 239.5 390.01L74.09 391.41C36.4 391.41 7.02 359.93 7.02 322.24V320.39V318.97L335.59 319.91Z" fill="white"/>
<path d="M50.28 335.84C48.34 336.58 45.98 338.33 46.92 340.18C47.3374 340.83 47.9501 341.33 48.67 341.61C68.43 352.03 91.57 353.33 113.88 354.43L200.88 358.68C214.71 359.35 229.17 359.91 241.73 354.1C246.511 351.715 251.049 348.872 255.28 345.61C261.28 341.29 267.213 336.913 273.08 332.48C274.55 331.38 276.08 330.1 276.41 328.29C276.74 326.21 275.13 324.21 273.19 323.38C271.186 322.696 269.056 322.457 266.95 322.68C247.73 323.347 228.503 323.617 209.27 323.49C197.07 323.42 184.83 323.21 172.72 321.67C153 319.16 134.2 316.47 114.3 318.97C92.48 321.7 70.72 327.99 50.28 335.84Z" fill="url(#paint0_linear)"/>
<path d="M257.89 57.66H142.15C131.911 57.66 123.61 65.9606 123.61 76.2V305.37C123.61 315.609 131.911 323.91 142.15 323.91H257.89C268.129 323.91 276.43 315.609 276.43 305.37V76.2C276.43 65.9606 268.129 57.66 257.89 57.66Z" fill="#007BFF"/>
<g filter="url(#filter0_d)">
<path d="M257.89 57.66H142.15C131.911 57.66 123.61 65.9606 123.61 76.2V305.37C123.61 315.609 131.911 323.91 142.15 323.91H257.89C268.129 323.91 276.43 315.609 276.43 305.37V76.2C276.43 65.9606 268.129 57.66 257.89 57.66Z" fill="url(#paint1_linear)"/>
</g>
<path d="M248.38 57.66H132.64C122.401 57.66 114.1 65.9606 114.1 76.2V305.37C114.1 315.609 122.401 323.91 132.64 323.91H248.38C258.619 323.91 266.92 315.609 266.92 305.37V76.2C266.92 65.9606 258.619 57.66 248.38 57.66Z" fill="#00C1FE"/>
<path d="M255.39 88.14V284.05C255.39 287.955 253.839 291.7 251.079 294.462C248.319 297.224 244.575 298.777 240.67 298.78H141.07C139.136 298.78 137.221 298.399 135.435 297.659C133.648 296.918 132.025 295.833 130.658 294.465C129.291 293.097 128.207 291.473 127.468 289.686C126.728 287.899 126.349 285.984 126.35 284.05V88.14C126.349 86.5471 126.661 84.9695 127.27 83.4973C127.878 82.0251 128.77 80.6872 129.896 79.5599C131.021 78.4326 132.358 77.538 133.829 76.9272C135.3 76.3164 136.877 76.0013 138.47 76H243.25C246.469 76.0026 249.555 77.2825 251.831 79.5586C254.107 81.8348 255.387 84.9211 255.39 88.14V88.14Z" fill="white"/>
<path d="M255.39 218.98V284.05C255.39 287.955 253.839 291.7 251.079 294.462C248.319 297.224 244.575 298.777 240.67 298.78H153.5V218.98H255.39Z" fill="#007BFF"/>
<path d="M255.38 218.98V284.05C255.377 287.952 253.827 291.694 251.07 294.456C248.312 297.217 244.572 298.772 240.67 298.78H153.5V218.98H255.38Z" fill="url(#paint2_linear)"/>
<path d="M255.38 256.51V284.05C255.386 287.83 253.931 291.467 251.32 294.2H156.67V256.51H255.38Z" fill="url(#paint3_linear)"/>
<path d="M124.84 76.13L93.73 109.4H231.86L259.58 75.66L124.84 76.13Z" fill="#007BFF"/>
<path d="M141.9 76L114.03 109.2L232.11 109.32H93.73L94.57 108.53L105.7 98.1L126.26 75.99L141.9 76Z" fill="url(#paint4_linear)"/>
<path d="M182.8 75.52L155.12 109.2L273.2 109.32H134.82L135.66 108.53L161.99 75.99L182.8 75.52Z" fill="url(#paint5_linear)"/>
<path d="M222.42 75.52L194.74 109.2L174.44 109.32L175.28 108.53L201.61 75.99L222.42 75.52Z" fill="url(#paint6_linear)"/>
<path d="M259.78 75.52L232.1 109.2L211.8 109.32L212.64 108.53L238.97 75.99L259.78 75.52Z" fill="url(#paint7_linear)"/>
<path d="M154.79 109.39H174.6C174.268 111.781 173.082 113.971 171.262 115.556C169.441 117.142 167.109 118.015 164.695 118.015C162.281 118.015 159.949 117.142 158.128 115.556C156.308 113.971 155.122 111.781 154.79 109.39V109.39Z" fill="#007BFF"/>
<path d="M134.67 109.39H154.48C154.148 111.781 152.962 113.971 151.142 115.556C149.321 117.142 146.989 118.015 144.575 118.015C142.161 118.015 139.829 117.142 138.008 115.556C136.188 113.971 135.002 111.781 134.67 109.39V109.39Z" fill="#007BFF"/>
<path d="M214.79 109.27C214.48 111.67 213.309 113.877 211.495 115.48C209.682 117.083 207.349 117.974 204.928 117.987C202.508 118.001 200.164 117.136 198.333 115.553C196.502 113.97 195.307 111.777 194.97 109.38H214.67L214.79 109.27Z" fill="#007BFF"/>
<path d="M232.01 109.27C231.53 114.27 227.85 118.14 223.39 118.14C218.93 118.14 215.3 114.31 214.78 109.38H231.94L232.01 109.27Z" fill="#007BFF"/>
<path d="M114.67 109.39H134.48C134.148 111.781 132.962 113.971 131.142 115.556C129.321 117.142 126.989 118.015 124.575 118.015C122.161 118.015 119.829 117.142 118.008 115.556C116.188 113.971 115.002 111.781 114.67 109.39V109.39Z" fill="#007BFF"/>
<path d="M174.88 109.39H194.67C194.338 111.781 193.152 113.971 191.332 115.556C189.511 117.142 187.179 118.015 184.765 118.015C182.351 118.015 180.019 117.142 178.198 115.556C176.378 113.971 175.192 111.781 174.86 109.39H174.88Z" fill="#007BFF"/>
<path d="M94.53 109.39H114.34C114.008 111.781 112.822 113.971 111.002 115.556C109.181 117.142 106.849 118.015 104.435 118.015C102.021 118.015 99.6886 117.142 97.8681 115.556C96.0476 113.971 94.8619 111.781 94.53 109.39V109.39Z" fill="#007BFF"/>
<path d="M154.79 109.39H174.6C174.268 111.781 173.082 113.971 171.262 115.556C169.441 117.142 167.109 118.015 164.695 118.015C162.281 118.015 159.949 117.142 158.128 115.556C156.308 113.971 155.122 111.781 154.79 109.39V109.39Z" fill="url(#paint8_linear)"/>
<path d="M134.67 109.39H154.48C154.148 111.781 152.962 113.971 151.142 115.556C149.321 117.142 146.989 118.015 144.575 118.015C142.161 118.015 139.829 117.142 138.008 115.556C136.188 113.971 135.002 111.781 134.67 109.39V109.39Z" fill="url(#paint9_linear)"/>
<path d="M214.78 109.39C214.47 111.79 213.299 113.997 211.485 115.6C209.672 117.203 207.339 118.094 204.918 118.107C202.498 118.121 200.154 117.256 198.323 115.673C196.492 114.09 195.297 111.897 194.96 109.5H214.67L214.78 109.39Z" fill="url(#paint10_linear)"/>
<path d="M231.95 109.33C231.48 114.33 227.81 118.21 223.36 118.21C218.91 118.21 215.3 114.37 214.78 109.45H231.88L231.95 109.33Z" fill="url(#paint11_linear)"/>
<path d="M114.67 109.39H134.48C134.148 111.781 132.962 113.971 131.142 115.556C129.321 117.142 126.989 118.015 124.575 118.015C122.161 118.015 119.829 117.142 118.008 115.556C116.188 113.971 115.002 111.781 114.67 109.39V109.39Z" fill="url(#paint12_linear)"/>
<path d="M174.88 109.39H194.67C194.338 111.781 193.152 113.971 191.332 115.556C189.511 117.142 187.179 118.015 184.765 118.015C182.351 118.015 180.019 117.142 178.198 115.556C176.378 113.971 175.192 111.781 174.86 109.39H174.88Z" fill="url(#paint13_linear)"/>
<path d="M94.53 109.39H114.34C114.008 111.781 112.822 113.971 111.002 115.556C109.181 117.142 106.849 118.015 104.435 118.015C102.021 118.015 99.6886 117.142 97.8681 115.556C96.0476 113.971 94.8619 111.781 94.53 109.39V109.39Z" fill="url(#paint14_linear)"/>
<path d="M114.33 109.39L141.71 76.24L161.99 75.99L134.42 109.39H114.33Z" fill="url(#paint15_linear)"/>
<path d="M154.61 109.39L181.99 76.24L201.03 75.81L174.7 109.39H154.61Z" fill="url(#paint16_linear)"/>
<path d="M194.89 109.39L222.26 76.24L241.31 75.81L214.97 109.39H194.89Z" fill="url(#paint17_linear)"/>
<path d="M231.88 109.45L258.44 104.19L259.88 75.52L231.88 109.45Z" fill="#007BFF"/>
<path d="M232.1 109.17L258.66 103.91L260.11 75.24L232.1 109.17Z" fill="url(#paint18_linear)"/>
<path d="M195.38 305.01H174.1C170.974 305.01 168.44 307.544 168.44 310.67C168.44 313.796 170.974 316.33 174.1 316.33H195.38C198.506 316.33 201.04 313.796 201.04 310.67C201.04 307.544 198.506 305.01 195.38 305.01Z" fill="url(#paint19_linear)"/>
<path d="M117.88 188.77C132.4 188.77 144.17 177 144.17 162.48C144.17 147.96 132.4 136.19 117.88 136.19C103.36 136.19 91.59 147.96 91.59 162.48C91.59 177 103.36 188.77 117.88 188.77Z" fill="#007BFF"/>
<path d="M113.21 188.77C127.73 188.77 139.5 177 139.5 162.48C139.5 147.96 127.73 136.19 113.21 136.19C98.6904 136.19 86.92 147.96 86.92 162.48C86.92 177 98.6904 188.77 113.21 188.77Z" fill="url(#paint20_linear)"/>
<path d="M87.71 241.57C100.567 241.57 110.99 231.147 110.99 218.29C110.99 205.433 100.567 195.01 87.71 195.01C74.8528 195.01 64.43 205.433 64.43 218.29C64.43 231.147 74.8528 241.57 87.71 241.57Z" fill="#007BFF"/>
<path d="M83.57 241.57C96.4272 241.57 106.85 231.147 106.85 218.29C106.85 205.433 96.4272 195.01 83.57 195.01C70.7128 195.01 60.29 205.433 60.29 218.29C60.29 231.147 70.7128 241.57 83.57 241.57Z" fill="url(#paint21_linear)"/>
<path d="M198.76 190.06C195.5 193.56 193.61 198.06 191.76 202.5L186.55 215.12C186.382 215.408 186.279 215.729 186.25 216.061C186.221 216.393 186.265 216.727 186.38 217.04C186.578 217.291 186.828 217.495 187.113 217.638C187.398 217.782 187.711 217.861 188.03 217.87C190.682 218.271 193.352 218.538 196.03 218.67C209.557 219.51 223.107 219.82 236.68 219.6C238.307 219.686 239.933 219.409 241.44 218.79C245.18 216.9 245.44 211.7 244.81 207.57C244.055 202.757 242.711 198.055 240.81 193.57C240.143 191.792 239.16 190.149 237.91 188.72C234.81 185.47 229.91 184.95 225.4 184.82C216.84 184.61 205.18 183.15 198.76 190.06Z" fill="#007BFF"/>
<path d="M188.81 187.17C188.725 186.712 188.474 186.301 188.105 186.017C187.736 185.733 187.275 185.595 186.81 185.63C185.632 185.578 184.451 185.622 183.28 185.76C182.527 185.781 181.802 186.052 181.22 186.53C180.799 187.04 180.538 187.662 180.47 188.32C179.52 193.47 180.62 198.75 181.04 203.97C181.33 207.53 181.36 211.31 183.28 214.31C184.148 215.637 185.335 216.725 186.733 217.475C188.131 218.224 189.694 218.611 191.28 218.6C192.62 218.6 194.14 218.11 194.65 216.88C194.857 216.259 194.915 215.598 194.82 214.95C194.13 205.58 192.78 195.79 188.81 187.17Z" fill="#007BFF"/>
<path d="M188.13 182.58C188.76 181.22 189.62 179.98 190.37 178.68C190.583 178.354 190.723 177.985 190.78 177.6C190.804 177.4 190.767 177.198 190.674 177.02C190.582 176.841 190.437 176.695 190.26 176.6C189.51 176.31 188.91 177.35 188.13 177.51C187.35 177.67 186.79 177.05 186.28 176.51C184.056 174.296 181.429 172.527 178.54 171.3C178.391 171.211 178.226 171.152 178.054 171.128C177.882 171.104 177.708 171.115 177.54 171.16C177.23 171.3 177.14 171.85 177.46 171.95C177.151 171.974 176.842 171.897 176.58 171.73C176.3 171.61 175.89 171.6 175.76 171.88C175.63 172.16 176.01 172.57 175.91 172.88C175.57 172.888 175.231 172.834 174.91 172.72C174.57 172.66 174.12 172.72 174.06 173.11C174.034 173.239 174.034 173.371 174.06 173.5C174.105 174.022 174.105 174.548 174.06 175.07C174.217 176.465 174.8 177.778 175.73 178.83C177.584 181.136 179.256 183.584 180.73 186.15C181.084 186.988 181.559 187.77 182.14 188.47C182.96 189.35 186 190.6 186.8 189.07C187.18 188.35 186.87 186.77 187.01 185.93C187.235 184.769 187.611 183.643 188.13 182.58V182.58Z" fill="url(#paint22_linear)"/>
<path d="M229.39 203.7C229.586 204.334 229.64 205.002 229.548 205.659C229.457 206.316 229.222 206.944 228.86 207.5C227.99 208.56 226.47 208.77 225.1 208.84C218.43 209.19 211.62 208.04 205.1 209.56C204.163 209.679 203.299 210.125 202.66 210.82C202.102 211.807 201.942 212.969 202.21 214.07L202.77 218.84L196.27 217.66C196.026 217.627 195.792 217.546 195.58 217.42C195.272 217.122 195.09 216.718 195.07 216.29C194.537 213.803 194.306 211.262 194.38 208.72C194.467 206.156 195.475 203.71 197.22 201.83C198.873 200.362 200.867 199.331 203.02 198.83C208.02 197.39 213.28 196.97 218.49 196.55C220.74 196.37 224.49 195.87 226.42 197.4C228.03 198.7 228.99 201.79 229.39 203.7Z" fill="url(#paint23_linear)"/>
<path d="M201.87 169.27C201.691 170.903 201.748 172.553 202.04 174.17C202.393 175.589 203.078 176.903 204.04 178.003C205.002 179.104 206.212 179.96 207.57 180.5C209.57 181.29 211.94 181.5 213.31 183.13C214.68 184.76 214.61 186.93 216.02 188.29C216.752 188.902 217.666 189.255 218.619 189.293C219.573 189.331 220.512 189.052 221.29 188.5C222.826 187.34 223.855 185.631 224.16 183.73C224.445 181.848 224.556 179.943 224.49 178.04C224.52 175.502 224.73 172.969 225.12 170.46C225.46 168.715 225.67 166.946 225.75 165.17C225.733 163.115 225.337 161.081 224.58 159.17C222.89 154.72 219.41 150.71 214.8 149.53C212.692 149.009 210.474 149.175 208.467 150.002C206.459 150.829 204.769 152.275 203.64 154.13C202.48 156 202.59 157.9 202.45 160.13C202.263 163.163 202.07 166.21 201.87 169.27Z" fill="url(#paint24_linear)"/>
<path d="M200.56 143.68C199.73 143.34 198.61 143.03 198.08 143.75C197.898 144.051 197.811 144.399 197.83 144.75C197.814 146.017 198.239 147.25 199.03 148.24C198.202 148.181 197.38 148.426 196.72 148.93C195.79 149.85 196.25 151.47 197.07 152.48C197.89 153.49 199.02 154.31 199.51 155.48C199.77 156.11 199.83 156.81 200.08 157.48C200.176 157.809 200.363 158.103 200.62 158.33C200.876 158.556 201.192 158.706 201.53 158.76C202.43 158.76 203 157.86 203.53 157.11C204.944 155.187 207.04 153.878 209.389 153.452C211.738 153.026 214.161 153.515 216.16 154.82C220.02 157.56 221.09 162.73 221.86 167.4C222.25 167.68 222.48 166.93 222.63 166.48C222.97 165.48 224.53 165.57 225.09 166.42C225.323 166.874 225.426 167.383 225.387 167.891C225.348 168.399 225.169 168.887 224.87 169.3C224.33 170.16 223.54 170.84 222.95 171.67C222.777 171.865 222.688 172.12 222.7 172.38C222.752 172.597 222.875 172.791 223.05 172.93C223.528 173.408 224.036 173.855 224.57 174.27C224.765 174.466 225 174.617 225.259 174.714C225.518 174.81 225.794 174.85 226.07 174.83C226.446 174.722 226.776 174.494 227.01 174.18C229.01 171.94 229.79 168.83 230.22 165.84C230.65 162.85 230.62 159.48 228.3 157.68C227.84 157.33 227.3 157.07 226.88 156.68C226.131 155.938 225.515 155.072 225.06 154.12C222.564 149.921 218.718 146.692 214.15 144.96C212.093 143.995 209.792 143.674 207.55 144.04C205.248 144.727 202.779 144.6 200.56 143.68V143.68Z" fill="black"/>
<path d="M188.57 216.94C188.22 217.38 187.9 218.05 188.29 218.45C188.426 218.547 188.581 218.615 188.744 218.651C188.907 218.687 189.076 218.69 189.24 218.66L201.18 217.95C201.375 217.952 201.568 217.918 201.75 217.85C202.35 217.58 202.39 216.77 202.35 216.11L202.14 213.03C202.07 211.92 202.3 211.58 201.22 211.43C199.596 211.358 197.972 211.585 196.43 212.1C193.377 212.872 190.634 214.561 188.57 216.94V216.94Z" fill="url(#paint25_linear)"/>
<path d="M255.38 222.56H156.63V251.84H255.38V222.56Z" fill="url(#paint26_linear)"/>
<path d="M128.04 177.63H102.81L107.09 154.81H124.38L128.04 177.63Z" fill="white"/>
<path d="M121.43 156.83H110.61V155.83C110.61 154.395 111.18 153.019 112.195 152.005C113.209 150.99 114.585 150.42 116.02 150.42C117.455 150.42 118.831 150.99 119.845 152.005C120.86 153.019 121.43 154.395 121.43 155.83V156.83ZM112.67 154.88H119.33C119.119 154.16 118.681 153.528 118.08 153.078C117.48 152.629 116.75 152.386 116 152.386C115.25 152.386 114.52 152.629 113.92 153.078C113.319 153.528 112.881 154.16 112.67 154.88Z" fill="white"/>
<path d="M182.49 230.9H163.56V251.46H182.49V230.9Z" fill="#007BFF"/>
<path d="M182.49 230.9H163.56V251.46H182.49V230.9Z" fill="url(#paint27_linear)"/>
<path d="M206.94 239.81H188.01V251.46H206.94V239.81Z" fill="url(#paint28_linear)"/>
<path d="M179.8 230.9H160.87V251.46H179.8V230.9Z" fill="#007BFF"/>
<path d="M203.11 240.98H188.4V251.69H203.11V240.98Z" fill="#007BFF"/>
<path d="M182.07 272.47H163.14V293.03H182.07V272.47Z" fill="#007BFF"/>
<path d="M202.69 282.55H187.98V293.26H202.69V282.55Z" fill="#007BFF"/>
<path d="M220.76 251.69C224.438 251.69 227.42 248.708 227.42 245.03C227.42 241.352 224.438 238.37 220.76 238.37C217.082 238.37 214.1 241.352 214.1 245.03C214.1 248.708 217.082 251.69 220.76 251.69Z" fill="url(#paint29_linear)"/>
<path d="M218.31 251.69C221.988 251.69 224.97 248.708 224.97 245.03C224.97 241.352 221.988 238.37 218.31 238.37C214.632 238.37 211.65 241.352 211.65 245.03C211.65 248.708 214.632 251.69 218.31 251.69Z" fill="#007BFF"/>
<path d="M214.69 293.44C218.368 293.44 221.35 290.458 221.35 286.78C221.35 283.102 218.368 280.12 214.69 280.12C211.012 280.12 208.03 283.102 208.03 286.78C208.03 290.458 211.012 293.44 214.69 293.44Z" fill="url(#paint30_linear)"/>
<path d="M212.23 293.44C215.908 293.44 218.89 290.458 218.89 286.78C218.89 283.102 215.908 280.12 212.23 280.12C208.552 280.12 205.57 283.102 205.57 286.78C205.57 290.458 208.552 293.44 212.23 293.44Z" fill="#007BFF"/>
<path d="M241.83 251.69C246.734 251.69 250.71 247.714 250.71 242.81C250.71 237.906 246.734 233.93 241.83 233.93C236.926 233.93 232.95 237.906 232.95 242.81C232.95 247.714 236.926 251.69 241.83 251.69Z" fill="url(#paint31_linear)"/>
<path d="M238.56 251.69C243.464 251.69 247.44 247.714 247.44 242.81C247.44 237.906 243.464 233.93 238.56 233.93C233.656 233.93 229.68 237.906 229.68 242.81C229.68 247.714 233.656 251.69 238.56 251.69Z" fill="#007BFF"/>
<path d="M233.42 293.13C238.324 293.13 242.3 289.154 242.3 284.25C242.3 279.346 238.324 275.37 233.42 275.37C228.516 275.37 224.54 279.346 224.54 284.25C224.54 289.154 228.516 293.13 233.42 293.13Z" fill="url(#paint32_linear)"/>
<path d="M230.15 293.13C235.054 293.13 239.03 289.154 239.03 284.25C239.03 279.346 235.054 275.37 230.15 275.37C225.246 275.37 221.27 279.346 221.27 284.25C221.27 289.154 225.246 293.13 230.15 293.13Z" fill="#007BFF"/>
<path d="M84.84 213.96C84.84 218.9 82.25 221.34 79.22 221.34C76.19 221.34 73.79 219 73.75 214.34C73.71 209.68 76.31 207.03 79.4 207.03C82.67 206.98 84.84 209.5 84.84 213.96ZM76.27 214.18C76.2 217.18 77.32 219.44 79.27 219.44C81.22 219.44 82.27 217.2 82.27 214.11C82.27 211.26 81.44 208.89 79.27 208.89C77.32 208.89 76.27 211.27 76.27 214.18ZM79.01 231.18L92.76 206.99H94.76L81.02 231.17L79.01 231.18ZM100.07 223.66C100.07 228.59 97.47 231.04 94.49 231.04C91.51 231.04 89.05 228.7 89.02 224.04C88.99 219.38 91.57 216.7 94.67 216.7C97.94 216.67 100.07 219.18 100.07 223.65V223.66ZM91.5 223.87C91.5 226.87 92.62 229.13 94.56 229.13C96.65 229.13 97.56 226.9 97.56 223.8C97.56 220.96 96.73 218.58 94.56 218.58C92.58 218.57 91.5 220.91 91.5 223.86V223.87Z" fill="white"/>
</g>
<defs>
<filter id="filter0_d" x="119.61" y="57.66" width="160.82" height="274.25" filterUnits="userSpaceOnUse" color-interpolation-filters="sRGB">
<feFlood flood-opacity="0" result="BackgroundImageFix"/>
<feColorMatrix in="SourceAlpha" type="matrix" values="0 0 0 0 0 0 0 0 0 0 0 0 0 0 0 0 0 0 127 0"/>
<feOffset dy="4"/>
<feGaussianBlur stdDeviation="2"/>
<feColorMatrix type="matrix" values="0 0 0 0 0 0 0 0 0 0 0 0 0 0 0 0 0 0 0.25 0"/>
<feBlend mode="normal" in2="BackgroundImageFix" result="effect1_dropShadow"/>
<feBlend mode="normal" in="SourceGraphic" in2="effect1_dropShadow" result="shape"/>
</filter>
<linearGradient id="paint0_linear" x1="166.01" y1="266.37" x2="158.3" y2="382.73" gradientUnits="userSpaceOnUse">
<stop offset="0.01"/>
<stop offset="0.13" stop-opacity="0.69"/>
<stop offset="1" stop-opacity="0"/>
</linearGradient>
<linearGradient id="paint1_linear" x1="25161.6" y1="51246.9" x2="59764.5" y2="50441.7" gradientUnits="userSpaceOnUse">
<stop offset="0.01" stop-color="#007BFF"/>
<stop offset="0.13" stop-opacity="0.69"/>
<stop offset="1" stop-opacity="0"/>
</linearGradient>
<linearGradient id="paint2_linear" x1="24973.5" y1="27634.3" x2="24591.4" y2="14294.4" gradientUnits="userSpaceOnUse">
<stop offset="0.01"/>
<stop offset="0.13" stop-opacity="0.69"/>
<stop offset="1" stop-opacity="0"/>
</linearGradient>
<linearGradient id="paint3_linear" x1="23649.6" y1="9571.97" x2="23856.8" y2="13940.4" gradientUnits="userSpaceOnUse">
<stop offset="0.01"/>
<stop offset="0.13" stop-opacity="0.69"/>
<stop offset="1" stop-opacity="0"/>
</linearGradient>
<linearGradient id="paint4_linear" x1="23091.1" y1="2327.43" x2="23044.8" y2="4779.61" gradientUnits="userSpaceOnUse">
<stop offset="0.01"/>
<stop offset="0.13" stop-opacity="0.69"/>
<stop offset="1" stop-opacity="0"/>
</linearGradient>
<linearGradient id="paint5_linear" x1="28825.1" y1="2338.77" x2="28776.9" y2="4856.48" gradientUnits="userSpaceOnUse">
<stop offset="0.01"/>
<stop offset="0.13" stop-opacity="0.69"/>
<stop offset="1" stop-opacity="0"/>
</linearGradient>
<linearGradient id="paint6_linear" x1="9804.5" y1="2216.41" x2="9665.98" y2="4727.35" gradientUnits="userSpaceOnUse">
<stop offset="0.01"/>
<stop offset="0.13" stop-opacity="0.69"/>
<stop offset="1" stop-opacity="0"/>
</linearGradient>
<linearGradient id="paint7_linear" x1="11634.4" y1="2216.41" x2="11495.6" y2="4727.38" gradientUnits="userSpaceOnUse">
<stop offset="0.01"/>
<stop offset="0.13" stop-opacity="0.69"/>
<stop offset="1" stop-opacity="0"/>
</linearGradient>
<linearGradient id="paint8_linear" x1="161.62" y1="81.09" x2="168.89" y2="147.97" gradientUnits="userSpaceOnUse">
<stop offset="0.02" stop-color="white" stop-opacity="0"/>
<stop offset="0.32" stop-color="white" stop-opacity="0.39"/>
<stop offset="0.68" stop-color="white" stop-opacity="0.68"/>
<stop offset="1" stop-color="white"/>
</linearGradient>
<linearGradient id="paint9_linear" x1="3662.83" y1="885.456" x2="3690.39" y2="1467.8" gradientUnits="userSpaceOnUse">
<stop offset="0.01"/>
<stop offset="0.13" stop-opacity="0.69"/>
<stop offset="1" stop-opacity="0"/>
</linearGradient>
<linearGradient id="paint10_linear" x1="4905.38" y1="838.263" x2="4933.52" y2="1426.92" gradientUnits="userSpaceOnUse">
<stop offset="0.02" stop-color="white" stop-opacity="0"/>
<stop offset="0.32" stop-color="white" stop-opacity="0.39"/>
<stop offset="0.68" stop-color="white" stop-opacity="0.68"/>
<stop offset="1" stop-color="white"/>
</linearGradient>
<linearGradient id="paint11_linear" x1="4614.25" y1="857.026" x2="4647.37" y2="1446.54" gradientUnits="userSpaceOnUse">
<stop offset="0.01"/>
<stop offset="0.13" stop-opacity="0.69"/>
<stop offset="1" stop-opacity="0"/>
</linearGradient>
<linearGradient id="paint12_linear" x1="3249.4" y1="903.999" x2="3276.96" y2="1486.43" gradientUnits="userSpaceOnUse">
<stop offset="0.02" stop-color="white" stop-opacity="0"/>
<stop offset="0.32" stop-color="white" stop-opacity="0.39"/>
<stop offset="0.68" stop-color="white" stop-opacity="0.68"/>
<stop offset="1" stop-color="white"/>
</linearGradient>
<linearGradient id="paint13_linear" x1="4489.68" y1="848.196" x2="4517.24" y2="1430.54" gradientUnits="userSpaceOnUse">
<stop offset="0.01"/>
<stop offset="0.13" stop-opacity="0.69"/>
<stop offset="1" stop-opacity="0"/>
</linearGradient>
<linearGradient id="paint14_linear" x1="2836.04" y1="922.629" x2="2863.6" y2="1505.06" gradientUnits="userSpaceOnUse">
<stop offset="0.01"/>
<stop offset="0.13" stop-opacity="0.69"/>
<stop offset="1" stop-opacity="0"/>
</linearGradient>
<linearGradient id="paint15_linear" x1="5563.3" y1="3171.84" x2="7834.77" y2="3171.84" gradientUnits="userSpaceOnUse">
<stop offset="0.02" stop-color="white" stop-opacity="0"/>
<stop offset="0.32" stop-color="white" stop-opacity="0.39"/>
<stop offset="0.68" stop-color="white" stop-opacity="0.68"/>
<stop offset="1" stop-color="white"/>
</linearGradient>
<linearGradient id="paint16_linear" x1="7331.61" y1="3185.32" x2="9486.42" y2="3185.32" gradientUnits="userSpaceOnUse">
<stop offset="0.02" stop-color="white" stop-opacity="0"/>
<stop offset="0.32" stop-color="white" stop-opacity="0.39"/>
<stop offset="0.68" stop-color="white" stop-opacity="0.68"/>
<stop offset="1" stop-color="white"/>
</linearGradient>
<linearGradient id="paint17_linear" x1="9241.68" y1="3185.32" x2="11396.5" y2="3185.32" gradientUnits="userSpaceOnUse">
<stop offset="0.02" stop-color="white" stop-opacity="0"/>
<stop offset="0.32" stop-color="white" stop-opacity="0.39"/>
<stop offset="0.68" stop-color="white" stop-opacity="0.68"/>
<stop offset="1" stop-color="white"/>
</linearGradient>
<linearGradient id="paint18_linear" x1="7956.97" y1="3696.59" x2="6382.58" y2="3060.66" gradientUnits="userSpaceOnUse">
<stop offset="0.01"/>
<stop offset="0.13" stop-opacity="0.69"/>
<stop offset="1" stop-opacity="0"/>
</linearGradient>
<linearGradient id="paint19_linear" x1="6143.37" y1="3545.92" x2="6155.87" y2="4147.54" gradientUnits="userSpaceOnUse">
<stop offset="0.01"/>
<stop offset="0.13" stop-opacity="0.69"/>
<stop offset="1" stop-opacity="0"/>
</linearGradient>
<linearGradient id="paint20_linear" x1="4657.17" y1="8679.39" x2="7421.3" y2="8679.39" gradientUnits="userSpaceOnUse">
<stop offset="0.02" stop-color="white" stop-opacity="0"/>
<stop offset="0.32" stop-color="white" stop-opacity="0.39"/>
<stop offset="0.68" stop-color="white" stop-opacity="0.68"/>
<stop offset="1" stop-color="white"/>
</linearGradient>
<linearGradient id="paint21_linear" x1="2867.39" y1="10358.6" x2="5035.23" y2="10358.6" gradientUnits="userSpaceOnUse">
<stop offset="0.02" stop-color="white" stop-opacity="0"/>
<stop offset="0.32" stop-color="white" stop-opacity="0.39"/>
<stop offset="0.68" stop-color="white" stop-opacity="0.68"/>
<stop offset="1" stop-color="white"/>
</linearGradient>
<linearGradient id="paint22_linear" x1="174.04" y1="180.53" x2="190.78" y2="180.53" gradientUnits="userSpaceOnUse">
<stop stop-color="#E5C5D5"/>
<stop offset="0.42" stop-color="#EAD4D1"/>
<stop offset="1" stop-color="#F0E9CB"/>
</linearGradient>
<linearGradient id="paint23_linear" x1="208.03" y1="193.97" x2="222.95" y2="250.74" gradientUnits="userSpaceOnUse">
<stop stop-opacity="0"/>
<stop offset="0.99"/>
</linearGradient>
<linearGradient id="paint24_linear" x1="14055.6" y1="-27111.8" x2="14648" y2="-27349.9" gradientUnits="userSpaceOnUse">
<stop stop-color="#E5C5D5"/>
<stop offset="0.42" stop-color="#EAD4D1"/>
<stop offset="1" stop-color="#F0E9CB"/>
</linearGradient>
<linearGradient id="paint25_linear" x1="3386.32" y1="1822.21" x2="3589.38" y2="1822.21" gradientUnits="userSpaceOnUse">
<stop stop-color="#E5C5D5"/>
<stop offset="0.42" stop-color="#EAD4D1"/>
<stop offset="1" stop-color="#F0E9CB"/>
</linearGradient>
<linearGradient id="paint26_linear" x1="20142.6" y1="6314.85" x2="20247.7" y2="9169.02" gradientUnits="userSpaceOnUse">
<stop offset="0.01"/>
<stop offset="0.13" stop-opacity="0.69"/>
<stop offset="1" stop-opacity="0"/>
</linearGradient>
<linearGradient id="paint27_linear" x1="3635.13" y1="5133.23" x2="3000.74" y2="5287.44" gradientUnits="userSpaceOnUse">
<stop offset="0.01"/>
<stop offset="0.13" stop-opacity="0.69"/>
<stop offset="1" stop-opacity="0"/>
</linearGradient>
<linearGradient id="paint28_linear" x1="4103.49" y1="3072.63" x2="3590.91" y2="3292.45" gradientUnits="userSpaceOnUse">
<stop offset="0.01"/>
<stop offset="0.13" stop-opacity="0.69"/>
<stop offset="1" stop-opacity="0"/>
</linearGradient>
<linearGradient id="paint29_linear" x1="3197.91" y1="3391.35" x2="3060.32" y2="3743.8" gradientUnits="userSpaceOnUse">
<stop offset="0.01"/>
<stop offset="0.13" stop-opacity="0.69"/>
<stop offset="1" stop-opacity="0"/>
</linearGradient>
<linearGradient id="paint30_linear" x1="3110.99" y1="3989.21" x2="2973.26" y2="4341.66" gradientUnits="userSpaceOnUse">
<stop offset="0.01"/>
<stop offset="0.13" stop-opacity="0.69"/>
<stop offset="1" stop-opacity="0"/>
</linearGradient>
<linearGradient id="paint31_linear" x1="4604.75" y1="4349.28" x2="4360.02" y2="4975.85" gradientUnits="userSpaceOnUse">
<stop offset="0.01"/>
<stop offset="0.13" stop-opacity="0.69"/>
<stop offset="1" stop-opacity="0"/>
</linearGradient>
<linearGradient id="paint32_linear" x1="4446.98" y1="5126.52" x2="4202.25" y2="5753.09" gradientUnits="userSpaceOnUse">
<stop offset="0.01"/>
<stop offset="0.13" stop-opacity="0.69"/>
<stop offset="1" stop-opacity="0"/>
</linearGradient>
<clipPath id="clip0">
<rect width="346.39" height="391.41" fill="white"/>
</clipPath>
</defs>
</svg>
