<svg xmlns="http://www.w3.org/2000/svg" fill="none" viewBox="0 0 49 48"><path fill="#FFD066" fill-rule="evenodd" d="M42.19 37.843c-3.075 3.698-7.43 5.639-12.075 6.052h-.014c-.224.025-.448.04-.672.05-.02.005-.038.005-.058.005-.019.02-.062.02-.08.02-.215.01-.43.02-.645.024-2.174.05-4.392-.233-6.557-.811-.024-.005-.052-.015-.076-.02-.263-.07-.525-.144-.787-.23a12.464 12.464 0 0 1-.735-.233 1.381 1.381 0 0 0-.1-.03c-.357-.124-.71-.258-1.058-.398a18.198 18.198 0 0 1-.85-.358 24.206 24.206 0 0 1-5.227-3.076c-.042-.035-.09-.07-.133-.11a3.402 3.402 0 0 1-.224-.174c-2.403-1.921-4.464-4.33-5.952-7.172-6.781-12.896 1.865-22.86 9.72-23.344.171-.01.338-.015.505-.015h.453c6.973-.368 14.574 3.649 19.878 9.119.066.065.128.13.19.199.263.269.515.547.763.826 5.676 6.316 8.256 14.23 3.735 19.675z" clip-rule="evenodd"/><path fill="#F69C93" fill-rule="evenodd" d="M33.9 43.2s-1.376.403-2.037.503c-.775.118-2.417.297-2.417.297-.177-.013-1.598.06-3.365-.089-1.135-.094-2.34-.336-3.482-.563-2.268-.452-3.874-1.397-4.1-1.413.3-1.605.155-1.396-.18-4.324-.022-.203-.265-2.18-.834-4.059-2.06-6.8-7.11-12.21-11.61-15.24-6.24-4.18-2.93-7.74 2.68-3.16 3.07 2.5 3.58 1.85 3.16.19-.06-.19-.11-.37-.16-.54-.43-1.34-1.26-3.08-1.89-4.39-1.58-3.31-2.53-5.21-3.72-6.55-1.18-1.34 2.93-2.37 5.61 1.97-1.02-4.18-1.34-6.87.79-5.45 2.13 1.43 4.19 8.14 5.06 10.9.482 1.536.671 2.462 1.095 2.567.636.157 1.314-.907 1.744-1.457 2.799-3.56 9.791-4.663 11.775-2.526.69.744.903 2.021.433 2.66-.605.821-2.041.18-3.758.422-2.712.385-5.108 2.833-6.095 5.386-1.136 2.942-.71 6.83 1.85 9.25 3.4 3.214 9.092 2.453 11.625-.036 2.888-2.839 1.867-8.124 3.656-8.394.86-.129 1.66 1.008 1.778 1.175 2.378 3.378-2.265 10.037-2.54 10.423-.967 1.36-2.739 3.428-5.774 5.17 1.19 7.67.706 7.277.706 7.277z" clip-rule="evenodd"/><path fill="#E97286" fill-rule="evenodd" d="M20.364 12.79c-.488.965-.852 1.96-1.161 2.976a27.026 27.026 0 0 0-.735 3.1c-.357 2.1-.528 4.256-.368 6.395v.014a.326.326 0 0 1-.634.13c-.372-1.091-.534-2.233-.578-3.369a16.863 16.863 0 0 1 .217-3.402c.176-1.125.482-2.236.92-3.299.444-1.058 1.05-2.068 1.862-2.892a.3.3 0 0 1 .422-.002.302.302 0 0 1 .055.35zm-8.106-6.837c.509.973.88 1.999 1.185 3.035a30.85 30.85 0 0 1 .736 3.146 39.8 39.8 0 0 1 .471 3.19c.06.534.1 1.071.13 1.612.008.564.064 1.03-.012 1.698a.29.29 0 0 1-.573.029l-.024-.114-.656-3.047-.629-3.123-.585-3.123-.518-3.141a.255.255 0 0 1 .206-.295.26.26 0 0 1 .27.133zm5.227 27.6c-2.06-6.8-7.11-12.21-11.61-15.24-6.24-4.18-2.93-7.74 2.68-3.16 3.07 2.5 3.58 1.85 3.16.19 1.53 5.11 5.2 15.86 5.77 18.21z" clip-rule="evenodd"/><path fill="#C2AFE9" fill-rule="evenodd" d="M39.371 21.158a8.846 8.846 0 1 1-17.692 0 8.846 8.846 0 0 1 17.692 0z" clip-rule="evenodd"/><path fill="#7F4FE3" fill-rule="evenodd" d="M38.084 21.212a7.485 7.485 0 1 1-14.969 0 7.485 7.485 0 0 1 14.97 0z" clip-rule="evenodd"/><path fill="#fff" fill-rule="evenodd" d="M25.339 18.748c.115-1.57.09-2.338 2.79-1.68 2.7.658 3.115 3.445.686 3.713 1.287 1.034 1.382 2.126 1.54 2.618.159.492-.966 1.144-1.376.04-.41-1.102-.96-2.611-2.507-2.46-.14 1.304-.101 1.44-.24 2.006-.14.565-1.473 1.109-1.286-.718.186-1.827.393-3.52.393-3.52zm6.301 1.51c.108-1.01 1.27-1.282 1.256-.149 2.204-1.374 3.65.152 3.332 2.387-.318 2.234-2.938 2.561-3.697 1.03-.108 1.254-.11 1.518-.171 2.091-.061.574-1.135.75-1.121-.119.013-.869.4-5.24.4-5.24z" clip-rule="evenodd"/><path fill="#7E4FE2" fill-rule="evenodd" d="M26.58 19.718l.197-1.845c2.302.43 2.504 1.006 2.442 1.343-.062.336-.522.932-2.639.502zm8.713 2.487c-.075.7-.613 1.216-1.204 1.153-.589-.063-1.007-.681-.932-1.381.074-.7.613-1.216 1.203-1.153.59.063 1.008.68.933 1.38z" clip-rule="evenodd"/></svg>