<svg xmlns="http://www.w3.org/2000/svg" fill="none" viewBox="0 0 320 180"><mask id="a" width="320" height="180" x="0" y="0" maskUnits="userSpaceOnUse"><path fill="#fff" d="M0 0h320v180H0z"/></mask><g mask="url(#a)"><path fill="#FFE8B3" fill-rule="evenodd" d="M303.64 102.041c-.027.3-.058.593-.089.893l-.012.107a79.318 79.318 0 0 1-.933 6.31 79.157 79.157 0 0 1-1.002 4.616c-.132.537-.271 1.07-.411 1.6-.104.393-.216.783-.325 1.173a78.627 78.627 0 0 1-2.168 6.474c-1.32 3.456-2.864 6.746-4.614 9.803a58.83 58.83 0 0 1-4.839 7.23c-2.229 2.833-4.656 5.33-7.258 7.403a34.777 34.777 0 0 1-3.859 2.684l-.279.166a155.692 155.692 0 0 1-7.296 4.097l-9.031 3.8-7.467 3.14c-16.785 5.29-35.788 5.966-70.425 6.05l-5.183.01c-1.011 0-2.032.003-3.07.003l-7.115.017-6.801.016-2.16.007c-3.298.027-6.569.067-9.813.11l-1.63.02c-2.93.04-5.837.083-8.721.12-.433.007-.867.01-1.301.017-3.909.05-7.772.086-11.581.093h-1.77c-.801 0-1.598-.003-2.392-.01a442.822 442.822 0 0 1-3.836-.027l-.569-.006c-2.342-.03-4.657-.077-6.948-.144-7.32-.213-14.385-.643-21.14-1.426-.56-.067-1.122-.134-1.68-.204-11.19-1.406-21.51-3.833-30.685-7.94-6.104-2.726-11.698-6.193-16.715-10.593a62.136 62.136 0 0 1-7.138-7.403c-3.306-4.043-6.26-8.67-8.833-13.957a78.607 78.607 0 0 1-1.564-3.4c-.306-.703-.6-1.403-.883-2.096-.51-1.26-.987-2.507-1.432-3.737a88.022 88.022 0 0 1-1.83-5.67 29.21 29.21 0 0 1-.19-.686 76.025 76.025 0 0 1-1.893-8.81c-1.843-12.107-.183-22.494 3.402-31.184a56.125 56.125 0 0 1 7.37-12.76 59.776 59.776 0 0 1 2.985-3.603 63.81 63.81 0 0 1 4.03-4.1c.251-.23.503-.46.754-.686 6.175-5.54 12.724-9.227 17.826-11.067a26.383 26.383 0 0 1 1.417-.477c.263-.083.519-.16.77-.23.593-.163 1.181-.326 1.781-.49.046-.013.097-.026.143-.04l.743-.2a312.32 312.32 0 0 1 16.669-3.98c2.226-.47 4.475-.923 6.747-1.353 20.919-3.996 43.564-6.45 66.039-7.336.023-.004.042-.004.065-.004a476.603 476.603 0 0 1 20.567-.376c3.875.013 7.726.073 11.547.186a433.825 433.825 0 0 1 12.313.527 370.638 370.638 0 0 1 21.937 1.883c2.114.244 4.208.51 6.275.79 9.527 1.297 18.515 2.967 26.745 5.017 1.486.367 2.938.746 4.37 1.14.321.09.639.176.96.27a146.65 146.65 0 0 1 11.458 3.697 114.068 114.068 0 0 1 2.543.976 96.311 96.311 0 0 1 8.067 3.61 55.552 55.552 0 0 1 5.385 3.12 51.667 51.667 0 0 1 7.088 5.59 50.637 50.637 0 0 1 6.696 7.733c2.826 4.014 5.04 8.37 6.689 12.94a60.381 60.381 0 0 1 1.804 5.937c.12.473.232.947.341 1.42.004.017.008.03.008.043.166.704.313 1.413.449 2.127l.116.626c.058.314.112.63.162.95.918 5.474 1.173 11.08.84 16.637-.054.94-.127 1.88-.22 2.817z" clip-rule="evenodd"/><mask id="b" width="318" height="144" x="-14" y="24" maskUnits="userSpaceOnUse"><path fill="#fff" fill-rule="evenodd" d="M303.64 102.041c-.027.3-.058.593-.089.893l-.012.107a79.318 79.318 0 0 1-.933 6.31 79.157 79.157 0 0 1-1.002 4.616c-.132.537-.271 1.07-.411 1.6-.104.393-.216.783-.325 1.173a78.627 78.627 0 0 1-2.168 6.474c-1.32 3.456-2.864 6.746-4.614 9.803a58.83 58.83 0 0 1-4.839 7.23c-2.229 2.833-4.656 5.33-7.258 7.403a34.767 34.767 0 0 1-3.859 2.683c-.093.057-.186.11-.279.167a155.692 155.692 0 0 1-7.296 4.097l-9.031 3.8-7.468 3.14c-16.784 5.29-35.787 5.966-70.424 6.05l-5.183.01c-1.011 0-2.032.003-3.07.003l-7.115.017-6.801.016-2.16.007c-3.298.027-6.569.067-9.813.11l-1.63.02c-2.93.04-5.837.083-8.721.12-.433.007-.867.01-1.301.017-3.909.05-7.772.086-11.581.093h-1.77c-.801 0-1.598-.003-2.392-.01a442.822 442.822 0 0 1-3.836-.027l-.569-.006c-2.342-.03-4.657-.077-6.948-.144-7.32-.213-14.385-.643-21.14-1.426-.561-.067-1.122-.134-1.68-.204-11.19-1.406-21.51-3.833-30.685-7.94-6.104-2.726-11.698-6.193-16.715-10.593a62.15 62.15 0 0 1-7.138-7.403c-3.306-4.043-5.782-6.98-8.357-12.267-6.186 4.222-24.482 2.94-24.482 2.94s-3.896-32.552-4.179-33.245c-.511-1.26-7.936 5.81-3.724-4.204s-5.283-12.254-5.342-12.46C-17.112 65.56 2.473 73.74 2 72.084c-.066-.23-14.638-11.95-14.7-12.18-.747-2.7 9.488 1.194 9.066-1.36-.054-.313-1.974-12.838-2.016-13.148-1.843-12.106 7.51-2.888 11.094-11.578 1.963-4.763 12.06.956 14.928-2.787.964-1.26 9.118 24.457 10.144 23.313a63.808 63.808 0 0 1 4.03-4.1c.251-.23.503-.46.754-.686 6.175-5.54 12.724-9.227 17.826-11.067a26.684 26.684 0 0 1 1.417-.477c.263-.083.519-.16.77-.23.593-.163 1.18-.326 1.78-.49.047-.013.098-.026.144-.04l.743-.2a312.32 312.32 0 0 1 16.669-3.98c2.226-.47 4.475-.923 6.747-1.353 20.919-3.996 43.564-6.45 66.039-7.336.023-.004.042-.004.065-.004a476.603 476.603 0 0 1 20.567-.376c3.875.013 7.726.073 11.547.186a433.739 433.739 0 0 1 12.313.527 370.724 370.724 0 0 1 21.937 1.883c2.114.244 4.208.51 6.275.79 9.527 1.297 18.515 2.967 26.745 5.017 1.486.367 2.938.746 4.37 1.14.321.09.639.176.96.27a146.65 146.65 0 0 1 11.458 3.697c.627.233 1.25.47 1.862.71a96.344 96.344 0 0 1 8.748 3.877 55.53 55.53 0 0 1 5.385 3.12 51.667 51.667 0 0 1 7.088 5.589 50.637 50.637 0 0 1 6.696 7.733c2.826 4.014 5.04 8.37 6.689 12.94a60.381 60.381 0 0 1 1.804 5.937c.12.473.232.947.341 1.42.004.016.008.03.008.043.166.703.313 1.413.449 2.127l.116.626c.058.314.112.63.162.95.918 5.474 1.173 11.08.84 16.637-.054.94-.127 1.88-.22 2.817z" clip-rule="evenodd"/></mask><g fill-rule="evenodd" clip-rule="evenodd" mask="url(#b)"><path fill="#FFD066" d="M209.78 9.485c-.381 37.33 1.824 74.271 1.824 74.271 42.07.848 86.346 0 86.346 0-.963-50.122 0-74.27 0-74.27-50.051-1.337-88.17 0-88.17 0z"/><path fill="#fff" d="M202.867 78.865c42.071.848 86.346 0 86.346 0-.962-50.122 0-74.27 0-74.27-50.05-1.338-88.169 0-88.169 0-.381 37.33 1.823 74.27 1.823 74.27z"/><path fill="#FFE8B3" d="M203.415 14.386c-.25 21.243 1.999 56.5 1.999 56.5 17.995.731 74.477 1.353 74.477 1.353.5-21.615 0-58.898 0-58.898l-76.476 1.045z"/><path fill="#FFF2EC" d="M208.502 16.477c-.223 18.757 1.782 49.887 1.782 49.887 16.041.646 66.39 1.195 66.39 1.195.446-19.085 0-52.005 0-52.005l-68.172.923z"/><path fill="#FFD066" d="M54.5 147.025c-14.345-10.582-31.9-15.632-43.033-16.192-11.132-.559-13.577-24.95 12.552-19.128 26.128 5.823 30.48 35.32 30.48 35.32zM38.776 94.314C27.52 68.939-3.181 64.093 7.766 50.565c10.947-13.527 29.738 15.26 31.01 43.749zm19.645 45.327c2.747-28.09 37.238-78.325 35.57-55.798-1.666 22.526-36.89 69.308-35.57 55.798z"/><path fill="#FFD066" d="M46.906 149.998c-4.736-53.326-6.128-93.997 9.966-84.334 16.095 9.664 1.48 58.685-9.966 84.334z"/><path fill="#FFD066" d="M56.848 134.067C43.023 89.95 1.21 58.765 2.01 85.85c.801 27.085 29.22 14.126 54.837 48.217zm10.03-32.555c2.845-14.352 1.992-29.588 0-38.47-1.992-8.884 10.887-17.985 13.087 4.192 2.2 22.178-13.087 34.278-13.087 34.278z"/><path fill="#FFB000" d="M8.189 121.247c1.338-.737 2.768-1.265 4.212-1.718a35.424 35.424 0 0 1 4.415-1.033 40.079 40.079 0 0 1 9.063-.473c3.034.193 6.095.704 9.006 1.829a17.73 17.73 0 0 1 2.129.985c.343.191.69.372 1.019.594.335.207.66.429.97.679 1.256.955 2.364 2.155 3.077 3.553a.52.52 0 0 1-.844.589l-.009-.011c-1.912-2.071-4.47-3.236-7.152-3.951-2.69-.718-5.516-1.025-8.354-1.147a62.243 62.243 0 0 0-4.278-.023c-1.43.03-2.861.1-4.295.192a104.34 104.34 0 0 0-8.624.91l-.007.001a.523.523 0 0 1-.328-.976zm5.204-33.69c3.22 1.648 6.311 3.517 9.326 5.507a107.128 107.128 0 0 1 8.736 6.44c2.803 2.301 5.495 4.771 7.92 7.534 1.208 1.383 2.35 2.841 3.34 4.421.974 1.577 1.834 3.303 2.182 5.185a.518.518 0 0 1-.977.316l-.012-.026c-.733-1.546-1.717-2.958-2.855-4.272-1.122-1.322-2.342-2.576-3.604-3.793-2.53-2.432-5.22-4.731-7.95-6.993-2.735-2.26-5.522-4.474-8.32-6.691-2.793-2.226-5.609-4.436-8.357-6.77a.518.518 0 0 1 .57-.858zm38.927 28.521c-.206-.83-.385-1.67-.565-2.514-.126-.844-.25-1.691-.363-2.541a65.602 65.602 0 0 1-.36-5.097c-.122-3.4-.019-6.792.209-10.168.225-3.377.547-6.743 1.01-10.09.454-3.35.987-6.684 1.738-9.992a.517.517 0 0 1 1.021.131v.005c-.115 3.366-.31 6.723-.508 10.073l-.59 10.036-.27 5.008c-.062 1.667-.17 3.336-.217 5-.117 3.331-.23 6.659-.087 9.984v.018a.517.517 0 0 1-1.017.147zM38.273 95.982a260.641 260.641 0 0 0-4.486-10.127c-1.558-3.327-3.145-6.64-4.833-9.903-1.695-3.257-3.481-6.47-5.426-9.565-.976-1.543-1.994-3.056-3.096-4.485-.271-.365-.565-.697-.847-1.05-.302-.322-.582-.684-.899-.985-.617-.629-1.276-1.223-2.011-1.61l-.023-.012a.517.517 0 0 1 .356-.962c1.035.237 1.92.754 2.732 1.31.422.272.794.581 1.185.884.362.32.751.628 1.092.968 1.416 1.328 2.68 2.778 3.862 4.279 2.356 3.01 4.398 6.224 6.223 9.547 1.817 3.328 3.445 6.764 4.704 10.351a52.044 52.044 0 0 1 1.621 5.47c.432 1.856.76 3.748.852 5.665a.523.523 0 0 1-1.005.228l-.001-.003z"/><path fill="#CC3C00" d="M66.439 101.243l2.76-7.503c.89-2.488 1.79-4.962 2.54-7.479.751-2.514 1.392-5.057 1.804-7.63.41-2.571.614-5.168.345-7.788v-.007a.52.52 0 0 1 1-.242c.512 1.308.818 2.696.984 4.089.18 1.395.203 2.801.145 4.198-.126 2.794-.629 5.542-1.343 8.213-.723 2.668-1.639 5.281-2.848 7.759-.6 1.24-1.264 2.45-2.007 3.613-.745 1.162-1.556 2.289-2.501 3.314a.524.524 0 0 1-.88-.537z"/><path fill="#FFB000" d="M75.705 113.737c-.165-.79-.148-1.576-.075-2.33.077-.757.224-1.491.413-2.207.371-1.435.953-2.778 1.534-4.108a94.061 94.061 0 0 1 1.84-3.935 151.135 151.135 0 0 1 1.997-3.839c.675-1.273 1.394-2.52 2.117-3.765a104.17 104.17 0 0 1 2.241-3.692 88.786 88.786 0 0 1 2.39-3.607c.414-.593.845-1.175 1.288-1.755.223-.29.454-.574.698-.858.124-.142.247-.282.388-.426.067-.07.147-.145.23-.219.055-.043.09-.076.162-.125a1.78 1.78 0 0 1 .125-.076.427.427 0 0 1 .056-.025.827.827 0 0 1 .254-.052.515.515 0 0 1 0 1.03.293.293 0 0 0 .157-.023c.02-.01.03-.016.027-.012.005.002.01.001.014 0a.389.389 0 0 1-.039.051l-.13.178a8.722 8.722 0 0 0-.274.418c-.182.292-.354.597-.531.9-.352.61-.686 1.235-1.023 1.86-.677 1.247-1.322 2.516-1.98 3.777l-1.93 3.805-1.886 3.824a176.559 176.559 0 0 0-1.823 3.844 147.124 147.124 0 0 0-1.738 3.864c-.56 1.292-1.059 2.6-1.647 3.859-.577 1.269-1.2 2.49-1.83 3.747l-.015.029a.54.54 0 0 1-1.01-.132z"/><path fill="#3D3450" d="M86.3 121.201c-22.12-19.045-54.45-12.38-65.68 15.086-11.23 27.467 5.445 57.414 10.21 58.435 4.764 1.021 79.633-22.487 55.47-73.521z"/><path fill="#6B608A" d="M77.686 117.042c-4.236-1.118-8.604-1.689-12.958-1.789-4.354-.084-8.714.337-12.905 1.415a38.96 38.96 0 0 0-11.794 5.179c-3.59 2.384-6.758 5.387-9.382 8.813-2.61 3.439-4.672 7.29-6.18 11.348a50.457 50.457 0 0 0-1.804 6.242c-.106.531-.238 1.058-.325 1.594l-.274 1.605c-.141 1.076-.29 2.152-.368 3.237-.168 2.165-.247 4.344-.142 6.519.1 2.175.324 4.345.662 6.501a59.239 59.239 0 0 0 1.447 6.389 67.458 67.458 0 0 0 2.185 6.194l-.313.14a57.364 57.364 0 0 1-2.474-6.147 60.194 60.194 0 0 1-1.699-6.421c-.853-4.352-1.176-8.822-.886-13.266.06-1.112.191-2.218.316-3.325l.25-1.653c.08-.551.204-1.095.304-1.644a48.166 48.166 0 0 1 1.77-6.452c1.504-4.204 3.59-8.221 6.3-11.796 2.713-3.563 5.99-6.726 9.757-9.178a38.29 38.29 0 0 1 5.933-3.166 40.487 40.487 0 0 1 6.38-2.081c4.358-1.023 8.85-1.34 13.284-1.078 2.218.131 4.422.412 6.598.826 2.176.407 4.33.94 6.42 1.666l-.102.328z"/><path fill="#3D3450" d="M246.528 116.172c22.12-19.045 54.45-12.381 65.681 15.086 11.23 27.466-5.446 57.414-10.21 58.435-4.765 1.021-79.634-22.487-55.471-73.521z"/><path fill="#6B608A" d="M252.439 109.733c2.09-.726 4.243-1.259 6.419-1.666a51.78 51.78 0 0 1 6.599-.827c4.432-.261 8.926.056 13.283 1.079a40.408 40.408 0 0 1 6.381 2.081 38.268 38.268 0 0 1 5.932 3.165c3.768 2.452 7.045 5.616 9.758 9.179 2.709 3.575 4.795 7.592 6.3 11.796a48.197 48.197 0 0 1 1.77 6.452c.1.548.224 1.092.304 1.644l.249 1.653c.126 1.107.257 2.213.316 3.325.291 4.444-.033 8.914-.886 13.265a60.126 60.126 0 0 1-1.699 6.422 57.467 57.467 0 0 1-2.473 6.146l-.314-.14a67.32 67.32 0 0 0 2.185-6.193 59.51 59.51 0 0 0 1.447-6.389c.338-2.156.563-4.327.663-6.501.104-2.176.025-4.355-.143-6.52-.078-1.084-.226-2.16-.368-3.237l-.273-1.604c-.087-.536-.219-1.063-.326-1.595a50.304 50.304 0 0 0-1.804-6.241c-1.508-4.059-3.57-7.909-6.18-11.349-2.624-3.425-5.792-6.429-9.382-8.812a38.962 38.962 0 0 0-11.793-5.18c-4.191-1.077-8.552-1.499-12.906-1.414-4.354.1-8.722.67-12.957 1.789l-.102-.328z"/></g><mask id="c" width="288" height="169" x="16" y="-1" maskUnits="userSpaceOnUse"><path fill="#fff" fill-rule="evenodd" d="M303.64 102.041c-.027.3-.058.593-.089.893l-.012.107a79.318 79.318 0 0 1-.933 6.31 79.157 79.157 0 0 1-1.002 4.616c-.132.537-.271 1.07-.411 1.6-.104.393-.216.783-.325 1.173a78.627 78.627 0 0 1-2.168 6.474c-1.32 3.456-2.864 6.746-4.614 9.803a58.83 58.83 0 0 1-4.839 7.23c-2.229 2.833-4.656 5.33-7.258 7.403a34.777 34.777 0 0 1-3.859 2.684l-.279.166a154.792 154.792 0 0 1-7.296 4.097l-9.031 3.8-7.467 3.14c-16.785 5.29-35.788 5.966-70.425 6.05l-5.183.01c-1.011 0-2.032.003-3.07.003l-7.115.017-6.801.016-2.16.007c-3.298.027-6.569.067-9.813.11l-1.63.02c-2.93.04-5.837.083-8.721.12-.433.007-.867.01-1.301.017-3.909.05-7.772.086-11.581.093h-1.77c-.801 0-1.598-.003-2.392-.01a442.822 442.822 0 0 1-3.836-.027l-.569-.006c-2.342-.03-4.657-.077-6.948-.144-7.32-.213-14.385-.643-21.14-1.426-.56-.067-1.122-.134-1.68-.204-11.19-1.406-21.51-3.833-30.685-7.94-6.104-2.726-11.698-6.193-16.715-10.593a62.136 62.136 0 0 1-7.138-7.403c-3.306-4.043-6.26-8.67-8.833-13.957a78.607 78.607 0 0 1-1.564-3.4c-.306-.703-.6-1.403-.883-2.096-.51-1.26-.987-2.507-1.432-3.737a88.022 88.022 0 0 1-1.83-5.67 29.21 29.21 0 0 1-.19-.686 76.025 76.025 0 0 1-1.893-8.81c-1.843-12.107-.183-22.494 3.402-31.184a56.125 56.125 0 0 1 7.37-12.76 59.776 59.776 0 0 1 2.985-3.603 63.81 63.81 0 0 1 4.03-4.1c.251-.23.503-.46.754-.686 6.175-5.54-4.402-37.348.7-39.188.256-.093 16.316.083 16.568 0 .22-.073 5.846.067 6.06 0 .262-.083 14.603 2.27 14.855 2.2.592-.163 13.84.163 14.44 0 .046-.013 6.164 2.006 6.21 1.993.248-.067 69.37-20.963 16.609 3.535-4.569 2.122 1.796 1.15 7.517-.056 2.226-.47 4.662.486 6.934.056l2.007 1.783c20.915-3.996-2.24 5.39 20.235 4.504.023-.004.042-.004.065-.004a476.602 476.602 0 0 1 20.567-.376c3.875.013.264-13.748 4.085-13.635 3.403.1 13.515-9.547 16.86-9.37.731.037 29.653-1.043 30.381-1 7.517.427 12.743 6.945 19.823 7.772 2.113.243 7.079 9.99 9.146 10.27 9.526 1.297 1.345 8.13 9.575 10.18 1.486.366 23.864 3.34 11.446 3.07-12.418-.27-4.187 2.802-3.866 2.896 4.042 1.13 8.746 1.679 12.334 3.009.627.233-12.929.787-12.317 1.027a96.311 96.311 0 0 1 8.748 3.877 55.572 55.572 0 0 1 5.385 3.12 51.66 51.66 0 0 1 7.088 5.59 50.632 50.632 0 0 1 6.696 7.733c2.826 4.014 5.04 8.37 6.689 12.94a60.381 60.381 0 0 1 1.804 5.937c.12.473.232.947.341 1.42.004.017.008.03.008.043.166.704.313 1.413.449 2.127l.116.627c.058.313.112.63.162.95.918 5.473 1.173 11.08.84 16.636-.054.94-.127 1.88-.22 2.817z" clip-rule="evenodd"/></mask><g mask="url(#c)"><path fill="#E97286" fill-rule="evenodd" d="M42.579 134.349c2.57 18.284 13.553 38.957 19.16 44.16 23.392-9.311 25.779-4.846 20.835-19.567-4.944-14.721-29.48-33.063-39.995-24.593zm93.903-10.087c7.273 8.548 20.125 21.88 26.628 23.16 12.428-14.343-6.802-33.764-14.021-40.618-7.22-6.854-12.607 17.458-12.607 17.458z" clip-rule="evenodd"/><path fill="#7E4EE3" fill-rule="evenodd" d="M130.928 125.832c3.409 19.236 7.547 43.099 6.818 45.045-51.615 1.39-53.8 5.093-65.043-18.654a458.91 458.91 0 0 1-1.835-3.927c-15.91 1.399-28.571 8.217-28.571 8.217-7.062-23.863-8.28-45.778-3.168-52.595C44.244 97.1 75.736 76.97 89.695 71.452c13.962-5.521 35.845-10.148 64.713 36.118-10.577 15.827-19.342 23.618-19.342 23.618-2.679-3.653-4.138-5.356-4.138-5.356z" clip-rule="evenodd"/><path fill="#5D33BA" fill-rule="evenodd" d="M130.927 125.831c-6.631-33.74 6.46-55.709 2.699-17.039 5.416-13.241 6.386-8.345-2.699 17.039zm-57.444 17.363c-7.234-7.375-22.269-19.368-26.098-20.322 9.503-.528 16.169 6.422 16.169 6.422-8.227-11.914-6.95-16.879.993-5.532 7.943 11.347 7.517 15.036 8.936 19.432z" clip-rule="evenodd"/><path fill="#5D33BA" fill-rule="evenodd" d="M56.865 115.527c2.979.731 6.525 3.71 9.645 9.099-3.688-7.8-3.12-9.831-9.645-9.099zm15.838 36.696a453.863 453.863 0 0 1-1.835-3.927c6.706-.245 6.564 1.234 1.835 3.927zm51.686-14.908c-1.403 18.891-7.279 20.856-7.279 20.856 2.787-14.879-11.249-19.651-23.322 18.53 13.191-11.865 25.315-2.246 29.222-14.599 3.906-12.352 1.379-24.787 1.379-24.787z" clip-rule="evenodd"/><path fill="#5D33BA" fill-rule="evenodd" d="M125.193 134.349c2.075 8.679 2.13 22.873 0 27.604 5.755-7.184 4.934-11.401 0-27.604zm-18.28 14.667c3.138-2.689 8.627-5.094 10.197-1.594-2.129-5.353-9.973-2.216-10.197 1.594z" clip-rule="evenodd"/><path fill="#C2AFE9" fill-rule="evenodd" d="M65.468 92.634c1.231 2.581 2.824 4.966 4.507 7.27a88.267 88.267 0 0 0 2.623 3.382 113.557 113.557 0 0 0 2.785 3.247c3.82 4.22 7.963 8.192 12.607 11.362a34.038 34.038 0 0 0 3.6 2.122c1.23.63 2.507 1.144 3.805 1.472 1.297.332 2.616.451 3.864.256a6.312 6.312 0 0 0 3.326-1.661c.483-.421.887-.946 1.279-1.481.176-.284.359-.565.527-.858.153-.303.322-.597.463-.909a20.78 20.78 0 0 0 1.356-3.941c.332-1.369.614-2.764.794-4.18.213-1.412.343-2.84.478-4.273v-.002a.165.165 0 1 1 .33.007c.16 2.885.096 5.801-.384 8.703-.245 1.448-.593 2.898-1.157 4.3-.559 1.397-1.331 2.766-2.455 3.904-1.104 1.151-2.625 1.957-4.21 2.271a10.3 10.3 0 0 1-2.383.166 13.207 13.207 0 0 1-2.305-.356c-2.998-.733-5.634-2.209-8.063-3.865-2.435-1.664-4.676-3.558-6.772-5.584a75.085 75.085 0 0 1-3.059-3.117 87.161 87.161 0 0 1-2.852-3.297 67.805 67.805 0 0 1-2.665-3.445 64.328 64.328 0 0 1-2.446-3.601c-1.538-2.456-2.962-5.015-3.9-7.77a.165.165 0 0 1 .305-.125l.002.003z" clip-rule="evenodd"/><path fill="#FFB0A8" fill-rule="evenodd" d="M149.039 95.225v.004c-.492.903-4.67 2.576-14.497 5.266 6.408 8.9 4.63 18.51-.357 19.579-4.982 1.069-12.457 4.462-19.222 4.188-1.772 2.917-3.191 7.639-4.33 13.048v.003c-3.194 15.203-4.151 35.825-4.481 37.023-1.386 0-2.726-.066-4.016-.185-10.065-.917-17.005-4.953-17.005-4.953 5.626-53.397 28.41-70.838 45.141-73.33 9.583-1.428 18.12-2.036 18.777-.956v.003c.056.092.052.194-.01.31zM69.567 76.402c-11.931 1.461-7.305 21.184 13.149 14.367 18.749 10.957 43.585 7.52 39.933-12.311-3.653-19.83-25.08-45.398-35.794-47.345-10.714-1.948-27.028-1.948-29.463 11.687-2.434 13.636 3.896 21.671 12.175 33.602z" clip-rule="evenodd"/><path fill="#FFB0A8" fill-rule="evenodd" d="M108.526 91.743s-6.818 7.06-7.548 9.983c8.279 13.635-6.897 31.167-30.111-9.983 17.45-20.454 35.959-4.607 37.659 0z" clip-rule="evenodd"/><path fill="#E97286" fill-rule="evenodd" d="M70.867 91.743c5.607 1.774 13.474-.325 14.264-.955 4.987 6.507 18.845 6.13 18.845 6.13-2.103 12.972-11.448 20.412-18.845.004-9.497-1.516-9.376-.446-14.264-5.18zm5.642-8.896c-8.323-6.386-13.6 2.119-5.642 5.126 7.957 3.007 7.78-3.485 5.642-5.126z" clip-rule="evenodd"/><path fill="#fff" fill-rule="evenodd" d="M90.055 65.868c-5.097-8.822-13.536-.615-9.475 5.66 4.06 6.276 12.674-.123 9.475-5.66zm7.963-8.473c-4.218-6.328 4.373-11.66 7.531-5.223 3.158 6.438-3.887 10.689-7.531 5.223z" clip-rule="evenodd"/><path fill="#E97286" fill-rule="evenodd" d="M101.962 68.862c3.674-6.196 6.167-8.13 7.327-2.165 1.161 5.965-1.542 5.843-4.19 6.196-2.649.352-5.76.393-3.137-4.031z" clip-rule="evenodd"/><path fill="#231E2F" fill-rule="evenodd" d="M97.01 63.404c.873.107 1.687.343 2.489.602.798.268 1.573.585 2.335.928.764.338 1.517.703 2.261 1.082l2.212 1.167.018.01a.168.168 0 0 1-.076.315c-.907.013-1.745-.204-2.572-.417a22.604 22.604 0 0 1-2.408-.828 19.567 19.567 0 0 1-2.29-1.085c-.736-.422-1.455-.878-2.108-1.474a.173.173 0 0 1 .138-.3zm16.651 18.136c-2.452-7.872-9.347-.1-9.119 5.518.229 5.618 3.295-4.852 9.119-5.519zM82.2 59.013c-7.049-4.157-10.501 4.538-9.636 8.034 3.607-6.212 9.636-8.034 9.636-8.034zm10.176-9.703c-2.523-6.697 2.578-8.675 6.129-7.515-4.142 1.977-6.129 7.514-6.129 7.514zm-9.193 19.747c-1.497-4.39 5.72-6.742 6.64-1.941.918 4.801-5.108 6.435-6.64 1.941zm22.521-15.428c.908 4.739-5.041 6.352-6.554 1.916-1.477-4.333 5.647-6.656 6.554-1.916z" clip-rule="evenodd"/><path fill="#3D3450" fill-rule="evenodd" d="M98.569 40.719a2.06 2.06 0 0 0-.053-.32c-.538-2.66-4.238-4.99-8.818-5.112l.017.02c.435.567 1.04 1.419 1.465 2.663.94 2.769.983 7.481-3.759 15.286 2.165-8.785-5.788-15.748-8.613-16.042-2.524-.264-9.89 2.44-11.54 9.422-.003.006-.003.016-.007.026a12.383 12.383 0 0 0-.323 2.647c2.683 6.379-.442 8.55-1.848 11.15-.723 1.34-.99 2.792.224 4.99 3.578 6.475 7.792 7.399 14.194 15.075-.175-.13-6.71-4.927-12.57-3.403-8.257-1.68-5.937-5.32-8.567-10.236a7.155 7.155 0 0 0-.867-1.327c-1.357-1.683-2.918-2.237-4.416-2.716-1.175-.376-2.31-.706-3.27-1.502-1.98-1.633-2.185-4.365-2.36-6.738-.277-3.742.812-7.3 2.475-10.543-1.977-.198-4.462-.865-7.17-2.575 2.124.215 6.533-1.36 11.655-4.266 0-.004.003-.004.003-.004.838-1.079 1.67-2.088 2.445-3.026 2-2.415 3.947-4.775 5.967-6.913a.062.062 0 0 0 .023-.026 58.357 58.357 0 0 1 1.254-1.281l.003-.003c4.089-4.052 8.564-7.079 14.405-7.745 3.135-.357 5.758-.165 7.943.478 4.791 1.403 7.464 4.95 8.745 9.524 2.577 1.168 3.897 2.904 3.362 12.497z" clip-rule="evenodd"/><path fill="#231E2F" fill-rule="evenodd" d="M45.704 52.544c-.49 4.903.49 10.255 4.085 11.01-8.17-.06-5.948-9.711-4.085-11.01zm33.104-15.33c-2.825-.294-11.708 3.122-11.87 12.095-1.92-12.943 3.095-14.893 11.87-12.095zm2.554-5.725c.063-.027.158-.05.28-.063l-.28.063zm17.207 9.23c-.297-2.788-4.109-5.306-8.87-5.432-4.106-3.438-7.033-3.96-8.043-3.86 9.956-2.106 16.912 4.672 16.912 9.292z" clip-rule="evenodd"/><path stroke="#231E2F" stroke-linecap="round" stroke-width=".99" d="M79.936 63.083c-2.76 2.171-2.519 6.215-1.292 8.526M96.876 49.31c1.313-1.926 5.379-3.788 7.871-.322"/><path fill="#231E2F" fill-rule="evenodd" d="M79.508 80.523c-.175-.128-6.71-4.926-12.57-3.402-8.257-1.68-5.937-5.32-8.567-10.236a7.153 7.153 0 0 0-.868-1.327c-1.356-1.683-2.917-2.237-4.415-2.716 2.887.449 6.118 3.456 6.21 1.06 0 0 .096 1.56 2.604 3.445 0 0 .654-2.812 3.188-6.887-.723 1.34-.99 2.791.224 4.99 3.578 6.474 7.792 7.398 14.194 15.073zM75.075 36.29c-7.098-3.364-11.085 1.158-11.584 4.429 1.794-3.308 7.177-5.593 10.367-3.503.897.195 1.217-.927 1.217-.927zM55.14 40.719c-2.956 5.904-7.612 6.5-7.682 13.883-.277-3.742.812-7.3 2.475-10.543 2.663-.558 5.208-3.34 5.208-3.34zm40.066-12.497c-10.415-2.244-.37-4.023-8.745-9.524 4.791 1.403 7.464 4.95 8.745 9.524zm-32.373-.947c-2.891 3.346-5.494 8.646-8.412 9.94.838-1.08 1.67-2.09 2.445-3.027 2-2.415 3.947-4.775 5.967-6.913z" clip-rule="evenodd"/><path stroke="#231E2F" stroke-linecap="round" stroke-width=".99" d="M104.747 73.637c.65-1.47 2.729-4.056 2.729-4.056"/><path fill="#C2AFE9" fill-rule="evenodd" d="M135.122 124.542c.784-.55 1.479-1.235 2.15-1.93.674-.696 1.312-1.425 1.954-2.15a227.379 227.379 0 0 0 3.743-4.449 693.906 693.906 0 0 1 3.707-4.492c1.249-1.492 2.51-2.98 3.838-4.43l.001-.002a.298.298 0 0 1 .383-.036c.103.072.13.196.072.295-.967 1.666-2.052 3.264-3.187 4.837a83.44 83.44 0 0 1-3.591 4.61c-.632.748-1.261 1.499-1.93 2.226a50.411 50.411 0 0 1-2.042 2.157 34.21 34.21 0 0 1-2.211 2.045c-.784.644-1.598 1.282-2.588 1.747-.139.066-.312.02-.387-.103-.066-.108-.033-.24.073-.314l.015-.011z" clip-rule="evenodd"/><path fill="#E97286" fill-rule="evenodd" d="M114.963 124.262c-1.772 2.917-3.191 7.639-4.329 13.048v.003c-3.195 15.203-4.152 35.825-4.482 37.023-1.386 0-2.726-.066-4.016-.185-.231-14.414 6.751-45.791 12.827-49.889z" clip-rule="evenodd"/><path fill="#3D3450" fill-rule="evenodd" d="M259.101 62.705a33.503 33.503 0 0 1-11.993 6.82v.003c-2.808 1.346-6.343 3.082-10.969 5.204 5.217-4.273.864-5.584-7.729-5.006-2.019.136-4.277.376-6.695.703-4.894.667-10.465 1.706-16.137 2.996l-.004.004c-17.671 4.022-36.343 10.51-38.712 15.978-7.659-8.771 1.643-21.879 7.108-31.521 2.898-5.109 4.713-9.247 2.36-11.25-.65-.551-1.195-1.274-1.644-2.135v-.004c-4.224-8.157.617-28.894 13.91-38.392 7.316-5.227 23.453-8.223 39.854 0 16.401 8.224 6.738 24.005 18.242 28.549 5.328 2.104 6.23 2.601 9.465 6.302 5.153 5.895 4.398 14.975 2.944 21.75z" clip-rule="evenodd"/><path fill="#231E2F" fill-rule="evenodd" d="M247.108 69.525v.003c-2.808 1.346-6.342 3.082-10.969 5.204 5.217-4.273.865-5.584-7.729-5.006-2.019.136-4.276.376-6.695.703-.829-4.04.91-9.95 6.817-17.652 4.356 5.026 25.084-.505 18.576 16.748zm-41.531 3.9l-.003.004c-17.671 4.022-36.343 10.51-38.712 15.978-.62-3.923-1.208-15.86 4.884-21.344 6.095-5.482 11.065-2.188 14.507-8.505l19.324 13.867z" clip-rule="evenodd"/><path fill="#E97286" fill-rule="evenodd" d="M188.286 124.262c-1.859 11.571-5.025 47.688-5.025 47.688l21.52-1.849-4.19-47.207-12.305 1.368zm57.697-38.118c-10.359 38.804-34.621 40.738-41.115 15.909 5.205-12.652.971-30-.492-30.123a.072.072 0 0 1-.047-.016c-.807-.619 9.53-14.92 19.022-27.736.238 1.845.622 4.435 1.251 7.503 1.178 5.746 2.598 12.675 5.871 18.784 1.874 3.499 6.159 10.097 15.51 15.678z" clip-rule="evenodd"/><mask id="d" width="36" height="46" x="247" y="114" maskUnits="userSpaceOnUse"><path fill="#fff" fill-rule="evenodd" d="M247.09 114.24h34.953v45.416H247.09V114.24z" clip-rule="evenodd"/></mask><g mask="url(#d)"><path fill="#FFB0A8" fill-rule="evenodd" d="M282.043 161.191c-26.4 3.512-27.905-.352-34.953-34.288a139.524 139.524 0 0 1 17.958-9.382 126.41 126.41 0 0 1 4.231-1.736c2.716-1.054 4.31-1.545 4.31-1.545.178.732.356 1.496.534 2.284.947 4.15 1.914 9.005 2.832 13.951l.376 2.047c.072.411.148.823.221 1.235 2.498 13.87 4.491 27.434 4.491 27.434z" clip-rule="evenodd"/></g><path fill="#E97286" fill-rule="evenodd" d="M278.145 135.37c-5.967-.733-19.2 2.052-24.895 7.345-2.271-7.923 6.715-16.282 12.988-19.602.872-.462 1.69-.828 2.419-1.079a23.995 23.995 0 0 1 1.812-.564c1.95-.512 3.494-.488 4.844.7.947 3.927 1.914 8.52 2.832 13.2z" clip-rule="evenodd"/><path fill="#E97286" fill-rule="evenodd" d="M278.742 138.475c-4.465-.614-12.111-.512-18.718 1.438 4.393-3.378 13.22-4.181 18.497-2.606l.221 1.168z" clip-rule="evenodd"/><path fill="#00C6CD" fill-rule="evenodd" d="M258.928 160.654a217.06 217.06 0 0 1-38.936 10.97 216.965 216.965 0 0 1-28.086 3.263c1.669-7.418 1.471-13.239.955-17.243-.678-5.272-2.297-10.415-.161-16.668a21.058 21.058 0 0 1 2.186-4.527 839.326 839.326 0 0 0-13.217-6.141 651.54 651.54 0 0 0-5.339-2.403c3.158-9.494 5.884-16.305 8.6-21.232 2.63-4.772 5.25-7.782 8.256-9.755 6.93 12.969 11.032 6.026 8.28 1.4 6.828 7.054 6.026.84 3.848-5.189a147.53 147.53 0 0 1 3.983-.465c-3.917 12.065 15.777 34.601 34.587-7.441 24.149 5.306 29.489 12.612 36.607 39.039-13.17 4.356-25.628 12.543-25.628 12.543a14274.06 14274.06 0 0 1 4.065 23.849z" clip-rule="evenodd"/><path fill="#00C6CD" fill-rule="evenodd" d="M201.466 98.317c2.752 4.627-1.35 11.57-8.28-1.399 3.376-2.224 7.237-3.138 12.128-3.789 2.178 6.03 2.979 12.244-3.848 5.188z" clip-rule="evenodd"/><path fill="#97FCFF" fill-rule="evenodd" d="M205.703 104.307c1.107 2.035 2.909 3.554 4.864 4.703.501.275.987.568 1.511.796.26.117.51.251.776.355l.794.311c.262.111.533.196.804.283l.809.267c.549.144 1.095.299 1.65.416 2.22.453 4.494.632 6.736.424a20.826 20.826 0 0 0 6.509-1.598c2.074-.855 3.993-2.072 5.718-3.526a27.94 27.94 0 0 0 4.63-4.99c.087-.115.178-.225.26-.342l.238-.359.474-.719.477-.72c.161-.238.294-.495.442-.742l.87-1.5c.27-.512.516-1.037.78-1.554.56-1.02.965-2.114 1.454-3.176l.179-.401.154-.41.312-.82.642-1.641.318.09c-.277 1.146-.519 2.31-.859 3.445l-.54 1.698c-.096.281-.172.57-.285.846l-.325.832c-.222.553-.44 1.109-.675 1.658l-.779 1.617c-.136.267-.248.548-.404.804l-.455.778-.455.779-.229.39c-.079.128-.168.249-.253.375l-1.027 1.493c-.362.484-.763.94-1.144 1.412-.371.481-.814.9-1.233 1.342l-.636.657-.686.606a23.142 23.142 0 0 1-6.186 3.923 22.252 22.252 0 0 1-7.148 1.661c-2.447.13-4.911-.1-7.262-.744a21.005 21.005 0 0 1-6.583-3.051c-.97-.729-1.92-1.494-2.695-2.437-.784-.924-1.452-1.96-1.846-3.104l.304-.127z" clip-rule="evenodd"/><path fill="#169FBF" fill-rule="evenodd" d="M200.563 142.715c4.169 9.243 11.721 12.082 13.22 12.641-1.138-7.091 11.729-3.46 32.2 0-11.406 6.531-23.579-1.211-27.799 1.652-4.22 2.862-7.283 12.074-17.621-14.293z" clip-rule="evenodd"/><path stroke="#169FBF" stroke-width=".5" d="M200.563 142.715c4.169 9.243 11.721 12.082 13.22 12.641-1.138-7.091 11.729-3.46 32.2 0-11.406 6.531-23.579-1.211-27.799 1.652-4.22 2.862-7.283 12.074-17.621-14.293z" clip-rule="evenodd"/><path fill="#169FBF" fill-rule="evenodd" d="M204.283 155.114c4.497 7.264 7.593 9.545 12.644 4.82-5.865 8.147-9.321 3.395-12.644-4.82z" clip-rule="evenodd"/><path stroke="#169FBF" stroke-width=".5" d="M204.283 155.114c4.497 7.264 7.593 9.545 12.644 4.82-5.865 8.147-9.321 3.395-12.644-4.82z" clip-rule="evenodd"/><path fill="#E97286" fill-rule="evenodd" d="M201.466 98.317c2.752 4.627-1.35 11.57-8.28-1.399-3.006 1.973-5.627 4.983-8.256 9.755-3.997-8.594.306-17.655 1.323-22.72 1.112-5.535 5.303-.565 4.574 3.369 1.706-2.396 4.138-.281 4.871 0 2.131-4.624 3.012-4.323 5.768-1.78.986.915 2.63 4.221 3.848 7.587 2.178 6.03 2.979 12.243-3.848 5.188z" clip-rule="evenodd"/><path fill="#FFB0A8" fill-rule="evenodd" d="M186.254 12.57c-8.861 7.387-10.227 28.122 0 46.989 7.005 12.92 12.384 16.825 16.452 18.118 2.498.793 4.811.748 4.811.748 2.641-.183 4.773-.82 6.431-1.541 12.341-5.362 14.385-22.234 14.584-24.105-.493-3.711-2.765-17.427-14.841-28.366-11.043-10.002-23.478-11.52-27.437-11.843z" clip-rule="evenodd"/><path fill="#169FBF" fill-rule="evenodd" d="M190.927 134.576c3.594-17.184-1.907-37.686-1.7-9.219-2.94-6.593-4.996-13.307-4.996-13.307.096 10.339 3.101 18.44 6.696 22.526z" clip-rule="evenodd"/><path stroke="#169FBF" stroke-width=".5" d="M190.927 134.576c3.594-17.184-1.907-37.686-1.7-9.219-2.94-6.593-4.996-13.307-4.996-13.307.096 10.339 3.101 18.44 6.696 22.526z" clip-rule="evenodd"/><path fill="#6B608A" fill-rule="evenodd" d="M160.131 116.083c-3.652-7.618-3.754-8.101 8.999-9.287 12.754-1.186 10.928-1.909 14.24 4.37 3.313 6.279 13.489 29.072 16.372 34.258 2.882 5.186-1.346 5.693-6.84 5.033-5.495-.66-14.252-1.075-16.267-2.16-2.014-1.086-16.504-32.214-16.504-32.214z" clip-rule="evenodd"/><path fill="#3D3450" fill-rule="evenodd" d="M160.339 117.312c-3.499-7.399-3.598-7.867 8.499-8.959 12.097-1.093 10.361-1.801 13.532 4.298 3.172 6.1 12.931 28.233 15.689 33.272 2.758 5.038-1.251 5.511-6.468 4.847-5.217-.664-13.529-1.105-15.446-2.166-1.916-1.061-15.806-31.292-15.806-31.292z" clip-rule="evenodd"/><path fill="#584D74" fill-rule="evenodd" d="M165.3 113.906c-.321-1.568-2.43-2.457-3.72-1.657-.84.521-1.224 1.69-.935 2.694.343 1.19 1.617 2.099 2.92 1.762 1.271-.328 1.962-1.687 1.735-2.799z" clip-rule="evenodd"/><path fill="#231E2F" fill-rule="evenodd" d="M164.873 114.216c-.233-1.137-1.773-1.779-2.718-1.198-.614.379-.896 1.228-.686 1.955.249.863 1.179 1.521 2.132 1.274.929-.24 1.436-1.226 1.272-2.031z" clip-rule="evenodd"/><path fill="#FFB0A8" fill-rule="evenodd" d="M170.604 171.334c-13.991-25.986-23.774-46.632-8.381-46.989 15.392-.355 14.957.357 14.107 3.56 5.557 4.984 8.646 13.883.338 17.443.235 7.831-1.67 9.611-1.785 11.747 6.292 6.764 11.371 12.815 11.371 12.815-7.927 4.426-15.65 1.424-15.65 1.424zm91.377-8.898s-5.696 10.322-24.499 11.9c-.65-1.98-11.098-48.922-15.015-67.432 0 0-4.983-1.07-6.405-5.696 0 0-4.63.713-8.544-.356-.973-.265-1.858-1.013-2.63-2.07-2.35-3.197-3.689-9.223-3.422-13.24l-3.637-2.844c10.247-26.7 30.334 0 35.673 19.576 5.34 19.579 20.292 46.279 28.479 60.162z" clip-rule="evenodd"/><path fill="#3D3450" fill-rule="evenodd" d="M231.796 54.196c-9.144-2.089-16.331-2.686-20.701-16.83a35.154 35.154 0 0 1-.224-.75c-3.495-11.968-15.315-16.182-24.331-16.865-.159-.01-.314-.02-.466-.033-.009 0-.019-.003-.029 0-.003 0-.003 0-.006-.003h-.004c-1.993-.126-3.835-.077-5.402.099-.089-2.225 5.349-10.451 12.134-11.96 6.785-1.504 32.686 7.132 39.029 46.342z" clip-rule="evenodd"/><path fill="#E97286" fill-rule="evenodd" d="M176.33 127.905c-8.709 3.57-12.159 5.82-11.558 2.371.6-3.45 6.918-3.541 11.558-2.371zm37.453-47.644c-3.734-4.688-7.024-7.232-11.332 3.553 2.833.644 9.272-4.144 11.332-3.553z" clip-rule="evenodd"/><path fill="#fff" fill-rule="evenodd" d="M204.552 47.359c-2.695-6.064 8.03-8.496 9.464-2.449 1.433 6.047-6.166 9.87-9.464 2.449zM186.044 51.2c-2.803-7.71 6.647-8.362 8.81-2.156 2.162 6.206-6.873 7.486-8.81 2.157z" clip-rule="evenodd"/><path fill="#3D3450" fill-rule="evenodd" d="M172.215 34.188c-.285 6.5.142 11.057 3.417 13.62-7.12-2.99-4.648-12.602-3.417-13.62zm-4.906 28.949c-4.13 6.836-8.667 15.511-4.974 21-6.988-8.895 3.713-20.561 4.974-21zm76.461-35.142c1.494 4.004 14.856 6.021 15.795 15.633-.036-10.371-5.073-10.66-15.795-15.633zM97.396 25.047c4.906 2.636 7.443 6.068 4.563 12.169 6.022-7.707.265-13.183-4.563-12.169z" clip-rule="evenodd"/><path fill="#E97286" fill-rule="evenodd" d="M149.049 94.915c0 .105-.004.208-.01.31v.003c-.492.904-4.67 2.578-14.497 5.267-4.564-1.086-2.333-2.422 2.577-1.977 4.871.443 11.93-3.418 11.93-3.603z" clip-rule="evenodd"/><path fill="#2E263D" fill-rule="evenodd" d="M188.925 51.409c-2.781-3.01 1.019-4.425 2.538-2.02 1.518 2.405-.98 3.706-2.538 2.02zM207.78 48c-2.484-3.288 1.648-4.006 2.902-1.492 1.254 2.513-1.511 3.334-2.902 1.492z" clip-rule="evenodd"/><path fill="#E97286" fill-rule="evenodd" d="M201.165 56.576c-7.585-.062-6.852.33-5.1 4.285 1.753 3.956 3.33 2.802 6.66 0s3.595-4.243-1.56-4.285z" clip-rule="evenodd"/><path fill="#231E2F" fill-rule="evenodd" d="M198.076 50.46c.402.76.526 1.606.585 2.416.055.816.042 1.63-.03 2.434-.069.804-.193 1.6-.357 2.388a14.164 14.164 0 0 1-.678 2.324.169.169 0 0 1-.325-.058v-.003c-.019-.807.018-1.602.07-2.392.051-.79.109-1.575.183-2.356l.2-2.335c.056-.776.105-1.544.04-2.311l-.001-.014a.166.166 0 1 1 .313-.092z" clip-rule="evenodd"/><path fill="#3D3450" fill-rule="evenodd" d="M181.21 41.046c5.511 9.071 7.491 17.85 2.957 20.994-4.534 3.145-8.131-30.363-7.817-32.475.313-2.112 3.6-18.015 12.662-11.111-.951.244-1.964.802-2.964 1.604-4.227 3.376-8.23 11.095-6.164 18.005a12.754 12.754 0 0 0 1.326 2.983z" clip-rule="evenodd"/><path fill="#201C2C" fill-rule="evenodd" d="M199.616 69.14c.76-.315 1.566-.43 2.358-.494a14.753 14.753 0 0 1 2.373.008c.786.058 1.566.167 2.335.332.769.168 1.53.374 2.271.698l-.055.326c-.794.076-1.573.073-2.347.051a42.502 42.502 0 0 1-2.305-.14c-.764-.067-1.525-.139-2.284-.222-.76-.075-1.514-.165-2.292-.233l-.054-.326z" clip-rule="evenodd"/><path fill="#231E2F" fill-rule="evenodd" d="M199.138 35.746c1.313-4.832 7.18-7.127 12.986-1.552-6.325-1.656-14.382 6.684-12.986 1.552zm-8.882 3.906c-.537-5.866-11.053-3.811-11.169 2.473 3.431-2.736 11.304-.993 11.169-2.473z" clip-rule="evenodd"/><path fill="#E97286" fill-rule="evenodd" d="M166.443 137.208c.963-.555 1.929-1.032 2.877-1.554l2.846-1.531c.947-.514 1.895-1.027 2.862-1.519.965-.494 1.942-.979 2.97-1.405l.004-.002a.169.169 0 0 1 .191.268c-.75.849-1.607 1.56-2.503 2.215a22.646 22.646 0 0 1-2.833 1.744c-.981.519-2.007.96-3.057 1.332-1.054.361-2.143.641-3.259.767a.168.168 0 0 1-.103-.312l.005-.003zm5.742 5.926c.598-.812 1.293-1.515 1.994-2.202.348-.347.711-.675 1.065-1.012l1.084-.98a207.99 207.99 0 0 0 2.161-1.939c.35-.328.702-.653 1.019-.998.163-.17.309-.348.441-.528.124-.179.231-.37.231-.526l-.001-.046a.162.162 0 0 1 .314-.058c.126.33.025.627-.062.879a4.692 4.692 0 0 1-.36.703c-.275.437-.582.839-.909 1.218-.648.765-1.361 1.455-2.089 2.122-.364.333-.742.649-1.115.969-.383.309-.76.623-1.153.919a45.166 45.166 0 0 1-2.389 1.714l-.004.002a.166.166 0 0 1-.227-.237z" clip-rule="evenodd"/><path fill="#169FBF" fill-rule="evenodd" d="M254.861 136.805c-2.22-14.222-2.22-25.299.826-24.606 3.047.692 2.216 13.223 1.385 17.411 5.539-12.011 10.939-16.303 10.939-16.303-7.477 14.123-8.714 19.303-13.15 23.498z" clip-rule="evenodd"/><path stroke="#169FBF" stroke-width=".5" d="M254.861 136.805c-2.22-14.222-2.22-25.299.826-24.606 3.047.692 2.216 13.223 1.385 17.411 5.539-12.011 10.939-16.303 10.939-16.303-7.477 14.123-8.714 19.303-13.15 23.498z" clip-rule="evenodd"/><path fill="#231E2F" fill-rule="evenodd" d="M242.223 54.986c5.301 2.061 9.719 3.681 7.363 10.308 5.302-9.278-.393-10.599-7.363-10.308z" clip-rule="evenodd"/><path fill="#C2AFE9" fill-rule="evenodd" d="M37.904 152.457c2.058-1.561 4.285-2.87 6.576-4.044a55.033 55.033 0 0 1 7.12-3.036c2.448-.841 4.98-1.506 7.586-1.825.325-.043.652-.075.98-.103.327-.032.655-.057.985-.07.329-.017.66-.022.99-.019.33-.005.661.003.993.02 1.321.077 2.657.267 3.913.725a.48.48 0 0 1-.21.927l-.008-.001c-2.45-.235-4.894.079-7.315.554-2.418.501-4.816 1.173-7.192 1.949a126.755 126.755 0 0 0-7.078 2.567 231.599 231.599 0 0 0-7.003 2.925l-.003.001a.332.332 0 0 1-.334-.57z" clip-rule="evenodd"/><path fill="#E97286" fill-rule="evenodd" d="M200.507 90.592a15.461 15.461 0 0 1 2.632-1.627 30.048 30.048 0 0 1 2.809-1.227c.953-.36 1.916-.682 2.89-.963a31.91 31.91 0 0 1 2.962-.7.312.312 0 0 1 .141.607l-.01.002c-.946.26-1.893.584-2.822.922-.931.34-1.846.719-2.742 1.13a28.82 28.82 0 0 0-2.61 1.363c-.843.496-1.639 1.047-2.445 1.578l-.02.014a.677.677 0 0 1-.785-1.1zm2.55 4.426c1.669.021 3.352-.012 5.033-.065.841-.026 1.683-.06 2.523-.098l1.261-.064.629-.039.312-.022.152-.014.064-.005c.003 0 .006.004.012.011l.263.276a.09.09 0 0 1-.033.147 1.13 1.13 0 0 1-.142.044l-.092.017-.162.028-.315.051-.629.093-1.257.173c-.838.111-1.677.218-2.517.317-1.681.198-3.363.377-5.064.502a.676.676 0 1 1-.043-1.352h.005z" clip-rule="evenodd"/><path fill="#231E2F" fill-rule="evenodd" d="M203.724 42.812a1.178 1.178 0 0 1-.015-.791c.033-.124.091-.237.157-.346.062-.11.121-.223.197-.326a4.82 4.82 0 0 1 1.03-1.125c.803-.636 1.784-.992 2.763-1.12a6.53 6.53 0 0 1 2.922.291 4.91 4.91 0 0 1 1.327.698c.408.3.767.715.962 1.22l-.61.024.941-2.256a.166.166 0 1 1 .313.107l-.635 2.36a.315.315 0 0 1-.57.088l-.041-.064c-.371-.67-1.154-1.1-1.959-1.316a6.088 6.088 0 0 0-2.512-.151c-.833.12-1.627.427-2.273.921a3.788 3.788 0 0 0-.833.88c-.119.166-.212.347-.323.522a1.667 1.667 0 0 1-.526.484l-.016.009a.207.207 0 0 1-.283-.077.217.217 0 0 1-.016-.032zm-15.243 1.416c-.419.007-.843.012-1.23.104-.389.085-.749.224-1.043.439a2.211 2.211 0 0 0-.692.848c-.168.35-.279.75-.379 1.177l-.065.156a.409.409 0 0 1-.535.22l-2.015-.84a.165.165 0 0 1 .077-.32l.014.002 2.148.18-.601.377c.105-.45.231-.926.453-1.39a3.212 3.212 0 0 1 1.003-1.221c.436-.32.936-.505 1.425-.61.493-.115.978-.12 1.459-.128a.503.503 0 0 1 .013 1.006h-.032z" clip-rule="evenodd"/><path fill="#3D3450" fill-rule="evenodd" d="M219.485 52.203c5.001 3.711 27.369 3.127 24.341 10.674-3.992-5.166-16.535-2.733-24.341-10.675z" clip-rule="evenodd"/><path fill="#DB536B" fill-rule="evenodd" d="M191.326 91.875c.329.436.589.898.823 1.37.239.47.443.953.626 1.444.182.492.345.99.474 1.504a8.94 8.94 0 0 1 .285 1.58l.001.007a.275.275 0 0 1-.49.19 8.946 8.946 0 0 1-.857-1.357 14.601 14.601 0 0 1-.666-1.434 13.93 13.93 0 0 1-.515-1.495 8.54 8.54 0 0 1-.318-1.568.353.353 0 0 1 .633-.246l.004.005zm6.26-1.877c.529.583.972 1.223 1.38 1.88a23.6 23.6 0 0 1 1.112 2.023c.337.69.652 1.39.934 2.104.282.714.542 1.436.741 2.187a.317.317 0 0 1-.574.25c-.823-1.293-1.519-2.642-2.209-3.988a90.344 90.344 0 0 1-1-2.033 55.012 55.012 0 0 1-.941-2.06l-.001-.004a.336.336 0 0 1 .558-.36z" clip-rule="evenodd"/><path fill="#231E2F" fill-rule="evenodd" d="M236.282 29.162c3.279 7.004 20.805 7.613 20.224 22.663-.2 3.912-.82 2.964-3.91-3.59-3.089-6.555-16.004-4.906-17.975-14.982s.575-5.705 1.661-4.09z" clip-rule="evenodd"/><path fill="#231E2F" fill-rule="evenodd" d="M226.62 14.563c-1.199 5.657 6.848 20.627 7.293 21.085 4.353 4.481 5.884 7.198 5.11 8.918-1.242-4.31-3.537-5.842-5.869-7.416-1.856-1.252-3.736-2.53-5.129-5.255-3.142-6.147-1.405-17.332-1.405-17.332zm-46.736 23.5c-6.719-7.541-1.254-18.012 6.151-18.349 0 0 .013.116.013.344-4.227 3.376-8.23 11.095-6.164 18.005zm-5.914 19.823c2.897-5.109 4.712-9.247 2.36-11.25-.65-.551-1.195-1.274-1.644-2.136 2.314 2.944 4.264.532 4.403 3.967.135 3.432-3.627 6.851-5.119 9.419z" clip-rule="evenodd"/><path fill="#E97286" fill-rule="evenodd" d="M87.421 53.256c-2.402-13.86-13.563-16.042-20.242-6.208.026-.128.056-.26.082-.385.004-.01.004-.02.007-.027 1.65-6.983 9.016-9.686 11.54-9.422 2.825.294 10.778 7.257 8.613 16.042zm11.148-12.537c-2.327-3.448-5.08-2.997-7.39-2.749-.425-1.244-1.029-2.096-1.464-2.663a.184.184 0 0 0-.017-.02c4.58.122 8.28 2.452 8.818 5.112.02.106.036.211.052.32z" clip-rule="evenodd"/><path fill="#231E2F" fill-rule="evenodd" d="M186.038 19.715c.013 0 .023.003.036.003-.009 0-.019-.003-.029 0-.003 0-.003 0-.007-.003zm25.084 17.675c-.01-.007-.017-.017-.027-.024a30.557 30.557 0 0 1-.224-.749c-3.495-11.969-15.315-16.183-24.331-16.866 7.943.442 23.305-4.541 24.582 17.638z" clip-rule="evenodd"/><path fill="#231E2F" fill-rule="evenodd" d="M201.096 19.561c7.068 2.238 10.098 4.848 11.028 14.633 1.943-12.763-4.815-13.55-11.028-14.633zm-14.648-1.463C190.709 7.07 196.222 2.4 209.181 2.652c-8.752 2.777-14.536 6.528-14.536 6.528 6.541-1.858 14.786-5.013 4.226 1.93-10.182 6.69-4.567-2.306-12.423 6.988z" clip-rule="evenodd"/><path fill="#231E2F" fill-rule="evenodd" d="M205.608 5.823c3.871-.509 10.48-.34 13.785 1.949-3.644-3.729-8.504-5.508-13.785-1.95zm-5.87 55.175a3.83 3.83 0 0 1 1.063-.377c.365-.08.735-.121 1.108-.134.373-.01.748.003 1.124.07.371.073.767.16 1.103.466a.164.164 0 0 1-.152.279l-.042-.011c-.283-.076-.628-.085-.969-.087-.342.002-.69.01-1.038.026-.698.03-1.393.064-2.106.086h-.004a.168.168 0 0 1-.174-.165.169.169 0 0 1 .087-.153z" clip-rule="evenodd"/><path fill="#FFF2EC" fill-rule="evenodd" d="M146.462 38.016c1.318 6.996 2.659 17.488.033 17.973-2.626.484-7.114-14.566-8.249-17.263-1.809-4.304 6.897-7.705 8.216-.71zm4.529 25.329c-.277 3.799-5.694 3.354-5.976-.27-.367-4.701 6.255-3.529 5.976.27z" clip-rule="evenodd"/><path fill="#E97286" fill-rule="evenodd" d="M202.812 74.057c1.216-1.336 2.794-2.464 4.663-2.937a8.366 8.366 0 0 1 2.862-.218c.957.096 1.891.34 2.759.7 1.747.715 3.281 1.767 4.671 2.929 1.393 1.163 2.663 2.435 3.862 3.77l-.218.248c-1.477-1.023-2.883-2.12-4.328-3.122-1.446-.994-2.922-1.927-4.495-2.546-1.567-.616-3.228-.89-4.866-.608-1.643.269-3.204 1.066-4.694 2.034l-.216-.25z" clip-rule="evenodd"/><path fill="#00C6CD" fill-rule="evenodd" d="M265.756 89.407c7.561 3.636 15.012 16.363 16.761 25.609-.729-21.179-14.017-26.258-16.761-25.609z" clip-rule="evenodd"/><path fill="#E97286" fill-rule="evenodd" d="M182.49 102.502c-2.253-7.913 1.743-13.91 1.743-13.91-5.228 3.878-3.911 12.005-1.743 13.91z" clip-rule="evenodd"/><path fill="#169FBF" fill-rule="evenodd" d="M258.771 122.135c3.609-9.269-.293-12.685-3.123-13.465 2.635 2.537 4.441 8.534 3.123 13.465z" clip-rule="evenodd"/><path stroke="#169FBF" stroke-width=".5" d="M255.648 108.67c2.635 2.537 4.441 8.534 3.123 13.465 3.609-9.269-.293-12.685-3.123-13.465z" clip-rule="evenodd"/></g></g></svg>