<?xml version="1.0" encoding="UTF-8"?>
<svg xmlns="http://www.w3.org/2000/svg" xmlns:xlink="http://www.w3.org/1999/xlink" viewBox="0 0 16 16" width="2400" height="2400"><defs><path id="a" d="M12 4a8 8 0 1 1 0 16 8 8 0 0 1 0-16zm2.293 5.293L11 12.586l-1.293-1.293a1 1 0 1 0-1.414 1.414l2 2a1 1 0 0 0 1.414 0l4-4a1 1 0 1 0-1.414-1.414z" style="fill: #00c572;"/></defs><g fill="none" fill-rule="evenodd" transform="translate(-4 -4)"><path fill="none" d="M0 0h24v24H0z"/><path fill="none" d="M4 4h16v16H4z"/><use fill="#594D75" xlink:href="#a"/></g></svg>
